<svg width="62" height="62" viewBox="0 0 62 62" fill="none" xmlns="http://www.w3.org/2000/svg">
<path d="M44.9022 14.8567C44.6117 14.8567 44.3835 14.6285 44.3835 14.338V8.54885C44.3835 6.45313 43.1385 5.04215 41.2918 5.04215C39.5488 5.04215 38.2001 6.93037 38.2001 8.54885C38.2001 8.83934 37.9718 9.06759 37.6813 9.06759C37.3908 9.06759 37.1626 8.83934 37.1626 8.54885C37.1626 6.41163 38.9263 4.00467 41.2918 4.00467C43.7195 4.00467 45.421 5.87214 45.421 8.54885V14.338C45.421 14.6285 45.1927 14.8567 44.9022 14.8567Z" fill="#009DD6"/>
<path d="M52.8075 28.4063H37.017C36.7888 28.4063 36.602 28.261 36.519 28.0535L32.6181 16.2677C32.5558 16.0602 32.6181 15.832 32.8048 15.6867C32.9916 15.5622 33.2198 15.5415 33.4066 15.666C33.4481 15.6867 37.4112 18.3634 40.8142 17.4505C42.3704 17.0355 43.5739 15.915 44.4454 14.1305C44.4454 14.1098 44.4661 14.089 44.4869 14.0683C44.5906 13.8815 44.8189 13.7778 45.0264 13.8193C45.2131 13.8608 45.3584 13.9853 45.4206 14.172C46.2713 15.9357 47.4956 17.0562 49.0311 17.4712C52.434 18.3842 56.3764 15.7075 56.4179 15.6867C56.6047 15.5622 56.8537 15.5622 57.0197 15.7075C57.2064 15.832 57.2687 16.081 57.2064 16.2885L53.3055 28.0743C53.2225 28.261 53.0357 28.4063 52.8075 28.4063ZM37.3905 27.3688H52.434L55.7954 17.243C54.2392 18.0522 51.4173 19.1727 48.7613 18.4672C47.1636 18.0314 45.8771 17.0147 44.9226 15.4377C43.9474 17.0147 42.6609 18.0314 41.0839 18.4672C38.428 19.1727 35.606 18.0522 34.0498 17.243L37.3905 27.3688Z" fill="#009DD6"/>
<path d="M44.902 28.4063C44.6115 28.4063 44.3833 28.178 44.3833 27.8875V14.338C44.3833 14.0475 44.6115 13.8192 44.902 13.8192C45.1925 13.8192 45.4208 14.0475 45.4208 14.338V27.8875C45.4208 28.178 45.1925 28.4063 44.902 28.4063Z" fill="#009DD6"/>
<path d="M12.0347 18.6124C11.0595 18.6124 10.271 17.8239 10.271 16.8487C10.271 15.8735 11.0595 15.085 12.0347 15.085C13.01 15.085 13.7984 15.8735 13.7984 16.8487C13.7984 17.8239 13.01 18.6124 12.0347 18.6124ZM12.0347 16.1225C11.6405 16.1225 11.3085 16.4545 11.3085 16.8487C11.3085 17.243 11.6405 17.575 12.0347 17.575C12.429 17.575 12.761 17.243 12.761 16.8487C12.761 16.4545 12.429 16.1225 12.0347 16.1225Z" fill="#FB6330"/>
<path d="M30.5018 28.4063H12.7401C12.5326 28.4063 12.3459 28.2818 12.2629 28.095L7.71868 17.492C7.40743 16.7657 7.38668 15.9357 7.69793 15.1887C8.00917 14.4417 8.56941 13.8608 9.29565 13.5495L19.712 9.08834C20.4382 8.77709 21.2682 8.75634 22.0152 9.06759C22.7622 9.35808 23.3432 9.93907 23.6544 10.6653L30.9583 27.7008C31.0206 27.8668 31.0206 28.0535 30.9168 28.1988C30.8338 28.3233 30.6678 28.4063 30.5018 28.4063ZM13.0928 27.3688H29.7133L22.7207 11.0596C22.5132 10.5823 22.1397 10.2088 21.6417 10.0013C21.1437 9.81457 20.625 9.81457 20.127 10.0221L9.71065 14.504C9.2334 14.7115 8.85991 15.085 8.65241 15.583C8.46567 16.081 8.46567 16.5997 8.67316 17.0977L13.0928 27.3688Z" fill="#FB6330"/>
<path d="M45.2134 58.0576H16.6618C10.3747 58.0576 5.24951 52.9324 5.24951 46.6452V27.8875C5.24951 27.5971 5.47776 27.3688 5.76825 27.3688H56.1069C56.3974 27.3688 56.6257 27.5971 56.6257 27.8875V46.6452C56.6257 52.9531 51.5005 58.0576 45.2134 58.0576ZM6.287 28.4063V46.6452C6.287 52.3722 10.9349 57.0201 16.6618 57.0201H45.2134C50.9403 57.0201 55.5882 52.3722 55.5882 46.6452V28.4063H6.287Z" fill="#7949B8"/>
<path d="M30.5016 28.4063H12.7399C12.4494 28.4063 12.2212 28.178 12.2212 27.8875C12.2212 27.5971 12.4494 27.3688 12.7399 27.3688H30.5016C30.7921 27.3688 31.0204 27.5971 31.0204 27.8875C31.0204 28.178 30.7714 28.4063 30.5016 28.4063Z" fill="#7949B8"/>
<path d="M30.9792 53.2229C30.4604 53.2229 29.9832 53.0569 29.5889 52.7041C29.1739 52.3514 28.9664 51.8534 28.9664 51.2309C28.9664 50.6707 29.1739 50.1934 29.5474 49.8199C29.9417 49.4464 30.4189 49.2389 30.9792 49.2389C31.5394 49.2389 32.0166 49.4257 32.3901 49.8199C32.7636 50.1934 32.9711 50.6707 32.9711 51.2309C32.9711 51.8534 32.7636 52.3306 32.3486 52.7041C31.9544 53.0569 31.4979 53.2229 30.9792 53.2229ZM30.9792 50.2764C30.6887 50.2764 30.4604 50.3594 30.2737 50.5462C30.0869 50.7329 30.0039 50.9404 30.0039 51.2309C30.0039 51.6459 30.1492 51.8327 30.2737 51.9364C30.4812 52.1231 30.7094 52.2061 30.9792 52.2061C31.2489 52.2061 31.4564 52.1231 31.6639 51.9364C31.7884 51.8327 31.9336 51.6459 31.9336 51.2309C31.9336 50.9612 31.8506 50.7329 31.6639 50.5462C31.4564 50.3594 31.2489 50.2764 30.9792 50.2764ZM30.8547 48.5542C30.3774 48.5542 29.9624 48.3882 29.6304 48.077C29.2984 47.745 29.1117 47.2885 29.1117 46.7075C29.1117 46.085 29.2154 45.5455 29.4022 45.0683C29.5889 44.6118 29.8587 44.1968 30.1907 43.844C30.4812 43.5328 30.8754 43.1385 31.3734 42.7235C31.7884 42.3708 32.0789 42.0803 32.2656 41.9143C32.4109 41.7691 32.5561 41.5823 32.6599 41.3956C32.7429 41.2503 32.7844 41.0843 32.7844 40.8976C32.7844 40.5033 32.6599 40.2128 32.3694 39.9431C32.0789 39.6733 31.6846 39.5281 31.2074 39.5281C30.6264 39.5281 30.2322 39.6526 29.9832 39.9016C29.6927 40.2128 29.4437 40.6901 29.2362 41.3333C28.8419 42.6198 27.9704 42.8065 27.4725 42.8065C26.9537 42.8065 26.518 42.6198 26.1652 42.2671C25.8125 41.9143 25.6465 41.4993 25.6465 41.0636C25.6465 40.3373 25.8747 39.6111 26.3312 38.8849C26.7877 38.1794 27.431 37.5776 28.2817 37.1211C29.1324 36.6646 30.1077 36.4156 31.2281 36.4156C32.2656 36.4156 33.1786 36.6024 33.9879 36.9966C34.7971 37.3909 35.4403 37.9304 35.8968 38.6151C36.3533 39.2999 36.5816 40.0676 36.5816 40.8768C36.5816 41.5201 36.4363 42.1011 36.1873 42.5991C35.9383 43.0555 35.6271 43.4705 35.2743 43.8233C34.9631 44.1345 34.3821 44.6533 33.5729 45.3795C33.3654 45.5663 33.1994 45.7323 33.0749 45.8775C32.9504 46.0227 32.8674 46.1265 32.8466 46.1887C32.8051 46.2925 32.7636 46.3755 32.7221 46.4792C32.6806 46.6037 32.6391 46.8112 32.5769 47.1225C32.3694 48.0355 31.7676 48.5542 30.8547 48.5542ZM31.2074 38.5114C31.9544 38.5114 32.5769 38.7396 33.0749 39.1961C33.5729 39.6526 33.8219 40.2336 33.8219 40.9183C33.8219 41.2711 33.7389 41.6238 33.5729 41.9143C33.4276 42.1841 33.2409 42.4331 33.0126 42.6613C32.8259 42.848 32.5146 43.1385 32.0789 43.512C31.6224 43.927 31.2489 44.2798 30.9792 44.5703C30.7302 44.84 30.5434 45.1305 30.3982 45.4833C30.2529 45.8152 30.1907 46.2302 30.1907 46.7075C30.1907 46.998 30.2529 47.2055 30.3774 47.33C30.5227 47.4545 30.6679 47.5167 30.8754 47.5167C31.2281 47.5167 31.4564 47.413 31.5394 46.915V46.8942C31.6224 46.5622 31.6639 46.334 31.7054 46.1887C31.7469 46.0227 31.8091 45.8567 31.8921 45.7115C31.9751 45.5455 32.0996 45.3795 32.2656 45.1928C32.4109 45.0268 32.5976 44.84 32.8466 44.6118C33.6559 43.8855 34.2161 43.3875 34.5066 43.0763C34.7763 42.8065 35.0253 42.4746 35.2121 42.1011C35.3988 41.7483 35.4818 41.3541 35.4818 40.8768C35.4818 40.2543 35.3158 39.7148 34.9631 39.1961C34.6103 38.6774 34.1124 38.2416 33.4691 37.9511C32.8051 37.6399 32.0374 37.4739 31.1659 37.4739C30.2322 37.4739 29.4022 37.6606 28.7174 38.0341C28.0327 38.4076 27.4932 38.8849 27.1612 39.4451C26.8085 40.0053 26.6425 40.5448 26.6425 41.0636C26.6425 41.1673 26.6632 41.3333 26.8707 41.5408C27.016 41.7068 27.2027 41.7691 27.431 41.7691C27.7007 41.7691 28.0119 41.6861 28.1987 41.0221C28.4684 40.2128 28.7797 39.6318 29.1947 39.1961C29.6719 38.7396 30.3359 38.5114 31.2074 38.5114Z" fill="#7949B8"/>
</svg>
