<svg width="64" height="61" viewBox="0 0 64 61" fill="none" xmlns="http://www.w3.org/2000/svg">
<path d="M59.1594 52.7115H55.7323C55.2825 52.7115 54.897 52.3645 54.897 51.9153V19.3738C54.897 18.9451 55.2611 18.5776 55.7323 18.5776H59.1594C59.6092 18.5776 59.9947 18.9247 59.9947 19.3738V51.9153C59.9733 52.3645 59.6092 52.7115 59.1594 52.7115ZM55.9679 51.6908H58.9023V19.5984H55.9679V51.6908Z" fill="#F2609E"/>
<path d="M36.9479 22.4769H26.9666C25.2531 22.4769 23.8608 21.1499 23.8608 19.5167V10.5954C23.8608 8.96217 25.2531 7.63519 26.9666 7.63519H36.9479C38.6614 7.63519 40.0536 8.96217 40.0536 10.5954V19.5167C40.0536 21.1499 38.6614 22.4769 36.9479 22.4769ZM26.9666 8.65594C25.8528 8.65594 24.9318 9.53379 24.9318 10.5954V19.5167C24.9318 20.5783 25.8528 21.4561 26.9666 21.4561H36.9479C38.0616 21.4561 38.9827 20.5783 38.9827 19.5167V10.5954C38.9827 9.53379 38.0616 8.65594 36.9479 8.65594H26.9666Z" fill="#F2609E"/>
<path d="M32.2142 19.2513C31.9143 19.2513 31.6787 19.0267 31.6787 18.7409V11.6978C31.6787 11.4119 31.9143 11.1874 32.2142 11.1874C32.514 11.1874 32.7497 11.4119 32.7497 11.6978V18.7613C32.7497 19.0267 32.514 19.2513 32.2142 19.2513Z" fill="#009DD6"/>
<path d="M35.9201 15.7195H28.5091C28.2092 15.7195 27.9736 15.495 27.9736 15.2092C27.9736 14.9234 28.2092 14.6988 28.5091 14.6988H35.9201C36.22 14.6988 36.4556 14.9234 36.4556 15.2092C36.4556 15.495 36.22 15.7195 35.9201 15.7195Z" fill="#009DD6"/>
<path d="M14.2439 47.1178C14.1154 47.1178 13.9655 47.0769 13.8584 46.9749C13.6442 46.7707 13.6442 46.4441 13.8584 46.2603L23.604 36.9715C23.8182 36.7674 24.1609 36.7674 24.3537 36.9715C24.5679 37.1757 24.5679 37.5023 24.3537 37.686L14.6081 46.9544C14.501 47.0565 14.3725 47.1178 14.2439 47.1178Z" fill="#7949B8"/>
<path d="M18.1634 47.1178C18.0349 47.1178 17.8849 47.0769 17.7778 46.9749C17.5636 46.7707 17.5636 46.4441 17.7778 46.2603L27.5235 36.9715C27.7377 36.7674 28.0804 36.7674 28.2731 36.9715C28.4873 37.1757 28.4873 37.5023 28.2731 37.686L18.5489 46.9544C18.4418 47.0565 18.3133 47.1178 18.1634 47.1178Z" fill="#7949B8"/>
<path d="M55.4328 38.4414C55.2829 38.4414 40.5252 38.4414 39.39 38.4414C39.0901 38.4414 38.8545 38.2168 38.8545 37.931C38.8545 37.6452 39.0901 37.4207 39.39 37.4207C40.5252 37.4207 55.2829 37.4207 55.4328 37.4207C55.7327 37.4207 55.9683 37.6452 55.9683 37.931C55.9683 38.1964 55.7327 38.4414 55.4328 38.4414Z" fill="#F2609E"/>
<path d="M55.4328 49.0164C55.2829 49.0164 40.5252 49.0164 39.39 49.0164C39.0901 49.0164 38.8545 48.7918 38.8545 48.506C38.8545 48.2202 39.0901 47.9956 39.39 47.9956C40.5252 47.9956 55.2829 47.9956 55.4328 47.9956C55.7327 47.9956 55.9683 48.2202 55.9683 48.506C55.9683 48.7918 55.7327 49.0164 55.4328 49.0164Z" fill="#F2609E"/>
<path d="M55.4328 52.7115C55.2829 52.7115 40.5252 52.7115 39.39 52.7115C39.0901 52.7115 38.8545 52.4869 38.8545 52.2011C38.8545 51.9153 39.0901 51.6908 39.39 51.6908C40.5252 51.6908 55.2829 51.6908 55.4328 51.6908C55.7327 51.6908 55.9683 51.9153 55.9683 52.2011C55.9683 52.4869 55.7327 52.7115 55.4328 52.7115Z" fill="#F2609E"/>
<path d="M49.0286 38.4414C48.6645 38.4414 48.3003 38.3598 48.0219 38.2169C47.5721 37.9923 47.2936 37.6248 47.2294 37.2165C47.208 37.0124 47.2508 36.8286 47.3793 36.6653C47.6149 36.3999 48.0219 36.3387 48.3432 36.3183C49.1143 36.257 51.3204 35.1546 52.5199 34.4605C52.5413 34.4401 52.5627 34.4401 52.5841 34.4401C53.5908 34.0114 54.4048 33.991 54.9402 34.3993C55.6899 34.9505 55.6256 35.9916 55.5828 36.2774C55.6256 36.8491 55.4971 37.2574 55.2187 37.5432C54.8117 37.9515 54.2548 37.9311 53.805 37.9311C53.6337 37.9311 53.4837 37.9311 53.3552 37.9311L49.3713 38.4414C49.2642 38.421 49.1357 38.4414 49.0286 38.4414ZM48.5359 37.3186C48.7287 37.4003 48.9643 37.4411 49.2214 37.4003L53.2053 36.8899C53.4195 36.8695 53.6123 36.8695 53.8264 36.8695C54.0621 36.8695 54.3833 36.8899 54.4476 36.8082C54.469 36.7878 54.5547 36.6857 54.5119 36.257C54.5119 36.2162 54.5119 36.1754 54.5119 36.155C54.5547 35.91 54.5333 35.3588 54.2762 35.175C54.0621 35.0321 53.6123 35.073 53.0339 35.3384C52.5841 35.6037 49.8639 37.1553 48.5359 37.3186Z" fill="#F2609E"/>
<path d="M48.2144 36.8286C47.786 36.8286 47.3791 36.7674 46.9507 36.6449C45.8583 36.3183 44.9801 35.6241 44.4447 34.6646C43.9092 33.7051 43.8021 32.6027 44.1448 31.582C44.4875 30.5408 45.2157 29.7038 46.2224 29.1934C47.2291 28.683 48.3857 28.581 49.4567 28.9076C50.5491 29.2343 51.4272 29.9284 51.9627 30.8879C52.4982 31.8474 52.6053 32.9498 52.2626 33.9705C51.7057 35.7058 50.0136 36.8286 48.2144 36.8286ZM48.2144 29.7446C47.7003 29.7446 47.2077 29.8671 46.7365 30.0917C45.9868 30.4592 45.4299 31.092 45.1729 31.8678C44.9159 32.6436 45.0015 33.4602 45.3871 34.1747C45.7726 34.8892 46.4366 35.42 47.2505 35.665C48.9212 36.1549 50.7204 35.2771 51.2345 33.6643C51.7485 32.0719 50.8275 30.3571 49.1354 29.8671C48.8355 29.7855 48.5357 29.7446 48.2144 29.7446Z" fill="#009DD6"/>
<path d="M42.8169 37.3594H39.3685C39.0686 37.3594 38.833 37.1348 38.833 36.849V32.9293C38.833 32.6435 39.0686 32.419 39.3685 32.419H42.8169C44.252 32.419 45.4086 33.5214 45.4086 34.8892C45.4086 36.257 44.252 37.3594 42.8169 37.3594ZM39.9254 36.3386H42.8384C43.6737 36.3386 44.3591 35.6854 44.3591 34.8892C44.3591 34.093 43.6737 33.4397 42.8384 33.4397H39.9254V36.3386Z" fill="#009DD6"/>
<path d="M39.3898 52.7115H4.77669C4.47682 52.7115 4.24121 52.4869 4.24121 52.2011V33.991C4.24121 32.3169 5.67628 30.9491 7.43264 30.9491H39.3898C39.6897 30.9491 39.9253 31.1737 39.9253 31.4595V52.2011C39.9253 52.4869 39.6897 52.7115 39.3898 52.7115ZM5.31216 51.6908H38.8543V31.9699H7.43264C6.2546 31.9699 5.31216 32.8681 5.31216 33.991V51.6908Z" fill="#F2609E"/>
<path d="M34.7845 52.2215C34.4846 52.2215 34.249 51.997 34.249 51.7112V31.4595C34.249 31.1737 34.4846 30.9491 34.7845 30.9491C35.0844 30.9491 35.32 31.1737 35.32 31.4595V51.7112C35.32 51.997 35.0629 52.2215 34.7845 52.2215Z" fill="#F2609E"/>
</svg>
