<?xml version="1.0" encoding="utf-8"?>
<!-- Generator: Adobe Illustrator 24.1.1, SVG Export Plug-In . SVG Version: 6.00 Build 0)  -->
<svg version="1.1" id="Capa_1" xmlns="http://www.w3.org/2000/svg" xmlns:xlink="http://www.w3.org/1999/xlink" x="0px" y="0px"
	 viewBox="0 0 168 89" style="enable-background:new 0 0 168 89;" xml:space="preserve">
<style type="text/css">
	.st0{clip-path:url(#SVGID_2_);}
	.st1{fill:#009DD6;}
	.st2{fill:#7849B8;}
	.st3{fill:#FB6330;}
	.st4{fill:#7949B8;}
</style>
<g>
	<defs>
		<rect id="SVGID_1_" width="73" height="89"/>
	</defs>
	<clipPath id="SVGID_2_">
		<use xlink:href="#SVGID_1_"  style="overflow:visible;"/>
	</clipPath>
	<g class="st0">
		<path class="st1" d="M36.5,74c0.1,0,0.2,0,0.3-0.1c0.1,0,0.2-0.1,0.3-0.2c0.1-0.1,0.1-0.2,0.2-0.3c0-0.1,0.1-0.2,0.1-0.3v-7.7
			c0-0.2-0.1-0.5-0.3-0.6c-0.2-0.2-0.4-0.3-0.6-0.3c-0.2,0-0.5,0.1-0.6,0.3c-0.2,0.2-0.3,0.4-0.3,0.6v7.7c0,0.2,0.1,0.5,0.3,0.6
			C36,74,36.3,74,36.5,74z"/>
		<path class="st1" d="M36.5,77.6c0.2,0,0.5-0.1,0.7-0.2c0.2-0.1,0.4-0.3,0.5-0.6c0.1-0.2,0.1-0.5,0.1-0.7c0-0.2-0.2-0.5-0.3-0.6
			c-0.2-0.2-0.4-0.3-0.6-0.3c-0.2,0-0.5,0-0.7,0.1c-0.2,0.1-0.4,0.3-0.6,0.5c-0.1,0.2-0.2,0.4-0.2,0.7c0,0.3,0.1,0.6,0.4,0.9
			C35.9,77.5,36.2,77.6,36.5,77.6z"/>
		<path class="st2" d="M8.6,82.8h28c2.5-0.1,4.9-0.9,6.8-2.5c1.9-1.6,3.3-3.7,3.9-6.2c0.6-2.4,0.4-5-0.6-7.3c-1-2.3-2.7-4.2-4.9-5.4
			c-2.2-1.2-4.7-1.7-7.1-1.3c-2.5,0.4-4.7,1.5-6.5,3.3c-1.7,1.8-2.8,4.1-3.1,6.6c-0.3,2.5,0.2,5,1.5,7.2c0.1,0.1,0.1,0.2,0.2,0.3
			s0.2,0.1,0.3,0.2c0.1,0,0.2,0,0.4,0c0.1,0,0.2-0.1,0.3-0.1c0.1-0.1,0.2-0.1,0.3-0.2c0.1-0.1,0.1-0.2,0.2-0.3c0-0.1,0-0.2,0-0.4
			c0-0.1-0.1-0.2-0.1-0.3c-1.1-1.8-1.6-4-1.3-6.1c0.2-2.1,1.1-4.1,2.6-5.6c1.4-1.5,3.3-2.6,5.4-2.9c2.1-0.3,4.2,0,6.1,1
			c1.9,1,3.3,2.6,4.2,4.5c0.9,1.9,1.1,4.1,0.7,6.2c-0.4,2.1-1.6,4-3.1,5.3C41.1,80,39.1,80.9,37,81c-0.1,0-0.2-0.1-0.3-0.1H10
			L3.7,59.5c-0.1-0.4-0.2-0.9-0.1-1.3c0.1-0.4,0.3-0.8,0.5-1.2c0.3-0.4,0.6-0.6,1-0.8s0.8-0.3,1.3-0.3h9.7c0.1,0.1,0.2,0.1,0.4,0.1
			c0.1,0,0.2,0,0.3-0.1h39.3c0.1,0.1,0.2,0.1,0.4,0.1c0.1,0,0.3,0,0.4-0.1h9.5c0.4,0,0.9,0.1,1.3,0.3c0.4,0.2,0.7,0.5,1,0.9
			c0.3,0.3,0.4,0.8,0.5,1.2c0.1,0.4,0,0.9-0.1,1.3l-6.5,22.1c-0.1,0.2,0,0.5,0.1,0.7c0.1,0.2,0.3,0.4,0.5,0.4c0.2,0.1,0.5,0,0.7-0.1
			c0.2-0.1,0.4-0.3,0.4-0.6L71,60c0.2-0.7,0.3-1.4,0.2-2.2c-0.1-0.7-0.4-1.4-0.8-2c-0.4-0.6-1-1.1-1.6-1.4c-0.6-0.3-1.4-0.5-2.1-0.5
			h-9.1v-9.4c0-0.3-0.2-0.5-0.4-0.7l-9.8-8.5c-0.1-0.1-0.2-0.1-0.3-0.2c-0.1,0-0.2-0.1-0.4,0c-0.2,0-0.5,0.1-0.6,0.3
			c-0.2,0.2-0.2,0.4-0.2,0.7s0.1,0.5,0.3,0.6l9.5,8.3v8.9H17.4V45l9.5-8.5c0.2-0.2,0.3-0.4,0.3-0.6c0-0.3-0.1-0.5-0.2-0.7
			c-0.2-0.2-0.4-0.3-0.6-0.3c-0.2,0-0.5,0.1-0.7,0.2l-9.8,8.8c-0.1,0.1-0.2,0.2-0.3,0.3c-0.1,0.1-0.1,0.3-0.1,0.4v9.3H6.3
			c-0.7,0-1.4,0.2-2.1,0.5c-0.6,0.3-1.2,0.8-1.6,1.4c-0.4,0.6-0.7,1.3-0.8,2c-0.1,0.7-0.1,1.5,0.1,2.2L8.6,82.8z"/>
		<path class="st1" d="M72.5,83.4l-3.4-6.6c-0.1-0.2-0.3-0.4-0.5-0.4c-0.2-0.1-0.5,0-0.7,0.1c-0.2,0.1-0.4,0.3-0.4,0.5
			c-0.1,0.2,0,0.5,0.1,0.7l3.4,6.6c0.1,0.3,0.2,0.6,0.2,1c0,0.3-0.1,0.7-0.3,1c-0.2,0.3-0.4,0.6-0.7,0.7s-0.6,0.3-1,0.3H3.8
			c-0.3,0-0.7-0.1-1-0.3c-0.3-0.2-0.5-0.4-0.7-0.7c-0.2-0.3-0.3-0.6-0.3-1c0-0.3,0.1-0.7,0.2-1l3.4-6.6c0.1-0.1,0.1-0.2,0.1-0.3
			c0-0.1,0-0.2,0-0.4c0-0.1-0.1-0.2-0.2-0.3c-0.1-0.1-0.2-0.2-0.3-0.2c-0.1-0.1-0.2-0.1-0.3-0.1c-0.1,0-0.2,0-0.4,0
			c-0.1,0-0.2,0.1-0.3,0.2c-0.1,0.1-0.2,0.2-0.2,0.3l-3.4,6.6C0.1,84,0,84.6,0,85.3c0,0.7,0.2,1.3,0.5,1.9c0.3,0.6,0.8,1,1.4,1.4
			C2.5,88.8,3.1,89,3.8,89h65.4c0.7,0,1.3-0.2,1.9-0.5c0.6-0.3,1-0.8,1.4-1.4c0.3-0.6,0.5-1.2,0.5-1.9C73,84.6,72.9,84,72.5,83.4z"
			/>
		<path class="st2" d="M25,14.1L25,14.1c0.3,0,0.5-0.1,0.7-0.2c0.2-0.1,0.3-0.3,0.4-0.5c0.3-3.3,1.3-6.4,2.8-9.3
			c1.5-2.8,3-2.2,5-1.3c0.8,0.4,1.7,0.6,2.6,0.7c0.8-0.1,1.6-0.3,2.3-0.7c2-0.9,3.8-1.7,5.3,1.3c1.5,2.9,2.5,6.1,2.8,9.4
			c0,0.2,0.2,0.5,0.4,0.6c0.1,0.1,0.2,0.1,0.3,0.2c0.1,0,0.2,0,0.4,0c0.1,0,0.2-0.1,0.3-0.1c0.1-0.1,0.2-0.1,0.3-0.2
			c0.1-0.1,0.1-0.2,0.2-0.3s0-0.2,0-0.4c-0.3-3.5-1.4-6.9-3-10c-2.3-4.5-5.6-3-7.6-2.1c-0.5,0.3-1,0.4-1.6,0.5
			c-0.7-0.1-1.3-0.3-1.9-0.6c-2-0.9-5-2.1-7.4,2.1c-1.6,3.1-2.6,6.5-3,10c0,0.1,0,0.3,0,0.4c0,0.1,0.1,0.2,0.2,0.3
			c0.1,0.1,0.2,0.2,0.3,0.2C24.7,14,24.9,14,25,14.1z"/>
		<path class="st2" d="M36.5,20c9.6,0,19.3-2,19.3-6c0-1.7-1.7-3-4.9-4.1c-0.2,0-0.5,0-0.7,0.1c-0.2,0.1-0.4,0.3-0.5,0.5
			c0,0.1-0.1,0.2,0,0.4c0,0.1,0,0.2,0.1,0.4c0.1,0.1,0.1,0.2,0.2,0.3s0.2,0.1,0.3,0.2c2.8,0.9,3.6,1.9,3.6,2.3c0,1.4-6,4.1-17.4,4.1
			s-17.4-2.7-17.4-4.1c0-0.4,0.8-1.4,3.6-2.3c0.1,0,0.2-0.1,0.3-0.2c0.1-0.1,0.2-0.2,0.2-0.3s0.1-0.2,0.1-0.4c0-0.1,0-0.2,0-0.4
			c0-0.1-0.1-0.2-0.2-0.3c-0.1-0.1-0.2-0.2-0.3-0.2c-0.1-0.1-0.2-0.1-0.3-0.1c-0.1,0-0.2,0-0.4,0c-3.3,1.1-4.9,2.4-4.9,4.1
			C17.2,18,26.9,20,36.5,20z"/>
		<path class="st1" d="M47.7,21.2c0,7.9-5.1,14.3-11.3,14.3s-11.3-6.4-11.3-14.3c0-0.2-0.1-0.5-0.3-0.6c-0.2-0.2-0.4-0.3-0.6-0.3
			s-0.5,0.1-0.6,0.3c-0.2,0.2-0.3,0.4-0.3,0.6c0,9,5.9,16.2,13.1,16.2c7.2,0,13.1-7.2,12.9-16.2c0-0.2-0.1-0.5-0.3-0.6
			c-0.2-0.2-0.4-0.3-0.6-0.3c-0.2,0-0.5,0.1-0.6,0.3C47.8,20.7,47.7,20.9,47.7,21.2z"/>
	</g>
</g>
<path class="st1" d="M147.7,17.9c-0.5,0-0.9-0.4-0.9-0.9V7.5c0-3.5-2.1-5.8-5.1-5.8c-2.9,0-5.1,3.1-5.1,5.8c0,0.5-0.4,0.9-0.9,0.9
	s-0.9-0.4-0.9-0.9c0-3.5,2.9-7.5,6.8-7.5c4,0,6.8,3.1,6.8,7.5v9.6C148.5,17.5,148.2,17.9,147.7,17.9z"/>
<path class="st1" d="M160.7,40.3h-26.1c-0.4,0-0.7-0.2-0.8-0.6l-6.4-19.5c-0.1-0.3,0-0.7,0.3-1c0.3-0.2,0.7-0.2,1,0
	c0.1,0,6.6,4.5,12.2,2.9c2.6-0.7,4.6-2.5,6-5.5c0,0,0-0.1,0.1-0.1c0.2-0.3,0.5-0.5,0.9-0.4c0.3,0.1,0.5,0.3,0.7,0.6
	c1.4,2.9,3.4,4.8,6,5.4c5.6,1.5,12.1-2.9,12.2-2.9c0.3-0.2,0.7-0.2,1,0c0.3,0.2,0.4,0.6,0.3,1l-6.4,19.5
	C161.4,40,161.1,40.3,160.7,40.3z M135.3,38.6h24.8l5.5-16.7c-2.6,1.3-7.2,3.2-11.6,2c-2.6-0.7-4.8-2.4-6.3-5
	c-1.6,2.6-3.7,4.3-6.3,5c-4.4,1.2-9-0.7-11.6-2L135.3,38.6z"/>
<path class="st1" d="M147.7,40.3c-0.5,0-0.9-0.4-0.9-0.9V17.1c0-0.5,0.4-0.9,0.9-0.9s0.9,0.4,0.9,0.9v22.4
	C148.5,39.9,148.2,40.3,147.7,40.3z"/>
<path class="st3" d="M93.4,24.1c-1.6,0-2.9-1.3-2.9-2.9s1.3-2.9,2.9-2.9c1.6,0,2.9,1.3,2.9,2.9S95,24.1,93.4,24.1z M93.4,20
	c-0.7,0-1.2,0.5-1.2,1.2c0,0.7,0.5,1.2,1.2,1.2c0.7,0,1.2-0.5,1.2-1.2C94.6,20.6,94.1,20,93.4,20z"/>
<path class="st3" d="M123.9,40.3H94.6c-0.3,0-0.7-0.2-0.8-0.5l-7.5-17.5c-0.5-1.2-0.5-2.6,0-3.8c0.5-1.2,1.4-2.2,2.6-2.7l17.2-7.4
	c1.2-0.5,2.6-0.5,3.8,0c1.2,0.5,2.2,1.4,2.7,2.6l12.1,28.1c0.1,0.3,0.1,0.6-0.1,0.8C124.4,40.2,124.2,40.3,123.9,40.3z M95.2,38.6
	h27.4l-11.5-26.9c-0.3-0.8-1-1.4-1.8-1.7c-0.8-0.3-1.7-0.3-2.5,0l-17.2,7.4c-0.8,0.3-1.4,1-1.7,1.8c-0.3,0.8-0.3,1.7,0,2.5
	L95.2,38.6z"/>
<path class="st4" d="M148.2,89.2H101c-10.4,0-18.8-8.5-18.8-18.8v-31c0-0.5,0.4-0.9,0.9-0.9h83.1c0.5,0,0.9,0.4,0.9,0.9v31
	C167,80.8,158.6,89.2,148.2,89.2z M83.9,40.3v30.1c0,9.5,7.7,17.1,17.1,17.1h47.1c9.5,0,17.1-7.7,17.1-17.1V40.3H83.9z"/>
<path class="st4" d="M123.9,40.3H94.6c-0.5,0-0.9-0.4-0.9-0.9c0-0.5,0.4-0.9,0.9-0.9h29.3c0.5,0,0.9,0.4,0.9,0.9
	C124.8,39.9,124.3,40.3,123.9,40.3z"/>
<path class="st4" d="M124.7,81.3c-0.9,0-1.6-0.3-2.3-0.9c-0.7-0.6-1-1.4-1-2.4c0-0.9,0.3-1.7,1-2.3c0.7-0.6,1.4-1,2.4-1
	c0.9,0,1.7,0.3,2.3,1c0.6,0.6,1,1.4,1,2.3c0,1-0.3,1.8-1,2.4C126.3,81,125.5,81.3,124.7,81.3z M124.7,76.4c-0.5,0-0.9,0.1-1.2,0.4
	c-0.3,0.3-0.4,0.7-0.4,1.1c0,0.7,0.2,1,0.4,1.2c0.3,0.3,0.7,0.4,1.2,0.4c0.4,0,0.8-0.1,1.1-0.4c0.2-0.2,0.4-0.5,0.4-1.2
	c0-0.4-0.1-0.8-0.4-1.1C125.5,76.5,125.1,76.4,124.7,76.4z M124.5,73.6c-0.8,0-1.5-0.3-2-0.8c-0.5-0.5-0.9-1.3-0.9-2.3
	c0-1,0.2-1.9,0.5-2.7c0.3-0.8,0.8-1.4,1.3-2c0.5-0.5,1.1-1.2,2-1.9c0.7-0.6,1.2-1.1,1.5-1.3c0.2-0.2,0.5-0.5,0.7-0.9
	c0.1-0.2,0.2-0.5,0.2-0.8c0-0.7-0.2-1.1-0.7-1.6c-0.5-0.4-1.1-0.7-1.9-0.7c-1,0-1.6,0.2-2,0.6c-0.5,0.5-0.9,1.3-1.2,2.4
	c-0.7,2.1-2.1,2.4-2.9,2.4c-0.9,0-1.6-0.3-2.2-0.9c-0.6-0.6-0.9-1.3-0.9-2c0-1.2,0.4-2.4,1.1-3.6c0.8-1.2,1.8-2.2,3.2-2.9
	c1.4-0.8,3-1.2,4.9-1.2c1.7,0,3.2,0.3,4.6,1c1.3,0.7,2.4,1.5,3.2,2.7c0.8,1.1,1.1,2.4,1.1,3.7c0,1.1-0.2,2-0.7,2.8
	c-0.4,0.8-0.9,1.4-1.5,2c-0.5,0.5-1.5,1.4-2.8,2.6c-0.3,0.3-0.6,0.6-0.8,0.8c-0.2,0.2-0.3,0.4-0.4,0.5c-0.1,0.2-0.1,0.3-0.2,0.5
	c-0.1,0.2-0.1,0.5-0.2,1.1C127,72.7,126,73.6,124.5,73.6z M125.1,57c1.2,0,2.3,0.4,3.1,1.1c0.8,0.8,1.2,1.7,1.2,2.8
	c0,0.6-0.1,1.2-0.4,1.6c-0.2,0.4-0.5,0.9-0.9,1.2c-0.3,0.3-0.8,0.8-1.5,1.4c-0.8,0.7-1.4,1.3-1.8,1.7c-0.4,0.4-0.7,0.9-1,1.5
	c-0.2,0.5-0.3,1.2-0.3,2c0,0.5,0.1,0.8,0.3,1c0.2,0.2,0.5,0.3,0.8,0.3c0.6,0,1-0.2,1.1-1v0c0.1-0.5,0.2-0.9,0.3-1.2
	c0.1-0.3,0.2-0.5,0.3-0.8c0.1-0.3,0.3-0.5,0.6-0.9c0.2-0.3,0.5-0.6,1-1c1.3-1.2,2.3-2,2.7-2.5c0.4-0.4,0.9-1,1.2-1.6
	c0.3-0.6,0.4-1.2,0.4-2c0-1-0.3-1.9-0.9-2.8c-0.6-0.9-1.4-1.6-2.5-2.1c-1.1-0.5-2.4-0.8-3.8-0.8c-1.5,0-2.9,0.3-4,0.9
	c-1.1,0.6-2,1.4-2.6,2.3c-0.6,0.9-0.9,1.8-0.9,2.7c0,0.2,0,0.4,0.4,0.8c0.2,0.3,0.5,0.4,0.9,0.4c0.4,0,1-0.1,1.3-1.2
	c0.4-1.3,1-2.3,1.6-3C122.5,57.3,123.6,57,125.1,57z"/>
</svg>
