<svg width="73" height="89" viewBox="0 0 73 89" fill="none" xmlns="http://www.w3.org/2000/svg">
<g clip-path="url(#clip0)">
<path d="M36.4957 74.0465C36.6131 74.0544 36.7309 74.0368 36.8411 73.9948C36.9513 73.9529 37.0514 73.8876 37.1346 73.8033C37.2178 73.719 37.2823 73.6177 37.3238 73.5061C37.3652 73.3946 37.3826 73.2753 37.3749 73.1564V65.5017C37.3749 65.2656 37.2822 65.0392 37.1173 64.8723C36.9525 64.7054 36.7288 64.6116 36.4957 64.6116C36.2625 64.6116 36.0389 64.7054 35.874 64.8723C35.7091 65.0392 35.6165 65.2656 35.6165 65.5017V73.1564C35.6165 73.3925 35.7091 73.6189 35.874 73.7858C36.0389 73.9527 36.2625 74.0465 36.4957 74.0465Z" fill="#009DD6"/>
<path d="M36.4956 77.6069C36.7391 77.6069 36.9771 77.5338 37.1795 77.3969C37.3819 77.2599 37.5397 77.0653 37.6328 76.8376C37.726 76.6099 37.7504 76.3594 37.7029 76.1176C37.6554 75.8759 37.5382 75.6539 37.366 75.4796C37.1939 75.3053 36.9746 75.1867 36.7358 75.1386C36.497 75.0905 36.2495 75.1152 36.0246 75.2095C35.7997 75.3038 35.6075 75.4635 35.4722 75.6684C35.337 75.8734 35.2648 76.1143 35.2648 76.3608C35.2648 76.6912 35.3945 77.0082 35.6253 77.2419C35.8561 77.4756 36.1692 77.6069 36.4956 77.6069Z" fill="#009DD6"/>
<path d="M8.62504 82.7783H36.6188C39.1 82.7218 41.4939 81.8398 43.4305 80.2684C45.3672 78.697 46.7388 76.5237 47.3335 74.0842C47.9283 71.6448 47.713 69.075 46.7209 66.7718C45.7289 64.4686 44.0153 62.5602 41.845 61.3415C39.6746 60.1227 37.1682 59.6614 34.713 60.0288C32.2577 60.3962 29.9903 61.5719 28.2611 63.3742C26.5318 65.1765 25.4368 67.5052 25.1454 70.0005C24.854 72.4957 25.3822 75.0187 26.6486 77.1796C26.7064 77.2848 26.784 77.3775 26.8771 77.4523C26.9702 77.5271 27.077 77.5826 27.1912 77.6157C27.3055 77.6488 27.4252 77.6587 27.5433 77.645C27.6613 77.6312 27.7756 77.5941 27.8795 77.5356C27.9834 77.4772 28.075 77.3986 28.1489 77.3044C28.2228 77.2101 28.2776 77.102 28.3103 76.9863C28.3429 76.8706 28.3528 76.7495 28.3392 76.63C28.3256 76.5104 28.2889 76.3947 28.2312 76.2895C27.1456 74.4679 26.6791 72.3365 26.9031 70.2211C27.1271 68.1058 28.0292 66.1229 29.4716 64.5756C30.9139 63.0284 32.8171 62.0019 34.8901 61.6532C36.9632 61.3044 39.092 61.6526 40.9511 62.6445C42.8102 63.6364 44.2972 65.2174 45.1849 67.1457C46.0726 69.0741 46.3121 71.2437 45.8667 73.3228C45.4213 75.402 44.3156 77.2763 42.7186 78.6591C41.1215 80.0419 39.1212 80.8572 37.0232 80.9803C36.9252 80.941 36.8209 80.9199 36.7155 80.918H10.0318L3.70152 59.4668C3.573 59.0461 3.54584 58.6002 3.62232 58.1667C3.6988 57.7331 3.87669 57.3243 4.14112 56.9746C4.4105 56.6188 4.7563 56.3298 5.15234 56.1293C5.54838 55.9288 5.98428 55.8222 6.42704 55.8175H16.0982C16.2161 55.8753 16.3453 55.9057 16.4763 55.9065C16.5956 55.9022 16.7126 55.8719 16.8192 55.8175H56.1634C56.2813 55.8753 56.4105 55.9057 56.5415 55.9065C56.6779 55.9044 56.8126 55.8741 56.9371 55.8175H66.4764C66.921 55.8118 67.3604 55.9138 67.7581 56.1151C68.1558 56.3164 68.5001 56.6111 68.7623 56.9746C69.0268 57.3243 69.2047 57.7331 69.2811 58.1667C69.3576 58.6002 69.3305 59.0461 69.2019 59.4668L62.6959 81.541C62.6259 81.7771 62.6514 82.0316 62.7669 82.2486C62.8823 82.4656 63.0781 82.6273 63.3113 82.6982C63.5445 82.769 63.7959 82.7431 64.0102 82.6263C64.2246 82.5094 64.3843 82.3112 64.4543 82.0751L70.9603 60.0009C71.1773 59.3028 71.2287 58.5628 71.1103 57.8408C70.9919 57.1189 70.707 56.4354 70.2788 55.8458C69.8505 55.2562 69.291 54.7771 68.6456 54.4474C68.0003 54.1177 67.2872 53.9467 66.5643 53.9483H57.5086V44.5845C57.4838 44.3109 57.3582 44.0567 57.1569 43.8725L47.3978 35.3276C47.3054 35.2458 47.198 35.1832 47.0818 35.1434C46.9655 35.1036 46.8426 35.0873 46.7202 35.0956C46.4728 35.1123 46.2422 35.2278 46.079 35.4166C45.9157 35.6055 45.8333 35.8522 45.8498 36.1026C45.8663 36.353 45.9803 36.5865 46.1669 36.7518L55.6623 45.0296V53.9305H17.417V45.0296L26.9124 36.4936C27.0989 36.3284 27.213 36.0949 27.2295 35.8445C27.246 35.5941 27.1635 35.3474 27.0003 35.1585C26.8371 34.9697 26.6065 34.8542 26.3591 34.8375C26.1118 34.8208 25.8681 34.9043 25.6815 35.0695L15.9224 43.8814C15.8082 43.9594 15.7158 44.0659 15.6542 44.1907C15.5926 44.3154 15.5638 44.4541 15.5707 44.5934V53.9394H6.33912C5.62025 53.9277 4.90906 54.0905 4.26508 54.4141C3.62111 54.7378 3.06307 55.2129 2.63768 55.7997C2.20521 56.3926 1.91626 57.08 1.7941 57.8066C1.67193 58.5332 1.71996 59.2787 1.93432 59.9831L8.62504 82.7783Z" fill="#7849B8"/>
<path d="M72.5429 83.3925L69.114 76.8058C68.9974 76.5934 68.8022 76.4365 68.5714 76.3697C68.3405 76.303 68.0929 76.3318 67.8831 76.4498C67.6732 76.5678 67.5183 76.7654 67.4523 76.9991C67.3864 77.2328 67.4148 77.4835 67.5314 77.6959L70.9603 84.2826C71.0983 84.5931 71.1622 84.9321 71.147 85.2723C71.1317 85.6124 71.0376 85.9442 70.8724 86.2408C70.7072 86.5415 70.4647 86.7913 70.1706 86.9637C69.8765 87.1361 69.5417 87.2246 69.2019 87.2199H3.78939C3.44956 87.2246 3.1148 87.1361 2.82068 86.9637C2.52655 86.7913 2.28404 86.5415 2.11891 86.2408C1.933 85.952 1.8268 85.6181 1.81134 85.2738C1.79588 84.9295 1.87172 84.5872 2.03099 84.2826L5.45987 77.6959C5.5176 77.5907 5.5543 77.475 5.56787 77.3555C5.58143 77.2359 5.57161 77.1148 5.53895 76.9991C5.5063 76.8834 5.45145 76.7753 5.37754 76.6811C5.30363 76.5868 5.2121 76.5082 5.10819 76.4498C5.00428 76.3914 4.89001 76.3542 4.77192 76.3405C4.65382 76.3267 4.53421 76.3367 4.41991 76.3697C4.30562 76.4028 4.19887 76.4583 4.10577 76.5331C4.01267 76.608 3.93504 76.7006 3.87731 76.8058L0.448428 83.3925C0.137594 83.9686 -0.0179273 84.6174 -0.00249359 85.2736C0.0129401 85.9298 0.198784 86.5704 0.536348 87.1309C0.875745 87.6978 1.35292 88.1672 1.92239 88.4944C2.49185 88.8216 3.13461 88.9957 3.78939 89H69.2019C69.8567 88.9957 70.4994 88.8216 71.0689 88.4944C71.6384 88.1672 72.1155 87.6978 72.4549 87.1309C72.7925 86.5704 72.9783 85.9298 72.9938 85.2736C73.0092 84.6174 72.8537 83.9686 72.5429 83.3925Z" fill="#009DD6"/>
<path d="M24.9781 14.0545H25.066C25.2824 14.0612 25.4948 13.9949 25.6699 13.866C25.845 13.7371 25.9727 13.5529 26.0331 13.3425C26.3783 10.075 27.333 6.90351 28.8465 3.99652C30.3412 1.14823 31.8358 1.7713 33.858 2.66139C34.6857 3.063 35.5802 3.3045 36.4956 3.37346C37.2962 3.28972 38.0729 3.04779 38.7815 2.66139C40.8037 1.7713 42.5621 0.970216 44.0567 3.99652C45.5595 6.91117 46.5135 10.0834 46.8702 13.3514C46.9051 13.5992 47.0359 13.8229 47.2338 13.9731C47.3318 14.0475 47.4432 14.1016 47.5619 14.1324C47.6805 14.1632 47.804 14.17 47.9252 14.1524C48.0464 14.1349 48.1631 14.0934 48.2684 14.0302C48.3738 13.967 48.4659 13.8835 48.5393 13.7843C48.6128 13.6851 48.6663 13.5722 48.6967 13.4521C48.7271 13.332 48.7338 13.2071 48.7165 13.0843C48.381 9.5899 47.3619 6.19803 45.7184 3.10643C43.4325 -1.34402 40.0915 0.080127 38.0694 0.970216C37.5719 1.22912 37.0382 1.40923 36.4868 1.50427C35.8153 1.3941 35.1635 1.18415 34.5526 0.881207C32.5304 -0.00888195 29.5411 -1.25501 27.1673 3.01742C25.5546 6.1181 24.5401 9.5014 24.178 12.9864C24.1526 13.1108 24.1538 13.2392 24.1815 13.363C24.2091 13.4868 24.2627 13.6032 24.3384 13.7044C24.4142 13.8056 24.5105 13.8892 24.6208 13.9495C24.7311 14.0099 24.8529 14.0457 24.9781 14.0545Z" fill="#7849B8"/>
<path d="M36.4957 20.0181C46.079 20.0181 55.7502 17.9709 55.7502 14.0546C55.7502 12.3634 54.0797 11.0282 50.8267 9.96014C50.5949 9.92174 50.3572 9.96203 50.1504 10.0747C49.9437 10.1874 49.7796 10.3662 49.6837 10.5832C49.6434 10.6999 49.6275 10.8238 49.6371 10.9471C49.6467 11.0704 49.6816 11.1902 49.7395 11.2991C49.7974 11.408 49.877 11.5034 49.9734 11.5794C50.0698 11.6554 50.1807 11.7102 50.2991 11.7403C53.1126 12.6304 53.9039 13.6095 53.9039 14.0546C53.9039 15.4787 47.9253 18.149 36.4957 18.149C25.0661 18.149 19.0875 15.4787 19.0875 14.0546C19.0875 13.6095 19.8788 12.6304 22.6923 11.7403C22.8107 11.7102 22.9216 11.6554 23.018 11.5794C23.1143 11.5034 23.194 11.408 23.2519 11.2991C23.3098 11.1902 23.3447 11.0704 23.3543 10.9471C23.3639 10.8238 23.348 10.6999 23.3077 10.5832C23.2779 10.4633 23.2238 10.351 23.1487 10.2534C23.0737 10.1559 22.9794 10.0752 22.8719 10.0166C22.7643 9.95799 22.6459 9.9227 22.5242 9.91297C22.4024 9.90325 22.28 9.91931 22.1647 9.96014C18.9117 11.0282 17.2412 12.3634 17.2412 14.0546C17.2412 17.9709 26.9124 20.0181 36.4957 20.0181Z" fill="#7849B8"/>
<path d="M47.6614 21.1752C47.6614 29.097 42.5621 35.5057 36.4077 35.5057C30.2533 35.5057 25.1539 29.097 25.1539 21.1752C25.1539 20.9392 25.0613 20.7128 24.8964 20.5459C24.7315 20.3789 24.5079 20.2852 24.2747 20.2852C24.0415 20.2852 23.8179 20.3789 23.653 20.5459C23.4881 20.7128 23.3955 20.9392 23.3955 21.1752C23.3955 30.1651 29.2861 37.3749 36.4956 37.3749C43.705 37.3749 49.5957 30.1651 49.4198 21.1752C49.4198 20.9392 49.3272 20.7128 49.1623 20.5459C48.9974 20.3789 48.7738 20.2852 48.5406 20.2852C48.3075 20.2852 48.0838 20.3789 47.9189 20.5459C47.7541 20.7128 47.6614 20.9392 47.6614 21.1752Z" fill="#009DD6"/>
</g>
<defs>
<clipPath id="clip0">
<path d="M0 0H73V89H0V0Z" fill="white"/>
</clipPath>
</defs>
</svg>
