<svg width="62" height="61" viewBox="0 0 62 61" fill="none" xmlns="http://www.w3.org/2000/svg">
<path d="M37.1624 57.999C37.1417 57.999 37.1417 57.999 37.1624 57.999C36.9342 57.999 36.7474 57.8561 36.6644 57.6519L30.1698 38.5843C30.0868 38.3189 30.232 38.0331 30.5018 37.931C30.7715 37.8494 31.062 37.9923 31.1658 38.2577L37.1832 55.9575L39.7354 49.2205C39.7769 49.0776 39.9014 48.9755 40.0259 48.9347C40.1504 48.8735 40.3164 48.8939 40.4409 48.9551L47.5165 52.2828L41.4161 35.3179C41.3124 35.0525 41.4576 34.7667 41.7274 34.6646C41.9971 34.5626 42.2876 34.7055 42.3913 34.9709L48.9067 53.0994C48.969 53.3035 48.9275 53.5077 48.7615 53.6506C48.5955 53.7935 48.388 53.8139 48.1805 53.7322L40.4824 50.1188L37.6189 57.6723C37.5567 57.8765 37.3699 57.999 37.1624 57.999Z" fill="#FFD42F"/>
<path d="M26.1863 53.2015C25.9995 53.2015 25.8128 53.0994 25.7298 52.9157L21.8496 45.4234L14.8984 49.7105C14.7117 49.833 14.4627 49.8126 14.2967 49.6697C14.1307 49.5268 14.0477 49.3022 14.1307 49.0981L19.3181 34.2768C19.4011 34.0114 19.7124 33.8685 19.9821 33.9501C20.2519 34.0318 20.3971 34.338 20.3141 34.6034L15.6039 48.0569L21.7873 44.2393C21.9118 44.1576 22.0571 44.1372 22.2023 44.178C22.3476 44.2189 22.4513 44.3005 22.5343 44.4434L26.1033 51.3233L30.4192 38.2373C30.5022 37.9719 30.7927 37.829 31.0624 37.9106C31.3322 37.9923 31.4774 38.2781 31.3944 38.5639L26.6843 52.834C26.622 53.0381 26.4353 53.1606 26.2278 53.1811C26.207 53.2015 26.207 53.2015 26.1863 53.2015Z" fill="#FFD42F"/>
<path d="M25.9372 26.172C25.7089 26.172 25.5015 26.0087 25.4392 25.7841L22.5342 14.8621L22.0155 13.0043H19.2351C18.9446 13.0043 18.7163 12.7798 18.7163 12.4939C18.7163 12.2081 18.9446 11.9836 19.2351 11.9836H22.4098C22.638 11.9836 22.8455 12.1469 22.9077 12.351L23.5302 14.5763L26.3314 25.1308L38.2625 25.0492C38.553 25.0492 38.7812 25.2737 38.7812 25.5595C38.7812 25.8454 38.553 26.0699 38.2625 26.0699L25.9372 26.172Z" fill="#7949B8"/>
<path d="M35.897 21.844H25.1071C24.8166 21.844 24.5884 21.6194 24.5884 21.3336C24.5884 21.0478 24.8166 20.8233 25.1071 20.8233H35.897C37.1212 20.8233 38.1379 19.925 38.2417 18.7205L38.5737 15.4949L23.0114 15.2296C22.7209 15.2296 22.4927 14.9846 22.4927 14.7192C22.4927 14.4538 22.7417 14.2088 23.0114 14.2088L39.1339 14.4946C39.2792 14.4946 39.4244 14.5559 39.5074 14.6579C39.6112 14.76 39.6527 14.9029 39.6319 15.0458L39.2584 18.8226C39.1132 20.5579 37.6607 21.844 35.897 21.844Z" fill="#7949B8"/>
<path d="M26.9538 30.6429C25.6674 30.6429 24.6299 29.6221 24.6299 28.3564C24.6299 27.0907 25.6674 26.0699 26.9538 26.0699C28.2403 26.0699 29.2778 27.0907 29.2778 28.3564C29.2778 29.6221 28.2196 30.6429 26.9538 30.6429ZM26.9538 27.0907C26.2484 27.0907 25.6674 27.6623 25.6674 28.3564C25.6674 29.0505 26.2484 29.6221 26.9538 29.6221C27.6593 29.6221 28.2403 29.0505 28.2403 28.3564C28.2403 27.6623 27.6593 27.0907 26.9538 27.0907Z" fill="#7949B8"/>
<path d="M37.3494 30.5204C36.0629 30.5204 35.0254 29.4996 35.0254 28.2339C35.0254 26.9682 36.0629 25.9474 37.3494 25.9474C38.6358 25.9474 39.6733 26.9682 39.6733 28.2339C39.6733 29.4996 38.6358 30.5204 37.3494 30.5204ZM37.3494 26.9682C36.6439 26.9682 36.0629 27.5398 36.0629 28.2339C36.0629 28.928 36.6439 29.4996 37.3494 29.4996C38.0548 29.4996 38.6358 28.928 38.6358 28.2339C38.6358 27.5398 38.0548 26.9682 37.3494 26.9682Z" fill="#7949B8"/>
<path d="M31 38.666C21.2684 38.666 13.3628 30.8879 13.3628 21.3132C13.3628 11.7386 21.2684 3.9605 31 3.9605C40.7316 3.9605 48.6372 11.7386 48.6372 21.3132C48.6372 30.8879 40.7316 38.666 31 38.666ZM31 4.98125C21.8494 4.98125 14.4003 12.3102 14.4003 21.3132C14.4003 30.3163 21.8494 37.6452 31 37.6452C40.1506 37.6452 47.5997 30.3163 47.5997 21.3132C47.5997 12.3102 40.1506 4.98125 31 4.98125Z" fill="#FFD42F"/>
</svg>
