<svg width="89" height="89" viewBox="0 0 89 89" fill="none" xmlns="http://www.w3.org/2000/svg">
<g clip-path="url(#clip0)">
<path d="M35.9705 6.10352e-05C31.0599 6.10352e-05 27.0649 3.99499 27.0649 8.90566C27.0649 13.8163 31.06 17.8113 35.9705 17.8113C40.8812 17.8113 44.8761 13.8163 44.8761 8.90566C44.8761 3.99499 40.8812 6.10352e-05 35.9705 6.10352e-05ZM35.9705 15.2036C32.4978 15.2036 29.6725 12.3784 29.6725 8.90566C29.6725 5.43291 32.498 2.60767 35.9705 2.60767C39.4433 2.60767 42.2685 5.43308 42.2685 8.90566C42.2685 12.3782 39.4433 15.2036 35.9705 15.2036Z" fill="#138468"/>
<path d="M69.3576 54.2823C68.8434 53.7785 68.0179 53.7862 67.5138 54.3004L56.5704 65.4611L52.7059 61.4176C52.2084 60.8968 51.383 60.8782 50.8624 61.3759C50.342 61.8734 50.3232 62.6986 50.8207 63.2194L55.6159 68.2364C56.1245 68.7689 56.9735 68.7744 57.4895 68.2484L69.3757 56.1263C69.8798 55.6117 69.8716 54.7864 69.3576 54.2823Z" fill="#FB6630"/>
<path d="M76.5513 62.9908C75.8456 62.8508 75.1588 63.3091 75.0185 64.0155C73.5236 71.5376 68.2157 77.9646 61.1659 80.7889C60.4975 81.0566 60.1728 81.8156 60.4405 82.4841C60.7082 83.1527 61.4673 83.4772 62.1357 83.2095C70.2519 79.958 75.9424 72.7447 77.5759 64.5238C77.7165 63.8173 77.2574 63.1311 76.5513 62.9908Z" fill="#138468"/>
<path d="M74.3133 42.8998C70.8256 44.8702 67.5358 44.9359 64.5349 43.0952C62.1492 41.6321 60.8123 39.489 60.759 39.4024C60.3197 38.6833 59.5694 38.2414 58.7338 38.2011C56.3082 31.4097 52.2599 26.6924 49.2103 23.8838C47.2653 22.0927 44.7408 21.1064 42.1016 21.1064C40.834 21.1064 31.0742 21.1064 29.8402 21.1064C27.0224 21.1064 24.3404 22.1652 22.2884 24.0875C18.0633 28.046 10.9688 36.6936 10.9273 50.1323C10.9184 52.9501 13.1556 55.3042 15.9141 55.3802C18.7956 55.4645 21.1896 53.1521 21.1896 50.251C21.1896 45.2076 22.6061 40.4598 25.3168 36.3303V84.4767C25.3168 86.971 27.3461 89.0003 29.8404 89.0003H32.7515C34.01 89.0003 35.1503 88.4836 35.9711 87.6512C36.792 88.4836 37.9321 89.0003 39.1908 89.0003H42.1019C44.5962 89.0003 46.6255 86.971 46.6255 84.4767V77.6034C49.0373 80.0264 51.909 81.9381 55.0821 83.2092C55.7509 83.477 56.5097 83.1518 56.7772 82.4838C57.0451 81.8154 56.7202 81.0565 56.0518 80.7886C47.6577 77.4255 41.7529 69.0882 41.7529 59.4553V45.2437C47.0313 48.1672 52.1421 47.4541 56.3173 43.5579C57.2751 42.678 58.0556 41.7468 58.5831 40.9194C58.5913 40.9069 58.6021 40.8911 58.6092 40.8799C58.9836 41.4583 60.5479 43.7085 63.1724 45.3181C65.8115 46.9372 70.0784 48.2282 75.4657 45.2436V58.1853C75.4657 58.9055 76.0495 59.489 76.7695 59.489C77.4895 59.489 78.0732 58.9055 78.0732 58.1853V45.0939C78.0727 43.1668 75.9942 41.9509 74.3133 42.8998ZM38.2632 23.714L36.7021 25.5684C36.3198 26.0223 35.6221 26.0223 35.2397 25.5684L33.6783 23.714H38.2632ZM46.6251 44.3103V36.6677C48.1272 39.0262 49.2037 41.5681 49.8409 44.2654C48.7959 44.4945 47.7258 44.5088 46.6251 44.3103ZM52.2916 43.308C51.2444 39.1234 49.2365 35.2886 46.3089 31.8888C45.5206 30.9734 44.017 31.5359 44.017 32.7395V43.4681C43.4553 43.2124 42.751 42.8211 42.7317 42.812C41.0751 42.0324 39.1442 43.239 39.1442 45.0941V45.1389V59.4556C39.1442 64.9135 40.8319 70.1332 44.017 74.5384V84.4771H44.0177C44.0177 85.5334 43.1583 86.393 42.1017 86.393H39.1906C38.1343 86.393 37.2747 85.5338 37.2747 84.4771V57.6831C37.2747 56.9629 36.691 56.3794 35.971 56.3794C35.251 56.3794 34.6672 56.9629 34.6672 57.6831V84.4769C34.6672 85.5332 33.8078 86.3928 32.7513 86.3928H29.8402C28.7838 86.3928 27.9243 85.5336 27.9243 84.4769V32.4833C27.9243 31.2841 26.4344 30.7235 25.6428 31.6208C21.0233 36.8558 18.5817 43.2982 18.5817 50.2512C18.5817 51.6549 17.4354 52.8084 15.9857 52.7738C14.6298 52.7364 13.5302 51.5553 13.5347 50.1407C13.5733 37.681 20.1525 29.6619 24.0712 25.9908C25.6382 24.5226 27.6868 23.714 29.84 23.714H30.2696L33.2448 27.2476C34.669 28.9396 37.2742 28.9374 38.6966 27.2476L41.6717 23.714H42.1012C44.0844 23.714 45.9816 24.4555 47.4437 25.8018C50.3318 28.4618 54.186 32.9638 56.4158 39.4672C55.4229 40.9655 53.9087 42.3952 52.2916 43.308Z" fill="#138468"/>
</g>
<defs>
<clipPath id="clip0">
<rect y="6.10352e-05" width="89" height="89" fill="white"/>
</clipPath>
</defs>
</svg>
