<svg width="17" height="20" viewBox="0 0 17 20" fill="none" xmlns="http://www.w3.org/2000/svg">
<path fill-rule="evenodd" clip-rule="evenodd" d="M16.0368 17.2883L14.8916 4.39264C14.8671 4.10634 14.6258 3.88957 14.3436 3.88957H11.9877C11.955 1.73824 10.1963 0 8.03681 0C5.8773 0 4.11861 1.73824 4.08589 3.88957H1.73006C1.44377 3.88957 1.20655 4.10634 1.18201 4.39264L0.0368125 17.2883C0.0368125 17.2965 0.0357904 17.3047 0.0347682 17.3129L0.0347675 17.3129L0.0347667 17.3129C0.0337445 17.3211 0.0327225 17.3292 0.0327225 17.3374C0.0327225 18.8057 1.37833 20 3.03477 20H13.0389C14.6953 20 16.0409 18.8057 16.0409 17.3374C16.0409 17.3211 16.0409 17.3047 16.0368 17.2883ZM8.03681 1.10429C9.58691 1.10429 10.8507 2.34765 10.8834 3.88957H5.19019C5.22291 2.34765 6.48671 1.10429 8.03681 1.10429ZM3.03477 18.8957H13.0389C14.0736 18.8957 14.9202 18.2086 14.9366 17.362L13.8364 4.99795H11.9877V6.67485C11.9877 6.9816 11.7423 7.22699 11.4356 7.22699C11.1288 7.22699 10.8834 6.9816 10.8834 6.67485V4.99795H5.1861V6.67485C5.1861 6.9816 4.9407 7.22699 4.63395 7.22699C4.3272 7.22699 4.0818 6.9816 4.0818 6.67485V4.99795H2.23313L1.13702 17.362C1.15338 18.2086 1.99591 18.8957 3.03477 18.8957Z" fill="#33333A"/>
</svg>
