<svg width="20" height="19" viewBox="0 0 20 19" fill="none" xmlns="http://www.w3.org/2000/svg">
<path fill-rule="evenodd" clip-rule="evenodd" d="M14.468 0.0104697C15.968 0.0104697 17.3937 0.637986 18.383 1.61684C19.3723 2.59547 20 4.02096 19.9998 5.52116C19.9998 6.01044 19.9498 6.48978 19.8509 6.9573C19.6523 7.89416 19.4115 8.56138 18.8616 9.40406C18.5925 9.81665 18.3537 10.1614 18.1276 10.4465C17.9068 10.7252 17.5957 11.0636 17.2021 11.4573C16.8084 11.8508 16.4892 12.1593 16.2446 12.3828C16.1231 12.4936 15.9724 12.6247 15.7958 12.7784C15.6164 12.9345 15.4101 13.114 15.1807 13.319C14.4444 13.9763 13.8748 14.4918 13.4785 14.8614C13.0875 15.2261 12.5981 15.7361 12.0103 16.3933C11.4279 17.0446 10.9303 17.705 10.4997 18.3507C10.3769 18.535 10.202 18.6167 9.99974 18.6167C9.80843 18.6167 9.6466 18.5332 9.52111 18.3507C8.84863 17.3734 8.13827 16.5208 7.1701 15.5955C6.69147 15.138 6.32696 14.7898 6.07438 14.5636C6.02983 14.5237 5.981 14.4798 5.92779 14.432C5.67275 14.203 5.31713 13.8835 4.85088 13.4785C4.36134 13.0532 3.98912 12.7232 3.74448 12.4997C3.49984 12.2763 3.16484 11.9627 2.7552 11.5635C2.34575 11.1647 2.04255 10.8189 1.82967 10.5422C1.61703 10.2658 1.36853 9.9172 1.09572 9.49985C0.826111 9.08723 0.623431 8.68214 0.489314 8.30835C0.219216 7.55439 0 6.55286 0 5.52112C0 4.02096 0.627745 2.59547 1.61706 1.61681C2.60657 0.637986 4.03206 0.010437 5.53199 0.010437C6.41484 0.010437 7.24458 0.212463 8.04255 0.616875C8.84049 1.02109 9.48938 1.57416 10 2.27635C10.5107 1.57416 11.1595 1.02109 11.9575 0.616908C12.7552 0.212463 13.585 0.0104697 14.468 0.0104697ZM16.8724 10.0849C17.9018 8.94423 18.5185 7.78655 18.7234 6.60616C18.7844 6.25462 18.8192 5.89331 18.8195 5.52112C18.8195 4.31897 18.394 3.29769 17.5429 2.45727C16.6919 1.61684 15.6706 1.19132 14.4684 1.19132C13.628 1.19132 12.8407 1.41462 12.1281 1.87217C11.4154 2.32946 10.9023 2.93975 10.543 3.69119C10.4341 3.91884 10.245 4.02096 10.0004 4.02096C9.75575 4.02096 9.58189 3.91132 9.47908 3.69119C9.12435 2.9325 8.5749 2.32946 7.86206 1.87217C7.14918 1.41462 6.37255 1.19132 5.53216 1.19132C4.33023 1.19132 3.30892 1.61687 2.44719 2.46792C1.59611 3.30835 1.17059 4.32962 1.17059 5.52112C1.17059 6.14864 1.22621 6.71511 1.40458 7.2657L1.64925 8.02099C1.77138 8.39849 2.06814 8.83688 2.30582 9.188C2.36051 9.26878 2.41206 9.34495 2.45765 9.41469C2.57569 9.59495 2.75565 9.8189 2.98964 10.0742C3.03999 10.1292 3.08824 10.1818 3.13436 10.2321C3.3026 10.4155 3.44259 10.5681 3.55337 10.6913C3.69931 10.8534 3.92265 11.0669 4.21291 11.3295L4.8831 11.936L5.61706 12.5848C6.30611 13.1939 6.80856 13.6381 7.13833 13.9359C7.4681 14.2338 7.91222 14.6832 8.48938 15.2763C9.06108 15.864 9.56376 16.436 9.99997 16.9997C10.4149 16.4253 10.9014 15.8375 11.4575 15.2445C12.0185 14.646 12.4894 14.1703 12.8723 13.819C13.2661 13.4574 13.7685 13.0027 14.3936 12.4466C15.5983 11.3749 16.423 10.5826 16.8724 10.0849Z" fill="#33333A"/>
</svg>
