<svg width="20" height="20" viewBox="0 0 20 20" fill="none" xmlns="http://www.w3.org/2000/svg">
<path fill-rule="evenodd" clip-rule="evenodd" d="M14.9645 14.1197L19.8248 18.98C20.0554 19.2106 20.0554 19.592 19.8248 19.8226C19.7095 19.9424 19.5543 20 19.4035 20C19.2528 20 19.0976 19.9379 18.9823 19.8226L14.1219 14.9623C12.6231 16.2661 10.6674 17.0554 8.52993 17.0554C3.82926 17.0554 0.00221252 13.2284 0.00221252 8.52772C0.00221252 3.82705 3.82483 0 8.52993 0C13.2306 0 17.0576 3.82262 17.0576 8.52772C17.0576 10.6652 16.2683 12.6208 14.9645 14.1197ZM8.52549 1.19734C4.48558 1.19734 1.19512 4.48337 1.19512 8.52772C1.19512 12.5721 4.48558 15.8625 8.52549 15.8625C12.5698 15.8625 15.8559 12.5676 15.8559 8.52772C15.8559 4.48781 12.5698 1.19734 8.52549 1.19734Z" fill="#33333A"/>
</svg>
