<svg width="51" height="50" viewBox="0 0 51 50" fill="none" xmlns="http://www.w3.org/2000/svg">
<path d="M10.5617 17.8797L7.67789 14.9958C7.29339 15.2842 6.17831 15.861 4.79408 15.861C3.40984 15.861 1.91026 18.168 1.3335 19.3216V31.4336H5.9476V49.6017H16.6177V31.722H20.9435V20.7635C20.9435 18.168 19.7899 17.8797 19.5015 17.0145C19.2708 16.3224 15.9448 15.3804 14.3107 14.9958L11.7152 17.8797L11.1385 18.168L10.5617 17.8797Z" fill="#F2F6F8"/>
<path d="M15.7523 4.03726C14.7911 4.5179 12.5225 5.19079 11.1382 4.03726C9.83569 2.95181 7.92031 3.1431 6.97794 3.40974C7.49955 2.36927 9.11955 0.28833 11.4266 0.28833C13.7337 0.28833 15.2717 2.78762 15.7523 4.03726Z" fill="#F2F6F8"/>
<path d="M16.6142 49.89H11.4478C11.3886 49.89 11.3294 49.89 11.29 49.8703C11.2309 49.89 11.1914 49.89 11.1323 49.89H5.82774C5.55167 49.89 5.33475 49.6731 5.33475 49.397C5.31503 44.5658 5.29532 37.6049 5.2756 31.7285H1.312C1.17396 31.7285 1.05565 31.6693 0.957051 31.5904C0.799295 31.4327 0.799295 31.4327 0.819015 29.2833C0.838734 28.1198 0.858454 26.5817 0.878173 25.0436C0.917612 21.9674 0.97677 18.8912 0.97677 18.8912C0.97677 18.8517 0.97677 18.832 0.97677 18.7926C1.17396 17.7672 1.74583 16.8403 2.5346 16.1896C3.04731 15.7755 3.57973 15.4994 4.09243 15.3811L7.58276 14.3754C7.68136 14.336 7.76024 14.2571 7.77996 14.1585L7.91799 13.0345C7.03062 12.2654 6.36016 11.2006 5.98549 9.99772C5.2756 9.74137 4.78261 8.93287 4.78261 7.9469C4.78261 6.92149 5.29532 6.09328 6.08409 5.87637C6.34044 5.79749 6.61651 5.95524 6.69539 6.2116C6.77427 6.46795 6.61651 6.74402 6.36016 6.8229C6.08409 6.90177 5.7883 7.3356 5.7883 7.9469C5.7883 8.53848 6.08409 9.05119 6.43904 9.09063C6.63623 9.11035 6.81371 9.24838 6.87287 9.46529C7.18838 10.6879 7.85883 11.7527 8.76593 12.4429C8.90396 12.5415 8.96312 12.719 8.9434 12.8965L8.78565 14.2965C8.72649 14.8092 8.37154 15.2234 7.87855 15.3614L4.3685 16.3868C4.34878 16.3868 4.34878 16.3868 4.32907 16.3868C3.9544 16.4657 3.56001 16.6826 3.16562 16.9981C2.55432 17.5108 2.12049 18.2207 1.94302 18.9898C1.88386 23.1111 1.78526 29.1058 1.78526 30.7819H5.2756C5.2756 29.0664 5.25588 27.4888 5.25588 26.0887L5.23616 20.6659C5.23616 20.5279 5.29532 20.4096 5.37419 20.311C5.47279 20.2124 5.59111 20.1729 5.72914 20.1729C6.08409 20.1729 6.18269 20.4096 6.20241 20.6659H6.22213V20.8237C6.22213 20.8828 6.22213 20.942 6.22213 21.0011C6.22213 21.218 6.22213 21.5138 6.22213 21.9082C6.22213 22.697 6.22213 23.821 6.24185 25.1619C6.24185 25.4577 6.24185 25.7535 6.24185 26.069L6.26157 31.2749C6.26157 31.2947 6.26157 31.3341 6.26157 31.3538C6.26157 32.5567 6.26157 33.799 6.28128 35.0413C6.301 41.1149 6.32072 47.1885 6.32072 48.9238H10.6393V31.3735C10.6393 31.1961 10.7181 31.0383 10.8759 30.9594C11.0139 30.8608 11.1914 30.8608 11.3492 30.9397C11.5661 31.0383 11.6055 31.1961 11.6252 31.3932C11.6252 31.4524 11.6252 31.5116 11.6252 31.5707C11.6252 31.7088 11.6252 31.906 11.645 32.1426C11.6647 32.6356 11.6647 33.3455 11.6844 34.1934C11.7238 35.8893 11.7436 38.1373 11.783 40.405C11.8422 44.0334 11.9013 47.6617 11.921 48.9435H16.1015C16.1015 47.1688 16.0621 40.9177 16.0424 34.7258C16.0227 30.4467 16.0227 27.0353 16.0227 24.5901C16.0227 19.7588 16.0227 19.7588 16.2199 19.5813C16.3973 19.4039 16.7326 19.4039 16.9298 19.5813C17.1269 19.7785 17.1269 19.7785 17.0875 25.6549C17.0678 27.7649 17.0481 29.8749 17.0283 30.8017C18.0538 30.8017 19.6707 30.8017 20.4792 30.8017C20.4792 29.1058 20.4004 23.1505 20.3412 19.0095C20.1835 18.2207 19.7496 17.5108 19.1186 17.0178C18.7242 16.6826 18.3298 16.4854 17.9552 16.4065C17.9354 16.4065 17.9354 16.4065 17.9157 16.4065L14.4057 15.3811C14.2874 15.3417 14.169 15.2825 14.0507 15.2234C13.7352 15.0064 13.538 14.6909 13.4986 14.3163L13.3408 12.9162C13.3211 12.7387 13.4 12.581 13.5183 12.4626C14.4057 11.7725 15.0761 10.7076 15.4114 9.48501C15.4705 9.28782 15.6283 9.13007 15.8452 9.11035C16.2001 9.07091 16.4959 8.5582 16.4959 7.96662C16.4959 7.3356 16.2001 6.92149 15.9241 6.84262C15.6677 6.76374 15.51 6.48767 15.5888 6.23132C15.6677 5.97496 15.9438 5.81721 16.2001 5.89609C16.9692 6.113 17.5016 6.96093 17.5016 7.96662C17.5016 8.93287 17.0086 9.76109 16.2987 10.0174C15.9241 11.24 15.2536 12.2852 14.3662 13.0542L14.4845 14.1782C14.4845 14.2571 14.5437 14.336 14.6029 14.3754C14.6226 14.3951 14.6423 14.3951 14.6817 14.4149L18.1721 15.4205C18.7045 15.5389 19.2172 15.8149 19.7299 16.229C20.5384 16.8995 21.0905 17.8263 21.2877 18.832C21.2877 18.8714 21.2877 18.8912 21.2877 18.9306C21.2877 18.9306 21.3272 22.0068 21.3666 25.083C21.3863 26.6212 21.4061 28.1593 21.4061 29.3227C21.4258 31.4327 21.4258 31.4327 21.3075 31.5904L21.2877 31.6102C21.1497 31.7679 21.1497 31.7679 20.2229 31.7679H16.9692C16.9889 37.3879 17.0086 44.0531 17.0481 49.4168C17.0481 49.5548 16.9889 49.6731 16.91 49.7717C16.8312 49.8703 16.7326 49.89 16.6142 49.89Z" fill="#6680AD"/>
<path d="M6.20263 6.82291C5.94628 6.82291 5.72936 6.62571 5.70965 6.34964C5.70965 6.23133 5.59133 3.33258 7.36607 1.47895C8.3126 0.492985 9.59437 0 11.1719 0C12.7692 0 14.0509 0.492985 14.9778 1.47895C16.7328 3.33258 16.6145 6.21161 16.6145 6.32992C16.5947 6.60599 16.3581 6.80319 16.1018 6.80319C15.8257 6.78347 15.6285 6.56656 15.6285 6.29048C15.6285 6.25105 15.7271 3.68752 14.2679 2.14941C13.5185 1.36064 12.4931 0.96625 11.1719 0.96625C9.87044 0.96625 8.82531 1.36064 8.07597 2.14941C6.59702 3.68752 6.69561 6.27076 6.69561 6.29048C6.71533 6.56656 6.49842 6.78347 6.22235 6.80319C6.22235 6.82291 6.20263 6.82291 6.20263 6.82291Z" fill="#6680AD"/>
<path d="M13.5181 5.16644C13.2618 5.16644 13.0054 5.14672 12.7293 5.127C11.7631 5.0284 10.9743 4.63401 10.225 4.25934C10.0278 4.16075 9.83059 4.06215 9.61368 3.96355C8.88406 3.62832 8.27276 3.54945 7.79949 3.7072C7.46427 3.82552 7.16848 4.08187 7.03044 4.35794C6.91212 4.59457 6.61633 4.71289 6.3797 4.57485C6.14307 4.45654 6.02475 4.16075 6.16279 3.92411C6.41914 3.41141 6.8924 2.9973 7.48399 2.78039C8.2136 2.52404 9.06154 2.60292 10.0475 3.05646C10.2644 3.15506 10.4616 3.25366 10.6785 3.35225C11.3884 3.7072 12.0786 4.04243 12.8674 4.12131C13.9125 4.23962 14.7604 4.10159 15.5689 3.68748C15.8056 3.56917 16.1014 3.66776 16.2394 3.90439C16.3577 4.14103 16.2591 4.43682 16.0225 4.57485C15.214 4.96924 14.4055 5.16644 13.5181 5.16644Z" fill="#6680AD"/>
<path d="M11.1717 18.5953C11.0336 18.5953 10.9153 18.5362 10.8167 18.4376L7.58274 15.0853C7.38555 14.8881 7.40527 14.5726 7.60246 14.3951C7.79965 14.1979 8.11516 14.2176 8.29264 14.4148L11.5266 17.7671C11.7238 17.9643 11.7041 18.2798 11.5069 18.4573C11.428 18.5362 11.29 18.5953 11.1717 18.5953Z" fill="#6680AD"/>
<path d="M11.1717 18.5954C11.0534 18.5954 10.9154 18.5559 10.8365 18.4573C10.6393 18.2601 10.6393 17.9644 10.8168 17.7672L14.0508 14.4149C14.2479 14.2177 14.5437 14.2177 14.7409 14.3951C14.9381 14.5923 14.9381 14.8881 14.7607 15.0853L11.5267 18.4376C11.4281 18.5362 11.3098 18.5954 11.1717 18.5954Z" fill="#6680AD"/>
<path d="M11.1915 21.5532C11.1521 21.5532 11.1127 21.5532 11.0535 21.5335C10.9549 21.5138 10.876 21.4743 10.7972 21.3955L6.81384 17.1361C6.63637 16.9389 6.63637 16.6234 6.83356 16.4459C7.03076 16.2684 7.34627 16.2684 7.52374 16.4656L11.1521 20.3503L14.8002 16.4656C14.9777 16.2684 15.2932 16.2487 15.4904 16.4459C15.6876 16.6234 15.7073 16.9389 15.5101 17.1361L11.5268 21.3955C11.4479 21.5138 11.3099 21.5532 11.1915 21.5532Z" fill="#6680AD"/>
<path d="M49.6639 49.89H25.0936C24.8175 49.89 24.6006 49.673 24.6006 49.397V8.49897C24.6006 8.22289 24.8175 8.00598 25.0936 8.00598H49.6836C49.9597 8.00598 50.1766 8.22289 50.1766 8.49897V49.397C50.1569 49.6533 49.94 49.89 49.6639 49.89ZM25.5866 48.904H49.1709V8.99195H25.5866V48.904Z" fill="#6680AD"/>
<path d="M37.5561 19.4039C36.6688 19.4039 35.9392 18.6743 35.9392 17.7869C35.9392 17.6094 36.0772 17.4714 36.2547 17.4714C36.4321 17.4714 36.5702 17.6094 36.5702 17.7869C36.5702 18.3193 37.004 18.7531 37.5364 18.7531C38.0688 18.7531 38.5027 18.3193 38.5027 17.7869C38.5027 17.2545 38.0688 16.8206 37.5364 16.8206C36.6491 16.8206 35.9194 16.091 35.9194 15.2037C35.9194 14.3163 36.6491 13.5867 37.5364 13.5867C38.4238 13.5867 39.1534 14.3163 39.1534 15.2037C39.1534 15.3811 39.0154 15.5192 38.8379 15.5192C38.6604 15.5192 38.5224 15.3811 38.5224 15.2037C38.5224 14.6712 38.0886 14.2374 37.5561 14.2374C37.0237 14.2374 36.5899 14.6712 36.5899 15.2037C36.5899 15.7361 37.0237 16.1699 37.5561 16.1699C38.4435 16.1699 39.1731 16.8995 39.1731 17.7869C39.1731 18.6743 38.4435 19.4039 37.5561 19.4039Z" fill="#FDC130"/>
<path d="M37.5557 20.0547C37.3783 20.0547 37.2402 19.9166 37.2402 19.7392V13.2318C37.2402 13.0543 37.3783 12.9163 37.5557 12.9163C37.7332 12.9163 37.8713 13.0543 37.8713 13.2318V19.7392C37.8713 19.8969 37.7332 20.0547 37.5557 20.0547Z" fill="#FDC130"/>
<path d="M47.2974 47.3068H27.7752C27.4991 47.3068 27.2822 47.0899 27.2822 46.8138V31.4919C27.2822 31.2158 27.4991 30.9989 27.7752 30.9989H47.2974C47.5735 30.9989 47.7904 31.2158 47.7904 31.4919V46.8138C47.7904 47.0899 47.5735 47.3068 47.2974 47.3068ZM28.2879 46.3209H46.8241V31.9849H28.2879V46.3209Z" fill="#6680AD"/>
<path d="M36.5897 25.2013H30.7528C30.4767 25.2013 30.2598 24.9844 30.2598 24.7084V22.6181C30.2598 22.342 30.4767 22.1251 30.7528 22.1251H36.5897C36.8658 22.1251 37.0827 22.342 37.0827 22.6181V24.7084C37.0827 24.9844 36.846 25.2013 36.5897 25.2013ZM31.226 24.2154H36.077V23.1111H31.226V24.2154Z" fill="#6680AD"/>
<path d="M45.6015 24.452H40.8294C40.5533 24.452 40.3364 24.2351 40.3364 23.959C40.3364 23.683 40.5533 23.4661 40.8294 23.4661H45.6015C45.8776 23.4661 46.0945 23.683 46.0945 23.959C46.0945 24.2351 45.8776 24.452 45.6015 24.452Z" fill="#6680AD"/>
<path d="M45.5027 21.4744H29.9442C29.6681 21.4744 29.4512 21.2575 29.4512 20.9814V11.9302C29.4512 11.6542 29.6681 11.4373 29.9442 11.4373H45.5027C45.7788 11.4373 45.9957 11.6542 45.9957 11.9302V21.0012C45.9957 21.2575 45.7788 21.4744 45.5027 21.4744ZM30.4371 20.4885H45.0098V12.4035H30.4371V20.4885Z" fill="#6680AD"/>
<path d="M46.8832 28.179C46.6071 28.179 46.3902 27.9621 46.3902 27.6861V10.8851H28.7413V27.1931H39.7645C40.0406 27.1931 40.2575 27.41 40.2575 27.6861C40.2575 27.9621 40.0406 28.179 39.7645 28.179H28.2484C27.9723 28.179 27.7554 27.9621 27.7554 27.6861V10.3922C27.7554 10.1161 27.9723 9.89917 28.2484 9.89917H46.8832C47.1592 9.89917 47.3762 10.1161 47.3762 10.3922V27.6861C47.3762 27.9424 47.1592 28.179 46.8832 28.179Z" fill="#6680AD"/>
<path d="M45.0297 30.3679H41.3817C41.1056 30.3679 40.8887 30.151 40.8887 29.8749V24.3535C40.8887 24.0774 41.1056 23.8605 41.3817 23.8605H45.0297C45.3058 23.8605 45.5227 24.0774 45.5227 24.3535V29.8749C45.5227 30.151 45.3058 30.3679 45.0297 30.3679ZM41.8746 29.3819H44.5368V24.8464H41.8746V29.3819Z" fill="#6680AD"/>
<path d="M43.7479 30.3679C43.4718 30.3679 43.2549 30.151 43.2549 29.8749V24.3535C43.2549 24.0774 43.4718 23.8605 43.7479 23.8605C44.0239 23.8605 44.2409 24.0774 44.2409 24.3535V29.8749C44.2409 30.151 44.0239 30.3679 43.7479 30.3679Z" fill="#6680AD"/>
</svg>
