<svg width="46" height="62" viewBox="0 0 46 62" fill="none" xmlns="http://www.w3.org/2000/svg">
<path d="M37.2678 12.415H5.99854C4.05289 12.415 3.18045 14.1907 2.98743 15.0786C2.56278 25.7333 1.66717 47.8071 1.48187 50.8646C1.29657 53.922 3.95253 54.3003 5.30367 54.1073H29.9716V45.4214L37.2678 41.7154L40.858 43.1052L41.7845 41.7154C41.5142 34.9983 40.9506 20.6145 40.858 16.8158C40.7653 13.0172 38.4259 12.2992 37.2678 12.415Z" fill="#F2F6F8"/>
<path d="M11.5342 24.1119C9.75074 24.1119 8.2915 22.6527 8.2915 20.8692C8.2915 19.0857 9.75074 17.6265 11.5342 17.6265C13.3177 17.6265 14.777 19.0857 14.777 20.8692C14.777 22.6527 13.3177 24.1119 11.5342 24.1119ZM11.5342 18.7846C10.3761 18.7846 9.44962 19.7111 9.44962 20.8692C9.44962 22.0273 10.3761 22.9538 11.5342 22.9538C12.6924 22.9538 13.6189 22.0273 13.6189 20.8692C13.6189 19.7111 12.6924 18.7846 11.5342 18.7846Z" fill="#6680AD"/>
<path d="M31.8477 24.1119C30.0642 24.1119 28.605 22.6527 28.605 20.8692C28.605 19.0857 30.0642 17.6265 31.8477 17.6265C33.6312 17.6265 35.0905 19.0857 35.0905 20.8692C35.0905 22.6527 33.6312 24.1119 31.8477 24.1119ZM31.8477 18.7846C30.6896 18.7846 29.7631 19.7111 29.7631 20.8692C29.7631 22.0273 30.6896 22.9538 31.8477 22.9538C33.0058 22.9538 33.9323 22.0273 33.9323 20.8692C33.9323 19.7111 33.0058 18.7846 31.8477 18.7846Z" fill="#6680AD"/>
<path d="M28.3502 54.7095H4.16861C2.31562 54.7095 0.810059 53.2039 0.810059 51.351V51.3278L2.43143 15.1249C2.43143 13.2719 3.93698 11.7896 5.78998 11.7896H37.7773C39.6303 11.7896 41.1358 13.2951 41.1358 15.1481L42.155 41.7386C42.1781 42.0628 41.9233 42.3176 41.5991 42.3408C41.2748 42.3639 41.02 42.1092 40.9968 41.7849L39.9777 15.1713C39.9777 13.9437 38.9817 12.9477 37.7773 12.9477H5.78998C4.58553 12.9477 3.58955 13.9437 3.58955 15.1481V15.1713L1.96818 51.3741C1.96818 52.5786 2.96416 53.5514 4.16861 53.5514H28.3502C28.6744 53.5514 28.9292 53.8062 28.9292 54.1304C28.9292 54.4547 28.6744 54.7095 28.3502 54.7095Z" fill="#6680AD"/>
<path d="M31.8707 18.8079C31.5465 18.8079 31.2917 18.5531 31.2917 18.2288V10.7474C31.2917 5.46633 26.9835 1.15812 21.7024 1.15812C16.4214 1.15812 12.1132 5.46633 12.1132 10.7474V18.2057C12.1132 18.5299 11.8584 18.7847 11.5341 18.7847C11.2099 18.7847 10.9551 18.5299 10.9551 18.2057V10.7474C10.9551 4.81778 15.7729 0 21.7024 0C27.632 0 32.4498 4.81778 32.4498 10.7474V18.2288C32.4498 18.5531 32.195 18.8079 31.8707 18.8079Z" fill="#6680AD"/>
<path d="M37.1983 61.473L33.446 59.2494C30.8054 57.6975 29.1841 54.8254 29.1841 51.7448V44.8887L37.1751 41.0901L45.1661 44.8887V51.7448C45.1661 54.8486 43.5679 57.6281 40.9043 59.2263L37.1983 61.473ZM30.3422 45.6531V51.768C30.3422 54.4316 31.7551 56.91 34.0482 58.2534L37.1983 60.1064L40.302 58.2534C42.6183 56.8637 44.008 54.4316 44.008 51.7448V45.6531L37.1751 42.4103L30.3422 45.6531Z" fill="#FDC130"/>
</svg>
