<svg width="52" height="53" viewBox="0 0 52 53" fill="none" xmlns="http://www.w3.org/2000/svg">
<path d="M39.313 10.5374C39.031 10.5374 38.8093 10.3158 38.8093 10.0337V4.41241C38.8093 2.37746 37.6005 1.0074 35.8073 1.0074C34.1149 1.0074 32.8053 2.84086 32.8053 4.41241C32.8053 4.69448 32.5836 4.91611 32.3016 4.91611C32.0195 4.91611 31.7979 4.69448 31.7979 4.41241C31.7979 2.33717 33.5104 0 35.8073 0C38.1646 0 39.8167 1.81332 39.8167 4.41241V10.0337C39.8167 10.3158 39.5951 10.5374 39.313 10.5374Z" fill="#6680AD"/>
<path d="M50.3434 23.2904H1.46631V42.3164C1.46631 48.8771 8.02699 51.392 11.3073 51.8294H37.5501C48.0472 51.8294 50.4528 44.3939 50.3434 40.6762V23.2904Z" fill="#F2F6F8"/>
<path d="M46.9894 23.694H31.6568C31.4352 23.694 31.2539 23.5529 31.1733 23.3515L27.3855 11.9074C27.325 11.7059 27.3855 11.4843 27.5668 11.3433C27.7481 11.2224 27.9698 11.2022 28.1511 11.3231C28.1914 11.3433 32.0396 13.9423 35.3439 13.0558C36.855 12.6529 38.0236 11.5649 38.8698 9.83216C38.8698 9.81201 38.89 9.79186 38.9101 9.77171C39.0108 9.59038 39.2325 9.48964 39.434 9.52994C39.6153 9.57023 39.7563 9.69112 39.8168 9.87245C40.6428 11.585 41.8316 12.673 43.3225 13.076C46.6268 13.9625 50.4549 11.3634 50.4952 11.3433C50.6765 11.2224 50.9183 11.2224 51.0795 11.3634C51.2608 11.4843 51.3213 11.7261 51.2608 11.9275L47.473 23.3716C47.3924 23.5529 47.2111 23.694 46.9894 23.694ZM32.0195 22.6866H46.6268L49.8907 12.8544C48.3797 13.6401 45.6395 14.7281 43.0606 14.0431C41.5092 13.62 40.26 12.6327 39.3332 11.1015C38.3863 12.6327 37.1371 13.62 35.6058 14.0431C33.0269 14.7281 30.2868 13.6401 28.7757 12.8544L32.0195 22.6866Z" fill="#6680AD"/>
<path d="M39.3128 23.6941C39.0307 23.6941 38.8091 23.4724 38.8091 23.1904V10.0337C38.8091 9.75166 39.0307 9.53003 39.3128 9.53003C39.5949 9.53003 39.8165 9.75166 39.8165 10.0337V23.1904C39.8165 23.4724 39.5949 23.6941 39.3128 23.6941Z" fill="#6680AD"/>
<path d="M7.39861 14.1842C6.45166 14.1842 5.68604 13.4186 5.68604 12.4716C5.68604 11.5247 6.45166 10.759 7.39861 10.759C8.34557 10.759 9.11119 11.5247 9.11119 12.4716C9.11119 13.4186 8.34557 14.1842 7.39861 14.1842ZM7.39861 11.7664C7.0158 11.7664 6.69343 12.0888 6.69343 12.4716C6.69343 12.8544 7.0158 13.1768 7.39861 13.1768C7.78142 13.1768 8.10379 12.8544 8.10379 12.4716C8.10379 12.0888 7.78142 11.7664 7.39861 11.7664Z" fill="#6680AD"/>
<path d="M25.3302 23.6941H8.0835C7.88202 23.6941 7.70069 23.5732 7.6201 23.3919L3.20769 13.0963C2.90547 12.3911 2.88533 11.5852 3.18755 10.8598C3.48976 10.1345 4.03376 9.57037 4.73894 9.26815L14.8532 4.93633C15.5584 4.63411 16.3643 4.61396 17.0896 4.91618C17.815 5.19826 18.3791 5.7624 18.6813 6.46758L25.7734 23.0091C25.8339 23.1702 25.8339 23.3516 25.7331 23.4926C25.6525 23.6135 25.4914 23.6941 25.3302 23.6941ZM8.42602 22.6867H24.5645L17.7747 6.85039C17.5732 6.38699 17.2105 6.02432 16.727 5.82284C16.2434 5.64151 15.7397 5.64151 15.2562 5.84299L5.1419 10.195C4.6785 10.3964 4.31583 10.7591 4.11435 11.2426C3.93302 11.7262 3.93302 12.2299 4.1345 12.7134L8.42602 22.6867Z" fill="#6680AD"/>
<path d="M39.6151 52.4854H11.8914C5.78661 52.4854 0.810059 47.5088 0.810059 41.404V23.1902C0.810059 22.9082 1.03169 22.6865 1.31376 22.6865H50.1927C50.4748 22.6865 50.6964 22.9082 50.6964 23.1902V41.404C50.6964 47.529 45.7199 52.4854 39.6151 52.4854ZM1.81746 23.6939V41.404C1.81746 46.9648 6.3306 51.478 11.8914 51.478H39.6151C45.1759 51.478 49.689 46.9648 49.689 41.404V23.6939H1.81746Z" fill="#6680AD"/>
<path d="M25.33 23.6939H8.08329C7.80122 23.6939 7.57959 23.4723 7.57959 23.1902C7.57959 22.9082 7.80122 22.6865 8.08329 22.6865H25.33C25.612 22.6865 25.8337 22.9082 25.8337 23.1902C25.8337 23.4723 25.5919 23.6939 25.33 23.6939Z" fill="#6680AD"/>
<path d="M25.7938 47.791C25.2901 47.791 24.8267 47.6299 24.4438 47.2874C24.0409 46.9448 23.8394 46.4613 23.8394 45.8568C23.8394 45.3128 24.0409 44.8494 24.4035 44.4868C24.7864 44.1241 25.2498 43.9226 25.7938 43.9226C26.3377 43.9226 26.8012 44.104 27.1638 44.4868C27.5265 44.8494 27.728 45.3128 27.728 45.8568C27.728 46.4613 27.5265 46.9247 27.1235 47.2874C26.7407 47.6299 26.2975 47.791 25.7938 47.791ZM25.7938 44.93C25.5117 44.93 25.2901 45.0106 25.1087 45.192C24.9274 45.3733 24.8468 45.5748 24.8468 45.8568C24.8468 46.2598 24.9878 46.4411 25.1087 46.5419C25.3102 46.7232 25.5318 46.8038 25.7938 46.8038C26.0557 46.8038 26.2572 46.7232 26.4586 46.5419C26.5795 46.4411 26.7206 46.2598 26.7206 45.8568C26.7206 45.5949 26.64 45.3733 26.4586 45.192C26.2572 45.0106 26.0557 44.93 25.7938 44.93ZM25.6729 43.2578C25.2095 43.2578 24.8065 43.0966 24.4841 42.7944C24.1618 42.472 23.9804 42.0287 23.9804 41.4646C23.9804 40.8601 24.0812 40.3363 24.2625 39.8729C24.4438 39.4296 24.7058 39.0267 25.0281 38.6842C25.3102 38.3819 25.693 37.9991 26.1766 37.5962C26.5795 37.2537 26.8616 36.9716 27.0429 36.8104C27.184 36.6694 27.325 36.488 27.4257 36.3067C27.5063 36.1657 27.5466 36.0045 27.5466 35.8232C27.5466 35.4403 27.4257 35.1583 27.1437 34.8963C26.8616 34.6344 26.4788 34.4934 26.0154 34.4934C25.4512 34.4934 25.0684 34.6143 24.8267 34.8561C24.5446 35.1583 24.3028 35.6217 24.1013 36.2463C23.7185 37.4954 22.8723 37.6768 22.3887 37.6768C21.885 37.6768 21.4619 37.4954 21.1194 37.1529C20.7769 36.8104 20.6157 36.4074 20.6157 35.9843C20.6157 35.2792 20.8374 34.574 21.2806 33.8688C21.7239 33.1838 22.3484 32.5995 23.1745 32.1562C24.0006 31.713 24.9475 31.4712 26.0355 31.4712C27.0429 31.4712 27.9294 31.6525 28.7152 32.0353C29.501 32.4181 30.1256 32.942 30.5688 33.6069C31.0121 34.2718 31.2337 35.0172 31.2337 35.803C31.2337 36.4276 31.0927 36.9917 30.8509 37.4753C30.6091 37.9185 30.3069 38.3215 29.9644 38.664C29.6622 38.9662 29.098 39.4699 28.3123 40.1751C28.1108 40.3564 27.9496 40.5176 27.8287 40.6587C27.7078 40.7997 27.6272 40.9004 27.6071 40.9609C27.5668 41.0616 27.5265 41.1422 27.4862 41.243C27.4459 41.3638 27.4056 41.5653 27.3451 41.8675C27.1437 42.7541 26.5594 43.2578 25.6729 43.2578ZM26.0154 33.5061C26.7407 33.5061 27.3451 33.7278 27.8287 34.171C28.3122 34.6143 28.554 35.1784 28.554 35.8433C28.554 36.1858 28.4734 36.5283 28.3123 36.8104C28.1712 37.0723 27.9899 37.3141 27.7683 37.5357C27.5869 37.7171 27.2847 37.9991 26.8616 38.3618C26.4183 38.7648 26.0557 39.1073 25.7938 39.3893C25.552 39.6513 25.3706 39.9333 25.2296 40.2759C25.0886 40.5982 25.0281 41.0012 25.0281 41.4646C25.0281 41.7467 25.0886 41.9481 25.2095 42.069C25.3505 42.1899 25.4915 42.2504 25.693 42.2504C26.0355 42.2504 26.2572 42.1496 26.3377 41.6661V41.6459C26.4183 41.3236 26.4586 41.1019 26.4989 40.9609C26.5392 40.7997 26.5997 40.6385 26.6803 40.4975C26.7609 40.3363 26.8817 40.1751 27.0429 39.9938C27.184 39.8326 27.3653 39.6513 27.6071 39.4296C28.3928 38.7245 28.9368 38.2409 29.2189 37.9387C29.4808 37.6768 29.7226 37.3544 29.9039 36.9917C30.0853 36.6492 30.1659 36.2664 30.1659 35.803C30.1659 35.1986 30.0047 34.6747 29.6622 34.171C29.3196 33.6673 28.8361 33.2442 28.2115 32.9621C27.5668 32.6599 26.8213 32.4987 25.9751 32.4987C25.0684 32.4987 24.2625 32.6801 23.5976 33.0427C22.9327 33.4054 22.4089 33.8688 22.0865 34.4128C21.744 34.9568 21.5828 35.4806 21.5828 35.9843C21.5828 36.0851 21.603 36.2463 21.8045 36.4477C21.9455 36.6089 22.1268 36.6694 22.3484 36.6694C22.6104 36.6694 22.9126 36.5888 23.0939 35.944C23.3558 35.1583 23.6581 34.5941 24.061 34.171C24.5244 33.7278 25.1692 33.5061 26.0154 33.5061Z" fill="#FDC130"/>
</svg>
