<svg width="46" height="39" viewBox="0 0 46 39" fill="none" xmlns="http://www.w3.org/2000/svg">
<path d="M14.148 23.2033C14.148 17.9452 20.0567 10.058 23.0111 6.77173C26.5164 7.40907 30.3803 15.8008 31.8741 19.917C33.2683 26.0912 33.6467 38.3004 24.0069 37.7427C11.9571 37.0456 14.148 29.7759 14.148 23.2033Z" fill="#F2F6F8"/>
<path d="M23.4091 38.9801C19.9436 38.9801 17.1353 36.1718 17.1353 32.7062C17.1353 29.2407 19.9436 26.4324 23.4091 26.4324C26.8747 26.4324 29.683 29.2407 29.683 32.7062C29.683 36.1718 26.8548 38.9801 23.4091 38.9801ZM23.4091 28.9021C21.2979 28.9021 19.585 30.6149 19.585 32.7261C19.585 34.8374 21.2979 36.5502 23.4091 36.5502C25.5203 36.5502 27.2332 34.8374 27.2332 32.7261C27.2133 30.6149 25.5004 28.9021 23.4091 28.9021Z" fill="#FDC130"/>
<path d="M23.2302 38.9602C17.2352 38.9602 10.1647 34.4788 5.40452 27.0498C2.37713 22.3494 0.704102 17.1311 0.704102 12.3909C0.704102 7.47138 2.47672 3.62739 5.70327 1.55603C8.92983 -0.515343 13.1721 -0.515344 17.6336 1.53611C21.9356 3.52781 25.9788 7.21246 29.0062 11.9328C35.3398 21.8315 35.2203 33.2639 28.7074 37.4465C27.0941 38.4822 25.2219 38.9602 23.2302 38.9602ZM11.2402 2.15354C9.607 2.15354 8.13315 2.55188 6.87837 3.36847C4.28916 5.02158 2.87506 8.22822 2.87506 12.3909C2.87506 16.7129 4.42858 21.5129 7.23688 25.8946C11.5987 32.6863 17.9522 36.829 23.1506 36.829C24.7638 36.829 26.2576 36.4307 27.5522 35.6141C33.0493 32.0888 32.89 21.9909 27.1937 13.088C24.3854 8.70623 20.6809 5.30042 16.7373 3.48797C14.8053 2.61163 12.9531 2.15354 11.2402 2.15354Z" fill="#6680AD"/>
<path d="M40.8965 1.55603C37.6699 -0.515343 33.4276 -0.515344 28.9662 1.53611C27.3728 2.27304 25.8193 3.24897 24.3454 4.42407C24.8235 4.86225 25.2616 5.32034 25.6799 5.79835C25.7396 5.8581 25.8193 5.91785 25.8791 5.9776C27.1737 4.98175 28.5081 4.14524 29.8824 3.50789C31.8143 2.61163 33.6666 2.17345 35.3795 2.17345C37.0127 2.17345 38.4865 2.57179 39.7413 3.38839C42.3305 5.0415 43.7446 8.24814 43.7446 12.4108C43.7446 16.7328 42.1911 21.5328 39.3828 25.9145C36.5745 30.2963 32.8699 33.7021 28.9264 35.5145C25.162 37.2473 21.6567 37.2871 19.0674 35.634C16.4782 33.9809 15.0641 30.7743 15.0641 26.6116C15.0641 22.2896 16.6176 17.4896 19.4259 13.1079C20.362 11.6539 21.3977 10.3394 22.5131 9.12449C21.9753 8.64648 21.4176 8.16847 20.86 7.71038C19.6849 9.00499 18.5894 10.3992 17.6135 11.9328C14.5861 16.6531 12.9131 21.8714 12.9131 26.6116C12.9131 31.5311 14.6857 35.3751 17.9123 37.4465C19.5255 38.4822 21.4176 39 23.4293 39C25.4409 39 27.6118 38.4822 29.8425 37.4664C34.1446 35.4747 38.1878 31.79 41.2152 27.0697C44.2425 22.3494 45.9156 17.1311 45.9156 12.3909C45.9156 7.47138 44.143 3.62739 40.8965 1.55603Z" fill="#6680AD"/>
</svg>
