<svg width="52" height="44" viewBox="0 0 52 44" fill="none" xmlns="http://www.w3.org/2000/svg">
<path d="M30.8566 0.645508H21.34C19.9557 0.645508 19.4174 1.60678 19.3213 2.08742V11.0273C19.3213 13.3343 20.6671 13.9111 21.34 13.9111H30.2798C31.8947 13.9111 32.8752 12.373 33.1636 11.604V3.81771C33.1636 1.51065 31.6256 0.741635 30.8566 0.645508Z" fill="#F2F6F8"/>
<path d="M32.5869 43.0377V22.851C24.8006 23.0432 8.18983 22.851 5.19066 22.851C2.19149 22.851 1.15332 24.1967 1.15332 24.8696L1.73008 43.0377H32.5869Z" fill="#F2F6F8"/>
<path d="M51.1913 43.5404H48.0362C47.622 43.5404 47.2671 43.2052 47.2671 42.7713V11.3386C47.2671 10.9245 47.6023 10.5696 48.0362 10.5696H51.1913C51.6054 10.5696 51.9603 10.9048 51.9603 11.3386V42.7713C51.9406 43.2052 51.6054 43.5404 51.1913 43.5404ZM48.2531 42.5544H50.9546V11.5555H48.2531V42.5544Z" fill="#6680AD"/>
<path d="M30.7424 14.336H21.5532C19.9756 14.336 18.6938 13.0542 18.6938 11.4767V2.85931C18.6938 1.28176 19.9756 0 21.5532 0H30.7424C32.3199 0 33.6017 1.28176 33.6017 2.85931V11.4767C33.6017 13.0542 32.3199 14.336 30.7424 14.336ZM21.5532 0.985969C20.5278 0.985969 19.6798 1.8339 19.6798 2.85931V11.4767C19.6798 12.5021 20.5278 13.35 21.5532 13.35H30.7424C31.7678 13.35 32.6157 12.5021 32.6157 11.4767V2.85931C32.6157 1.8339 31.7678 0.985969 30.7424 0.985969H21.5532Z" fill="#6680AD"/>
<path d="M26.3846 11.2203C26.1085 11.2203 25.8916 11.0034 25.8916 10.7273V3.92414C25.8916 3.64807 26.1085 3.43115 26.3846 3.43115C26.6607 3.43115 26.8776 3.64807 26.8776 3.92414V10.747C26.8776 11.0034 26.6607 11.2203 26.3846 11.2203Z" fill="#FDC130"/>
<path d="M29.7959 7.80885H22.973C22.6969 7.80885 22.48 7.59193 22.48 7.31586C22.48 7.03979 22.6969 6.82288 22.973 6.82288H29.7959C30.0719 6.82288 30.2889 7.03979 30.2889 7.31586C30.2889 7.59193 30.0719 7.80885 29.7959 7.80885Z" fill="#FDC130"/>
<path d="M9.83976 38.1374C9.72144 38.1374 9.58341 38.098 9.48481 37.9994C9.28762 37.8022 9.28762 37.4867 9.48481 37.3092L18.4571 28.3369C18.6543 28.1397 18.9698 28.1397 19.1473 28.3369C19.3445 28.5341 19.3445 28.8496 19.1473 29.027L10.175 37.9796C10.0764 38.0782 9.95808 38.1374 9.83976 38.1374Z" fill="#FDC130"/>
<path d="M13.4486 38.1374C13.3303 38.1374 13.1923 38.098 13.0937 37.9994C12.8965 37.8022 12.8965 37.4867 13.0937 37.3092L22.066 28.3369C22.2632 28.1397 22.5787 28.1397 22.7562 28.3369C22.9534 28.5341 22.9534 28.8496 22.7562 29.027L13.8036 37.9796C13.705 38.0782 13.5867 38.1374 13.4486 38.1374Z" fill="#FDC130"/>
<path d="M47.7604 29.7566C47.6223 29.7566 34.0357 29.7566 32.9905 29.7566C32.7145 29.7566 32.4976 29.5397 32.4976 29.2636C32.4976 28.9875 32.7145 28.7706 32.9905 28.7706C34.0357 28.7706 47.6223 28.7706 47.7604 28.7706C48.0364 28.7706 48.2533 28.9875 48.2533 29.2636C48.2533 29.52 48.0364 29.7566 47.7604 29.7566Z" fill="#6680AD"/>
<path d="M47.7604 39.9713C47.6223 39.9713 34.0357 39.9713 32.9905 39.9713C32.7145 39.9713 32.4976 39.7544 32.4976 39.4783C32.4976 39.2023 32.7145 38.9854 32.9905 38.9854C34.0357 38.9854 47.6223 38.9854 47.7604 38.9854C48.0364 38.9854 48.2533 39.2023 48.2533 39.4783C48.2533 39.7544 48.0364 39.9713 47.7604 39.9713Z" fill="#6680AD"/>
<path d="M47.7604 43.5404C47.6223 43.5404 34.0357 43.5404 32.9905 43.5404C32.7145 43.5404 32.4976 43.3235 32.4976 43.0474C32.4976 42.7714 32.7145 42.5544 32.9905 42.5544C34.0357 42.5544 47.6223 42.5544 47.7604 42.5544C48.0364 42.5544 48.2533 42.7714 48.2533 43.0474C48.2533 43.3235 48.0364 43.5404 47.7604 43.5404Z" fill="#6680AD"/>
<path d="M41.8639 29.7565C41.5287 29.7565 41.1934 29.6777 40.9371 29.5396C40.523 29.3227 40.2666 28.9678 40.2075 28.5734C40.1878 28.3762 40.2272 28.1987 40.3455 28.041C40.5624 27.7846 40.9371 27.7254 41.2329 27.7057C41.9428 27.6466 43.9739 26.5817 45.0782 25.9113C45.0979 25.8915 45.1176 25.8915 45.1373 25.8915C46.0641 25.4774 46.8135 25.4577 47.3065 25.8521C47.9966 26.3845 47.9375 27.3902 47.898 27.6663C47.9375 28.2184 47.8192 28.6128 47.5628 28.8889C47.1881 29.2833 46.6754 29.2636 46.2613 29.2636C46.1036 29.2636 45.9655 29.2636 45.8472 29.2636L42.1794 29.7565C42.0808 29.7368 41.9625 29.7565 41.8639 29.7565ZM41.4104 28.672C41.5878 28.7509 41.8047 28.7903 42.0414 28.7509L45.7092 28.2579C45.9064 28.2382 46.0839 28.2382 46.281 28.2382C46.498 28.2382 46.7938 28.2579 46.8529 28.179C46.8726 28.1593 46.9515 28.0607 46.9121 27.6466C46.9121 27.6071 46.9121 27.5677 46.9121 27.548C46.9515 27.3113 46.9318 26.7789 46.6952 26.6014C46.498 26.4634 46.0839 26.5029 45.5514 26.7592C45.1373 27.0156 42.633 28.5142 41.4104 28.672Z" fill="#6680AD"/>
<path d="M41.1146 28.1987C40.7202 28.1987 40.3455 28.1396 39.9512 28.0213C38.9455 27.7057 38.137 27.0353 37.644 26.1085C37.151 25.1817 37.0524 24.1168 37.3679 23.1308C37.6834 22.1252 38.3539 21.3167 39.2807 20.8237C40.2075 20.3307 41.2724 20.2321 42.2583 20.5476C43.264 20.8631 44.0725 21.5336 44.5655 22.4604C45.0585 23.3872 45.1571 24.452 44.8416 25.438C44.3289 27.1142 42.771 28.1987 41.1146 28.1987ZM41.1146 21.3561C40.6413 21.3561 40.1878 21.4744 39.754 21.6913C39.0638 22.0463 38.5511 22.6576 38.3144 23.4069C38.0778 24.1563 38.1567 24.945 38.5116 25.6352C38.8666 26.3254 39.4779 26.8381 40.2272 27.0747C41.7653 27.548 43.4218 26.7001 43.895 25.1422C44.3683 23.6041 43.5204 21.9477 41.9625 21.4744C41.6865 21.3955 41.4104 21.3561 41.1146 21.3561Z" fill="#6680AD"/>
<path d="M36.1453 28.7114H32.9705C32.6945 28.7114 32.4775 28.4945 32.4775 28.2184V24.4323C32.4775 24.1562 32.6945 23.9393 32.9705 23.9393H36.1453C37.4665 23.9393 38.5314 25.0042 38.5314 26.3254C38.5314 27.6466 37.4665 28.7114 36.1453 28.7114ZM33.4832 27.7255H36.1651C36.9341 27.7255 37.5651 27.0944 37.5651 26.3254C37.5651 25.5563 36.9341 24.9253 36.1651 24.9253H33.4832V27.7255Z" fill="#6680AD"/>
<path d="M32.9904 43.5404H1.12384C0.847773 43.5404 0.630859 43.3235 0.630859 43.0474V25.4577C0.630859 23.8407 1.95206 22.5195 3.56905 22.5195H32.9904C33.2664 22.5195 33.4834 22.7364 33.4834 23.0125V43.0474C33.4834 43.3235 33.2664 43.5404 32.9904 43.5404ZM1.61683 42.5544H32.4974V23.5055H3.56905C2.48448 23.5055 1.61683 24.3732 1.61683 25.4577V42.5544Z" fill="#6680AD"/>
<path d="M28.7508 43.0671C28.4747 43.0671 28.2578 42.8502 28.2578 42.5741V23.0125C28.2578 22.7364 28.4747 22.5195 28.7508 22.5195C29.0269 22.5195 29.2438 22.7364 29.2438 23.0125V42.5741C29.2438 42.8502 29.0071 43.0671 28.7508 43.0671Z" fill="#6680AD"/>
</svg>
