<svg width="66" height="79" viewBox="0 0 66 79" fill="none" xmlns="http://www.w3.org/2000/svg">
<path d="M58.0925 48.478H4.89206C1.94233 48.478 1.90721 50.9361 2.25837 52.1652L8.57921 72.6897L57.039 72.1812C57.9169 68.6696 60.0941 60.2769 61.7796 54.7989C63.4652 49.3208 60.0238 48.3024 58.0925 48.478Z" fill="#F2F6F8"/>
<path d="M28.9706 16.8555C11.6936 15.17 15.8022 11.237 20.0161 9.48122C20.8588 10.7454 22.123 11.0614 22.6498 11.0614L24.7567 3.68711C25.5995 0.737387 27.9171 0.702271 28.9706 1.05343C29.8485 1.58017 31.9203 2.52829 33.1845 2.1069C36.5556 -0.421435 38.803 1.05343 39.5053 2.1069C42.6658 8.95448 42.6658 9.48122 45.8262 9.48122C57.9411 15.2753 35.2915 16.8555 28.9706 16.8555Z" fill="#F2F6F8"/>
<path d="M32.7989 65.7269C32.9044 65.7339 33.0102 65.7182 33.1093 65.681C33.2083 65.6437 33.2982 65.5858 33.373 65.511C33.4478 65.4362 33.5058 65.3462 33.543 65.2472C33.5803 65.1482 33.5959 65.0424 33.5889 64.9368V58.1422C33.5889 57.9327 33.5057 57.7317 33.3575 57.5836C33.2093 57.4354 33.0084 57.3522 32.7989 57.3522C32.5893 57.3522 32.3884 57.4354 32.2402 57.5836C32.092 57.7317 32.0088 57.9327 32.0088 58.1422V64.9368C32.0088 65.1463 32.092 65.3473 32.2402 65.4955C32.3884 65.6436 32.5893 65.7269 32.7989 65.7269Z" fill="#FDC130"/>
<path d="M32.7994 68.8872C33.0182 68.8872 33.2321 68.8223 33.414 68.7008C33.5959 68.5792 33.7376 68.4065 33.8213 68.2044C33.9051 68.0023 33.927 67.7799 33.8843 67.5653C33.8416 67.3507 33.7363 67.1536 33.5816 66.999C33.4269 66.8443 33.2298 66.7389 33.0152 66.6962C32.8007 66.6536 32.5783 66.6755 32.3762 66.7592C32.1741 66.8429 32.0013 66.9847 31.8798 67.1666C31.7582 67.3485 31.6934 67.5623 31.6934 67.7811C31.6934 68.0744 31.8099 68.3558 32.0173 68.5632C32.2248 68.7706 32.5061 68.8872 32.7994 68.8872Z" fill="#FDC130"/>
<path d="M7.75431 73.4775H32.91C35.1397 73.4274 37.2909 72.6445 39.0312 71.2496C40.7715 69.8548 42.0041 67.9258 42.5385 65.7605C43.0729 63.5952 42.8795 61.3141 41.988 59.2698C41.0965 57.2254 39.5567 55.5315 37.6063 54.4496C35.656 53.3678 33.4037 52.9584 31.1974 53.2845C28.9911 53.6106 26.9536 54.6542 25.3996 56.254C23.8456 57.8538 22.8617 59.9207 22.5998 62.1356C22.3379 64.3504 22.8127 66.5899 23.9507 68.508C24.0025 68.6014 24.0723 68.6836 24.156 68.75C24.2396 68.8164 24.3355 68.8657 24.4383 68.8951C24.541 68.9244 24.6484 68.9333 24.7546 68.9211C24.8607 68.9089 24.9634 68.8759 25.0567 68.824C25.1501 68.7721 25.2324 68.7024 25.2988 68.6187C25.3652 68.5351 25.4145 68.4391 25.4438 68.3364C25.4732 68.2337 25.482 68.1262 25.4698 68.0201C25.4576 67.914 25.4247 67.8113 25.3728 67.7179C24.3972 66.101 23.978 64.2091 24.1793 62.3315C24.3806 60.4538 25.1913 58.6937 26.4874 57.3204C27.7835 55.947 29.4937 55.0359 31.3566 54.7263C33.2195 54.4168 35.1325 54.7258 36.8031 55.6063C38.4737 56.4867 39.81 57.89 40.6077 59.6016C41.4054 61.3133 41.6206 63.2391 41.2203 65.0846C40.8201 66.9301 39.8265 68.5938 38.3914 69.8212C36.9563 71.0487 35.1587 71.7723 33.2734 71.8816C33.1853 71.8467 33.0917 71.828 32.9969 71.8263H9.01842L3.32994 52.7857C3.21446 52.4122 3.19005 52.0165 3.25878 51.6316C3.3275 51.2468 3.48736 50.8839 3.72498 50.5735C3.96705 50.2577 4.27779 50.0011 4.63368 49.8232C4.98957 49.6452 5.38127 49.5506 5.77915 49.5464H14.4699C14.5758 49.5977 14.6919 49.6247 14.8096 49.6254C14.9168 49.6216 15.0219 49.5947 15.1177 49.5464H50.4732C50.5791 49.5977 50.6952 49.6247 50.8129 49.6254C50.9355 49.6236 51.0565 49.5967 51.1684 49.5464H59.7406C60.1401 49.5414 60.535 49.6319 60.8924 49.8106C61.2497 49.9893 61.5591 50.2509 61.7948 50.5735C62.0324 50.8839 62.1923 51.2468 62.261 51.6316C62.3297 52.0165 62.3053 52.4122 62.1898 52.7857L56.3433 72.3793C56.2805 72.5888 56.3034 72.8148 56.4072 73.0074C56.5109 73.2 56.6869 73.3435 56.8964 73.4064C57.1059 73.4693 57.3319 73.4463 57.5245 73.3426C57.7171 73.2389 57.8606 73.0629 57.9235 72.8533L63.77 53.2597C63.965 52.6401 64.0111 51.9832 63.9047 51.3424C63.7983 50.7016 63.5423 50.0949 63.1575 49.5715C62.7727 49.0482 62.2699 48.6229 61.6899 48.3303C61.11 48.0377 60.4692 47.8859 59.8196 47.8873H51.682V39.5758C51.6597 39.3329 51.5469 39.1073 51.3659 38.9437L42.5962 31.3591C42.5132 31.2865 42.4167 31.2309 42.3122 31.1956C42.2078 31.1602 42.0973 31.1458 41.9873 31.1532C41.765 31.168 41.5578 31.2705 41.4111 31.4381C41.2644 31.6057 41.1904 31.8248 41.2052 32.047C41.22 32.2693 41.3225 32.4765 41.4901 32.6232L50.0228 39.9708V47.8715H15.655V39.9708L24.1877 32.3941C24.3553 32.2474 24.4578 32.0401 24.4726 31.8179C24.4874 31.5956 24.4134 31.3766 24.2667 31.209C24.12 31.0414 23.9127 30.9389 23.6905 30.924C23.4682 30.9092 23.2492 30.9833 23.0816 31.13L14.3119 38.9516C14.2092 39.0209 14.1262 39.1154 14.0708 39.2262C14.0155 39.3369 13.9896 39.46 13.9958 39.5837V47.8794H5.70014C5.05415 47.869 4.41507 48.0135 3.83638 48.3008C3.25769 48.588 2.75623 49.0098 2.37397 49.5306C1.98533 50.0569 1.72568 50.6671 1.6159 51.312C1.50612 51.957 1.54928 52.6187 1.74191 53.2439L7.75431 73.4775Z" fill="#6680AD"/>
<path d="M65.1915 74.0226L62.1103 68.1761C62.0055 67.9875 61.8301 67.8483 61.6227 67.789C61.4152 67.7297 61.1928 67.7553 61.0042 67.8601C60.8156 67.9648 60.6763 68.1402 60.6171 68.3477C60.5578 68.5551 60.5834 68.7776 60.6881 68.9661L63.7694 74.8126C63.8934 75.0883 63.9509 75.3892 63.9372 75.6911C63.9234 75.9931 63.8389 76.2875 63.6904 76.5508C63.542 76.8177 63.3241 77.0395 63.0598 77.1925C62.7955 77.3455 62.4947 77.4241 62.1893 77.4198H3.4084C3.10302 77.4241 2.8022 77.3455 2.53789 77.1925C2.27359 77.0395 2.05566 76.8177 1.90727 76.5508C1.74021 76.2945 1.64478 75.9981 1.63089 75.6925C1.617 75.3868 1.68514 75.0831 1.82827 74.8126L4.90952 68.9661C4.9614 68.8728 4.99437 68.7701 5.00657 68.664C5.01876 68.5578 5.00993 68.4504 4.98059 68.3477C4.95124 68.2449 4.90195 68.149 4.83554 68.0654C4.76912 67.9817 4.68687 67.9119 4.59349 67.8601C4.50012 67.8082 4.39744 67.7752 4.29131 67.763C4.18519 67.7508 4.07771 67.7596 3.975 67.789C3.87229 67.8183 3.77636 67.8676 3.6927 67.934C3.60904 68.0005 3.53928 68.0827 3.4874 68.1761L0.406147 74.0226C0.126825 74.5339 -0.0129286 75.1098 0.000940361 75.6923C0.0148094 76.2748 0.181812 76.8434 0.485154 77.3408C0.790142 77.844 1.21894 78.2607 1.73067 78.5512C2.2424 78.8416 2.82 78.9961 3.4084 79H62.1893C62.7777 78.9961 63.3553 78.8416 63.867 78.5512C64.3787 78.2607 64.8075 77.844 65.1125 77.3408C65.4159 76.8434 65.5829 76.2748 65.5967 75.6923C65.6106 75.1098 65.4708 74.5339 65.1915 74.0226Z" fill="#6680AD"/>
<path d="M22.4492 12.4765H22.5282C22.7226 12.4825 22.9135 12.4236 23.0709 12.3092C23.2282 12.1948 23.343 12.0313 23.3973 11.8445C23.7074 8.94415 24.5654 6.12909 25.9255 3.54877C27.2686 1.02056 28.6117 1.5736 30.4288 2.36367C31.1726 2.72015 31.9765 2.93451 32.799 2.99572C33.5185 2.92139 34.2164 2.70665 34.8532 2.36367C36.6704 1.5736 38.2505 0.862543 39.5936 3.54877C40.944 6.13588 41.8013 8.95165 42.1218 11.8524C42.1532 12.0724 42.2708 12.2709 42.4486 12.4042C42.5366 12.4703 42.6368 12.5183 42.7434 12.5456C42.85 12.5729 42.961 12.579 43.0699 12.5634C43.1788 12.5479 43.2836 12.511 43.3783 12.4549C43.473 12.3988 43.5557 12.3247 43.6218 12.2366C43.6878 12.1486 43.7358 12.0484 43.7632 11.9418C43.7905 11.8352 43.7965 11.7243 43.781 11.6153C43.4795 8.51359 42.5637 5.50288 41.0868 2.7587C39.0327 -1.19163 36.0304 0.0724771 34.2133 0.862543C33.7662 1.09235 33.2866 1.25223 32.7911 1.33658C32.1877 1.23879 31.602 1.05243 31.053 0.783536C29.2358 -0.00652944 26.5496 -1.11262 24.4164 2.67969C22.9673 5.43194 22.0556 8.43504 21.7302 11.5284C21.7074 11.6388 21.7085 11.7528 21.7333 11.8627C21.7582 11.9726 21.8063 12.0759 21.8744 12.1657C21.9425 12.2555 22.029 12.3297 22.1282 12.3833C22.2273 12.4369 22.3368 12.4687 22.4492 12.4765Z" fill="#6680AD"/>
<path d="M32.799 17.7699C41.4107 17.7699 50.1015 15.9528 50.1015 12.4765C50.1015 10.9753 48.6003 9.79024 45.6771 8.84217C45.4689 8.80808 45.2552 8.84384 45.0694 8.94388C44.8836 9.04391 44.7362 9.2026 44.65 9.39521C44.6138 9.4988 44.5995 9.60881 44.6081 9.71822C44.6168 9.82762 44.6481 9.93403 44.7001 10.0307C44.7522 10.1273 44.8237 10.212 44.9103 10.2795C44.9969 10.3469 45.0966 10.3955 45.203 10.4223C47.7313 11.2124 48.4423 12.0814 48.4423 12.4765C48.4423 13.7406 43.0699 16.1108 32.799 16.1108C22.5282 16.1108 17.1557 13.7406 17.1557 12.4765C17.1557 12.0814 17.8668 11.2124 20.395 10.4223C20.5014 10.3955 20.6011 10.3469 20.6877 10.2795C20.7743 10.212 20.8459 10.1273 20.8979 10.0307C20.9499 9.93403 20.9813 9.82762 20.9899 9.71822C20.9985 9.60881 20.9843 9.4988 20.948 9.39521C20.9213 9.28878 20.8726 9.18909 20.8052 9.1025C20.7378 9.01591 20.653 8.94432 20.5564 8.89229C20.4598 8.84026 20.3534 8.80893 20.244 8.8003C20.1345 8.79167 20.0245 8.80593 19.9209 8.84217C16.9977 9.79024 15.4966 10.9753 15.4966 12.4765C15.4966 15.9528 24.1873 17.7699 32.799 17.7699Z" fill="#6680AD"/>
<path d="M42.8327 18.797C42.8327 25.8286 38.2503 31.5171 32.7198 31.5171C27.1894 31.5171 22.607 25.8286 22.607 18.797C22.607 18.5875 22.5237 18.3865 22.3756 18.2384C22.2274 18.0902 22.0265 18.007 21.8169 18.007C21.6074 18.007 21.4064 18.0902 21.2583 18.2384C21.1101 18.3865 21.0269 18.5875 21.0269 18.797C21.0269 26.7767 26.3203 33.1762 32.7988 33.1762C39.2774 33.1762 44.5708 26.7767 44.4128 18.797C44.4128 18.5875 44.3296 18.3865 44.1814 18.2384C44.0332 18.0902 43.8323 18.007 43.6227 18.007C43.4132 18.007 43.2122 18.0902 43.0641 18.2384C42.9159 18.3865 42.8327 18.5875 42.8327 18.797Z" fill="#6680AD"/>
</svg>
