<?xml version="1.0" encoding="utf-8"?>
<!-- Generator: Adobe Illustrator 24.1.1, SVG Export Plug-In . SVG Version: 6.00 Build 0)  -->
<svg version="1.1" id="Capa_1" xmlns="http://www.w3.org/2000/svg" xmlns:xlink="http://www.w3.org/1999/xlink" x="0px" y="0px"
	 viewBox="0 0 116.7 62" style="enable-background:new 0 0 116.7 62;" xml:space="preserve">
<style type="text/css">
	.st0{fill:#6680AD;}
	.st1{fill:#F2F6F8;}
	.st2{fill:#FDC130;}
</style>
<path class="st0" d="M102.1,12.4c-0.3,0-0.6-0.3-0.6-0.6V5.2c0-2.4-1.4-4-3.5-4c-2,0-3.5,2.2-3.5,4c0,0.3-0.3,0.6-0.6,0.6
	c-0.3,0-0.6-0.3-0.6-0.6c0-2.5,2-5.2,4.7-5.2c2.8,0,4.7,2.1,4.7,5.2v6.6C102.7,12.2,102.5,12.4,102.1,12.4z"/>
<path class="st1" d="M115.2,27.5H57.4V50c0,7.8,7.8,10.7,11.6,11.2h31c12.4,0,15.2-8.8,15.1-13.2V27.5z"/>
<path class="st0" d="M111.2,28H93.1c-0.3,0-0.5-0.2-0.6-0.4l-4.5-13.5c-0.1-0.2,0-0.5,0.2-0.7c0.2-0.1,0.5-0.2,0.7,0
	c0,0,4.6,3.1,8.5,2c1.8-0.5,3.2-1.8,4.2-3.8c0,0,0,0,0-0.1c0.1-0.2,0.4-0.3,0.6-0.3c0.2,0,0.4,0.2,0.5,0.4c1,2,2.4,3.3,4.1,3.8
	c3.9,1,8.4-2,8.5-2c0.2-0.1,0.5-0.1,0.7,0c0.2,0.1,0.3,0.4,0.2,0.7l-4.5,13.5C111.7,27.8,111.5,28,111.2,28z M93.5,26.8h17.3
	l3.9-11.6c-1.8,0.9-5,2.2-8.1,1.4c-1.8-0.5-3.3-1.7-4.4-3.5c-1.1,1.8-2.6,3-4.4,3.5c-3,0.8-6.3-0.5-8.1-1.4L93.5,26.8z"/>
<path class="st0" d="M102.1,28c-0.3,0-0.6-0.3-0.6-0.6V11.9c0-0.3,0.3-0.6,0.6-0.6s0.6,0.3,0.6,0.6v15.5
	C102.7,27.7,102.5,28,102.1,28z"/>
<path class="st0" d="M64.4,16.8c-1.1,0-2-0.9-2-2c0-1.1,0.9-2,2-2c1.1,0,2,0.9,2,2C66.5,15.9,65.6,16.8,64.4,16.8z M64.4,13.9
	c-0.5,0-0.8,0.4-0.8,0.8c0,0.5,0.4,0.8,0.8,0.8s0.8-0.4,0.8-0.8C65.3,14.3,64.9,13.9,64.4,13.9z"/>
<path class="st0" d="M85.6,28H65.3c-0.2,0-0.5-0.1-0.5-0.4l-5.2-12.2c-0.4-0.8-0.4-1.8,0-2.6c0.4-0.9,1-1.5,1.8-1.9l11.9-5.1
	c0.8-0.4,1.8-0.4,2.6,0c0.9,0.3,1.5,1,1.9,1.8l8.4,19.5c0.1,0.2,0.1,0.4,0,0.6C86,27.9,85.8,28,85.6,28z M65.7,26.8h19.1l-8-18.7
	c-0.2-0.5-0.7-1-1.2-1.2c-0.6-0.2-1.2-0.2-1.7,0L61.8,12c-0.5,0.2-1,0.7-1.2,1.2c-0.2,0.6-0.2,1.2,0,1.7L65.7,26.8z"/>
<path class="st0" d="M102.5,62H69.8c-7.2,0-13.1-5.9-13.1-13.1V27.4c0-0.3,0.3-0.6,0.6-0.6H115c0.3,0,0.6,0.3,0.6,0.6v21.5
	C115.6,56.1,109.7,62,102.5,62z M57.9,28v20.9c0,6.6,5.3,11.9,11.9,11.9h32.7c6.6,0,11.9-5.3,11.9-11.9V28H57.9z"/>
<path class="st0" d="M85.6,28H65.3c-0.3,0-0.6-0.3-0.6-0.6s0.3-0.6,0.6-0.6h20.4c0.3,0,0.6,0.3,0.6,0.6S85.9,28,85.6,28z"/>
<path class="st2" d="M86.2,56.5c-0.6,0-1.1-0.2-1.6-0.6c-0.5-0.4-0.7-1-0.7-1.7c0-0.6,0.2-1.2,0.7-1.6c0.5-0.4,1-0.7,1.6-0.7
	s1.2,0.2,1.6,0.7c0.4,0.4,0.7,1,0.7,1.6c0,0.7-0.2,1.3-0.7,1.7C87.3,56.3,86.8,56.5,86.2,56.5z M86.2,53.1c-0.3,0-0.6,0.1-0.8,0.3
	c-0.2,0.2-0.3,0.5-0.3,0.8c0,0.5,0.2,0.7,0.3,0.8c0.2,0.2,0.5,0.3,0.8,0.3c0.3,0,0.5-0.1,0.8-0.3c0.1-0.1,0.3-0.3,0.3-0.8
	c0-0.3-0.1-0.6-0.3-0.8C86.7,53.2,86.5,53.1,86.2,53.1z M86,51.1c-0.5,0-1-0.2-1.4-0.5C84.2,50.2,84,49.6,84,49
	c0-0.7,0.1-1.3,0.3-1.9c0.2-0.5,0.5-1,0.9-1.4c0.3-0.4,0.8-0.8,1.4-1.3c0.5-0.4,0.8-0.7,1-0.9c0.2-0.2,0.3-0.4,0.5-0.6
	c0.1-0.2,0.1-0.4,0.1-0.6c0-0.5-0.1-0.8-0.5-1.1c-0.3-0.3-0.8-0.5-1.3-0.5c-0.7,0-1.1,0.1-1.4,0.4c-0.3,0.4-0.6,0.9-0.9,1.6
	c-0.5,1.5-1.5,1.7-2,1.7c-0.6,0-1.1-0.2-1.5-0.6c-0.4-0.4-0.6-0.9-0.6-1.4c0-0.8,0.3-1.7,0.8-2.5c0.5-0.8,1.3-1.5,2.2-2
	c1-0.5,2.1-0.8,3.4-0.8c1.2,0,2.2,0.2,3.2,0.7c0.9,0.5,1.7,1.1,2.2,1.9c0.5,0.8,0.8,1.7,0.8,2.6c0,0.7-0.2,1.4-0.5,2
	c-0.3,0.5-0.6,1-1,1.4c-0.4,0.4-1,1-2,1.8c-0.2,0.2-0.4,0.4-0.6,0.6c-0.1,0.2-0.2,0.3-0.3,0.4c0,0.1-0.1,0.2-0.1,0.3
	c0,0.1-0.1,0.4-0.2,0.7C87.8,50.5,87.1,51.1,86,51.1z M86.4,39.6c0.9,0,1.6,0.3,2.1,0.8c0.6,0.5,0.9,1.2,0.9,2
	c0,0.4-0.1,0.8-0.3,1.1c-0.2,0.3-0.4,0.6-0.6,0.9c-0.2,0.2-0.6,0.5-1.1,1c-0.5,0.5-1,0.9-1.3,1.2c-0.3,0.3-0.5,0.6-0.7,1
	c-0.2,0.4-0.2,0.9-0.2,1.4c0,0.3,0.1,0.6,0.2,0.7c0.2,0.1,0.3,0.2,0.6,0.2c0.4,0,0.7-0.1,0.8-0.7v0c0.1-0.4,0.1-0.6,0.2-0.8
	c0-0.2,0.1-0.4,0.2-0.5c0.1-0.2,0.2-0.4,0.4-0.6c0.2-0.2,0.4-0.4,0.7-0.7c0.9-0.8,1.6-1.4,1.9-1.8c0.3-0.3,0.6-0.7,0.8-1.1
	c0.2-0.4,0.3-0.9,0.3-1.4c0-0.7-0.2-1.3-0.6-1.9c-0.4-0.6-1-1.1-1.7-1.4c-0.8-0.4-1.6-0.5-2.6-0.5c-1.1,0-2,0.2-2.8,0.6
	c-0.8,0.4-1.4,1-1.8,1.6c-0.4,0.6-0.6,1.3-0.6,1.9c0,0.1,0,0.3,0.3,0.5c0.2,0.2,0.4,0.3,0.6,0.3c0.3,0,0.7-0.1,0.9-0.9
	c0.3-0.9,0.7-1.6,1.1-2.1C84.7,39.8,85.4,39.6,86.4,39.6z"/>
<path class="st1" d="M43.8,38.4H4.7c-2.2,0-2.2,1.8-1.9,2.7l4.7,15.1l35.6-0.4c0.6-2.6,2.2-8.8,3.5-12.8S45.3,38.2,43.8,38.4z"/>
<path class="st1" d="M22.4,15.1c-12.7-1.2-9.7-4.1-6.6-5.4c0.6,0.9,1.6,1.2,1.9,1.2l1.5-5.4c0.6-2.2,2.3-2.2,3.1-1.9
	c0.6,0.4,2.2,1.1,3.1,0.8c2.5-1.9,4.1-0.8,4.6,0c2.3,5,2.3,5.4,4.6,5.4C43.7,13.9,27.1,15.1,22.4,15.1z"/>
<path class="st2" d="M25.2,51c0.1,0,0.2,0,0.2,0c0.1,0,0.1-0.1,0.2-0.1c0.1-0.1,0.1-0.1,0.1-0.2c0-0.1,0-0.2,0-0.2v-5
	c0-0.2-0.1-0.3-0.2-0.4s-0.3-0.2-0.4-0.2c-0.2,0-0.3,0.1-0.4,0.2c-0.1,0.1-0.2,0.3-0.2,0.4v5c0,0.2,0.1,0.3,0.2,0.4
	C24.9,51,25.1,51,25.2,51z"/>
<path class="st2" d="M25.2,53.4c0.2,0,0.3,0,0.5-0.1c0.1-0.1,0.2-0.2,0.3-0.4c0.1-0.1,0.1-0.3,0-0.5c0-0.2-0.1-0.3-0.2-0.4
	s-0.3-0.2-0.4-0.2c-0.2,0-0.3,0-0.5,0c-0.1,0.1-0.3,0.2-0.4,0.3c-0.1,0.1-0.1,0.3-0.1,0.5c0,0.2,0.1,0.4,0.2,0.6
	C24.8,53.3,25,53.4,25.2,53.4z"/>
<path class="st0" d="M6.8,56.7h18.5c1.6,0,3.2-0.6,4.5-1.6s2.2-2.4,2.6-4c0.4-1.6,0.3-3.3-0.4-4.8c-0.7-1.5-1.8-2.8-3.2-3.5
	c-1.4-0.8-3.1-1.1-4.7-0.9s-3.1,1-4.3,2.2s-1.9,2.7-2.1,4.3c-0.2,1.6,0.2,3.3,1,4.7c0,0.1,0.1,0.1,0.2,0.2c0.1,0,0.1,0.1,0.2,0.1
	c0.1,0,0.2,0,0.2,0c0.1,0,0.2,0,0.2-0.1c0.1,0,0.1-0.1,0.2-0.2c0-0.1,0.1-0.1,0.1-0.2c0-0.1,0-0.2,0-0.2c0-0.1,0-0.2-0.1-0.2
	c-0.7-1.2-1-2.6-0.9-4c0.1-1.4,0.7-2.7,1.7-3.7c1-1,2.2-1.7,3.6-1.9c1.4-0.2,2.8,0,4,0.6c1.2,0.6,2.2,1.7,2.8,2.9
	c0.6,1.3,0.7,2.7,0.5,4c-0.3,1.4-1,2.6-2.1,3.5c-1.1,0.9-2.4,1.4-3.8,1.5c-0.1,0-0.1,0-0.2,0H7.7l-4.2-14c-0.1-0.3-0.1-0.6-0.1-0.8
	c0.1-0.3,0.2-0.6,0.3-0.8c0.2-0.2,0.4-0.4,0.7-0.6c0.3-0.1,0.5-0.2,0.8-0.2h6.4c0.1,0,0.2,0.1,0.2,0.1c0.1,0,0.2,0,0.2-0.1h26
	c0.1,0,0.2,0.1,0.2,0.1c0.1,0,0.2,0,0.3-0.1h6.3c0.3,0,0.6,0.1,0.8,0.2c0.3,0.1,0.5,0.3,0.7,0.6c0.2,0.2,0.3,0.5,0.3,0.8
	c0.1,0.3,0,0.6-0.1,0.8l-4.3,14.4c0,0.2,0,0.3,0,0.5c0.1,0.1,0.2,0.2,0.4,0.3c0.2,0,0.3,0,0.5,0c0.1-0.1,0.2-0.2,0.3-0.4L48,41.9
	c0.1-0.5,0.2-0.9,0.1-1.4s-0.3-0.9-0.5-1.3c-0.3-0.4-0.7-0.7-1.1-0.9c-0.4-0.2-0.9-0.3-1.4-0.3h-6v-6.1c0-0.2-0.1-0.3-0.2-0.5
	l-6.5-5.6c-0.1-0.1-0.1-0.1-0.2-0.1c-0.1,0-0.2,0-0.2,0c-0.2,0-0.3,0.1-0.4,0.2c-0.1,0.1-0.2,0.3-0.2,0.4c0,0.2,0.1,0.3,0.2,0.4
	l6.3,5.4v5.8H12.6v-5.8l6.3-5.6c0.1-0.1,0.2-0.3,0.2-0.4c0-0.2,0-0.3-0.2-0.4c-0.1-0.1-0.3-0.2-0.4-0.2s-0.3,0-0.4,0.2l-6.5,5.8
	c-0.1,0.1-0.1,0.1-0.2,0.2c0,0.1-0.1,0.2-0.1,0.3v6.1H5.3c-0.5,0-0.9,0.1-1.4,0.3c-0.4,0.2-0.8,0.5-1.1,0.9
	c-0.3,0.4-0.5,0.8-0.6,1.3c-0.1,0.5,0,1,0.1,1.4L6.8,56.7z"/>
<path class="st0" d="M49.1,57.1l-2.3-4.3c-0.1-0.1-0.2-0.2-0.4-0.3c-0.2,0-0.3,0-0.5,0.1c-0.1,0.1-0.2,0.2-0.3,0.4
	c0,0.2,0,0.3,0.1,0.5l2.3,4.3c0.1,0.2,0.1,0.4,0.1,0.6c0,0.2-0.1,0.4-0.2,0.6c-0.1,0.2-0.3,0.4-0.5,0.5c-0.2,0.1-0.4,0.2-0.6,0.2
	H3.6c-0.2,0-0.4-0.1-0.6-0.2c-0.2-0.1-0.4-0.3-0.5-0.5c-0.1-0.2-0.2-0.4-0.2-0.6c0-0.2,0-0.4,0.1-0.6l2.3-4.3c0-0.1,0.1-0.1,0.1-0.2
	c0-0.1,0-0.2,0-0.2c0-0.1-0.1-0.1-0.1-0.2c0-0.1-0.1-0.1-0.2-0.2c-0.1,0-0.1-0.1-0.2-0.1c-0.1,0-0.2,0-0.2,0c-0.1,0-0.1,0.1-0.2,0.1
	c-0.1,0-0.1,0.1-0.2,0.2l-2.3,4.3c-0.2,0.4-0.3,0.8-0.3,1.2c0,0.4,0.1,0.8,0.4,1.2C1.7,60,2,60.3,2.4,60.5c0.4,0.2,0.8,0.3,1.2,0.3
	h43.2c0.4,0,0.9-0.1,1.2-0.3c0.4-0.2,0.7-0.5,0.9-0.9c0.2-0.4,0.3-0.8,0.4-1.2C49.4,57.9,49.3,57.5,49.1,57.1z"/>
<path class="st0" d="M17.6,11.9L17.6,11.9c0.2,0,0.3,0,0.5-0.1c0.1-0.1,0.2-0.2,0.2-0.3c0.2-2.1,0.9-4.2,1.9-6.1
	c1-1.9,2-1.5,3.3-0.9c0.5,0.3,1.1,0.4,1.7,0.5c0.5-0.1,1-0.2,1.5-0.5c1.3-0.6,2.5-1.1,3.5,0.9c1,1.9,1.6,4,1.9,6.1
	c0,0.2,0.1,0.3,0.2,0.4c0.1,0,0.1,0.1,0.2,0.1c0.1,0,0.2,0,0.2,0c0.1,0,0.2,0,0.2-0.1c0.1,0,0.1-0.1,0.2-0.2c0-0.1,0.1-0.1,0.1-0.2
	c0-0.1,0-0.2,0-0.2c-0.2-2.3-0.9-4.5-2-6.5c-1.5-2.9-3.7-2-5.1-1.4c-0.3,0.2-0.7,0.3-1,0.3c-0.4-0.1-0.9-0.2-1.3-0.4
	c-1.3-0.6-3.3-1.4-4.9,1.4c-1.1,2-1.7,4.2-2,6.5c0,0.1,0,0.2,0,0.2c0,0.1,0.1,0.2,0.1,0.2c0.1,0.1,0.1,0.1,0.2,0.2
	C17.5,11.8,17.5,11.9,17.6,11.9z"/>
<path class="st0" d="M25.2,15.8c6.3,0,12.7-1.3,12.7-3.9c0-1.1-1.1-2-3.3-2.7c-0.2,0-0.3,0-0.4,0.1C34.1,9.3,34,9.5,34,9.6
	c0,0.1,0,0.2,0,0.2c0,0.1,0,0.2,0.1,0.2c0,0.1,0.1,0.1,0.2,0.2c0.1,0,0.1,0.1,0.2,0.1c1.9,0.6,2.4,1.2,2.4,1.5c0,0.9-4,2.7-11.5,2.7
	c-7.6,0-11.5-1.7-11.5-2.7c0-0.3,0.5-0.9,2.4-1.5c0.1,0,0.2-0.1,0.2-0.1c0.1,0,0.1-0.1,0.2-0.2c0-0.1,0.1-0.1,0.1-0.2
	c0-0.1,0-0.2,0-0.2c0-0.1-0.1-0.2-0.1-0.2c0-0.1-0.1-0.1-0.2-0.2c-0.1,0-0.1-0.1-0.2-0.1c-0.1,0-0.2,0-0.2,0
	c-2.2,0.7-3.3,1.6-3.3,2.7C12.5,14.4,18.9,15.8,25.2,15.8z"/>
<path class="st0" d="M32.6,16.5c0,5.2-3.4,9.4-7.4,9.4c-4.1,0-7.4-4.2-7.4-9.4c0-0.2-0.1-0.3-0.2-0.4c-0.1-0.1-0.3-0.2-0.4-0.2
	c-0.2,0-0.3,0.1-0.4,0.2c-0.1,0.1-0.2,0.3-0.2,0.4c0,5.9,3.9,10.6,8.7,10.6s8.7-4.7,8.5-10.6c0-0.2-0.1-0.3-0.2-0.4
	c-0.1-0.1-0.3-0.2-0.4-0.2c-0.2,0-0.3,0.1-0.4,0.2S32.6,16.4,32.6,16.5z"/>
</svg>
