<svg width="41" height="62" viewBox="0 0 41 62" fill="none" xmlns="http://www.w3.org/2000/svg">
<path d="M39.6301 19.1322C39.6301 5.60534 26.8908 1.06551 20.5211 0.48645C15.657 0.48645 1.41211 4.30825 1.41211 19.5954C1.41211 34.8826 16.0044 38.8202 20.5211 38.8202C25.0378 38.8202 39.6301 36.0408 39.6301 19.1322Z" fill="#F2F6F8"/>
<path d="M27.3772 61.3109C27.354 61.3109 27.354 61.3109 27.3772 61.3109C27.1224 61.3109 26.9139 61.1488 26.8213 60.9171L19.5714 39.2834C19.4788 38.9823 19.6409 38.6581 19.942 38.5423C20.2431 38.4496 20.5674 38.6117 20.6832 38.9128L27.4003 58.9947L30.2493 51.3511C30.2956 51.1889 30.4346 51.0731 30.5736 51.0268C30.7125 50.9573 30.8978 50.9805 31.0368 51.05L38.9352 54.8254L32.1255 35.5775C32.0096 35.2763 32.1718 34.9521 32.4729 34.8363C32.774 34.7205 33.0983 34.8826 33.2141 35.1837L40.4871 55.7519C40.5566 55.9835 40.5102 56.2152 40.3249 56.3773C40.1396 56.5394 39.908 56.5626 39.6764 56.47L31.0831 52.3702L27.8867 60.9403C27.8172 61.1719 27.6088 61.3109 27.3772 61.3109Z" fill="#6680AD"/>
<path d="M15.1246 55.8678C14.9161 55.8678 14.7076 55.752 14.615 55.5435L10.2836 47.0429L2.52422 51.907C2.31575 52.046 2.03781 52.0228 1.85251 51.8607C1.66721 51.6986 1.57456 51.4438 1.66721 51.2122L7.45781 34.3962C7.55046 34.0951 7.8979 33.933 8.19901 34.0256C8.50012 34.1183 8.66226 34.4657 8.56961 34.7668L3.31174 50.0309L10.2141 45.6995C10.3531 45.6069 10.5152 45.5837 10.6774 45.63C10.8395 45.6763 10.9553 45.769 11.048 45.9311L15.0319 53.7369L19.8497 38.8898C19.9424 38.5886 20.2666 38.4265 20.5677 38.5192C20.8688 38.6118 21.031 38.9361 20.9383 39.2603L15.6805 55.4509C15.611 55.6825 15.4025 55.8215 15.1709 55.8446C15.1477 55.8678 15.1477 55.8678 15.1246 55.8678Z" fill="#6680AD"/>
<path d="M14.8467 25.2007C14.5919 25.2007 14.3602 25.0154 14.2908 24.7606L11.048 12.3687L10.469 10.2609H7.36519C7.04092 10.2609 6.78613 10.0061 6.78613 9.68184C6.78613 9.35757 7.04092 9.10278 7.36519 9.10278H10.909C11.1638 9.10278 11.3955 9.28808 11.4649 9.51971L12.1598 12.0444L15.2867 24.0194L28.6051 23.9267C28.9294 23.9267 29.1842 24.1815 29.1842 24.5058C29.1842 24.8301 28.9294 25.0849 28.6051 25.0849L14.8467 25.2007Z" fill="#FDC130"/>
<path d="M25.9644 20.2903H13.9199C13.5957 20.2903 13.3409 20.0355 13.3409 19.7112C13.3409 19.387 13.5957 19.1322 13.9199 19.1322H25.9644C27.331 19.1322 28.4659 18.113 28.5817 16.7465L28.9523 13.0868L11.5805 12.7857C11.2563 12.7857 11.0015 12.5077 11.0015 12.2066C11.0015 11.9055 11.2794 11.6276 11.5805 11.6276L29.5777 11.9518C29.7399 11.9518 29.902 12.0213 29.9946 12.1371C30.1105 12.2529 30.1568 12.4151 30.1336 12.5772L29.7167 16.8623C29.5546 18.8311 27.9332 20.2903 25.9644 20.2903Z" fill="#FDC130"/>
<path d="M15.9814 30.2733C14.5453 30.2733 13.3872 29.1152 13.3872 27.6792C13.3872 26.2431 14.5453 25.085 15.9814 25.085C17.4175 25.085 18.5756 26.2431 18.5756 27.6792C18.5756 29.1152 17.3943 30.2733 15.9814 30.2733ZM15.9814 26.2431C15.1939 26.2431 14.5453 26.8916 14.5453 27.6792C14.5453 28.4667 15.1939 29.1152 15.9814 29.1152C16.7689 29.1152 17.4175 28.4667 17.4175 27.6792C17.4175 26.8916 16.7689 26.2431 15.9814 26.2431Z" fill="#FDC130"/>
<path d="M27.5859 30.1344C26.1498 30.1344 24.9917 28.9763 24.9917 27.5402C24.9917 26.1042 26.1498 24.946 27.5859 24.946C29.022 24.946 30.1801 26.1042 30.1801 27.5402C30.1801 28.9763 29.022 30.1344 27.5859 30.1344ZM27.5859 26.1042C26.7984 26.1042 26.1498 26.7527 26.1498 27.5402C26.1498 28.3278 26.7984 28.9763 27.5859 28.9763C28.3734 28.9763 29.022 28.3278 29.022 27.5402C29.022 26.7527 28.3734 26.1042 27.5859 26.1042Z" fill="#FDC130"/>
<path d="M20.4981 39.3761C9.63494 39.3761 0.810059 30.5512 0.810059 19.6881C0.810059 8.82488 9.63494 0 20.4981 0C31.3613 0 40.1862 8.82488 40.1862 19.6881C40.1862 30.5512 31.3613 39.3761 20.4981 39.3761ZM20.4981 1.15812C10.2835 1.15812 1.96818 9.47343 1.96818 19.6881C1.96818 29.9027 10.2835 38.218 20.4981 38.218C30.7127 38.218 39.028 29.9027 39.028 19.6881C39.028 9.47343 30.7127 1.15812 20.4981 1.15812Z" fill="#6680AD"/>
</svg>
