<svg width="46" height="50" viewBox="0 0 46 50" fill="none" xmlns="http://www.w3.org/2000/svg">
<path d="M38.3583 22.2974C47.1614 10.6372 38.487 4.76203 33.0494 3.28198C36.8139 6.94994 37.1035 11.2936 37.1035 13.4171C36.0996 20.9847 29.1563 23.2627 25.8101 23.4557L28.5128 25.0967L33.0494 44.6912L41.061 49.2279L44.6325 43.8225L41.8332 39.4789L43.5707 35.9075L40.2888 33.5909L42.6054 29.2472L39.4201 27.0272C39.1949 26.3837 38.6672 24.5368 38.3583 22.2974Z" fill="#F2F6F8"/>
<path d="M29.0144 14.2473C26.3696 14.2473 24.2461 12.1044 24.2461 9.47891C24.2461 6.85343 26.389 4.71057 29.0144 4.71057C31.6399 4.71057 33.7828 6.85343 33.7828 9.47891C33.7635 12.1044 31.6399 14.2473 29.0144 14.2473ZM29.0144 5.67582C26.9102 5.67582 25.2113 7.37466 25.2113 9.47891C25.2113 11.5832 26.9102 13.282 29.0144 13.282C31.1187 13.282 32.8175 11.5832 32.8175 9.47891C32.7982 7.39397 31.0994 5.67582 29.0144 5.67582Z" fill="#6680AD"/>
<path d="M8.20388 39.8455H1.29268C1.02241 39.8455 0.810059 39.6332 0.810059 39.3629V29.8841C0.810059 29.749 0.867974 29.6332 0.945194 29.5366L15.0958 15.3861C14.7869 14.3436 14.6518 13.2818 14.6518 12.2007C14.6518 5.86867 19.8062 0.714233 26.1383 0.714233C27.4317 0.714233 28.6865 0.926588 29.9027 1.3513C29.922 1.3513 29.922 1.3706 29.9413 1.3706L31.8332 2.23933C31.8525 2.23933 31.8525 2.25864 31.8718 2.25864C35.424 4.30497 37.6247 8.12736 37.6247 12.22C37.6247 18.5521 32.4703 23.7065 26.1383 23.7065C25.0379 23.7065 23.9761 23.5521 22.9143 23.2432L19.7869 26.4671V30.2895C19.7869 30.5598 19.5745 30.7722 19.3043 30.7722L14.7869 30.8494L14.7097 34.6718C14.7097 34.942 14.4973 35.1351 14.227 35.1351H10.4626L8.6479 39.5559C8.57068 39.7297 8.39693 39.8455 8.20388 39.8455ZM1.77531 38.8803H7.895L9.70967 34.4594C9.78689 34.2857 9.96064 34.1505 10.1537 34.1505H13.783L13.8603 30.3474C13.8603 30.0965 14.0726 29.8841 14.3429 29.8841L18.841 29.8069V26.2741C18.841 26.1583 18.8989 26.0231 18.9761 25.9459L22.4124 22.3938C22.5282 22.2393 22.7406 22.1814 22.9336 22.2393C23.9761 22.5675 25.0572 22.7413 26.1383 22.7413C31.9298 22.7413 36.6595 18.0308 36.6595 12.22C36.6595 8.47485 34.6518 4.98064 31.4085 3.10806L29.5552 2.25864C28.4548 1.87253 27.3159 1.69879 26.1383 1.69879C20.3467 1.69879 15.617 6.40921 15.617 12.22C15.617 13.3011 15.7908 14.3822 16.1189 15.4054C16.1769 15.5984 16.1189 15.7915 15.9645 15.9266L1.79462 30.0965V38.8803H1.77531Z" fill="#6680AD"/>
<path d="M4.20761 32.6255C4.09178 32.6255 3.95664 32.5869 3.86012 32.4904C3.66707 32.2974 3.66707 31.9885 3.86012 31.8147L15.6362 20.0773C15.8292 19.8842 16.1381 19.8842 16.3119 20.0773C16.5049 20.2703 16.5049 20.5792 16.3119 20.753L4.5358 32.4904C4.45858 32.5869 4.34275 32.6255 4.20761 32.6255Z" fill="#FDC130"/>
<path d="M5.07626 34.4788C4.96043 34.4788 4.8253 34.4402 4.72877 34.3437C4.53572 34.1506 4.53572 33.8417 4.72877 33.668L12.0068 26.4093C12.1998 26.2163 12.5087 26.2163 12.6824 26.4093C12.8755 26.6024 12.8755 26.9112 12.6824 27.085L5.40445 34.3437C5.32723 34.4402 5.2114 34.4788 5.07626 34.4788Z" fill="#FDC130"/>
<path d="M36.4085 43.6872C36.1962 43.6872 35.9838 43.5328 35.9452 43.3204L32.2772 27.1042C32.2193 26.8532 32.3738 26.583 32.644 26.525C32.895 26.4671 33.1653 26.6216 33.2232 26.8918L36.8911 43.1081C36.9491 43.359 36.7946 43.6293 36.5243 43.6872C36.4857 43.6872 36.4471 43.6872 36.4085 43.6872Z" fill="#FDC130"/>
<path d="M38.4358 43.9383C38.2234 43.9383 38.0111 43.7839 37.9725 43.5522L35.7138 33.5136C35.6558 33.2627 35.8103 32.9924 36.0806 32.9345C36.3508 32.8766 36.6018 33.031 36.6597 33.3013L38.9184 43.3399C38.9763 43.5908 38.8219 43.8611 38.5516 43.919C38.513 43.9383 38.4744 43.9383 38.4358 43.9383Z" fill="#FDC130"/>
<path d="M31.2926 12.3938C31.1961 12.3938 31.0803 12.3552 31.0031 12.2973C29.2849 10.9846 28.2231 8.861 28.2231 6.79537C28.2231 3.05019 31.2733 0 35.0185 0C38.7637 0 41.8139 3.05019 41.8139 6.79537C41.8139 6.89189 41.8139 7.97297 41.7946 8.18533C41.7753 8.4556 41.5436 8.64865 41.2733 8.62934C41.0031 8.61004 40.81 8.37838 40.8293 8.10811C40.8486 7.97297 40.8486 7.02703 40.8486 6.79537C40.8486 3.59073 38.2425 0.965251 35.0185 0.965251C31.7946 0.965251 29.1884 3.57143 29.1884 6.77606C29.1884 8.55212 30.115 10.3861 31.5822 11.5251C31.7946 11.6795 31.8332 11.9884 31.6787 12.2008C31.5822 12.3166 31.4278 12.3938 31.2926 12.3938Z" fill="#FDC130"/>
<path d="M40.9643 49.9999C40.8678 49.9999 40.7906 49.9806 40.7134 49.9227L32.7018 44.8841C32.586 44.8069 32.5087 44.7104 32.4894 44.5752L28.0493 25.0578C27.0068 24.7683 26.0222 24.3242 25.1149 23.7451C24.8832 23.61 24.8253 23.3011 24.9605 23.0887C25.0956 22.8571 25.4045 22.7992 25.6168 22.9343C26.5435 23.5134 27.528 23.9381 28.5705 24.2084C28.7636 24.2663 28.8987 24.4208 28.918 24.6138L33.3582 44.1698L40.8099 48.8609L44.0724 43.6872L41.2925 39.7876C41.1767 39.6331 41.1767 39.4208 41.2732 39.247L43.2037 36.1775L40.0184 34.0926C39.806 33.9575 39.7288 33.6679 39.8639 33.4362L42.1999 29.5752L39.2076 27.6833C39.111 27.6254 39.0338 27.5096 38.9952 27.3937L37.8176 22.5868C37.7597 22.3937 37.8176 22.2007 37.9721 22.0656C38.8022 21.3706 39.5165 20.5405 40.1149 19.6138C41.6207 17.2393 42.084 14.4208 41.4663 11.6795C40.8485 8.93815 39.1883 6.60224 36.8138 5.11575C35.2887 4.16981 33.9373 3.66788 32.3929 3.53274C32.1226 3.51344 31.9296 3.28178 31.9489 3.01151C31.9682 2.74124 32.1999 2.54819 32.4701 2.56749C34.169 2.72193 35.6554 3.24317 37.3157 4.28564C39.9026 5.92656 41.7172 8.47483 42.3929 11.4671C43.0686 14.4594 42.5473 17.5289 40.9064 20.1351C40.3273 21.0617 39.613 21.8918 38.8022 22.6061L39.8639 26.969L43.0879 28.9961C43.3195 29.1312 43.3775 29.4208 43.2423 29.6524L40.9064 33.5134L44.0917 35.6177C44.3041 35.7528 44.3813 36.0617 44.2269 36.2741L42.2192 39.4787L44.9991 43.3783C45.1149 43.5327 45.1149 43.7451 45.0184 43.9188L41.3311 49.7683C41.2539 49.8841 41.1574 49.9613 41.0222 49.9806C41.0415 49.9999 41.0029 49.9999 40.9643 49.9999Z" fill="#6680AD"/>
</svg>
