<svg width="56" height="38" viewBox="0 0 56 38" fill="none" xmlns="http://www.w3.org/2000/svg">
<path d="M8.1492 0C7.78464 0 7.50586 0.278781 7.50586 0.643341V4.43905C7.50586 4.80361 7.78464 5.08239 8.1492 5.08239C8.51376 5.08239 8.79254 4.80361 8.79254 4.43905V0.643341C8.79254 0.278781 8.51376 0 8.1492 0Z" fill="#6680AD"/>
<path d="M31.8028 25.219C26.5703 27.1919 24.1185 20.7513 23.5466 17.2844C33.0681 15.9978 34.8766 17.3917 34.5907 18.2495L35.7701 21.8951L36.0918 24.7901C36.3777 24.8258 35.9202 24.9616 31.8028 25.219Z" fill="#F2F6F8"/>
<path d="M4.88972 10.7438V4.63208H0.708008V10.7438H4.88972Z" fill="#F2F6F8"/>
<path d="M48.2293 5.08239C48.5938 5.08239 48.8726 4.80361 48.8726 4.43905V0.643341C48.8726 0.278781 48.5938 0 48.2293 0C47.8647 0 47.5859 0.278781 47.5859 0.643341V4.43905C47.5859 4.80361 47.8647 5.08239 48.2293 5.08239Z" fill="#6680AD"/>
<path d="M40.2307 6.26184C39.8662 6.26184 39.5874 6.54062 39.5874 6.90518V10.8939C39.5874 11.2585 39.8662 11.5372 40.2307 11.5372C40.5953 11.5372 40.8741 11.2585 40.8741 10.8939V6.90518C40.8741 6.54062 40.5953 6.26184 40.2307 6.26184Z" fill="#FDC130"/>
<path d="M44.305 6.26184C43.9404 6.26184 43.6616 6.54062 43.6616 6.90518V10.8939C43.6616 11.2585 43.9404 11.5372 44.305 11.5372C44.6695 11.5372 44.9483 11.2585 44.9483 10.8939V6.90518C44.9483 6.54062 44.6695 6.26184 44.305 6.26184Z" fill="#FDC130"/>
<path d="M48.3797 6.26184C48.0151 6.26184 47.7363 6.54062 47.7363 6.90518V10.8939C47.7363 11.2585 48.0151 11.5372 48.3797 11.5372C48.7442 11.5372 49.023 11.2585 49.023 10.8939V6.90518C49.023 6.54062 48.7442 6.26184 48.3797 6.26184Z" fill="#FDC130"/>
<path d="M31.9744 16.3623C31.6098 16.3623 31.3311 16.6411 31.3311 17.0056V21.3589C31.3311 21.7235 31.6098 22.0023 31.9744 22.0023C32.339 22.0023 32.6177 21.7235 32.6177 21.3589V17.0056C32.6177 16.6411 32.339 16.3623 31.9744 16.3623Z" fill="#FDC130"/>
<path d="M52.1535 3.8171H5.08239C5.0395 3.79565 4.97517 3.79565 4.93228 3.79565C4.88939 3.79565 4.82506 3.79565 4.78217 3.8171H0V9.6715C0 10.7223 0.836343 11.5586 1.88713 11.5586H4.31038V15.6331C4.31038 16.834 5.2754 17.799 6.4763 17.799L22.9029 17.7347L24.8115 22.9672C25.4763 24.7686 27.149 25.9266 29.0361 25.9266C29.1219 25.9266 29.1862 25.9266 29.272 25.9266L36.0485 25.5835L39.3296 37.7426L48.0576 37.9999C49.9018 37.9999 51.6174 37.1422 52.7325 35.6625C53.8476 34.1828 54.1907 32.2957 53.6761 30.4943L50.202 19.6433C49.8375 18.4209 50.4594 17.1557 51.6388 16.6625L53.6332 15.869C54.7483 15.4187 55.456 14.3893 55.456 13.2099V7.11958C55.456 5.29678 53.9763 3.8171 52.1535 3.8171ZM4.28894 10.272H1.88713C1.56546 10.272 1.28668 9.99317 1.28668 9.6715V5.10378H4.28894V10.272ZM29.1862 24.6399C27.7709 24.7042 26.4842 23.8679 26.0124 22.5383L24.254 17.7347L32.8318 17.6918H32.8533C33.4537 17.6704 34.0113 18.0778 34.1828 18.6997L35.7054 24.3182L29.1862 24.6399ZM54.1693 13.2099C54.1693 13.8532 53.7619 14.4322 53.1614 14.6681L51.167 15.4616C49.3657 16.1907 48.4221 18.1422 48.9797 20.0078L52.4537 30.8589C52.8612 32.2528 52.5824 33.711 51.7246 34.8905C50.8454 36.0485 49.5373 36.7133 48.1005 36.7133L40.3375 36.4988L38.4075 29.3148H41.6242C41.9887 29.3148 42.2675 29.0361 42.2675 28.6715C42.2675 28.3069 41.9887 28.0282 41.6242 28.0282H38.0643L37.3996 25.562H40.6163C40.9808 25.562 41.2596 25.2832 41.2596 24.9187C41.2596 24.5541 40.9808 24.2753 40.6163 24.2753H37.035L36.4131 22.0022H39.3081C39.6727 22.0022 39.9515 21.7234 39.9515 21.3589C39.9515 20.9943 39.6727 20.7155 39.3081 20.7155H36.07L35.4266 18.3566C35.105 17.1771 34.0113 16.3408 32.8104 16.4051L23.5248 16.448C23.3962 16.4051 23.246 16.4051 23.0959 16.448L6.45485 16.5124C5.96163 16.5124 5.57562 16.1264 5.57562 15.6331V11.5372H24.254C24.6185 11.5372 24.8973 11.2584 24.8973 10.8938C24.8973 10.5293 24.6185 10.2505 24.254 10.2505H5.57562V5.10378H52.1535C53.2686 5.10378 54.1693 6.00446 54.1693 7.11958V13.2099Z" fill="#6680AD"/>
</svg>
