<svg width="116" height="16" viewBox="0 0 116 16" fill="none" xmlns="http://www.w3.org/2000/svg">
<path d="M58.3018 5.1102C58.3726 3.766 58.8612 2.66734 59.6249 1.81019V0.668515H58.61C56.5584 0.668515 54.8218 1.44412 53.8121 3.19606H53.7531V0.861184H48.4911V15.0996H53.7542V9.35159C53.7542 6.91187 54.4779 5.05195 57.3984 5.05195C57.7164 5.05419 58.014 5.07211 58.3018 5.1102ZM98.1488 5.05822C98.5858 3.79983 99.2948 2.67899 100.216 1.77972V0.667395H99.2032C97.1509 0.667395 95.4162 1.44255 94.4012 3.19382H94.3445V0.861184H89.0791V15.0996H94.3445V9.35159C94.3445 6.91187 95.0704 5.05195 97.9909 5.05195L98.1488 5.05822ZM68.9897 4.52435C68.1779 4.1081 67.0478 3.83052 66.149 3.83052C65.5452 3.83052 64.5021 4.0783 64.5021 4.80193C64.5021 5.77423 66.149 5.91201 66.877 6.05405C69.3302 6.52452 71.1861 7.63572 71.1861 10.269C71.1861 14.0148 67.628 15.5741 64.1834 15.5741C62.0707 15.5741 59.9925 14.9905 58.1964 13.9353L60.1051 10.4079C61.1739 11.1324 62.9675 11.8516 64.2693 11.8516C64.9351 11.8516 65.918 11.5476 65.918 10.7702C65.918 9.65986 64.2693 9.60161 62.6183 9.18626C60.9719 8.77 59.3253 7.99462 59.3253 5.44065C59.3253 1.94282 62.6183 0.390938 65.8643 0.390938C67.5419 0.390938 69.2207 0.639615 70.7504 1.30611L68.99 4.52435H68.9897ZM116 15.0996H110.737V13.5157H110.679C109.753 14.9311 107.927 15.5687 106.195 15.5687C101.795 15.5687 98.7028 12.0434 98.7028 7.96281C98.7028 3.88653 101.74 0.387577 106.135 0.387577C107.841 0.387577 109.637 0.997844 110.736 2.24571V0.861184H115.998L116 15.0996H116ZM104.141 7.9935C104.141 9.79652 105.387 11.1844 107.524 11.1844C109.664 11.1844 110.905 9.79876 110.905 7.9935C110.905 6.2447 109.664 4.77415 107.524 4.77415C105.387 4.77549 104.141 6.2447 104.141 7.9935ZM88.2491 8.82825H77.1679C77.1679 10.8804 78.2989 11.9894 80.4673 11.9894C81.5951 11.9894 82.404 11.6302 82.9839 10.6855H88.0471C87.2082 14.0444 83.8807 15.571 80.4975 15.571C75.5835 15.571 71.9102 12.9045 71.9102 7.99462C71.9102 3.24893 75.2902 0.390938 80.1204 0.390938C85.2684 0.390938 88.2511 3.44496 88.2511 8.29976L88.2488 8.82847L88.2491 8.82825ZM83.3598 5.91201C83.0986 4.55191 81.797 3.66406 80.3814 3.66406C78.8465 3.66406 77.579 4.43854 77.2558 5.91201H83.3598ZM31.7506 7.74572C31.7449 7.62409 31.7371 7.50257 31.727 7.38122V7.37696C31.6089 6.05606 31.1664 4.81985 30.4157 3.70327C30.085 3.21111 29.7003 2.75641 29.2686 2.34742C28.6423 1.75306 27.9172 1.26153 27.0999 0.872833C25.8701 0.293483 24.5113 0.00112016 23.0614 0.00112016C22.9197 0.00112016 22.7713 0.00313647 22.6221 0.00851326C21.604 0.053992 20.6191 0.244644 19.6932 0.58047C18.7596 0.913159 17.9466 1.35271 17.2817 1.88031C17.1466 1.98628 16.9994 2.11644 16.8415 2.2596L16.7275 2.3696L16.5719 2.5327H16.5739L16.501 2.60371L16.4656 2.6418L16.2798 2.83469C16.1459 2.9832 16.0156 3.13476 15.8888 3.28925L15.8877 3.28701L15.8832 3.28276C15.6287 3.58789 15.3936 3.90355 15.2206 4.1874C15.1028 4.37076 14.989 4.55652 14.8791 4.74457L13.3615 7.77126L13.3636 7.77328L13.2841 7.92697L13.1164 8.26167C12.7837 8.92593 12.427 9.58795 12.0284 10.1346C11.1402 11.0952 10.1362 11.5657 8.84508 11.5657C8.75467 11.5657 8.66245 11.5612 8.56795 11.5561C7.79018 11.5254 7.12326 11.3444 6.53153 10.9989C6.46912 10.9625 6.40776 10.9244 6.34754 10.8847C5.86439 10.5679 5.4939 10.161 5.21678 9.65359C4.90422 9.07827 4.76565 8.49041 4.78519 7.8676C4.7861 7.85057 4.78723 7.83578 4.78723 7.82189C4.82903 6.83055 5.21246 6.0592 5.98478 5.39293C6.16865 5.23747 6.36596 5.09819 6.57446 4.97667C6.60331 4.95965 6.63239 4.94374 6.66146 4.92895C7.23502 4.62068 7.88809 4.46722 8.63655 4.46722L8.86961 4.47349C10.0588 4.51808 10.976 4.88459 11.7074 5.59948L14.0017 1.53709C13.4526 1.17483 12.833 0.8632 12.1499 0.610042C12.124 0.600633 12.0972 0.589879 12.0704 0.58159C11.9886 0.552914 11.9082 0.523341 11.8244 0.496682C11.0984 0.257414 10.3368 0.110224 9.55288 0.0434624C9.53335 0.0401019 9.512 0.0380856 9.49269 0.0360693C9.3723 0.0284522 9.24986 0.013666 9.1297 0.00851326C8.99899 0.00357851 8.86821 0.000740375 8.73741 0H8.66313C7.22071 0.00515276 5.88052 0.29662 4.6548 0.873729C3.28212 1.52634 2.1693 2.47669 1.34451 3.70103C0.521997 4.92604 0.0729171 6.28525 0.00863306 7.74393C0.00310888 7.86745 0.000230979 7.99107 1.28094e-06 8.11471C-0.00113448 10.1545 0.753011 11.949 2.25221 13.4554C3.81729 15.036 5.85258 15.8878 8.29605 15.9883C8.45279 15.9946 8.6077 15.9989 8.76217 15.9989C10.1446 15.9989 11.4237 15.7563 12.5708 15.2712C12.8577 15.1502 13.136 15.0084 13.4204 14.8507C13.5753 14.7627 13.7214 14.6695 13.8663 14.57L13.9737 14.499L14.1541 14.3771C14.3694 14.2233 14.5757 14.0574 14.7717 13.8802L14.8405 13.8157C14.957 13.7075 15.0708 13.5965 15.1819 13.483L15.5933 13.0244L15.75 12.8304L15.8232 12.7246L15.8963 12.6207C16.5074 11.6081 18.4965 7.92271 18.4965 7.92271V7.91532L18.6147 7.69061L18.7135 7.51474C19.0067 6.98827 19.2184 6.61436 19.4987 6.2214L19.5062 6.20975C20.1604 5.27441 21.2848 4.60791 22.6103 4.4959C24.8336 4.30726 26.7819 5.74779 26.9614 7.71391C27.1397 9.68003 25.4812 11.4268 23.2579 11.6166C22.7949 11.6558 22.345 11.6251 21.9206 11.5328L21.91 11.5373C20.2786 11.2023 19.2398 10.0286 18.7276 9.50416L16.5878 13.3844C16.5878 13.3844 17.2529 14.0455 17.7083 14.376C18.1649 14.7053 18.7544 15.0297 19.2248 15.2309C20.3665 15.7119 21.6081 16 22.9796 16C23.1386 16 23.1066 16 23.272 15.9937C25.7132 15.8929 27.8893 14.9703 29.4587 13.3898C30.9452 11.8888 31.7518 10.1749 31.7593 8.14607V8.08558C31.758 7.97226 31.7551 7.85896 31.7506 7.74572ZM39.9352 15.5806C38.8255 15.5806 37.8192 15.4534 36.9159 15.1991C36.0125 14.9448 35.2413 14.5433 34.6023 13.9927C33.9611 13.4415 33.467 12.7403 33.119 11.8899C32.771 11.0392 32.597 10.0138 32.597 8.81884V0.858047H37.6741V8.75522C37.6741 9.65045 37.891 10.2988 38.3237 10.7034C38.7578 11.1089 39.3089 11.3114 39.977 11.3114C40.66 11.3114 41.2143 11.1228 41.642 10.7446C42.0672 10.3665 42.2819 9.73939 42.2819 8.85805V0.857823H47.3589V8.71399C47.3589 9.95133 47.1809 11.0032 46.8251 11.8686C46.4696 12.7352 45.9681 13.4429 45.3225 13.9936C44.6738 14.5447 43.8931 14.9448 42.9747 15.2002C42.0563 15.4534 41.0434 15.5804 39.9352 15.5804V15.5806Z" fill="#035D9E"/>
</svg>
