<svg width="298" height="53" viewBox="0 0 298 53" fill="none" xmlns="http://www.w3.org/2000/svg">
<path d="M21.1336 19.5318H16.4315C15.008 19.5318 13.8864 18.3966 13.8864 16.9557V12.1964C13.8864 10.7992 15.008 9.62024 16.4315 9.62024H21.1336C22.5141 9.62024 23.6788 10.7555 23.6788 12.1964V16.9557C23.6788 18.3966 22.5572 19.5318 21.1336 19.5318Z" fill="#EC111A"/>
<path d="M8.92548 30.2292H3.66257C2.06646 30.2292 0.81543 28.9193 0.81543 27.3474V21.9769C0.81543 20.405 2.10958 19.0951 3.66257 19.0951H8.96862C10.5648 19.0951 11.8158 20.405 11.8158 21.9769V27.3474C11.8158 28.963 10.5216 30.2292 8.92548 30.2292Z" fill="#EC111A"/>
<path d="M8.45068 41.3634H5.21528C4.26624 41.3634 3.48975 40.5774 3.48975 39.6169V36.3421C3.48975 35.3815 4.26624 34.5956 5.21528 34.5956H8.45068C9.39973 34.5956 10.1762 35.3815 10.1762 36.3421V39.6169C10.1762 40.5774 9.39973 41.3634 8.45068 41.3634Z" fill="#EC111A"/>
<path d="M17.1217 51.7116H13.2823C12.1607 51.7116 11.2117 50.7947 11.2117 49.6158V45.7297C11.2117 44.5945 12.1176 43.6339 13.2823 43.6339H17.1217C18.2433 43.6339 19.1923 44.5508 19.1923 45.7297V49.6158C19.1923 50.7947 18.2864 51.7116 17.1217 51.7116Z" fill="#EC111A"/>
<path d="M31.1418 21.4965H28.5103C27.7339 21.4965 27.0868 20.8416 27.0868 20.0557V17.3922C27.0868 16.6062 27.7339 15.9513 28.5103 15.9513H31.1418C31.9183 15.9513 32.5654 16.6062 32.5654 17.3922V20.0557C32.6086 20.8416 31.9614 21.4965 31.1418 21.4965Z" fill="#EC111A"/>
<path d="M89.2063 23.2868C90.0691 23.2868 90.7162 22.5882 90.7162 21.7586C90.7162 20.8853 90.0259 20.2303 89.2063 20.2303C88.3435 20.2303 87.6533 20.929 87.6533 21.7586C87.6533 22.5882 88.3435 23.2868 89.2063 23.2868Z" fill="#EC111A"/>
<path d="M33.4282 39.7915C33.2125 40.1408 32.8243 40.3154 32.3929 40.3154C32.1772 40.3154 31.8752 40.2717 31.7027 40.1408C31.3575 39.9225 31.1418 39.4858 31.1418 39.0492C31.1418 38.8309 31.1851 38.6126 31.3144 38.4379L34.8518 32.8054L31.3144 27.1728C31.185 26.9981 31.1418 26.7362 31.1418 26.5615C31.1418 26.1249 31.3575 25.6882 31.7458 25.4699C31.9615 25.3389 32.1772 25.2953 32.3929 25.2953C32.8243 25.2953 33.2125 25.4699 33.4713 25.8192L36.3616 30.4475L39.2951 25.8192C39.5107 25.4699 39.9421 25.2953 40.3735 25.2953C40.5892 25.2953 40.8049 25.339 41.0206 25.4699C41.4088 25.6882 41.6245 26.1249 41.6245 26.5615C41.6245 26.7798 41.5814 26.9981 41.452 27.1728L37.9146 32.8054L41.452 38.4379C41.5814 38.6126 41.6245 38.8309 41.6245 39.0492C41.6245 39.4858 41.4088 39.9661 41.0637 40.1408C40.848 40.2718 40.5892 40.3154 40.3735 40.3154C39.9421 40.3154 39.597 40.1408 39.3382 39.7915L36.4048 35.2068L33.4282 39.7915Z" fill="#EC111A"/>
<path d="M46.0675 26.9982C47.4048 25.7756 49.2166 25.0333 51.1578 25.0333C55.4285 25.0333 58.7934 28.4827 58.7934 32.7617C58.7934 36.9971 55.3854 40.4464 51.1578 40.4464C49.2166 40.4464 47.4048 39.7042 46.0675 38.4816V45.0747C46.0675 45.7297 45.4635 46.2973 44.8165 46.2973C44.2125 46.2973 43.5654 45.7297 43.5654 45.0747V26.3869C43.5654 25.7319 44.1694 25.1643 44.8165 25.1643C45.5067 25.1643 46.0675 25.7319 46.0675 26.3869V26.9982ZM51.1147 27.6094C48.2675 27.6094 46.0243 29.8799 46.0243 32.7617C46.0243 35.6435 48.2675 37.914 51.1147 37.914C53.9618 37.914 56.205 35.6435 56.205 32.7617C56.2482 29.8799 54.005 27.6094 51.1147 27.6094Z" fill="#EC111A"/>
<path d="M80.406 31.3645V39.0929C80.406 39.7479 79.802 40.3155 79.1549 40.3155C78.4647 40.3155 77.9039 39.7479 77.9039 39.0929V26.3869C77.9039 25.732 78.5079 25.1643 79.1549 25.1643C79.7589 25.1643 80.3628 25.6883 80.406 26.3433C81.4413 25.5573 82.7786 25.077 84.2022 25.077C84.9787 25.077 85.5826 25.6883 85.5826 26.3433C85.5826 27.0419 84.9787 27.6531 84.2022 27.6531C82.2609 27.6969 80.406 28.3954 80.406 31.3645Z" fill="#EC111A"/>
<path d="M89.2063 25.1643C88.5161 25.1643 87.9553 25.7319 87.9553 26.3869V39.1366C87.9553 39.7915 88.5593 40.3591 89.2063 40.3591C89.8103 40.3591 90.4574 39.7915 90.4574 39.1366V26.3869C90.4574 25.7319 89.8534 25.1643 89.2063 25.1643Z" fill="#EC111A"/>
<path d="M105.254 26.3869C105.254 25.732 105.858 25.1643 106.505 25.1643C107.109 25.1643 107.756 25.732 107.756 26.3869V39.1366C107.756 39.7915 107.152 40.3592 106.505 40.3592C105.815 40.3592 105.254 39.7915 105.254 39.1366V38.5253C103.874 39.7479 102.105 40.4901 100.164 40.4901C95.8929 40.4901 92.5281 37.0408 92.5281 32.7618C92.5281 28.5264 95.936 25.077 100.164 25.077C102.105 25.077 103.874 25.8193 105.254 27.0419V26.3869ZM100.164 37.914C103.011 37.914 105.254 35.6435 105.254 32.7618C105.254 29.88 103.011 27.6095 100.164 27.6095C97.3165 27.6095 95.0733 29.88 95.0733 32.7618C95.0733 35.6435 97.3165 37.914 100.164 37.914Z" fill="#EC111A"/>
<path d="M120.568 31.5392C120.568 29.3997 118.756 27.5658 116.642 27.5658C114.615 27.5658 112.717 28.3954 112.717 31.4082V39.1366C112.717 39.7915 112.113 40.3591 111.466 40.3591C110.775 40.3591 110.215 39.7915 110.215 39.1366V26.3869C110.215 25.732 110.819 25.1643 111.466 25.1643C112.07 25.1643 112.673 25.6883 112.717 26.3433C113.795 25.5137 115.132 25.077 116.599 25.077C120.007 25.077 123.07 27.7841 123.07 31.1899V39.1366C123.07 39.7915 122.466 40.3591 121.819 40.3591C121.129 40.3591 120.568 39.7915 120.568 39.1366V31.5392Z" fill="#EC111A"/>
<path d="M30.4083 32.3251C30.3651 28.3954 26.9141 25.077 22.8159 25.077C18.5452 25.077 15.1804 28.5264 15.1804 32.7618C15.1804 37.0844 18.5884 40.4901 22.8159 40.4901C24.8435 40.4901 26.7416 39.7042 28.122 38.307C28.3808 38.0887 28.5534 37.6957 28.5534 37.3464C28.5534 36.6478 27.9494 36.0802 27.3023 36.0802C26.9141 36.0802 26.569 36.2985 26.3102 36.6041C25.4474 37.521 24.1964 37.9577 22.8591 37.9577C20.3139 37.9577 18.2433 36.2111 17.8119 33.766H29.2004C29.2004 33.766 29.2005 33.766 29.2437 33.766H29.2867H29.3299C29.3731 33.766 29.4162 33.766 29.4594 33.7223C29.977 33.5039 30.4084 32.98 30.4084 32.325L30.4083 32.3251ZM22.8159 27.6095C25.1023 27.6095 27.0004 29.094 27.6475 31.1899H17.9413C18.5884 29.094 20.4865 27.6095 22.8159 27.6095Z" fill="#EC111A"/>
<path d="M75.7902 32.3251C75.747 28.3954 72.2528 25.077 68.1978 25.077C63.9271 25.077 60.5623 28.5264 60.5623 32.7618C60.5623 37.0844 63.9702 40.4901 68.1978 40.4901C70.2253 40.4901 72.1234 39.7042 73.5038 38.307C73.7627 38.0887 73.9352 37.6957 73.9352 37.3464C73.9352 36.6478 73.3313 36.0802 72.6842 36.0802C72.296 36.0802 71.9509 36.2985 71.692 36.6041C70.8292 37.521 69.5782 37.9577 68.2409 37.9577C65.6958 37.9577 63.6251 36.2111 63.1937 33.766H74.5823C74.5823 33.766 74.5823 33.766 74.6254 33.766H74.6686C74.7117 33.766 74.7549 33.766 74.7549 33.766H74.798C75.3157 33.5477 75.7902 32.9801 75.7902 32.3251H75.7902ZM68.1978 27.6095C70.4841 27.6095 72.3822 29.094 73.0293 31.1899H63.3231C63.9702 29.094 65.8683 27.6095 68.1978 27.6095Z" fill="#EC111A"/>
<path d="M125.745 40.359C125.615 40.359 125.529 40.2717 125.529 40.1407V38.0012H125.054C124.925 38.0012 124.839 37.9139 124.839 37.7829C124.839 37.6519 124.925 37.5646 125.054 37.5646H126.435C126.564 37.5646 126.65 37.6519 126.65 37.7829C126.65 37.9139 126.564 38.0012 126.435 38.0012H125.96V40.1407C125.96 40.2717 125.874 40.359 125.745 40.359Z" fill="#EC111A"/>
<path d="M128.203 40.359C128.074 40.359 128.031 40.2717 127.988 40.1844L127.384 38.4379V40.1407C127.384 40.2717 127.297 40.359 127.168 40.359C127.039 40.359 126.952 40.2717 126.952 40.1407V37.8702C126.952 37.6956 127.082 37.5646 127.254 37.5646C127.384 37.5646 127.513 37.6519 127.556 37.7829L128.16 39.5731L128.764 37.7829C128.807 37.6519 128.937 37.5646 129.066 37.5646C129.239 37.5646 129.368 37.6956 129.368 37.8702V40.1407C129.368 40.2717 129.282 40.359 129.152 40.359C129.023 40.359 128.937 40.2717 128.937 40.1407V38.4379C128.85 38.6998 128.721 39.1365 128.592 39.4858C128.376 40.1844 128.333 40.1844 128.333 40.1844C128.376 40.3154 128.29 40.359 128.203 40.359H128.203Z" fill="#EC111A"/>
<g clip-path="url(#clip0)">
<path d="M168.918 28.2058C168.538 27.8992 168.081 27.6693 167.549 27.516C167.017 27.3628 166.485 27.2861 166.029 27.2861C165.649 27.2861 165.268 27.3628 164.888 27.4394C164.508 27.5161 164.128 27.6693 163.824 27.8226C163.52 27.9759 163.216 28.2058 162.912 28.5123C162.607 28.8189 162.455 29.1254 162.303 29.4319C162.303 28.8955 162.151 28.5123 161.847 28.2058C161.619 27.8992 161.239 27.6693 160.859 27.516C160.479 27.3628 160.023 27.2861 159.566 27.2861C159.11 27.2861 158.654 27.3628 158.122 27.4394V29.4319C158.426 29.4319 158.73 29.4319 158.882 29.5086C159.11 29.5852 159.186 29.6618 159.262 29.8151C159.338 29.9684 159.414 30.1217 159.414 30.3516C159.414 30.5815 159.414 30.8114 159.414 31.1179V40.3909H162.303V32.9572C162.303 32.4208 162.379 31.9609 162.607 31.5778C162.759 31.1946 162.988 30.888 163.292 30.6581C163.596 30.4282 163.976 30.1983 164.356 30.1217C164.736 30.045 165.192 29.8918 165.572 29.8918C166.333 29.8918 167.017 30.045 167.625 30.3516L168.918 28.2058Z" fill="#EC111A"/>
<path d="M181.614 38.3984C181.386 38.3218 181.31 38.1685 181.234 38.0152C181.158 37.862 181.082 37.6321 181.082 37.4021C181.082 37.1722 181.082 36.9423 181.082 36.6358V28.5123C180.246 28.1292 179.409 27.8226 178.497 27.6693C177.661 27.4394 176.748 27.3628 175.836 27.3628C174.772 27.3628 173.859 27.5161 172.947 27.8226C172.111 28.1292 171.35 28.589 170.666 29.2021C169.982 29.8151 169.526 30.5049 169.146 31.4245C168.765 32.2675 168.537 33.2638 168.537 34.3367C168.537 35.2563 168.613 36.0993 168.917 36.8657C169.146 37.632 169.526 38.3218 169.982 38.9349C170.438 39.548 171.046 40.0078 171.807 40.3143C172.567 40.6209 173.403 40.7741 174.315 40.7741C175.228 40.7741 176.14 40.5442 176.976 40.0078C177.813 39.548 178.421 38.8582 178.725 37.9386C178.725 38.6283 178.801 39.1648 179.029 39.548C179.257 39.9311 179.485 40.2377 179.865 40.391C180.246 40.6209 180.626 40.6975 181.082 40.6975C181.538 40.6975 181.994 40.6975 182.45 40.5442V38.3984C182.07 38.475 181.766 38.475 181.614 38.3984ZM178.269 33.9535C178.269 35.1797 177.965 36.0993 177.357 36.8657C176.824 37.632 175.988 38.0152 174.924 38.0152C173.707 38.0152 172.871 37.6321 172.263 36.9423C171.654 36.2526 171.426 35.333 171.426 34.1068C171.426 33.417 171.578 32.804 171.807 32.1909C172.035 31.6544 172.263 31.118 172.643 30.7348C173.023 30.3516 173.403 30.045 173.935 29.8151C174.391 29.5852 175 29.5086 175.608 29.5086C175.988 29.5086 176.444 29.5086 176.9 29.5852C177.356 29.6619 177.813 29.8151 178.269 29.9684V33.9535Z" fill="#EC111A"/>
<path d="M195.375 28.8955C194.995 28.4357 194.463 28.0525 193.778 27.746C193.17 27.4394 192.41 27.2861 191.498 27.2861C191.041 27.2861 190.661 27.2861 190.205 27.3628C189.749 27.4394 189.369 27.5927 188.989 27.746C188.608 27.8992 188.228 28.1291 187.924 28.4357C187.62 28.7422 187.316 29.0488 187.164 29.5086C187.164 28.8955 187.012 28.4357 186.784 28.1291C186.556 27.8226 186.252 27.5927 185.872 27.4394C185.491 27.3628 185.035 27.2861 184.579 27.2861C184.123 27.2861 183.591 27.3628 183.135 27.4394V29.4319C183.439 29.4319 183.743 29.4319 183.895 29.5086C184.123 29.5852 184.199 29.6618 184.275 29.8151C184.351 29.9684 184.427 30.1217 184.427 30.3516C184.427 30.5815 184.427 30.888 184.427 31.2712V40.3909H187.316V33.1105C187.316 32.574 187.392 32.1142 187.544 31.731C187.696 31.2712 187.924 30.9647 188.228 30.6581C188.532 30.3516 188.837 30.1217 189.217 29.9684C189.597 29.8151 190.053 29.7385 190.509 29.7385C191.345 29.7385 192.106 30.045 192.638 30.5815C193.246 31.1179 193.474 31.9609 193.474 32.9572V40.4676H196.363V32.9572C196.363 32.1908 196.287 31.4245 196.059 30.7348C196.135 29.9684 195.831 29.432 195.375 28.8955Z" fill="#EC111A"/>
<path d="M208.3 33.7237C207.843 33.4171 207.235 33.2639 206.627 33.1106C206.019 32.9573 205.334 32.8807 204.65 32.8041C203.662 32.6508 202.902 32.4975 202.369 32.3442C201.837 32.1143 201.609 31.8078 201.609 31.2713C201.609 30.9648 201.685 30.7349 201.837 30.505C201.989 30.2751 202.141 30.1218 202.445 29.9685C202.674 29.8152 202.978 29.662 203.282 29.5853C203.586 29.5087 203.966 29.432 204.27 29.432C204.574 29.432 204.954 29.432 205.258 29.5087C205.639 29.5853 205.943 29.662 206.171 29.8152C206.475 29.9685 206.627 30.1218 206.855 30.3517C207.007 30.5816 207.159 30.8115 207.159 31.118H209.668C209.668 30.505 209.592 29.8919 209.288 29.432C208.984 28.9722 208.604 28.5891 208.147 28.2059C207.615 27.8993 207.083 27.5928 206.399 27.4395C205.715 27.2862 205.03 27.2096 204.27 27.2096C203.586 27.2096 202.902 27.2862 202.217 27.4395C201.533 27.5928 201.001 27.8227 200.469 28.2059C199.937 28.5124 199.556 28.9722 199.252 29.432C198.948 29.8919 198.796 30.505 198.796 31.1947C198.796 31.9611 199.024 32.4975 199.328 32.9573C199.708 33.4171 200.089 33.7237 200.621 33.9536C201.153 34.1835 201.761 34.3368 202.445 34.49C203.13 34.5667 203.738 34.7199 204.422 34.7966C205.258 34.8732 205.943 35.1031 206.475 35.333C207.007 35.563 207.235 35.9461 207.235 36.5592C207.235 36.9424 207.159 37.2489 206.931 37.5555C206.703 37.7854 206.475 38.0153 206.247 38.1686C205.943 38.3219 205.639 38.3985 205.258 38.4751C204.878 38.5518 204.574 38.5518 204.194 38.5518C203.814 38.5518 203.51 38.4751 203.13 38.4751C202.826 38.3985 202.521 38.2452 202.217 38.092C201.913 37.9387 201.761 37.7088 201.533 37.4788C201.381 37.2489 201.229 36.9424 201.229 36.6359H198.416C198.492 37.4022 198.644 38.0919 199.024 38.6284C199.404 39.1648 199.784 39.548 200.393 39.8546C200.925 40.1611 201.533 40.391 202.217 40.5443C202.902 40.6976 203.586 40.7742 204.27 40.7742C204.954 40.7742 205.639 40.6976 206.323 40.5443C207.007 40.391 207.615 40.1611 208.071 39.7779C208.528 39.3948 208.984 39.0116 209.288 38.5518C209.592 38.0153 209.744 37.4022 209.744 36.7125C209.744 35.9461 209.592 35.333 209.288 34.8732C209.136 34.3368 208.756 34.0302 208.3 33.7237Z" fill="#EC111A"/>
<path d="M240.535 28.8955C240.155 28.4357 239.623 28.0525 238.939 27.746C238.33 27.4394 237.57 27.2861 236.658 27.2861C236.202 27.2861 235.821 27.2861 235.365 27.3628C234.909 27.4394 234.529 27.5927 234.149 27.746C233.769 27.8992 233.389 28.1291 233.085 28.4357C232.78 28.7422 232.476 29.0488 232.324 29.5086C232.324 28.8955 232.172 28.4357 231.944 28.1291C231.716 27.8226 231.412 27.5927 231.032 27.4394C230.652 27.3628 230.195 27.2861 229.739 27.2861C229.283 27.2861 228.751 27.3628 228.371 27.4394V29.4319C228.675 29.4319 228.979 29.4319 229.131 29.5086C229.359 29.5852 229.435 29.6618 229.511 29.8151C229.587 29.9684 229.663 30.1217 229.663 30.3516C229.663 30.5815 229.663 30.888 229.663 31.2712V40.3909H232.552V33.1105C232.552 32.574 232.628 32.1142 232.78 31.731C232.932 31.2712 233.161 30.9647 233.465 30.6581C233.769 30.3516 234.073 30.1217 234.453 29.9684C234.833 29.8151 235.289 29.7385 235.745 29.7385C236.582 29.7385 237.342 30.045 237.874 30.5815C238.482 31.1179 238.711 31.9609 238.711 32.9572V40.4676H241.6V32.9572C241.6 32.1908 241.524 31.4245 241.295 30.7348C241.295 29.9684 240.991 29.432 240.535 28.8955Z" fill="#EC111A"/>
<path d="M245.629 21.9216C245.173 21.9216 244.793 22.0749 244.412 22.3815C244.032 22.688 243.88 23.0712 243.88 23.6843C243.88 24.2973 244.108 24.6805 244.412 24.9871C244.793 25.2936 245.173 25.4469 245.629 25.3703C246.085 25.3703 246.465 25.217 246.769 24.9104C247.149 24.6039 247.301 24.2207 247.301 23.6076C247.301 22.9945 247.149 22.6114 246.769 22.3048C246.465 21.9983 246.085 21.9216 245.629 21.9216Z" fill="#EC111A"/>
<path d="M247.073 27.5928H244.184V40.4677H247.073V27.5928Z" fill="#EC111A"/>
<path d="M260.53 28.9722C259.922 28.4357 259.161 28.0525 258.325 27.746C257.489 27.4394 256.653 27.3628 255.74 27.3628C254.904 27.3628 254.068 27.5161 253.307 27.746C252.547 28.0525 251.787 28.4357 251.179 28.9722C250.57 29.5086 250.038 30.1983 249.658 31.0413C249.278 31.8843 249.05 32.804 249.05 33.9535C249.05 35.1031 249.278 36.0993 249.658 36.8657C250.038 37.7087 250.57 38.3984 251.179 39.0115C251.787 39.5479 252.547 40.0078 253.307 40.2377C254.144 40.5442 254.904 40.6209 255.816 40.6209C256.653 40.6209 257.489 40.4676 258.325 40.2377C259.161 40.0078 259.846 39.5479 260.454 39.0115C261.062 38.475 261.594 37.7853 261.974 36.8657C262.355 36.0227 262.583 35.0264 262.583 33.9535C262.583 32.804 262.355 31.8843 261.974 31.0413C261.67 30.1983 261.138 29.5086 260.53 28.9722ZM259.389 35.7928C259.161 36.3292 258.857 36.7124 258.553 37.0956C258.249 37.4788 257.793 37.7087 257.337 37.862C256.881 38.0152 256.424 38.1685 255.968 38.1685C255.512 38.1685 254.98 38.0919 254.524 37.9386C254.068 37.7853 253.611 37.4788 253.307 37.1722C252.927 36.789 252.623 36.4059 252.395 35.8694C252.167 35.333 252.091 34.7199 252.091 34.0301C252.091 33.3404 252.167 32.804 252.395 32.2675C252.623 31.7311 252.851 31.3479 253.231 31.0413C253.611 30.7348 253.992 30.4282 254.448 30.275C254.904 30.1217 255.36 30.0451 255.816 29.9684C256.272 29.9684 256.805 30.045 257.261 30.1983C257.717 30.3516 258.173 30.5815 258.553 30.9647C258.933 31.2712 259.237 31.7311 259.466 32.2675C259.694 32.804 259.846 33.4171 259.846 34.1068C259.77 34.6432 259.618 35.2563 259.389 35.7928Z" fill="#EC111A"/>
<path d="M145.805 24.5272V21.7683H159.566V24.5272H154.168V40.4676H151.127V24.5272H145.805Z" fill="#EC111A"/>
<path d="M212.101 34.1834V21.7683H215.142V34.1068C215.142 36.5591 216.967 37.9386 219.324 37.9386C221.68 37.9386 223.429 36.5591 223.429 34.1068V21.7683H226.47V34.1834C226.47 38.3218 223.201 40.6975 219.324 40.6975C215.37 40.6975 212.101 38.3218 212.101 34.1834Z" fill="#EC111A"/>
<path d="M276.952 37.4022V35.333V32.8041C276.952 32.0377 276.876 31.2713 276.648 30.5816C276.42 29.8919 276.116 29.3554 275.736 28.819C275.356 28.3591 274.823 27.976 274.139 27.6694C273.531 27.3629 272.771 27.2096 271.858 27.2096C271.402 27.2096 271.022 27.2096 270.566 27.2862C270.11 27.3629 269.729 27.5161 269.349 27.6694C268.969 27.8227 268.589 28.0526 268.285 28.3591C267.981 28.6657 267.677 28.9722 267.525 29.432C267.525 28.819 267.373 28.3591 267.145 28.0526C266.916 27.7461 266.612 27.5161 266.232 27.3629C265.852 27.2862 265.396 27.2096 264.94 27.2096C264.484 27.2096 263.951 27.2862 263.571 27.3629V29.3554C263.875 29.3554 264.18 29.3554 264.332 29.432C264.56 29.5087 264.636 29.5853 264.712 29.7386C264.788 29.8919 264.864 30.0451 264.864 30.275C264.864 30.505 264.864 30.8115 264.864 31.1947V40.3144H267.753V33.034C267.753 32.4975 267.829 32.0377 267.981 31.6545C268.133 31.1947 268.361 30.8881 268.665 30.5816C268.969 30.275 269.273 30.0451 269.653 29.8919C270.034 29.7386 270.49 29.662 270.946 29.662C271.782 29.662 272.543 29.9685 273.075 30.505C273.683 31.0414 273.911 31.8844 273.911 32.8807V37.249V37.5555C273.911 40.6976 275.812 41.0041 278.321 40.5443V38.705C277.18 38.7817 276.952 38.3985 276.952 37.4022Z" fill="#EC111A"/>
<path d="M284.479 0.77002C279.537 0.77002 275.204 3.4523 272.923 7.51403C272.086 9.12339 271.934 10.5028 272.619 11.6524C273.379 13.0318 275.127 13.1851 276.04 13.1851H277.712L277.104 15.101C276.724 16.2506 276.876 17.5534 277.484 18.3964C278.093 19.2394 279.005 19.6992 280.145 19.6992C280.906 19.6992 281.742 19.5459 282.502 19.2394C282.274 18.9328 282.122 18.6263 281.97 18.2431C281.894 17.9366 281.742 17.63 281.742 17.2468C281.286 17.4767 280.754 17.5534 280.221 17.5534C279.917 17.5534 279.461 17.4767 279.233 17.0936C279.005 16.787 278.929 16.3272 279.081 15.7907L279.917 13.1851H282.578L283.262 10.9627H280.677L281.818 7.36074H279.537L278.397 10.9627H275.964C275.204 10.9627 274.747 10.7327 274.519 10.3496C274.291 9.88974 274.519 8.97011 275.128 7.89721V7.82057C277.18 4.83175 280.525 2.83921 284.403 2.83921C290.561 2.83921 295.579 7.89719 295.579 14.1047C295.579 20.3123 290.561 25.3703 284.403 25.3703C278.929 25.3703 274.367 21.3852 273.379 16.1739L271.25 16.6337C272.467 22.8413 277.864 27.5927 284.403 27.5927C291.777 27.5927 297.784 21.5384 297.784 14.1047C297.86 6.82428 291.853 0.77002 284.479 0.77002Z" fill="#EC111A"/>
<path d="M292.994 17.9367C292.462 17.9367 291.777 17.8601 291.321 17.5535C291.169 17.4002 290.941 17.247 290.865 16.8638C290.865 16.7105 290.865 16.4806 290.941 16.2507L292.614 11.1161H290.333L288.888 15.561C288.508 16.7105 287.292 17.6302 286.228 17.6302C285.923 17.6302 285.543 17.5535 285.391 17.247C285.239 17.0171 285.087 16.7105 285.315 16.1741L286.988 11.0394H284.707L283.262 15.4843C282.882 16.5573 283.034 17.7068 283.643 18.5498C284.251 19.3162 285.087 19.776 286.228 19.776C287.292 19.776 288.432 19.3162 289.345 18.5498C289.649 19.0096 290.029 19.3161 290.561 19.5461C291.321 19.776 291.778 19.776 292.31 19.776C292.538 19.776 292.842 19.6993 292.918 19.6993C292.994 19.6227 292.994 19.5461 293.07 19.4694C293.146 19.3161 293.222 19.1629 293.298 19.0096C293.374 18.8563 293.45 18.7031 293.526 18.5498C293.602 18.3965 293.678 18.2432 293.754 18.09C293.83 18.0133 293.83 17.8601 293.906 17.7834C293.678 17.9367 293.374 17.9367 292.994 17.9367Z" fill="#EC111A"/>
<path d="M279.917 38.9349C279.917 36.6358 283.338 36.6358 283.338 38.9349C283.338 41.234 279.917 41.234 279.917 38.9349ZM283.034 38.9349C283.034 36.9423 280.221 36.9423 280.221 38.9349C280.221 40.9274 283.034 40.9274 283.034 38.9349ZM282.35 39.7012L282.046 39.7779L281.59 39.1648H281.21V39.7779H280.981V38.0919H281.666C281.97 38.0919 282.274 38.3218 282.274 38.6283C282.274 38.8582 282.122 39.0881 281.894 39.0881L282.35 39.7012ZM281.286 38.9349H281.666C281.894 38.9349 282.046 38.7816 282.046 38.6283C282.046 38.3984 281.894 38.3218 281.666 38.3218H281.286V38.9349Z" fill="#EC111A"/>
</g>
<defs>
<clipPath id="clip0">
<rect x="145.805" y="0.463379" width="152.054" height="40.6172" fill="white"/>
</clipPath>
</defs>
</svg>
