<svg width="115" height="33" viewBox="0 0 115 33" fill="none" xmlns="http://www.w3.org/2000/svg">
<g clip-path="url(#clip0)">
<path d="M27.1266 7.29163C27.1442 7.57688 27.1617 7.80864 27.1617 8.04041C27.1793 12.9432 27.1617 17.8459 27.2144 22.7487C27.232 23.8719 26.793 24.5493 25.8449 25.102C21.719 27.5266 17.6106 29.9869 13.5022 32.4294C13.2037 32.6077 12.9052 32.7681 12.519 32.9999C12.519 31.5736 12.4136 30.2187 12.5717 28.9172C12.6243 28.4715 13.2915 28.008 13.7831 27.7228C16.5923 26.0647 19.419 24.4424 22.2633 22.8557C22.948 22.4813 23.2114 22.0177 23.1938 21.2333C23.1411 19.3078 23.1762 17.3646 23.1762 15.4391C23.1762 14.2803 23.0533 14.2268 22.0526 14.8151C19.0854 16.5623 16.1358 18.3095 13.1862 20.0388C12.993 20.1458 12.7823 20.2527 12.4839 20.3954C12.4839 18.9513 12.4136 17.5963 12.519 16.2592C12.5541 15.8135 13.0281 15.2787 13.432 15.0469C17.8915 12.444 22.3686 9.87672 26.8457 7.30945C26.8808 7.30945 26.951 7.30945 27.1266 7.29163Z" fill="url(#paint0_linear)"/>
<path d="M15.0105 0C15.0105 1.44408 15.1158 2.76337 14.9578 4.02917C14.8876 4.52836 14.2906 5.06321 13.799 5.34846C10.7792 7.16694 7.72419 8.93193 4.66923 10.6791C4.08984 11 3.91427 11.3922 3.93183 12.034C3.96694 15.2431 3.93183 18.4522 3.94938 21.6613C3.94938 22.731 3.58068 23.4619 2.63259 23.9611C1.78984 24.4068 0.982209 24.9238 0.0516743 25.4765C0.0165598 25.1199 -0.0185547 24.9417 -0.0185547 24.7455C-0.0185547 19.8963 -0.000997433 15.0648 -0.0185547 10.2156C-0.0185547 9.30632 0.262361 8.62885 1.07 8.16532C5.45931 5.59805 9.79595 3.01297 14.1326 0.463533C14.3608 0.320908 14.6066 0.213938 15.0105 0Z" fill="url(#paint1_linear)"/>
<path d="M43.1554 16.8119C43.1554 18.1847 43.1554 19.5753 43.1554 20.948C43.1554 21.3403 43.1554 21.7147 43.1554 22.1069C43.1554 23.3014 43.1554 23.3014 42.0142 23.3014C40.7852 23.3014 40.7852 23.3014 40.7852 22.0356C40.7852 18.2916 40.8027 14.5477 40.7676 10.8216C40.75 9.9837 40.9607 9.71627 41.821 9.69844C42.8042 9.68062 43.331 9.93021 43.6645 10.9642C44.2439 12.854 44.9989 14.6725 45.8943 16.5088C45.9119 16.2057 45.9645 15.9205 45.9645 15.6174C45.9645 13.9772 45.9821 12.3548 45.947 10.7147C45.9294 10.0015 46.1226 9.71627 46.8775 9.7341C48.563 9.78758 48.3523 9.52016 48.3523 11.2673C48.3523 14.9221 48.3348 18.5769 48.3699 22.2138C48.3874 23.0518 48.1943 23.3192 47.3164 23.337C46.3157 23.3548 45.789 23.0696 45.4729 22.0534C44.9813 20.4845 44.2966 18.9513 43.6997 17.4181C43.6119 17.1863 43.489 16.9723 43.3836 16.7584C43.2958 16.7762 43.2256 16.7941 43.1554 16.8119Z" fill="black"/>
<path d="M84.6084 23.1944C84.4328 23.2301 84.3451 23.2657 84.2573 23.2657C82.2909 23.3549 82.2733 23.3549 81.8695 21.3759C81.7641 20.8411 81.5183 20.5915 80.9916 20.6272C80.8512 20.645 80.6932 20.6272 80.5527 20.6272C78.6565 20.6272 78.639 20.6272 78.2176 22.4813C78.0947 23.0161 77.884 23.3371 77.2871 23.2657C76.8481 23.2123 76.4092 23.2479 75.9703 23.2301C75.8825 23.2301 75.8122 23.1766 75.6016 23.0875C75.8474 22.0712 76.0756 21.0372 76.339 20.021C77.1466 16.8119 77.9893 13.6028 78.7794 10.3759C78.9199 9.76979 79.2359 9.5915 79.7802 9.66282C80.3947 9.76979 81.2374 9.2706 81.5008 10.3403C82.5191 14.4229 83.5725 18.4878 84.5909 22.5704C84.6435 22.8022 84.6084 22.9805 84.6084 23.1944ZM81.2725 18.4165C80.9214 16.7763 80.6054 15.2252 80.2718 13.692C80.184 13.692 80.0962 13.7098 80.0084 13.7098C79.6924 15.2609 79.3764 16.7941 79.0603 18.4165C79.8504 18.4165 80.5 18.4165 81.2725 18.4165Z" fill="black"/>
<path d="M53.3916 19.4149C54.0412 19.4149 54.5328 19.4327 55.0244 19.4149C55.4809 19.397 55.6916 19.5753 55.7794 20.0567C55.9901 21.0016 56.5519 21.4651 57.2542 21.376C57.9916 21.3047 58.413 20.7342 58.4656 19.7714C58.5183 18.8622 58.2023 18.1491 57.3595 17.7212C56.6046 17.329 55.8321 16.9546 55.1122 16.5089C53.4267 15.4748 52.9878 12.6223 54.1992 10.893C55.2878 9.34194 57.8687 8.98538 59.3962 10.1977C60.274 10.893 60.5198 11.8914 60.6427 12.9432C60.6603 13.0502 60.6252 13.1928 60.5549 13.2641C60.2389 13.6742 58.6061 13.3533 58.4305 12.8541C58.3778 12.6936 58.3954 12.444 58.2725 12.3549C57.9038 12.0518 57.5 11.6061 57.1137 11.6061C56.7275 11.6061 56.2008 12.0162 55.9901 12.3727C55.5336 13.175 55.955 14.2447 56.7977 14.7439C57.2015 14.9757 57.6404 15.1718 58.0618 15.3679C60.3618 16.4376 61.2397 18.256 60.6603 20.7342C60.2214 22.5705 58.9572 23.444 56.8504 23.3906C55.0069 23.3371 53.8656 22.3922 53.5321 20.5915C53.4794 20.2706 53.4443 19.9319 53.3916 19.4149Z" fill="black"/>
<path d="M89.6123 16.509C89.6123 14.5122 89.6298 12.5333 89.5947 10.5365C89.5947 9.93035 89.7879 9.69858 90.4024 9.71641C91.8421 9.75207 93.2642 9.7699 94.7039 9.71641C95.7047 9.68076 95.4764 10.3404 95.5115 10.8931C95.5291 11.4636 95.5642 11.9806 94.7215 11.8915C94.0543 11.8201 93.3695 11.8915 92.7024 11.8736C92.1932 11.8558 91.9298 12.0162 91.965 12.5868C92.0001 13.2999 91.9123 14.013 92.0001 14.7261C92.0176 14.9579 92.3688 15.2966 92.597 15.3323C93.1764 15.4214 93.7558 15.3858 94.3528 15.3501C94.8795 15.3323 95.0726 15.5462 95.0902 16.0811C95.1253 17.5252 95.1604 17.5073 93.7558 17.5073C91.684 17.5252 92.0001 17.2577 91.9825 19.2902C91.965 20.3598 91.965 21.4295 91.9825 22.4992C92.0001 23.0697 91.8069 23.355 91.2276 23.2837C91.0169 23.2658 90.8237 23.2658 90.613 23.2837C89.8405 23.3906 89.5947 23.0876 89.6123 22.2853C89.6298 20.3777 89.5947 18.4344 89.6123 16.509Z" fill="black"/>
<path d="M65.4187 11.8378C65.3485 11.6952 65.3134 11.6595 65.3134 11.5882C65.1202 9.71626 65.1202 9.71626 66.9638 9.71626C68.4034 9.71626 69.8256 9.75192 71.2653 9.69843C72.0905 9.66277 72.389 9.94803 72.2836 10.7681C72.2485 11.089 72.2836 11.4099 72.2836 11.82C71.8271 11.8378 71.4584 11.9091 71.0897 11.8735C70.2645 11.8022 69.966 12.0874 69.9836 12.9788C70.0363 16.0631 70.0012 19.1652 70.0012 22.2495C70.0012 23.3013 69.9836 23.2479 68.6317 23.3192C67.7714 23.3548 67.6134 22.9804 67.6309 22.2138C67.666 19.1474 67.6309 16.0988 67.666 13.0323C67.6836 12.1944 67.4729 11.8022 66.595 11.9091C66.1912 11.9448 65.7874 11.8735 65.4187 11.8378Z" fill="black"/>
<path d="M110.347 17.6322C110.347 16.099 110.312 14.5479 110.365 13.0147C110.4 12.1946 110.171 11.838 109.294 11.8737C107.977 11.945 107.696 11.5349 108.012 10.18C108.047 10.0017 108.345 9.76994 108.539 9.76994C110.523 9.73428 112.507 9.73428 114.491 9.76994C114.649 9.76994 114.894 10.0374 114.965 10.2335C115.052 10.5009 114.965 10.8218 115 11.1249C115.035 11.6776 114.842 11.9272 114.245 11.9093C112.419 11.8558 112.7 11.8558 112.7 13.4782C112.682 16.4199 112.665 19.3437 112.717 22.2853C112.735 23.0519 112.542 23.3372 111.752 23.3194C110.365 23.2659 110.365 23.3194 110.365 21.9288C110.347 20.4847 110.347 19.0584 110.347 17.6322Z" fill="black"/>
<path d="M32.7968 16.5089C32.7968 14.5121 32.8144 12.5332 32.7793 10.5364C32.7793 10.269 32.8144 10.0551 32.9022 9.93028C33.0251 9.752 33.2357 9.68068 33.5869 9.71634C33.7976 9.73417 33.9907 9.73417 34.2014 9.71634C34.9037 9.64503 35.1846 9.89462 35.167 10.6612C35.1319 14.5478 35.1319 18.4343 35.167 22.3387C35.167 23.0697 34.9388 23.3906 34.2014 23.2836C34.0258 23.2658 33.8502 23.2658 33.6747 23.2836C32.9899 23.3727 32.7617 23.1053 32.7793 22.3922C32.8144 20.4311 32.7968 18.47 32.7968 16.5089Z" fill="black"/>
<path d="M100.761 16.4199C100.761 14.4944 100.796 12.569 100.743 10.6257C100.726 9.93043 100.919 9.62735 101.621 9.71649C101.884 9.75214 102.148 9.73432 102.411 9.71649C102.885 9.69866 103.096 9.89477 103.096 10.394C103.078 14.4588 103.096 18.5236 103.096 22.5884C103.096 23.0698 102.938 23.2837 102.429 23.2659C100.462 23.1946 100.778 23.5155 100.761 21.6436C100.743 19.932 100.761 18.1671 100.761 16.4199Z" fill="black"/>
</g>
<defs>
<linearGradient id="paint0_linear" x1="19.8284" y1="7.29689" x2="19.8284" y2="33.0079" gradientUnits="userSpaceOnUse">
<stop stop-color="#F40A97"/>
<stop offset="1" stop-color="#B600D0"/>
</linearGradient>
<linearGradient id="paint1_linear" x1="7.52251" y1="0" x2="7.52251" y2="25.4496" gradientUnits="userSpaceOnUse">
<stop stop-color="#F40A97"/>
<stop offset="1" stop-color="#B600D0"/>
</linearGradient>
<clipPath id="clip0">
<rect width="115" height="33" fill="white"/>
</clipPath>
</defs>
</svg>
