<svg xmlns="http://www.w3.org/2000/svg" width="564" height="81" fill="none" xmlns:v="https://vecta.io/nano"><g clip-path="url(#A)"><path d="M562.3 1H.8v8.5h561.5V1z" fill="#ec111a"/><path d="M562.3 9.5H.8v9.7h561.5V9.5z" fill="#ededed"/><g fill="#c6c6c6"><path d="M143.9 19.2H.8v10.1h143.1V19.2z"/><path d="M288 19.2H143.9V29.3H288V19.2Z"/><path d="M432 19.2H287.9V29.3H432V19.2Z"/><path d="M562.2 19.2H432V29.3H562.2V19.2Z"/></g><g stroke="#000" stroke-width=".25" stroke-miterlimit="10"><path d="M143.9 39.2v-9.8m144 9.8v-9.8M432 39.2v-9.8M.8 39.4h143.1m0 0h144m-144 9.9v-9.8m144-.1H432m-144.1 9.9v-9.8"/><path d="M432 39.4h130.2M432 49.3v-9.8M.8 49.4h143.1m0 0h144m-144 10v-9.8m144-.2H432m-144.1 10v-9.8m144.1-.2h130.2M432 59.4v-9.8M.8 59.5h143.1m0 0h144m-144 10v-9.9m144-.1H432m-144.1 10v-9.9m144.1-.1h130.2M432 69.5v-9.9"/><path d="M.8 69.6h143.1m0 0h144m0 0H432m0 0h130.2M143.9 29.2v-9.9m144 9.9v-9.9M432 29.2v-9.9M.8 19.2h143.1"/><path d="M143.9 19.2h144m0 0H432m0 0h130.2M.8 29.3h143.1m0 0h144m0 0H432m0 0h130.2"/></g><path d="M460.3 16.3h-.6v.8h.6v-.8z" fill="#000"/><path d="M3.3.5C1.7.5.5 1.8.5 3.3v74.2c0 1.6 1.3 2.8 2.8 2.8h556.8c1.6 0 2.8-1.3 2.8-2.8V3.3c0-1.6-1.3-2.8-2.8-2.8H3.3z" stroke="#878787"/></g><g fill="#000"><path d="M56.723 26v-5.727h.922l1.922 3.824v-3.824h.883V26h-.953l-1.9-3.734V26h-.883zm4.535-2.828c0-.682.1-1.244.3-1.684s.467-.772.793-.988.72-.324 1.184-.324a2.02 2.02 0 0 1 1.64.77c.42.513.637 1.244.637 2.2 0 .958-.224 1.707-.672 2.246-.393.477-.927.715-1.602.715-.68 0-1.216-.236-1.6-.707-.448-.54-.672-1.28-.672-2.22zm.977-.04c0 .66.125 1.154.375 1.484s.56.492.93.492.68-.163.926-.488.367-.83.367-1.508c0-.664-.12-1.155-.36-1.473a1.11 1.11 0 0 0-.934-.476 1.12 1.12 0 0 0-.94.48c-.24.32-.363.816-.363 1.488zM66.543 26v-5.727h1.418l.852 3.906.844-3.906h1.422V26h-.88v-4.508L69.266 26h-.914l-.926-4.508V26h-.883zm5.48-5.727h1.88c.513 0 .874.047 1.082.14s.384.26.527.496.215.505.215.805a1.52 1.52 0 0 1-.184.75c-.124.224-.28.386-.477.492a1.26 1.26 0 0 1 .652.508c.16.24.238.53.238.875 0 .417-.1.77-.3 1.06s-.437.464-.7.53c-.2.047-.632.07-1.324.07h-1.598v-5.727zm.945.953v1.324h.625l.695-.02c.16-.026.288-.094.38-.203s.137-.263.137-.453c0-.17-.038-.306-.113-.4s-.163-.173-.27-.2-.406-.04-.906-.04h-.547zm0 2.277v1.53h.88c.385 0 .633-.02.742-.06s.2-.12.273-.238.113-.27.113-.453-.04-.34-.12-.46-.184-.206-.316-.25-.398-.07-.805-.07h-.766zM76.762 26v-5.727h1.996c.5 0 .875.052 1.094.156a1.22 1.22 0 0 1 .54.535c.142.255.2.556.2.9 0 .448-.108.8-.324 1.082s-.518.445-.914.516a2.39 2.39 0 0 1 .504.48c.134.174.314.482.543.93L80.98 26h-1.13l-.687-1.246-.504-.844a.72.72 0 0 0-.281-.234c-.1-.044-.258-.066-.477-.066h-.195V26h-.945zm.945-3.305h.703c.43 0 .703-.018.82-.055s.212-.116.285-.23.1-.267.1-.457c0-.182-.037-.328-.1-.437a.56.56 0 0 0-.297-.23c-.1-.03-.345-.043-.77-.043h-.742v1.453zM81.496 26v-5.727h3.484v.97h-2.54v1.27h2.36v.965h-2.36v1.56h2.625V26h-3.57zm4.133-1.863l.926-.1c.104.732.445 1.098 1.023 1.098.286 0 .512-.074.676-.223a.73.73 0 0 0 .246-.558c0-.13-.03-.24-.086-.332a.62.62 0 0 0-.262-.223c-.117-.06-.4-.16-.852-.297-.404-.122-.7-.255-.887-.398a1.54 1.54 0 0 1-.45-.563 1.76 1.76 0 0 1-.164-.754 1.69 1.69 0 0 1 .211-.844 1.36 1.36 0 0 1 .6-.566c.26-.126.56-.2.926-.2.552 0 .983.15 1.293.45s.474.728.492 1.285l-.95.05c-.042-.307-.13-.522-.27-.644s-.335-.184-.6-.184-.452.053-.6.16a.46.46 0 0 0-.207.398.5.5 0 0 0 .188.394c.125.107.413.224.863.352.477.138.82.284 1.03.438a1.46 1.46 0 0 1 .488.59c.112.24.168.53.168.875 0 .497-.154.915-.46 1.254s-.783.508-1.434.508c-1.15 0-1.792-.655-1.922-1.965zM201.938 26h-1.032l-.4-1.3h-1.875l-.387 1.3h-1.007l1.828-5.727h1.004L201.95 26zm-1.747-2.266l-.644-2.125-.637 2.125h1.28zM202.438 26v-5.727h1.523c.568 0 .94.027 1.113.082.28.088.508.277.688.566s.273.66.273 1.117c0 .414-.078.762-.234 1.043a1.45 1.45 0 0 1-.586.6c-.234.125-.638.168-1.2.168h-.62V26h-.945zm.945-4.758v1.625h.523c.352 0 .6-.025.715-.074a.64.64 0 0 0 .313-.266c.08-.13.12-.3.12-.477s-.042-.35-.125-.48a.62.62 0 0 0-.31-.262c-.123-.045-.38-.066-.777-.066h-.46zM206.816 26v-5.727h3.485v.97h-2.54v1.27h2.36v.965h-2.36v1.56h2.625V26h-3.57zm4.4 0v-5.68h.945v4.715h2.36V26h-3.305zm4.008 0v-5.68h.945v4.715h2.36V26h-3.304zm3.953 0v-5.727h.945V26h-.945zm1.85-5.727h1.73c.437 0 .767.05.988.15a1.63 1.63 0 0 1 .617.492c.188.232.335.532.442.902s.16.83.16 1.38a4.45 4.45 0 0 1-.168 1.293c-.112.365-.254.654-.426.867s-.38.375-.625.484-.555.16-.937.16h-1.782v-5.727zm.946.97v3.793h.7c.304 0 .524-.03.66-.086a.79.79 0 0 0 .336-.258c.088-.117.16-.3.218-.55s.086-.58.086-.988c0-.424-.03-.76-.1-1.004s-.15-.437-.274-.578a.86.86 0 0 0-.45-.277c-.133-.034-.4-.05-.77-.05h-.43zm3.605 1.93c0-.682.1-1.244.3-1.684s.467-.772.793-.988.72-.324 1.183-.324a2.02 2.02 0 0 1 1.64.77c.42.513.637 1.244.637 2.2 0 .958-.224 1.707-.672 2.246-.393.477-.927.715-1.602.715s-1.216-.236-1.6-.707c-.448-.54-.672-1.28-.672-2.22zm.977-.04c0 .66.125 1.154.375 1.484s.56.492.93.492.68-.163.926-.488.367-.83.367-1.508c0-.664-.12-1.155-.36-1.473a1.11 1.11 0 0 0-.934-.476c-.385 0-.7.16-.94.48s-.363.816-.363 1.488zm4.082 1.004l.925-.1c.105.732.446 1.098 1.024 1.098.286 0 .512-.074.676-.223a.73.73 0 0 0 .246-.558c0-.13-.03-.24-.086-.332a.62.62 0 0 0-.262-.223c-.117-.06-.4-.16-.85-.297-.404-.122-.7-.255-.887-.398a1.54 1.54 0 0 1-.45-.563 1.75 1.75 0 0 1-.164-.754 1.7 1.7 0 0 1 .21-.844 1.4 1.4 0 0 1 .589-.566c.25-.128.56-.2.926-.2.552 0 .983.15 1.293.45s.474.728.492 1.285l-.95.05c-.042-.307-.13-.522-.27-.644s-.335-.184-.6-.184-.452.053-.6.16a.46.46 0 0 0-.207.398.5.5 0 0 0 .187.394c.125.107.413.224.864.352.476.138.82.284 1.03.438a1.47 1.47 0 0 1 .488.6c.112.252.168.53.168.875 0 .497-.154.915-.46 1.254s-.782.508-1.433.508c-1.15 0-1.792-.655-1.922-1.965z"/><path d="M337.94 27v-5.727h1.524c.568 0 .94.027 1.113.082.28.088.508.277.688.566s.273.66.273 1.117c0 .414-.078.762-.234 1.043a1.45 1.45 0 0 1-.586.6c-.234.125-.638.168-1.2.168h-.62V27h-.946zm.946-4.758v1.625h.523c.352 0 .6-.025.715-.074a.64.64 0 0 0 .313-.266c.08-.13.12-.3.12-.477s-.042-.35-.125-.48a.62.62 0 0 0-.31-.262c-.123-.045-.382-.066-.777-.066h-.46zm7.18 4.758h-1.03l-.4-1.3h-1.875l-.387 1.3h-1.008l1.83-5.727h1.004L346.066 27zm-1.746-2.266l-.644-2.125-.637 2.125h1.28zM346.57 27v-5.727h1.996c.5 0 .875.052 1.094.156a1.21 1.21 0 0 1 .54.535 1.84 1.84 0 0 1 .211.91c0 .448-.108.8-.324 1.082s-.518.445-.914.516a2.35 2.35 0 0 1 .504.48c.133.172.314.482.543.93L350.8 27h-1.13l-.687-1.246-.504-.844a.73.73 0 0 0-.28-.234c-.097-.04-.258-.066-.477-.066h-.195V27h-.946zm.946-3.305h.703c.43 0 .703-.018.82-.055s.212-.116.285-.23.1-.267.1-.457c0-.182-.037-.328-.1-.437s-.172-.2-.297-.23c-.088-.03-.345-.043-.77-.043h-.742v1.453zm3.8 3.305v-5.727h3.484v.97h-2.54v1.27h2.36v.965h-2.36v1.56h2.625V27h-3.57zm4.383 0v-5.727h.92l1.922 3.824v-3.824h.883V27h-.953l-1.9-3.734V27h-.882zm5.78 0v-4.758h-1.395v-.97h3.73v.97h-1.4V27h-.945zm2.953 0v-5.727h3.484v.97h-2.54v1.27h2.36v.965h-2.36v1.56h2.625V27h-3.57zm4.133-1.863l.925-.1c.105.732.446 1.098 1.024 1.098.286 0 .512-.074.676-.223a.73.73 0 0 0 .246-.558c0-.13-.03-.24-.086-.332a.62.62 0 0 0-.262-.223c-.117-.06-.4-.16-.85-.297-.404-.122-.7-.255-.887-.398a1.54 1.54 0 0 1-.45-.563 1.75 1.75 0 0 1-.164-.754 1.7 1.7 0 0 1 .21-.844 1.4 1.4 0 0 1 .589-.566c.25-.128.56-.2.926-.2.552 0 .983.15 1.293.45s.474.728.492 1.285l-.95.05c-.042-.307-.13-.522-.27-.644s-.335-.184-.6-.184-.452.053-.6.16a.46.46 0 0 0-.207.398.5.5 0 0 0 .187.394c.125.107.413.224.864.352.476.138.82.284 1.03.438a1.47 1.47 0 0 1 .488.6c.112.252.168.53.168.875 0 .497-.154.915-.46 1.254s-.782.508-1.433.508c-1.15 0-1.792-.655-1.922-1.965zm7.62-.242l.918.355c-.143.64-.382 1.1-.715 1.406s-.744.442-1.23.442a1.82 1.82 0 0 1-1.488-.707c-.437-.544-.656-1.28-.656-2.203 0-.977.22-1.74.66-2.293.383-.48.897-.72 1.543-.72.526 0 .966.18 1.32.54.253.255.438.634.555 1.137l-.937.273c-.06-.3-.18-.547-.36-.7a.91.91 0 0 0-.63-.25c-.346 0-.63.15-.847.453s-.33.8-.33 1.496c0 .72.107 1.234.32 1.54s.5.457.832.457a.86.86 0 0 0 .648-.289c.183-.195.314-.504.395-.926zm1.54-.723c0-.682.1-1.244.3-1.684s.467-.772.793-.988.72-.324 1.183-.324a2.02 2.02 0 0 1 1.64.77c.42.513.637 1.244.637 2.2 0 .958-.224 1.707-.672 2.246-.394.477-.927.715-1.602.715s-1.216-.236-1.6-.707c-.448-.54-.672-1.28-.672-2.22zm.976-.04c0 .66.125 1.154.375 1.484s.56.492.93.492.68-.163.926-.488.367-.83.367-1.508c0-.664-.12-1.155-.36-1.473a1.11 1.11 0 0 0-.934-.476c-.385 0-.7.16-.94.48s-.364.816-.364 1.488zm79.02-1.444c0-.523.094-.906.28-1.148s.436-.363.746-.363a.91.91 0 0 1 .762.363c.188.243.28.625.28 1.148s-.093.906-.28 1.148-.436.363-.746.363a.92.92 0 0 1-.762-.36c-.2-.24-.28-.626-.28-1.152zm.703-.008c0 .365.03.604.1.72s.138.172.234.172.18-.057.24-.172.1-.354.1-.72-.03-.604-.1-.72-.138-.172-.235-.172-.178.057-.238.172-.1.354-.1.72zm1.012 4.54h-.668l2.504-6.043h.644l-2.48 6.043zm1.453-1.504c0-.523.094-.906.28-1.148a.91.91 0 0 1 .754-.363c.315 0 .566.12.754.363s.28.625.28 1.148-.094.908-.28 1.152a.89.89 0 0 1-.746.363c-.318 0-.572-.12-.762-.363s-.28-.626-.28-1.152zm.703-.004c0 .365.03.604.086.72s.14.172.238.172.18-.057.24-.172.1-.354.1-.72-.03-.604-.1-.72-.138-.172-.235-.172-.182.057-.242.172-.086.354-.086.72zm3.98-4.437h1.73c.437 0 .767.05.988.15a1.63 1.63 0 0 1 .617.492c.188.232.335.532.442.902s.16.83.16 1.38a4.45 4.45 0 0 1-.168 1.293c-.112.365-.254.654-.426.867s-.38.375-.625.484-.554.16-.937.16h-1.782v-5.727zm.946.97v3.793h.7c.304 0 .524-.03.66-.086a.79.79 0 0 0 .336-.258c.088-.117.16-.3.22-.55a4.6 4.6 0 0 0 .086-.988c0-.424-.03-.76-.1-1.004s-.15-.437-.274-.578a.86.86 0 0 0-.45-.277c-.133-.034-.4-.05-.77-.05h-.43zM470.305 27v-5.727h3.484v.97h-2.54v1.27h2.36v.965h-2.36v1.56h2.625V27h-3.57zm6.2 0v-5.727h1.523c.568 0 .94.027 1.114.082.278.088.507.277.687.566s.274.66.274 1.117c0 .414-.08.762-.235 1.043s-.35.475-.586.6-.638.168-1.2.168h-.62V27h-.945zm.945-4.758v1.625h.524c.35 0 .6-.025.715-.074s.23-.138.312-.266.12-.3.12-.477-.042-.35-.125-.48a.62.62 0 0 0-.308-.262c-.122-.045-.382-.066-.778-.066h-.46zM484.63 27h-1.03l-.4-1.3h-1.876l-.386 1.3h-1.008l1.828-5.727h1.004L484.63 27zm-1.746-2.266l-.645-2.125-.636 2.125h1.28zm2.25 2.266v-5.727h1.996c.5 0 .875.052 1.094.156a1.22 1.22 0 0 1 .54.535c.142.255.2.556.2.9 0 .448-.108.8-.325 1.082s-.518.445-.914.516c.204.146.37.306.504.48s.314.482.543.93l.57 1.117h-1.13l-.688-1.246-.504-.844a.71.71 0 0 0-.28-.234c-.098-.04-.258-.066-.477-.066h-.195V27h-.945zm.945-3.305h.703c.43 0 .703-.018.82-.055s.212-.116.285-.23.1-.267.1-.457c0-.182-.036-.328-.1-.437s-.172-.2-.297-.23c-.1-.03-.345-.043-.77-.043h-.742v1.453zM490.922 27v-4.758h-1.395v-.97h3.73v.97h-1.4V27h-.945zm2.922 0v-5.727h.945V27h-.945zm4.863-2.105l.918.355c-.143.64-.382 1.1-.715 1.406a1.79 1.79 0 0 1-1.23.442 1.82 1.82 0 0 1-1.489-.707c-.437-.544-.656-1.28-.656-2.203 0-.977.22-1.74.66-2.293.383-.48.897-.72 1.543-.72a1.78 1.78 0 0 1 1.321.539c.252.255.437.634.554 1.137l-.937.273c-.06-.3-.18-.547-.36-.7s-.386-.25-.628-.25c-.347 0-.63.15-.848.453s-.328.8-.328 1.496c0 .72.106 1.234.32 1.54s.5.457.832.457a.86.86 0 0 0 .648-.289c.183-.195.314-.504.395-.926zm1.7 2.105v-5.727h.946V27h-.946zm1.856 0v-5.727h1.523c.568 0 .94.027 1.113.082.28.088.508.277.688.566s.273.66.273 1.117c0 .414-.078.762-.234 1.043a1.45 1.45 0 0 1-.586.6c-.234.125-.638.168-1.2.168h-.62V27h-.945zm.945-4.758v1.625h.523c.352 0 .6-.025.715-.074a.64.64 0 0 0 .313-.266c.08-.13.12-.3.12-.477s-.042-.35-.125-.48-.186-.217-.3-.262-.38-.066-.777-.066h-.46zm7.18 4.758h-1.032l-.4-1.3h-1.875l-.386 1.3h-1.008l1.828-5.727h1.004L510.4 27zm-1.746-2.266l-.645-2.125-.637 2.125h1.282zm5.254.16l.917.355c-.143.64-.38 1.1-.714 1.406s-.744.442-1.23.442a1.82 1.82 0 0 1-1.488-.707c-.438-.544-.656-1.28-.656-2.203 0-.977.22-1.74.66-2.293.383-.48.897-.72 1.543-.72.526 0 .966.18 1.32.54.253.255.438.634.555 1.137l-.938.273c-.06-.3-.18-.547-.36-.7a.91.91 0 0 0-.63-.25 1 1 0 0 0-.848.453c-.218.303-.328.8-.328 1.496 0 .72.107 1.234.32 1.54s.5.457.832.457a.86.86 0 0 0 .648-.289c.182-.195.314-.504.395-.926zm1.7 2.105v-5.727h.945V27h-.945zm1.668-2.828c0-.682.1-1.244.3-1.684s.468-.772.793-.988.72-.324 1.184-.324a2.02 2.02 0 0 1 1.64.77c.42.513.636 1.244.636 2.2 0 .958-.224 1.707-.67 2.246-.394.477-.928.715-1.602.715-.68 0-1.216-.236-1.6-.707-.448-.54-.672-1.28-.672-2.22zm.976-.04c0 .66.125 1.154.375 1.484s.56.492.93.492.68-.163.926-.488.367-.83.367-1.508c0-.664-.12-1.155-.36-1.473a1.11 1.11 0 0 0-.934-.476c-.385 0-.7.16-.94.48s-.364.816-.364 1.488zm.805-3.242l.44-1.168h1.012l-.883 1.168h-.57zM522.57 27v-5.727h.922l1.922 3.824v-3.824h.883V27h-.953l-1.9-3.734V27h-.883zm8.035 1.684h-.617a8.26 8.26 0 0 1-.746-1.859c-.172-.656-.258-1.292-.258-1.906a7.26 7.26 0 0 1 .262-1.941 7.67 7.67 0 0 1 .754-1.801h.613c-.3.813-.502 1.492-.6 2.04s-.156 1.125-.156 1.734c0 .63.074 1.297.222 2 .104.495.283 1.073.535 1.734zm1.012-4.777l-.484-.457.297-.387.308-.367c-.052-.01-.205-.053-.46-.13l-.355-.12.187-.687a5.08 5.08 0 0 1 .75.457c-.052-.42-.076-.766-.074-1.04h.567c0 .185-.03.534-.086 1.047l.277-.152.53-.273.172.707-.824.2.566.8-.488.395-.438-.87-.445.898zm1.992 4.777c.253-.656.43-1.228.532-1.715.15-.708.226-1.382.226-2.02 0-.6-.053-1.187-.16-1.734s-.306-1.227-.605-2.04h.613a7.78 7.78 0 0 1 .758 1.82 7.03 7.03 0 0 1 .257 1.87 7.78 7.78 0 0 1-.253 1.93 8.08 8.08 0 0 1-.75 1.887h-.618z"/><path d="M140.467 78.578c-.27-.42-.514-.937-.737-1.553s-.33-1.273-.33-1.974c0-1.187.355-2.357 1.066-3.512h.388l-.568 1.337c-.102.315-.184.662-.245 1.04s-.088.76-.088 1.143c0 1.172.3 2.345.9 3.52h-.388zm.798-5.962l.14-.52c.317.137.548.255.692.355l-.058-.912h.435a10.29 10.29 0 0 1-.069.908 4.84 4.84 0 0 1 .707-.352l.14.52a3.25 3.25 0 0 1-.747.205c.122.13.294.36.516.692l-.36.31a10.14 10.14 0 0 1-.414-.787c-.15.344-.28.607-.392.787l-.35-.31.498-.692-.736-.205zm2.823 5.962h-.388c.598-1.174.897-2.347.897-3.52a7.17 7.17 0 0 0-.091-1.143 6.64 6.64 0 0 0-.242-1.04c-.102-.317-.3-.763-.564-1.337h.388c.71 1.155 1.066 2.325 1.066 3.512a5.9 5.9 0 0 1-.319 1.945 7.3 7.3 0 0 1-.747 1.582zM147.68 77v-5.37h.582v4.735h2.168V77h-2.75zm5.456-.48c-.18.188-.368.33-.564.425s-.397.143-.607.143c-.332 0-.597-.1-.795-.3s-.297-.47-.297-.81c0-.225.047-.424.14-.597a1.04 1.04 0 0 1 .381-.406c.16-.098.406-.17.733-.216.44-.063.76-.14.967-.227l.003-.168c0-.266-.047-.453-.143-.56-.134-.156-.34-.234-.62-.234-.25 0-.44.052-.564.157s-.216.297-.274.582l-.53-.088c.076-.418.228-.722.458-.912s.562-.286.992-.286c.334 0 .597.063.787.2s.3.28.36.465.077.457.077.813v.88l.033 1.164a1.82 1.82 0 0 0 .139.465h-.564c-.056-.134-.092-.294-.1-.48zm-.043-1.472c-.198.098-.492.18-.883.25-.227.04-.386.084-.476.135a.53.53 0 0 0-.213.212.66.66 0 0 0-.073.315.6.6 0 0 0 .172.447c.115.1.274.165.476.165a.95.95 0 0 0 .524-.15.93.93 0 0 0 .355-.399c.078-.168.118-.413.118-.732v-.242zm2.893.79l.534-.103c.032.273.12.477.26.612s.33.198.564.198.415-.057.542-.172a.57.57 0 0 0 .194-.443.43.43 0 0 0-.164-.359c-.076-.06-.26-.132-.55-.22-.42-.13-.7-.24-.842-.33s-.252-.21-.33-.363a1.11 1.11 0 0 1-.117-.516c0-.332.106-.602.32-.81s.506-.31.882-.31c.237 0 .445.043.623.128a.99.99 0 0 1 .414.344c.095.144.16.35.197.62l-.527.088c-.05-.425-.28-.637-.692-.637-.234 0-.41.048-.524.143a.44.44 0 0 0-.172.359c0 .144.055.258.165.34.066.05.26.127.586.234.447.144.736.26.868.344a.84.84 0 0 1 .307.344c.074.144.1.316.1.516 0 .37-.118.67-.355.9s-.555.344-.963.344c-.764 0-1.207-.418-1.33-1.252zM161.36 77v-.57c-.125.22-.27.384-.44.494a1.02 1.02 0 0 1-.571.165c-.25 0-.466-.067-.644-.2s-.298-.31-.36-.516-.088-.49-.088-.85v-2.4h.538v2.157c0 .4.02.67.06.806a.64.64 0 0 0 .223.326c.1.08.235.12.374.12.258 0 .47-.106.637-.32.14-.183.212-.52.212-1.007V73.11h.542V77h-.483zm1.337 0v-3.89h.483v.546c.107-.203.245-.36.414-.47a.99.99 0 0 1 .553-.165c.224 0 .414.06.567.176s.268.283.334.505c.127-.227.272-.397.435-.51s.35-.172.55-.172c.305 0 .545.104.72.31s.264.54.264.996V77h-.538v-2.45c0-.278-.02-.475-.063-.6a.52.52 0 0 0-.194-.271c-.1-.063-.19-.095-.304-.095a.69.69 0 0 0-.567.278c-.147.183-.22.472-.22.868V77h-.542v-2.527c0-.322-.05-.55-.15-.68s-.233-.198-.407-.198c-.246 0-.442.1-.586.3s-.212.56-.212 1.088V77h-.538zm7.2-.48c-.18.188-.368.33-.564.425a1.37 1.37 0 0 1-.608.143c-.332 0-.597-.1-.794-.3s-.297-.47-.297-.81c0-.225.046-.424.14-.597a1.04 1.04 0 0 1 .381-.406c.16-.098.405-.17.733-.216.44-.063.76-.14.966-.227l.004-.168c0-.266-.048-.453-.143-.56-.134-.156-.34-.234-.62-.234-.25 0-.44.052-.564.157s-.216.297-.274.582l-.53-.088c.075-.418.228-.722.457-.912s.563-.286.993-.286c.334 0 .597.063.787.2s.3.28.36.465.077.457.077.813v.88l.033 1.164c.024.16.07.314.14.465h-.564c-.056-.134-.093-.294-.1-.48zm-.044-1.472c-.197.098-.492.18-.882.25-.227.04-.386.084-.476.135s-.16.12-.213.212a.65.65 0 0 0-.073.315c0 .186.057.334.172.447s.274.165.476.165a.95.95 0 0 0 .524-.15.93.93 0 0 0 .355-.399c.078-.168.117-.413.117-.732v-.242zM175.02 77v-.49c-.098.188-.224.332-.378.432s-.32.147-.498.147c-.376 0-.702-.177-.977-.53s-.41-.857-.41-1.5c0-.442.06-.817.183-1.124s.285-.536.488-.685a1.13 1.13 0 0 1 .681-.223.91.91 0 0 1 .494.143c.154.093.28.223.38.392V71.63h.542V77h-.505zm-1.71-1.94c0 .503.087.876.26 1.12s.38.366.612.366.428-.117.597-.352.253-.588.253-1.062c0-.544-.085-.94-.253-1.2s-.38-.377-.637-.377c-.227 0-.423.12-.586.363s-.246.616-.246 1.132zm5.244.69l.557.084c-.093.415-.26.73-.505.94s-.542.315-.9.315c-.452 0-.818-.17-1.1-.513s-.417-.84-.417-1.487c0-.67.14-1.183.42-1.534s.64-.53 1.073-.53c.413 0 .757.173 1.033.52s.413.848.413 1.505l-.003.176h-2.38c.022.437.124.767.304.99s.4.333.66.333c.405 0 .687-.266.845-.798zm-1.776-1.066h1.78c-.024-.337-.096-.588-.216-.754-.173-.242-.394-.363-.663-.363-.24 0-.448.1-.62.304s-.265.47-.282.813zM181.5 77v-5.37h.538V77h-.538zm1.182-1.945c0-.67.14-1.178.422-1.52s.64-.513 1.073-.513c.424 0 .78.17 1.065.513s.43.835.43 1.48c0 .698-.14 1.218-.42 1.56s-.64.513-1.073.513c-.428 0-.784-.17-1.07-.513s-.425-.85-.425-1.52zm.553 0c0 .503.092.878.275 1.124s.4.366.68.366c.254 0 .47-.123.652-.37s.275-.623.275-1.12-.092-.873-.275-1.117-.4-.37-.68-.37c-.256 0-.475.123-.656.37s-.27.62-.27 1.117zm2.864.784l.535-.103c.032.273.118.477.26.612s.33.198.564.198.415-.057.542-.172.194-.265.194-.443c0-.154-.055-.273-.165-.36-.076-.06-.26-.132-.55-.22-.42-.13-.7-.24-.843-.33a.93.93 0 0 1-.329-.363 1.11 1.11 0 0 1-.117-.516c0-.332.106-.602.318-.81s.507-.31.883-.31c.237 0 .444.043.622.128s.32.2.414.344.16.35.198.62l-.527.088c-.05-.425-.28-.637-.693-.637-.234 0-.408.048-.523.143a.44.44 0 0 0-.172.359c0 .144.055.258.164.34.066.05.262.127.586.234.447.144.737.26.868.344a.84.84 0 0 1 .308.344 1.13 1.13 0 0 1 .11.516c0 .37-.12.67-.355.9s-.556.344-.964.344c-.764 0-1.207-.418-1.33-1.252zm4.995 2.65v-5.38h.495v.505c.122-.2.257-.36.406-.454a.95.95 0 0 1 .513-.139c.25 0 .478.074.68.223s.365.376.487.68.187.668.187 1.095c0 .662-.14 1.172-.418 1.53s-.6.535-.974.535c-.166 0-.32-.043-.465-.128a1.17 1.17 0 0 1-.373-.362v1.893h-.54zm.487-3.413c0 .503.085.874.253 1.113s.372.355.612.355c.23 0 .43-.123.604-.37s.26-.627.26-1.143c0-.508-.084-.884-.253-1.128s-.373-.366-.615-.366c-.217 0-.415.132-.593.395s-.268.642-.268 1.143zm2.732-.022c0-.67.14-1.178.42-1.52s.64-.513 1.073-.513c.425 0 .78.17 1.066.513s.43.835.43 1.48c0 .698-.14 1.218-.422 1.56s-.638.513-1.073.513c-.427 0-.783-.17-1.07-.513s-.425-.85-.425-1.52zm.553 0c0 .503.092.878.275 1.124s.4.366.68.366c.254 0 .47-.123.652-.37s.275-.623.275-1.12-.092-.873-.275-1.117-.4-.37-.68-.37c-.257 0-.475.123-.656.37s-.27.62-.27 1.117zm3.07 1.945v-3.89h.487v.6c.125-.273.238-.454.34-.542s.222-.135.35-.135c.18 0 .365.07.553.212l-.183.612a.68.68 0 0 0-.392-.143.48.48 0 0 0-.315.121.65.65 0 0 0-.201.337 3.06 3.06 0 0 0-.103.802V77h-.538zm4.142-1.425l.53.084c-.06.464-.215.818-.462 1.062a1.2 1.2 0 0 1-.882.366c-.418 0-.762-.17-1.033-.513s-.403-.852-.403-1.523.136-1.183.407-1.52a1.29 1.29 0 0 1 1.051-.509c.33 0 .607.103.83.308s.372.513.436.923l-.524.1c-.05-.264-.14-.46-.267-.6s-.28-.198-.458-.198c-.266 0-.487.118-.663.355s-.26.608-.26 1.12c0 .53.083.913.25 1.15s.384.355.645.355c.205 0 .38-.078.524-.234s.24-.404.278-.736zm3.168.172l.556.084c-.093.415-.26.73-.505.94s-.542.315-.9.315c-.452 0-.818-.17-1.1-.513s-.417-.84-.417-1.487c0-.67.14-1.183.42-1.534s.64-.53 1.073-.53c.413 0 .757.173 1.033.52s.414.848.414 1.505l-.004.176h-2.38c.022.437.123.767.303.99s.4.333.66.333c.405 0 .687-.266.846-.798zm-1.777-1.066h1.78c-.024-.337-.096-.588-.216-.754-.173-.242-.394-.363-.663-.363-.24 0-.448.1-.62.304s-.264.47-.282.813zM206.472 77v-3.89h.487v.553c.118-.215.26-.375.43-.48s.366-.16.586-.16c.17 0 .328.034.472.103s.264.154.352.264.157.248.2.42.066.44.066.798V77h-.542v-2.366c0-.286-.024-.494-.073-.626a.61.61 0 0 0-.231-.304.6.6 0 0 0-.359-.11.75.75 0 0 0-.619.289c-.153.193-.23.524-.23.993V77h-.54zm4.626-.6l.073.582c-.15.04-.283.06-.403.06-.188 0-.34-.037-.454-.1s-.194-.178-.238-.308-.062-.387-.062-.773v-2.238h-.396v-.513h.396v-.963l.538-.395v1.36h.546v.513h-.546v2.274c0 .2.016.346.048.406.046.088.133.132.26.132.06 0 .14-.01.238-.026zm2.59.1c-.18.188-.37.33-.564.425s-.398.143-.608.143c-.332 0-.597-.1-.795-.3s-.296-.47-.296-.81c0-.225.046-.424.14-.597a1.03 1.03 0 0 1 .381-.406c.16-.098.405-.17.732-.216.44-.063.762-.14.967-.227l.003-.168c0-.266-.047-.453-.142-.56-.135-.156-.34-.234-.62-.234-.252 0-.44.052-.564.157s-.216.297-.275.582l-.53-.088c.076-.418.228-.722.458-.912s.563-.286.992-.286c.335 0 .597.063.788.2s.3.28.36.465.076.457.076.813v.88l.033 1.164c.025.16.07.314.14.465h-.564c-.057-.134-.093-.294-.1-.48zm-.044-1.472c-.198.098-.492.18-.883.25-.227.04-.385.084-.476.135s-.16.12-.212.212a.65.65 0 0 0-.073.315c0 .186.057.334.172.447s.273.165.476.165c.193 0 .367-.05.523-.15s.278-.233.356-.4.117-.413.117-.732v-.242zm1.38-2.65v-.765h.54v.765h-.54zm-.684 6.112l.102-.56c.108.034.192.05.253.05.115 0 .198-.045.25-.135s.08-.312.08-.666V73.11h.54v4.102c0 .53-.07.9-.205 1.08s-.332.286-.594.286c-.146 0-.288-.023-.424-.07zm4.24-2.76l.557.084c-.093.415-.26.73-.505.94s-.542.315-.9.315c-.452 0-.818-.17-1.1-.513s-.417-.84-.417-1.487c0-.67.14-1.183.42-1.534s.64-.53 1.073-.53c.412 0 .757.173 1.032.52s.414.848.414 1.505l-.003.176h-2.38c.022.437.124.767.304.99s.4.333.66.333c.406 0 .688-.266.846-.798zm-1.776-1.066h1.78c-.024-.337-.096-.588-.216-.754-.173-.242-.394-.363-.663-.363-.242 0-.448.1-.62.304s-.265.47-.282.813zm2.81 1.157l.535-.103c.03.273.118.477.26.612s.33.198.564.198.415-.057.542-.172.194-.265.194-.443c0-.154-.055-.273-.165-.36-.076-.06-.26-.132-.55-.22-.42-.13-.7-.24-.843-.33a.93.93 0 0 1-.329-.363 1.11 1.11 0 0 1-.117-.516c0-.332.106-.602.318-.81s.507-.31.883-.31c.237 0 .444.043.622.128s.32.2.414.344.16.35.198.62l-.527.088c-.05-.425-.28-.637-.693-.637-.234 0-.41.048-.523.143a.44.44 0 0 0-.172.359c0 .144.055.258.164.34.066.05.262.127.586.234.447.144.736.26.868.344a.84.84 0 0 1 .308.344 1.13 1.13 0 0 1 .11.516c0 .37-.12.67-.355.9s-.556.344-.964.344c-.764 0-1.207-.418-1.33-1.252zm7.064 1.16v-.49c-.097.188-.223.332-.377.432s-.32.147-.498.147c-.376 0-.702-.177-.978-.53s-.4-.857-.4-1.5c0-.442.06-.817.183-1.124s.285-.536.487-.685a1.13 1.13 0 0 1 .681-.223c.18 0 .343.048.495.143s.28.223.38.392V71.63h.542V77h-.506zm-1.7-1.94c0 .503.087.876.26 1.12s.38.366.612.366.428-.117.597-.352.252-.588.252-1.062c0-.544-.084-.94-.252-1.2s-.38-.377-.638-.377c-.227 0-.422.12-.586.363s-.245.616-.245 1.132zm5.244.69l.557.084c-.093.415-.26.73-.506.94s-.542.315-.9.315c-.452 0-.818-.17-1.1-.513s-.418-.84-.418-1.487c0-.67.14-1.183.422-1.534s.64-.53 1.073-.53c.412 0 .756.173 1.032.52s.414.848.414 1.505l-.004.176h-2.38c.022.437.123.767.304.99s.4.333.66.333c.406 0 .688-.266.846-.798zm-1.776-1.066h1.78c-.025-.337-.097-.588-.216-.754-.174-.242-.394-.363-.663-.363-.242 0-.448.1-.62.304s-.265.47-.282.813zm4.728 3.81v-5.38h.494v.505a1.27 1.27 0 0 1 .407-.454.95.95 0 0 1 .512-.139c.252 0 .48.074.682.223s.365.376.487.68.186.668.186 1.095c0 .662-.14 1.172-.417 1.53s-.6.535-.974.535c-.166 0-.32-.043-.465-.128s-.27-.206-.374-.362v1.893h-.538zm.487-3.413c0 .503.084.874.253 1.113s.372.355.61.355c.23 0 .43-.123.604-.37s.26-.627.26-1.143c0-.508-.084-.884-.252-1.128s-.374-.366-.615-.366c-.218 0-.416.132-.594.395s-.267.642-.267 1.143zm5.013 1.443c-.18.188-.368.33-.564.425a1.37 1.37 0 0 1-.608.143c-.332 0-.596-.1-.794-.3s-.297-.47-.297-.81c0-.225.047-.424.14-.597a1.04 1.04 0 0 1 .381-.406c.16-.098.405-.17.733-.216.44-.063.76-.14.966-.227l.004-.168c0-.266-.048-.453-.143-.56-.134-.156-.34-.234-.62-.234-.25 0-.44.052-.564.157s-.216.297-.274.582l-.53-.088c.075-.418.228-.722.457-.912s.563-.286.993-.286c.334 0 .597.063.787.2s.3.28.36.465.077.457.077.813v.88l.033 1.164c.024.16.07.314.14.465h-.564c-.056-.134-.093-.294-.1-.48zm-.044-1.472c-.197.098-.492.18-.882.25-.227.04-.386.084-.476.135s-.16.12-.213.212a.66.66 0 0 0-.073.315c0 .186.057.334.172.447s.274.165.476.165a.95.95 0 0 0 .524-.15.93.93 0 0 0 .355-.399c.078-.168.117-.413.117-.732v-.242zM240.003 77v-3.89h.487v.6c.124-.273.238-.454.34-.542s.222-.135.352-.135c.18 0 .365.07.553.212l-.183.612c-.135-.095-.265-.143-.392-.143-.115 0-.22.04-.315.12a.65.65 0 0 0-.201.337 3.02 3.02 0 0 0-.103.802V77h-.538zm3.255-.6l.074.582c-.15.04-.284.06-.403.06-.188 0-.34-.037-.454-.1s-.194-.178-.238-.308-.063-.387-.063-.773v-2.238h-.395v-.513h.395v-.963l.54-.395v1.36h.545v.513h-.545v2.274c0 .2.016.346.047.406.047.088.133.132.26.132.06 0 .14-.01.238-.026zm.51-4.02v-.758h.54v.758h-.54zm0 4.61v-3.89h.54V77h-.54zm3.46-1.425l.53.084c-.06.464-.215.818-.46 1.062s-.54.366-.883.366c-.417 0-.762-.17-1.033-.513s-.403-.852-.403-1.523.136-1.183.407-1.52a1.29 1.29 0 0 1 1.051-.509c.33 0 .607.103.83.308s.373.513.436.923l-.524.1c-.05-.264-.14-.46-.267-.6a.61.61 0 0 0-.458-.198c-.266 0-.487.118-.663.355s-.26.608-.26 1.12c0 .53.083.913.25 1.15s.384.355.645.355c.205 0 .38-.078.524-.234s.24-.404.278-.736zm.985-3.186v-.758h.538v.758h-.538zm0 4.61v-3.89h.538V77h-.538zm1.37 1.5v-5.38h.494v.505a1.27 1.27 0 0 1 .407-.454c.15-.093.32-.14.512-.14a1.12 1.12 0 0 1 .681.223c.203.15.365.376.488.68s.186.668.186 1.095c0 .662-.14 1.172-.417 1.53s-.6.535-.974.535c-.166 0-.32-.043-.465-.128s-.27-.206-.374-.362v1.893h-.538zm.487-3.413c0 .503.084.874.253 1.113s.372.355.61.355c.23 0 .43-.123.604-.37s.26-.627.26-1.143c0-.508-.084-.884-.252-1.128s-.374-.366-.616-.366c-.217 0-.415.132-.593.395s-.267.642-.267 1.143zm5.013 1.443c-.18.188-.368.33-.564.425a1.37 1.37 0 0 1-.608.143c-.332 0-.597-.1-.794-.3s-.297-.47-.297-.81c0-.225.046-.424.14-.597a1.04 1.04 0 0 1 .381-.406c.16-.098.405-.17.733-.216.44-.063.76-.14.966-.227l.004-.168c0-.266-.048-.453-.143-.56-.134-.156-.34-.234-.62-.234-.25 0-.44.052-.564.157s-.216.297-.274.582l-.53-.088c.075-.418.228-.722.457-.912s.563-.286.993-.286c.334 0 .597.063.787.2s.3.28.36.465.077.457.077.813v.88l.033 1.164c.024.16.07.314.14.465h-.564c-.056-.134-.093-.294-.1-.48zm-.044-1.472c-.197.098-.492.18-.882.25-.227.04-.386.084-.476.135s-.16.12-.213.212a.65.65 0 0 0-.073.315c0 .186.057.334.172.447s.274.165.476.165a.95.95 0 0 0 .524-.15.93.93 0 0 0 .355-.399c.078-.168.117-.413.117-.732v-.242zm3.476.527l.53.084c-.06.464-.215.818-.462 1.062a1.2 1.2 0 0 1-.882.366c-.418 0-.762-.17-1.033-.513s-.403-.852-.403-1.523.136-1.183.407-1.52.623-.51 1.05-.51c.33 0 .606.103.83.308s.372.513.436.923l-.524.1c-.05-.264-.14-.46-.267-.6s-.28-.198-.458-.198c-.266 0-.487.118-.663.355s-.26.608-.26 1.12c0 .53.083.913.25 1.15s.383.355.645.355c.205 0 .38-.078.523-.234s.24-.404.28-.736zm.985-3.186v-.758h.538v.758h-.538zm0 4.61v-3.89h.538V77h-.538zm1.168-1.945c0-.67.14-1.178.42-1.52s.64-.513 1.073-.513c.425 0 .78.17 1.066.513s.428.835.428 1.48c0 .698-.14 1.218-.42 1.56s-.638.513-1.073.513c-.427 0-.784-.17-1.07-.513s-.425-.85-.425-1.52zm.553 0c0 .503.09.878.275 1.124s.4.366.68.366c.254 0 .47-.123.652-.37s.274-.623.274-1.12-.09-.873-.274-1.117-.41-.37-.682-.37c-.256 0-.474.123-.655.37s-.27.62-.27 1.117zm.546-2.428l.4-1.025h.707l-.66 1.025h-.446zM264.3 77v-3.89h.487v.553c.117-.215.26-.375.428-.48a1.08 1.08 0 0 1 .586-.161 1.09 1.09 0 0 1 .473.103.93.93 0 0 1 .351.264c.09.107.158.248.202.42s.066.44.066.798V77h-.542v-2.366c0-.286-.025-.494-.074-.626s-.125-.233-.23-.304-.223-.1-.36-.1a.75.75 0 0 0-.619.289c-.154.193-.23.524-.23.993V77h-.538zm7.203 0v-.49c-.097.188-.223.332-.377.432s-.32.147-.498.147c-.376 0-.702-.177-.978-.53s-.4-.857-.4-1.5c0-.442.06-.817.183-1.124s.285-.536.487-.685a1.13 1.13 0 0 1 .681-.223c.18 0 .343.048.495.143a1.12 1.12 0 0 1 .381.392V71.63H272V77h-.506zm-1.7-1.94c0 .503.087.876.26 1.12s.38.366.612.366.428-.117.596-.352.253-.588.253-1.062c0-.544-.084-.94-.253-1.2s-.38-.377-.637-.377c-.227 0-.422.12-.586.363s-.245.616-.245 1.132zm5.244.69l.557.084c-.093.415-.26.73-.506.94s-.542.315-.9.315c-.45 0-.817-.17-1.098-.513s-.418-.84-.418-1.487c0-.67.14-1.183.422-1.534s.64-.53 1.073-.53c.412 0 .756.173 1.032.52s.414.848.414 1.505l-.004.176h-2.38c.022.437.123.767.304.99s.4.333.66.333c.405 0 .687-.266.846-.798zm-1.776-1.066h1.78c-.025-.337-.097-.588-.216-.754-.174-.242-.395-.363-.663-.363-.242 0-.448.1-.62.304s-.265.47-.282.813zm5.933 1.728l.073.582c-.15.04-.283.06-.403.06-.188 0-.34-.037-.454-.1s-.194-.178-.238-.308-.062-.387-.062-.773v-2.238h-.396v-.513h.396v-.963l.538-.395v1.36h.546v.513h-.546v2.274c0 .2.016.346.048.406.046.088.133.132.26.132.06 0 .14-.01.238-.026zm.307-1.355c0-.67.14-1.178.42-1.52s.64-.513 1.073-.513c.425 0 .78.17 1.066.513s.428.835.428 1.48c0 .698-.14 1.218-.42 1.56s-.638.513-1.073.513c-.427 0-.783-.17-1.07-.513s-.425-.85-.425-1.52zm.553 0c0 .503.092.878.275 1.124s.4.366.68.366c.254 0 .47-.123.652-.37s.275-.623.275-1.12-.092-.873-.275-1.117-.4-.37-.68-.37c-.257 0-.475.123-.656.37s-.27.62-.27 1.117zM285.182 77v-.49c-.098.188-.223.332-.377.432s-.32.147-.498.147c-.376 0-.702-.177-.978-.53s-.4-.857-.4-1.5c0-.442.06-.817.183-1.124s.284-.536.487-.685a1.13 1.13 0 0 1 .681-.223c.178 0 .343.048.495.143a1.12 1.12 0 0 1 .381.392V71.63h.542V77h-.506zm-1.7-1.94c0 .503.087.876.26 1.12s.38.366.612.366.428-.117.596-.352.253-.588.253-1.062c0-.544-.084-.94-.253-1.2s-.38-.377-.637-.377c-.227 0-.422.12-.586.363s-.245.616-.245 1.132zm2.86-.004c0-.67.14-1.178.42-1.52s.64-.513 1.073-.513c.425 0 .78.17 1.066.513s.428.835.428 1.48c0 .698-.14 1.218-.42 1.56s-.638.513-1.073.513c-.427 0-.784-.17-1.07-.513s-.425-.85-.425-1.52zm.553 0c0 .503.092.878.275 1.124s.4.366.68.366c.254 0 .47-.123.652-.37s.274-.623.274-1.12-.09-.873-.274-1.117-.4-.37-.68-.37c-.257 0-.475.123-.656.37s-.27.62-.27 1.117zm2.864.784l.534-.103c.032.273.12.477.26.612s.33.198.564.198.415-.057.542-.172a.57.57 0 0 0 .195-.443c0-.154-.055-.273-.165-.36-.076-.06-.26-.132-.55-.22-.42-.13-.7-.24-.842-.33a.93.93 0 0 1-.329-.363 1.1 1.1 0 0 1-.118-.516c0-.332.107-.602.32-.81s.507-.31.883-.31c.236 0 .444.043.622.128s.32.2.414.344.16.35.198.62l-.528.088c-.05-.425-.28-.637-.692-.637-.234 0-.41.048-.524.143a.44.44 0 0 0-.172.359c0 .144.055.258.165.34.066.05.26.127.586.234.447.144.736.26.868.344s.234.198.308.344a1.13 1.13 0 0 1 .109.516c0 .37-.118.67-.355.9s-.555.344-.963.344c-.764 0-1.207-.418-1.33-1.252zm4.98 1.16v-5.37h.54V77h-.54zm1.183-1.945c0-.67.14-1.178.42-1.52s.64-.513 1.073-.513c.425 0 .78.17 1.066.513s.428.835.428 1.48c0 .698-.14 1.218-.42 1.56s-.638.513-1.073.513c-.427 0-.783-.17-1.07-.513s-.425-.85-.425-1.52zm.553 0c0 .503.092.878.275 1.124s.4.366.68.366c.254 0 .47-.123.652-.37s.274-.623.274-1.12-.09-.873-.274-1.117-.4-.37-.68-.37c-.257 0-.475.123-.656.37s-.27.62-.27 1.117zm2.864.784l.535-.103c.03.273.118.477.26.612s.33.198.564.198.415-.057.54-.172a.57.57 0 0 0 .195-.443c0-.154-.055-.273-.165-.36-.076-.06-.26-.132-.55-.22-.42-.13-.7-.24-.842-.33a.93.93 0 0 1-.329-.363 1.1 1.1 0 0 1-.118-.516c0-.332.107-.602.32-.81s.507-.31.883-.31c.236 0 .444.043.622.128s.32.2.414.344.16.35.198.62l-.528.088c-.048-.425-.28-.637-.692-.637-.234 0-.41.048-.523.143a.44.44 0 0 0-.173.359c0 .144.055.258.165.34.066.05.26.127.586.234.447.144.736.26.868.344s.234.198.308.344a1.13 1.13 0 0 1 .11.516c0 .37-.12.67-.356.9s-.555.344-.963.344c-.764 0-1.207-.418-1.33-1.252zm5.493 1.16h-.502v-5.37h.54v1.915c.114-.176.244-.306.388-.392s.31-.132.487-.132c.25 0 .475.074.677.223s.37.375.49.677.183.67.183 1.102c0 .66-.138 1.168-.414 1.527s-.598.535-.966.535a.91.91 0 0 1-.502-.143c-.147-.098-.274-.242-.38-.432V77zm-.007-1.974c0 .403.036.704.1.905s.177.353.31.458.283.157.447.157c.222 0 .418-.124.59-.374s.26-.626.26-1.124c0-.5-.083-.885-.25-1.124s-.37-.36-.61-.36c-.223 0-.422.126-.597.377s-.26.6-.26 1.084zm5.112.722l.557.084c-.093.415-.262.73-.506.94s-.542.315-.9.315c-.45 0-.817-.17-1.098-.513s-.418-.84-.418-1.487c0-.67.14-1.183.42-1.534s.64-.53 1.073-.53c.413 0 .757.173 1.033.52s.414.848.414 1.505l-.004.176h-2.38c.022.437.123.767.304.99s.4.333.66.333c.405 0 .687-.266.846-.798zm-1.776-1.066h1.78c-.025-.337-.097-.588-.216-.754-.174-.242-.395-.363-.663-.363-.242 0-.448.1-.62.304s-.265.47-.282.813zM311.165 77v-3.89h.487v.553c.117-.215.26-.375.428-.48a1.08 1.08 0 0 1 .586-.161 1.09 1.09 0 0 1 .473.103.93.93 0 0 1 .351.264c.09.107.158.248.202.42s.066.44.066.798V77h-.542v-2.366c0-.286-.025-.494-.074-.626s-.125-.233-.23-.304-.223-.1-.36-.1a.75.75 0 0 0-.619.289c-.154.193-.23.524-.23.993V77h-.538zm5.603-1.252l.556.084c-.092.415-.26.73-.505.94s-.542.315-.9.315a1.35 1.35 0 0 1-1.098-.513c-.28-.344-.418-.84-.418-1.487 0-.67.14-1.183.42-1.534s.64-.53 1.073-.53c.413 0 .757.173 1.033.52s.414.848.414 1.505l-.004.176h-2.38c.022.437.123.767.304.99a.82.82 0 0 0 .659.333c.405 0 .687-.266.846-.798zm-1.776-1.066h1.78c-.024-.337-.096-.588-.216-.754-.173-.242-.394-.363-.662-.363-.242 0-.448.1-.62.304s-.265.47-.282.813zM318.16 77v-3.376h-.48v-.513h.48v-.414c0-.305.032-.533.096-.685s.16-.27.29-.352.297-.12.494-.12c.154 0 .323.022.506.066l-.08.575a1.49 1.49 0 0 0-.318-.037c-.162 0-.278.043-.348.128s-.103.243-.103.48v.36h.623v.513h-.623V77h-.535zm1.56-4.61v-.758h.54v.758h-.54zm0 4.61v-3.89h.54V77h-.54zm3.46-1.425l.53.084c-.06.464-.215.818-.46 1.062s-.54.366-.883.366c-.417 0-.762-.17-1.033-.513s-.402-.852-.402-1.523.135-1.183.406-1.52a1.29 1.29 0 0 1 1.051-.509c.33 0 .607.103.83.308s.373.513.436.923l-.523.1c-.052-.264-.14-.46-.268-.6a.61.61 0 0 0-.458-.198c-.266 0-.487.118-.662.355s-.26.608-.26 1.12c0 .53.083.913.25 1.15a.76.76 0 0 0 .644.355c.205 0 .38-.078.524-.234s.24-.404.278-.736zm.985-3.186v-.758h.54v.758h-.54zm0 4.61v-3.89h.54V77h-.54zm3.45-.48c-.18.188-.37.33-.564.425a1.37 1.37 0 0 1-.608.143c-.332 0-.597-.1-.795-.3s-.296-.47-.296-.81c0-.225.046-.424.14-.597a1.04 1.04 0 0 1 .381-.406c.16-.098.405-.17.732-.216.44-.063.762-.14.967-.227l.004-.168c0-.266-.048-.453-.143-.56-.134-.156-.34-.234-.62-.234-.25 0-.44.052-.564.157s-.216.297-.275.582l-.53-.088c.076-.418.23-.722.458-.912s.563-.286.993-.286c.334 0 .596.063.787.2s.3.28.36.465.077.457.077.813v.88l.033 1.164c.024.16.07.314.14.465h-.564c-.056-.134-.093-.294-.1-.48zm-.044-1.472c-.198.098-.492.18-.883.25-.227.04-.385.084-.476.135s-.16.12-.212.212a.65.65 0 0 0-.073.315c0 .186.057.334.172.447s.273.165.476.165c.193 0 .367-.05.524-.15s.277-.233.355-.4.117-.413.117-.732v-.242zM328.955 77v-3.89h.487v.6c.125-.273.238-.454.34-.542s.222-.135.352-.135c.18 0 .365.07.553.212l-.184.612c-.134-.095-.264-.143-.39-.143-.115 0-.22.04-.315.12s-.163.193-.202.337a3.06 3.06 0 0 0-.102.802V77h-.54zm2.05-4.61v-.758h.538v.758h-.538zm0 4.61v-3.89h.538V77h-.538zm1.168-1.945c0-.67.14-1.178.42-1.52s.64-.513 1.073-.513c.425 0 .78.17 1.066.513s.43.835.43 1.48c0 .698-.14 1.218-.422 1.56s-.638.513-1.073.513c-.427 0-.783-.17-1.07-.513s-.425-.85-.425-1.52zm.553 0c0 .503.092.878.275 1.124s.4.366.68.366c.254 0 .47-.123.652-.37s.275-.623.275-1.12-.092-.873-.275-1.117-.4-.37-.68-.37c-.257 0-.475.123-.656.37s-.27.62-.27 1.117zm2.864.784l.535-.103c.03.273.118.477.26.612s.33.198.564.198.415-.057.542-.172.194-.265.194-.443c0-.154-.055-.273-.165-.36-.076-.06-.26-.132-.55-.22-.42-.13-.7-.24-.843-.33a.93.93 0 0 1-.329-.363 1.11 1.11 0 0 1-.117-.516c0-.332.106-.602.318-.81s.507-.31.883-.31c.237 0 .444.043.622.128s.32.2.414.344.16.35.198.62l-.527.088c-.05-.425-.28-.637-.693-.637-.234 0-.408.048-.523.143a.44.44 0 0 0-.172.359c0 .144.055.258.164.34.066.05.262.127.586.234.447.144.736.26.868.344a.84.84 0 0 1 .308.344 1.13 1.13 0 0 1 .11.516c0 .37-.12.67-.355.9s-.556.344-.964.344c-.764 0-1.207-.418-1.33-1.252zm7.064 1.16v-.49c-.097.188-.223.332-.377.432s-.32.147-.498.147c-.376 0-.702-.177-.978-.53s-.4-.857-.4-1.5c0-.442.06-.817.183-1.124s.285-.536.487-.685a1.13 1.13 0 0 1 .681-.223c.18 0 .343.048.495.143s.28.223.38.392V71.63h.542V77h-.506zm-1.7-1.94c0 .503.087.876.26 1.12s.38.366.612.366.428-.117.597-.352.252-.588.252-1.062c0-.544-.084-.94-.252-1.2s-.38-.377-.638-.377c-.227 0-.422.12-.586.363s-.245.616-.245 1.132zm5.244.69l.557.084c-.093.415-.26.73-.506.94s-.542.315-.9.315c-.452 0-.818-.17-1.1-.513s-.418-.84-.418-1.487c0-.67.14-1.183.422-1.534s.64-.53 1.073-.53c.412 0 .756.173 1.032.52s.414.848.414 1.505l-.004.176h-2.38c.022.437.123.767.304.99s.4.333.66.333c.406 0 .688-.266.846-.798zm-1.776-1.066h1.78c-.025-.337-.097-.588-.216-.754-.174-.242-.394-.363-.663-.363-.242 0-.448.1-.62.304s-.265.47-.282.813zM347.925 77h-.502v-5.37h.54v1.915c.114-.176.244-.306.388-.392s.31-.132.487-.132c.25 0 .475.074.677.223s.37.375.49.677.183.67.183 1.102c0 .66-.138 1.168-.414 1.527s-.598.535-.966.535a.91.91 0 0 1-.502-.143c-.147-.098-.274-.242-.38-.432V77zm-.007-1.974c0 .403.036.704.1.905s.177.353.31.458.283.157.447.157c.222 0 .418-.124.59-.374s.26-.626.26-1.124c0-.5-.083-.885-.25-1.124s-.37-.36-.61-.36c-.223 0-.42.126-.597.377s-.26.6-.26 1.084zm5.112.722l.557.084c-.093.415-.262.73-.506.94s-.542.315-.9.315c-.45 0-.817-.17-1.098-.513s-.418-.84-.418-1.487c0-.67.14-1.183.42-1.534s.64-.53 1.073-.53c.413 0 .757.173 1.033.52s.414.848.414 1.505l-.004.176h-2.38c.022.437.123.767.304.99s.4.333.66.333c.405 0 .687-.266.846-.798zm-1.776-1.066h1.78c-.025-.337-.097-.588-.216-.754-.174-.242-.395-.363-.663-.363-.242 0-.448.1-.62.304s-.265.47-.282.813zM354.268 77v-3.89h.487v.6c.124-.273.238-.454.34-.542s.223-.135.352-.135c.18 0 .365.07.553.212l-.183.612a.68.68 0 0 0-.392-.143c-.115 0-.22.04-.315.12a.65.65 0 0 0-.201.337 3.02 3.02 0 0 0-.103.802V77h-.538zm4.13-.48c-.18.188-.37.33-.564.425s-.398.143-.608.143c-.332 0-.597-.1-.795-.3s-.297-.47-.297-.81c0-.225.047-.424.14-.597s.22-.31.38-.406.405-.17.732-.216c.44-.063.762-.14.967-.227l.003-.168c0-.266-.047-.453-.142-.56-.135-.156-.34-.234-.62-.234-.252 0-.44.052-.564.157s-.216.297-.275.582l-.53-.088c.076-.418.228-.722.458-.912s.563-.286.992-.286c.335 0 .597.063.788.2s.3.28.358.465.077.457.077.813v.88l.033 1.164c.025.16.07.314.14.465h-.564c-.057-.134-.093-.294-.1-.48zm-.044-1.472c-.198.098-.492.18-.883.25-.227.04-.386.084-.476.135s-.16.12-.212.212a.65.65 0 0 0-.074.315c0 .186.058.334.173.447s.273.165.476.165c.193 0 .367-.05.523-.15a.94.94 0 0 0 .356-.399c.078-.168.117-.413.117-.732v-.242zm-1.14-2.42l.4-1.025h.707l-.66 1.025h-.447zm6.328 2.948l.53.084c-.06.464-.215.818-.46 1.062s-.54.366-.883.366c-.418 0-.762-.17-1.033-.513s-.403-.852-.403-1.523.136-1.183.407-1.52a1.29 1.29 0 0 1 1.051-.509c.33 0 .607.103.83.308s.373.513.436.923l-.524.1c-.05-.264-.14-.46-.267-.6s-.28-.198-.458-.198c-.266 0-.487.118-.663.355s-.26.608-.26 1.12c0 .53.083.913.25 1.15s.384.355.645.355c.205 0 .38-.078.524-.234s.24-.404.278-.736zm.784-.52c0-.67.14-1.178.42-1.52s.64-.513 1.073-.513a1.33 1.33 0 0 1 1.065.513c.286.342.43.835.43 1.48 0 .698-.14 1.218-.42 1.56s-.64.513-1.073.513a1.34 1.34 0 0 1-1.07-.513c-.283-.344-.424-.85-.424-1.52zm.553 0c0 .503.09.878.274 1.124s.4.366.68.366c.254 0 .472-.123.652-.37s.275-.623.275-1.12-.092-.873-.275-1.117-.4-.37-.68-.37c-.256 0-.475.123-.655.37s-.27.62-.27 1.117zM367.95 77v-3.89h.488v.6c.124-.273.238-.454.34-.542s.222-.135.352-.135c.18 0 .365.07.553.212l-.183.612c-.135-.095-.265-.143-.392-.143-.115 0-.22.04-.315.12a.65.65 0 0 0-.202.337 3.06 3.06 0 0 0-.102.802V77h-.54zm2.05 0v-3.89h.487v.6c.125-.273.238-.454.34-.542s.222-.135.35-.135c.18 0 .365.07.553.212l-.183.612a.68.68 0 0 0-.392-.143c-.114 0-.22.04-.314.12s-.163.193-.202.337a3.06 3.06 0 0 0-.102.802V77H370zm4.234-1.252l.556.084c-.092.415-.26.73-.505.94s-.542.315-.9.315c-.452 0-.818-.17-1.1-.513s-.417-.84-.417-1.487c0-.67.14-1.183.42-1.534s.64-.53 1.073-.53c.413 0 .757.173 1.033.52s.414.848.414 1.505l-.004.176h-2.38c.022.437.123.767.304.99a.82.82 0 0 0 .659.333c.405 0 .687-.266.846-.798zm-1.776-1.066h1.78c-.024-.337-.096-.588-.216-.754-.173-.242-.394-.363-.663-.363a.78.78 0 0 0-.618.304c-.17.2-.265.47-.282.813zm2.808 1.157l.535-.103c.032.273.118.477.26.612s.33.198.564.198.415-.057.542-.172.194-.265.194-.443c0-.154-.055-.273-.165-.36-.075-.06-.258-.132-.55-.22-.42-.13-.7-.24-.842-.33s-.252-.21-.33-.363a1.11 1.11 0 0 1-.117-.516c0-.332.106-.602.32-.81s.506-.31.882-.31a1.43 1.43 0 0 1 .623.128c.18.085.318.2.413.344s.162.35.198.62l-.527.088c-.05-.425-.28-.637-.692-.637-.235 0-.41.048-.524.143a.44.44 0 0 0-.172.359c0 .144.055.258.165.34.066.05.26.127.586.234.446.144.736.26.868.344s.234.198.307.344a1.13 1.13 0 0 1 .11.516c0 .37-.118.67-.355.9s-.556.344-.963.344c-.764 0-1.208-.418-1.33-1.252zm3.282 2.65v-5.38h.494v.505c.122-.2.258-.36.406-.454a.95.95 0 0 1 .513-.139 1.12 1.12 0 0 1 .681.223c.203.15.365.376.487.68s.187.668.187 1.095c0 .662-.14 1.172-.417 1.53s-.6.535-.974.535a.9.9 0 0 1-.466-.128 1.17 1.17 0 0 1-.373-.362v1.893h-.538zm.487-3.413c0 .503.084.874.252 1.113s.373.355.612.355c.23 0 .43-.123.604-.37s.26-.627.26-1.143c0-.508-.084-.884-.253-1.128s-.373-.366-.615-.366c-.217 0-.415.132-.593.395s-.267.642-.267 1.143zm2.732-.022c0-.67.14-1.178.42-1.52s.64-.513 1.073-.513a1.33 1.33 0 0 1 1.065.513c.286.342.43.835.43 1.48 0 .698-.14 1.218-.42 1.56s-.64.513-1.073.513c-.428 0-.784-.17-1.07-.513s-.424-.85-.424-1.52zm.553 0c0 .503.09.878.274 1.124s.4.366.68.366c.254 0 .472-.123.652-.37s.275-.623.275-1.12-.092-.873-.275-1.117-.4-.37-.68-.37c-.256 0-.475.123-.655.37s-.27.62-.27 1.117zM385.388 77v-3.89h.487v.553c.118-.215.26-.375.43-.48s.366-.16.586-.16c.17 0 .328.034.472.103s.264.154.352.264.157.248.2.42.066.44.066.798V77h-.542v-2.366c0-.286-.024-.494-.073-.626a.61.61 0 0 0-.231-.304.6.6 0 0 0-.359-.11.75.75 0 0 0-.619.289c-.153.193-.23.524-.23.993V77h-.54zm5.5 0v-.49c-.098.188-.223.332-.377.432s-.32.147-.498.147c-.376 0-.702-.177-.978-.53s-.4-.857-.4-1.5c0-.442.06-.817.183-1.124s.284-.536.487-.685a1.13 1.13 0 0 1 .681-.223.91.91 0 0 1 .494.143c.154.093.28.223.38.392V71.63h.542V77h-.505zm-1.7-1.94c0 .503.086.876.26 1.12s.38.366.61.366.43-.117.597-.352.253-.588.253-1.062c0-.544-.084-.94-.253-1.2s-.38-.377-.637-.377c-.227 0-.422.12-.586.363s-.245.616-.245 1.132zm5.244.69l.557.084c-.093.415-.262.73-.506.94s-.542.315-.9.315a1.35 1.35 0 0 1-1.098-.513c-.28-.344-.418-.84-.418-1.487 0-.67.14-1.183.42-1.534s.64-.53 1.073-.53c.413 0 .757.173 1.033.52s.414.848.414 1.505l-.004.176h-2.38c.022.437.123.767.304.99a.82.82 0 0 0 .659.333c.405 0 .687-.266.846-.798zm-1.776-1.066h1.78c-.025-.337-.097-.588-.217-.754-.173-.242-.394-.363-.662-.363-.242 0-.448.1-.62.304s-.265.47-.282.813zM395.65 77v-3.89h.487v.6c.124-.273.238-.454.34-.542s.222-.135.352-.135c.18 0 .365.07.553.212l-.183.612c-.135-.095-.265-.143-.392-.143-.115 0-.22.04-.315.12a.65.65 0 0 0-.201.337 3.02 3.02 0 0 0-.103.802V77h-.538zm5.844-.48c-.18.188-.368.33-.564.425a1.37 1.37 0 0 1-.607.143c-.333 0-.597-.1-.795-.3s-.297-.47-.297-.81c0-.225.047-.424.14-.597a1.04 1.04 0 0 1 .381-.406c.16-.098.405-.17.733-.216.44-.063.76-.14.966-.227l.004-.168c0-.266-.048-.453-.143-.56-.134-.156-.34-.234-.62-.234-.25 0-.44.052-.564.157s-.216.297-.274.582l-.53-.088c.075-.418.228-.722.458-.912s.562-.286.992-.286c.334 0 .597.063.787.2s.3.28.36.465.077.457.077.813v.88l.033 1.164c.024.16.07.314.14.465h-.564c-.056-.134-.093-.294-.1-.48zm-.044-1.472c-.197.098-.492.18-.882.25-.227.04-.386.084-.476.135s-.16.12-.213.212a.66.66 0 0 0-.073.315.6.6 0 0 0 .172.447c.115.1.274.165.476.165a.95.95 0 0 0 .524-.15.93.93 0 0 0 .355-.399c.078-.168.117-.413.117-.732v-.242zM402.82 77v-5.37h.538V77h-.538zm4.984 0h-.542v-4.2c-.124.146-.292.297-.502.45s-.402.266-.578.344v-.637a3.28 3.28 0 0 0 .787-.626c.23-.247.39-.487.484-.72h.35V77zm1.384-2.648c0-.9.12-1.583.363-2.047s.603-.696 1.077-.696c.42 0 .75.188.992.564.293.454.44 1.18.44 2.18 0 .896-.12 1.577-.363 2.043s-.6.696-1.077.696c-.42 0-.764-.205-1.032-.615s-.4-1.118-.4-2.124zm.553 0c0 .872.083 1.456.25 1.754s.384.443.645.443c.247 0 .453-.15.62-.45s.25-.883.25-1.747c0-.874-.084-1.46-.253-1.754s-.382-.443-.648-.443c-.244 0-.45.15-.615.45s-.246.882-.246 1.747zm2.868 0c0-.9.12-1.583.362-2.047s.603-.696 1.077-.696c.42 0 .75.188.993.564.292.454.44 1.18.44 2.18 0 .896-.12 1.577-.363 2.043s-.6.696-1.076.696c-.42 0-.764-.205-1.033-.615s-.4-1.118-.4-2.124zm.553 0c0 .872.083 1.456.25 1.754s.383.443.644.443c.247 0 .453-.15.62-.45s.25-.883.25-1.747c0-.874-.084-1.46-.252-1.754s-.382-.443-.65-.443c-.244 0-.45.15-.615.45s-.245.882-.245 1.747zm2.966-1.432c0-.447.09-.79.268-1.025s.396-.355.655-.355c.27 0 .496.118.68.355s.278.59.278 1.062c0 .462-.092.814-.278 1.058s-.4.362-.674.362c-.258 0-.478-.12-.66-.36s-.27-.608-.27-1.1zm.94-.927c-.134 0-.246.072-.337.216s-.13.392-.13.75.044.61.13.75.207.212.348.212c.13 0 .238-.07.326-.212s.136-.394.136-.75-.045-.607-.136-.75-.202-.216-.337-.216zm0 5.204l2.4-5.658h.44l-2.398 5.658h-.45zm1.908-1.458c0-.447.09-.788.268-1.025s.395-.355.65-.355a.84.84 0 0 1 .685.355c.186.234.28.587.28 1.058 0 .464-.094.818-.282 1.062s-.41.363-.67.363-.478-.12-.66-.363-.27-.607-.27-1.095zm.94-.927c-.136 0-.25.072-.34.216s-.132.392-.132.75.045.61.136.75.206.213.347.213c.127 0 .235-.072.323-.216s.135-.394.135-.75-.045-.605-.135-.747-.2-.216-.334-.216zM421.823 77v-.75h.615V77h-.615z"/></g><path d="M236.554 1.558h1.946c.493 0 .863.056 1.112.167s.484.293.695.554.376.6.496 1.015.18.933.18 1.55c0 .557-.063 1.042-.19 1.455s-.285.735-.48.976-.427.422-.703.545-.624.18-1.054.18h-2.004V1.558zm1.063 1.1v4.267h.8c.343 0 .6-.032.743-.097a.89.89 0 0 0 .378-.29c.1-.132.18-.338.246-.62s.096-.652.096-1.112c0-.478-.033-.854-.1-1.13s-.167-.492-.307-.65-.306-.262-.506-.312c-.15-.038-.438-.057-.865-.057h-.484zM246.648 8h-1.16l-.462-1.463h-2.11L242.482 8h-1.134l2.057-6.442h1.13L246.648 8zm-1.964-2.55l-.726-2.39-.716 2.39h1.442zM247.856 8V2.647h-1.568v-1.1h4.196v1.1h-1.564V8h-1.064zm2.976-3.182c0-.768.112-1.4.338-1.894s.526-.87.892-1.112.8-.365 1.332-.365c.755 0 1.37.29 1.845.866s.717 1.4.717 2.465c0 1.078-.252 1.92-.756 2.527-.443.536-1.043.804-1.802.804-.765 0-1.368-.265-1.81-.795-.504-.606-.755-1.438-.755-2.496zm1.098-.044c0 .74.14 1.298.422 1.67s.63.554 1.046.554.766-.183 1.04-.55.414-.935.414-1.696c0-.747-.135-1.3-.405-1.657s-.616-.536-1.05-.536-.787.18-1.06.54-.41.918-.41 1.674zm4.592 1.13l1.042-.123c.117.823.5 1.235 1.15 1.235.323 0 .576-.083.76-.25a.82.82 0 0 0 .276-.628c0-.146-.032-.27-.096-.374a.7.7 0 0 0-.295-.25c-.132-.067-.45-.18-.958-.334-.454-.138-.786-.287-.997-.448s-.38-.372-.506-.633a1.98 1.98 0 0 1-.184-.848c0-.352.08-.668.237-.95s.382-.494.664-.637.628-.215 1.04-.215c.62 0 1.106.168 1.455.505s.533.82.554 1.446l-1.068.057c-.047-.346-.148-.587-.304-.725s-.376-.207-.663-.207-.508.06-.664.18-.233.27-.233.448.07.324.21.444.465.252.97.396c.537.155.923.32 1.16.492s.423.39.55.664.19.598.19.984c0 .56-.173 1.03-.52 1.41s-.88.57-1.612.57c-1.295 0-2.016-.737-2.163-2.2zm7.247-4.346h2.114c.577 0 .983.053 1.217.158s.432.292.593.558.242.568.242.905c0 .31-.07.592-.206.844a1.36 1.36 0 0 1-.537.554c.314.11.558.302.734.57s.268.598.268.984c0 .47-.112.866-.338 1.19s-.492.52-.8.598c-.214.053-.7.08-1.5.08h-1.797V1.558zm1.064 1.072v1.5h.703l.782-.022c.182-.03.324-.105.426-.23s.154-.296.154-.5c0-.2-.043-.344-.127-.46s-.184-.195-.304-.224-.457-.044-1.02-.044h-.615zm0 2.562v1.723h.988c.434 0 .712-.022.835-.066s.226-.136.308-.268.127-.305.127-.5c0-.21-.045-.384-.136-.52a.66.66 0 0 0-.356-.281c-.146-.053-.448-.08-.905-.08h-.86zM269.1 8V1.558h3.92v1.1h-2.857v1.428h2.654V5.16h-2.654v1.753h2.953V8H269.1zm4.93 0V1.558h1.037l2.162 4.302V1.558h.994V8h-1.073l-2.127-4.2V8h-.993zm5.318 0V1.558h3.92v1.1h-2.857v1.428h2.654V5.16h-2.654v1.753h2.953V8h-4.016zm4.926 0V1.558h3.62v1.1h-2.558v1.525h2.21v1.1h-2.21V8h-1.063zm4.47 0V1.558h1.064V8h-1.064zm5.47-2.37l1.033.4c-.16.72-.43 1.248-.804 1.582s-.837.497-1.384.497c-.69 0-1.247-.265-1.675-.795-.492-.612-.738-1.438-.738-2.48 0-1.1.248-1.958.743-2.58.43-.54 1.01-.81 1.736-.81.59 0 1.086.202 1.485.606.284.287.492.713.624 1.28l-1.055.308c-.067-.35-.202-.615-.404-.8s-.435-.28-.708-.28c-.39 0-.707.17-.953.5s-.37.9-.37 1.683c0 .812.12 1.39.36 1.73s.552.514.936.514c.28 0 .524-.108.73-.325s.353-.567.443-1.04zM296.126 8V1.558h1.063V8h-1.063zm6.85 0h-1.16l-.462-1.463h-2.11L298.81 8h-1.134l2.057-6.442h1.13L302.977 8zm-1.964-2.55l-.725-2.39-.717 2.39h1.442zm2.53 2.55V1.558h2.246c.574 0 .984.06 1.23.176s.448.315.606.602.238.625.238 1.024c0 .504-.122.9-.365 1.217s-.583.5-1.028.58c.228.164.417.344.567.54s.353.542.6 1.046L308.3 8h-1.27l-.773-1.402-.567-.95a.81.81 0 0 0-.317-.264c-.11-.05-.3-.075-.536-.075h-.22V8h-1.063zm1.063-3.718h.79c.484 0 .79-.02.923-.062a.6.6 0 0 0 .321-.259c.082-.13.123-.3.123-.514 0-.205-.04-.37-.123-.492a.62.62 0 0 0-.334-.259c-.1-.032-.388-.048-.866-.048h-.835v1.635zM308.835 8V1.558h1.063V8h-1.063zm1.876-3.182c0-.768.113-1.4.34-1.894s.526-.87.892-1.112.8-.365 1.33-.365c.756 0 1.372.29 1.846.866s.716 1.4.716 2.465c0 1.078-.252 1.92-.755 2.527-.443.536-1.043.804-1.802.804-.765 0-1.368-.265-1.81-.795-.504-.606-.756-1.438-.756-2.496zm1.1-.044c0 .74.14 1.298.422 1.67s.63.554 1.046.554.766-.183 1.04-.55.413-.935.413-1.696c0-.747-.134-1.3-.404-1.657s-.617-.536-1.05-.536-.787.18-1.06.54-.41.918-.41 1.674zm6.53 5.12h-.694a9.27 9.27 0 0 1-.839-2.092c-.194-.738-.3-1.453-.3-2.145a8.16 8.16 0 0 1 .294-2.184c.196-.712.48-1.387.848-2.026h.7c-.337.914-.565 1.68-.685 2.294a10.35 10.35 0 0 0-.176 1.951c0 .71.083 1.46.25 2.25.117.557.318 1.207.602 1.95zm.523-4l1.042-.123c.117.823.5 1.235 1.15 1.235.322 0 .576-.083.76-.25a.82.82 0 0 0 .277-.628c0-.146-.032-.27-.096-.374a.7.7 0 0 0-.295-.25c-.132-.067-.45-.18-.958-.334-.454-.138-.786-.287-.997-.448s-.38-.372-.506-.633a1.98 1.98 0 0 1-.184-.848c0-.352.08-.668.237-.95s.382-.494.664-.637.628-.215 1.04-.215c.62 0 1.106.168 1.455.505s.533.82.553 1.446l-1.068.057c-.046-.346-.147-.587-.303-.725s-.376-.207-.663-.207-.51.06-.664.18-.233.27-.233.448a.56.56 0 0 0 .211.444c.14.12.464.252.97.396.536.155.923.32 1.16.492s.424.39.55.664.19.598.19.984c0 .56-.173 1.03-.52 1.41s-.88.57-1.613.57c-1.295 0-2.015-.737-2.162-2.2zm4.905 4c.284-.738.483-1.38.597-1.93a10.9 10.9 0 0 0 .255-2.272 10.18 10.18 0 0 0-.18-1.951c-.117-.615-.344-1.38-.68-2.294h.7c.378.662.662 1.345.852 2.048s.3 1.405.3 2.105a8.76 8.76 0 0 1-.285 2.171c-.19.74-.472 1.45-.844 2.123h-.694z" fill="#fff"/><path d="M102.474 16v-5.37h.864l1.802 3.585V10.63h.828V16h-.894l-1.772-3.5V16h-.828zm4.252-2.65c0-.64.094-1.166.282-1.578s.438-.724.743-.927.675-.304 1.1-.304c.63 0 1.142.24 1.538.72s.597 1.166.597 2.054c0 .898-.2 1.6-.63 2.106-.37.447-.87.67-1.5.67-.638 0-1.14-.22-1.51-.663-.42-.505-.63-1.2-.63-2.08zm.915-.037c0 .618.118 1.082.352 1.392s.525.46.872.46.638-.152.867-.458.345-.78.345-1.414c0-.623-.113-1.083-.337-1.38a1.04 1.04 0 0 0-.875-.447c-.362 0-.656.15-.883.45s-.34.765-.34 1.395zM112.684 16v-4.46h-1.307v-.908h3.497v.908h-1.304V16h-.886zm6.28 0h-.967l-.385-1.22h-1.758l-.362 1.22h-.945l1.714-5.37h.94l1.762 5.37zm-1.637-2.124l-.605-1.992-.597 1.992h1.202zm2.26-.736v-1.03h.846v1.03h-.846zm0 2.86v-1.03h.846V16h-.846zm3.443-1.725l.55-.06c.03.295.095.526.198.692s.254.295.446.396.41.15.652.15c.347 0 .615-.084.806-.253s.29-.392.29-.663c0-.16-.035-.297-.106-.414a.76.76 0 0 0-.315-.293c-.14-.076-.442-.182-.908-.32-.415-.122-.71-.245-.886-.37a1.3 1.3 0 0 1-.411-.473 1.43 1.43 0 0 1-.146-.652c0-.435.14-.8.42-1.066s.66-.414 1.135-.414c.328 0 .613.065.857.194a1.37 1.37 0 0 1 .572.557c.136.242.2.526.22.853l-.56.05c-.03-.35-.134-.608-.315-.776s-.43-.253-.754-.253c-.33 0-.58.075-.755.223s-.26.337-.26.57c0 .217.064.386.19.505s.412.24.857.362c.434.12.74.223.915.31.27.137.47.317.608.542s.205.488.205.798-.072.588-.216.842a1.45 1.45 0 0 1-.589.575c-.247.132-.545.198-.894.198-.544 0-.98-.164-1.304-.49s-.49-.77-.5-1.33zm4.218-2.886v-.758h.54v.758h-.54zm0 4.61v-3.89h.54V16h-.54zm5.175 0v-.57c-.125.22-.27.385-.44.494a1.02 1.02 0 0 1-.571.165c-.25 0-.466-.067-.644-.2s-.298-.31-.36-.516-.088-.49-.088-.85v-2.4h.538v2.157c0 .4.02.67.06.806a.64.64 0 0 0 .223.326c.1.08.234.12.374.12.258 0 .47-.106.637-.32.14-.183.212-.52.212-1.007V12.11h.542V16h-.483zm1.124-1.16l.535-.103c.032.273.118.477.26.612s.33.198.564.198.415-.057.542-.172.194-.265.194-.443c0-.154-.055-.274-.165-.36-.076-.06-.26-.132-.55-.22-.42-.13-.7-.24-.843-.33a.93.93 0 0 1-.329-.363 1.11 1.11 0 0 1-.117-.516c0-.332.106-.602.318-.81s.507-.31.883-.31c.237 0 .444.043.622.128s.32.2.414.344.16.35.198.62l-.527.088c-.05-.425-.28-.637-.693-.637-.234 0-.408.048-.523.143a.44.44 0 0 0-.172.359c0 .144.055.257.164.34.066.05.262.127.586.234.447.144.737.26.868.344a.84.84 0 0 1 .308.344 1.13 1.13 0 0 1 .11.516c0 .37-.12.67-.355.9s-.556.344-.964.344c-.764 0-1.207-.418-1.33-1.252zm4.486.57l.073.582a1.6 1.6 0 0 1-.402.059c-.188 0-.34-.037-.454-.1s-.195-.178-.24-.308-.062-.387-.062-.773v-2.238h-.395v-.513h.395v-.963l.54-.396v1.36h.545v.513h-.545v2.274c0 .2.015.345.047.406.047.088.133.132.26.132.06 0 .14-.008.238-.026zm2.692-.663l.556.084c-.092.415-.26.73-.505.94s-.542.315-.9.315a1.35 1.35 0 0 1-1.098-.513c-.28-.344-.418-.84-.418-1.487 0-.67.14-1.183.42-1.534s.64-.53 1.073-.53c.413 0 .757.173 1.033.52s.414.848.414 1.505l-.004.176h-2.38c.022.437.123.767.304.99a.82.82 0 0 0 .659.333c.405 0 .687-.266.846-.798zm-1.776-1.066h1.78c-.025-.337-.097-.588-.217-.754-.173-.242-.394-.363-.662-.363-.242 0-.448.1-.62.304s-.265.47-.282.813zM144.032 16v-.49a1.12 1.12 0 0 1-.377.432c-.154.098-.32.147-.5.147-.375 0-.7-.177-.977-.53s-.4-.857-.4-1.5c0-.442.06-.817.183-1.124s.284-.536.487-.685a1.13 1.13 0 0 1 .681-.223.91.91 0 0 1 .494.143c.154.093.28.223.38.392V10.63h.542V16h-.505zm-1.7-1.94c0 .503.086.876.26 1.12s.38.366.61.366.43-.117.597-.352.253-.588.253-1.062c0-.544-.085-.94-.253-1.2s-.38-.377-.637-.377c-.227 0-.423.12-.586.363s-.245.616-.245 1.132zm6.844 1.94v-.49c-.098.188-.223.332-.377.432s-.32.147-.498.147c-.376 0-.702-.177-.978-.53s-.4-.857-.4-1.5c0-.442.06-.817.183-1.124s.284-.536.487-.685a1.13 1.13 0 0 1 .681-.223c.178 0 .343.048.495.143a1.11 1.11 0 0 1 .38.392V10.63h.542V16h-.505zm-1.7-1.94c0 .503.086.876.26 1.12s.38.366.61.366.43-.117.597-.352.253-.588.253-1.062c0-.544-.084-.94-.253-1.2s-.38-.377-.637-.377c-.227 0-.422.12-.586.363s-.245.616-.245 1.132zm5.244.688l.557.084c-.093.415-.262.73-.506.94s-.542.315-.9.315a1.35 1.35 0 0 1-1.098-.513c-.28-.344-.418-.84-.418-1.487 0-.67.14-1.183.42-1.534s.64-.53 1.073-.53c.413 0 .757.173 1.033.52s.414.848.414 1.505l-.004.176h-2.38c.022.437.123.767.304.99a.82.82 0 0 0 .659.333c.405 0 .687-.266.846-.798zm-1.776-1.066h1.78c-.025-.337-.097-.588-.216-.754-.174-.242-.395-.363-.663-.363-.242 0-.448.1-.62.304s-.265.47-.282.813zm2.81 1.157l.534-.103c.032.273.12.477.26.612s.33.198.564.198.415-.057.542-.172a.57.57 0 0 0 .194-.443.43.43 0 0 0-.164-.359c-.076-.06-.26-.132-.55-.22-.42-.13-.7-.24-.842-.33a.93.93 0 0 1-.33-.363 1.11 1.11 0 0 1-.117-.516c0-.332.106-.602.32-.81s.506-.31.882-.31c.237 0 .445.043.623.128s.32.2.414.344.16.35.198.62l-.528.088c-.05-.425-.28-.637-.692-.637-.234 0-.41.048-.524.143a.44.44 0 0 0-.172.359c0 .144.055.257.165.34.066.05.26.127.586.234.447.144.736.26.868.344s.234.198.308.344a1.13 1.13 0 0 1 .109.516c0 .37-.118.67-.355.9s-.555.344-.963.344c-.764 0-1.207-.418-1.33-1.252zm5.464-.09l.556.084c-.093.415-.26.73-.505.94s-.542.315-.9.315c-.452 0-.818-.17-1.1-.513s-.417-.84-.417-1.487c0-.67.14-1.183.42-1.534s.64-.53 1.073-.53c.413 0 .757.173 1.033.52s.413.848.413 1.505l-.003.176h-2.38c.022.437.124.767.304.99s.4.333.66.333c.405 0 .687-.266.846-.798zm-1.777-1.066h1.78c-.024-.337-.096-.588-.216-.754-.173-.242-.394-.363-.663-.363-.24 0-.448.1-.62.304s-.264.47-.282.813zm5.094 1.838c-.18.188-.368.33-.564.425a1.37 1.37 0 0 1-.607.143c-.333 0-.597-.1-.795-.3s-.297-.47-.297-.81c0-.225.047-.424.14-.597a1.04 1.04 0 0 1 .381-.406c.16-.098.406-.17.733-.216.44-.064.76-.14.966-.227l.004-.168c0-.266-.047-.453-.143-.56-.134-.156-.34-.234-.62-.234-.25 0-.44.053-.564.158s-.216.297-.274.582l-.53-.088c.075-.417.228-.72.458-.912s.562-.286.992-.286c.334 0 .597.063.787.19s.3.28.36.465.077.457.077.813v.88l.033 1.165c.024.16.07.314.14.465h-.564c-.056-.134-.093-.294-.1-.48zm-.044-1.472c-.197.098-.49.18-.882.25-.227.04-.386.084-.476.136s-.16.12-.213.212a.66.66 0 0 0-.073.315.6.6 0 0 0 .172.447c.115.1.274.165.476.165a.95.95 0 0 0 .524-.15.93.93 0 0 0 .355-.399c.078-.168.117-.413.117-.732v-.242zM167.638 16v-.49c-.098.188-.224.332-.378.432s-.32.147-.498.147c-.376 0-.7-.177-.977-.53s-.4-.857-.4-1.5c0-.442.06-.817.183-1.124s.284-.536.487-.685a1.13 1.13 0 0 1 .681-.223.91.91 0 0 1 .494.143c.154.093.28.223.38.392V10.63h.542V16h-.505zm-1.71-1.94c0 .503.087.876.26 1.12s.38.366.61.366.43-.117.597-.352.253-.588.253-1.062c0-.544-.085-.94-.253-1.2s-.38-.377-.637-.377c-.227 0-.423.12-.586.363s-.246.616-.246 1.132zm5.245.688l.556.084c-.093.415-.26.73-.505.94s-.542.315-.9.315c-.452 0-.818-.17-1.1-.513s-.417-.84-.417-1.487c0-.67.14-1.183.42-1.534s.64-.53 1.073-.53c.413 0 .757.173 1.033.52s.414.848.414 1.505l-.004.176h-2.38c.022.437.123.767.304.99a.82.82 0 0 0 .659.333c.405 0 .687-.266.846-.798zm-1.776-1.066h1.78c-.024-.337-.096-.588-.216-.754-.173-.242-.394-.363-.663-.363-.24 0-.448.1-.62.304s-.264.47-.28.813zm2.808 1.157l.535-.103c.032.273.118.477.26.612s.33.198.564.198.415-.057.542-.172.194-.265.194-.443c0-.154-.055-.274-.165-.36-.075-.06-.26-.132-.55-.22-.42-.13-.7-.24-.842-.33s-.252-.21-.33-.363a1.11 1.11 0 0 1-.117-.516c0-.332.106-.602.32-.81s.506-.31.882-.31a1.43 1.43 0 0 1 .623.128c.18.085.318.2.413.344s.162.35.198.62l-.527.088c-.05-.425-.28-.637-.692-.637-.235 0-.41.048-.524.143a.44.44 0 0 0-.172.359c0 .144.055.257.165.34.066.05.26.127.586.234.446.144.736.26.868.344s.234.198.307.344a1.13 1.13 0 0 1 .11.516c0 .37-.118.67-.355.9s-.556.344-.963.344c-.764 0-1.208-.418-1.33-1.252zm3.282-3.45v-.758h.538v.758h-.538zm0 4.61v-3.89h.538V16h-.538zm1.267.322l.527.095c.024.207.098.36.22.46s.292.154.51.154c.237 0 .425-.057.564-.172s.238-.28.29-.505c.032-.137.048-.425.048-.864a1.27 1.27 0 0 1-.396.381c-.146.085-.31.128-.487.128-.38 0-.697-.16-.948-.483-.288-.37-.433-.868-.433-1.49 0-.418.064-.782.19-1.095s.293-.542.498-.69.44-.22.696-.22a.97.97 0 0 1 .512.139c.157.093.295.232.414.417v-.47h.498v3.362c0 .598-.05 1.024-.146 1.278a1.23 1.23 0 0 1-.48.604c-.222.15-.49.223-.802.223-.412 0-.73-.11-.952-.333s-.33-.53-.322-.923zm.45-2.336c0 .5.084.883.253 1.117s.375.35.62.35.45-.115.622-.344.257-.594.257-1.095c0-.488-.088-.85-.264-1.088s-.39-.36-.64-.36c-.225 0-.422.12-.593.36s-.253.6-.253 1.058zM180.276 16v-3.89h.487v.553c.117-.215.26-.375.428-.48s.366-.16.586-.16c.17 0 .328.034.473.103a.93.93 0 0 1 .351.264c.1.107.158.248.2.42s.066.44.066.798V16h-.542v-2.366c0-.286-.024-.494-.073-.626a.61.61 0 0 0-.231-.304.6.6 0 0 0-.358-.11.75.75 0 0 0-.619.289c-.154.193-.23.524-.23.992V16h-.538zm5.5-.48c-.18.188-.37.33-.564.425a1.37 1.37 0 0 1-.608.143c-.332 0-.597-.1-.794-.3s-.297-.47-.297-.81c0-.225.046-.424.14-.597a1.04 1.04 0 0 1 .381-.406c.16-.098.405-.17.732-.216.44-.064.762-.14.967-.227l.004-.168c0-.266-.048-.453-.143-.56-.134-.156-.34-.234-.62-.234-.25 0-.44.053-.564.158s-.216.297-.275.582l-.53-.088c.076-.417.23-.72.458-.912s.563-.286.993-.286c.334 0 .597.063.787.19s.3.28.36.465.077.457.077.813v.88l.033 1.165c.024.16.07.314.14.465h-.564c-.056-.134-.093-.294-.1-.48zm-.044-1.472c-.198.098-.492.18-.882.25-.227.04-.386.084-.476.136a.52.52 0 0 0-.213.212.65.65 0 0 0-.073.315c0 .185.057.334.172.447s.273.165.476.165a.95.95 0 0 0 .524-.15c.158-.1.277-.233.355-.4s.117-.413.117-.732v-.242zM187.116 16v-3.89h.488v.6c.124-.273.238-.454.34-.542s.222-.136.352-.136c.18 0 .365.07.553.213l-.183.61c-.135-.095-.265-.143-.392-.143-.115 0-.22.04-.315.12a.65.65 0 0 0-.202.337 3.06 3.06 0 0 0-.102.802V16h-.54zm3.56-1.16l.535-.103c.03.273.118.477.26.612s.33.198.564.198.415-.057.542-.172.194-.265.194-.443c0-.154-.055-.274-.165-.36-.076-.06-.26-.132-.55-.22-.42-.13-.7-.24-.843-.33a.93.93 0 0 1-.329-.363 1.11 1.11 0 0 1-.117-.516c0-.332.106-.602.318-.81s.507-.31.883-.31c.237 0 .444.043.622.128s.32.2.414.344.16.35.198.62l-.527.088c-.05-.425-.28-.637-.693-.637-.234 0-.41.048-.523.143a.44.44 0 0 0-.172.359c0 .144.055.257.164.34.066.05.262.127.586.234.447.144.736.26.868.344a.84.84 0 0 1 .308.344 1.13 1.13 0 0 1 .11.516c0 .37-.12.67-.355.9s-.556.344-.964.344c-.764 0-1.207-.418-1.33-1.252zm5.372 1.16v-.57c-.124.22-.27.385-.44.494s-.36.165-.57.165a1.04 1.04 0 0 1-.645-.201.99.99 0 0 1-.359-.516c-.058-.208-.088-.49-.088-.85v-2.4h.54v2.157c0 .4.02.67.058.806a.64.64 0 0 0 .224.326c.11.08.234.12.373.12.26 0 .47-.106.637-.32.142-.183.213-.52.213-1.007V12.11h.542V16h-.484zm1.125-1.16l.534-.103c.032.273.12.477.26.612s.33.198.564.198.415-.057.542-.172a.57.57 0 0 0 .194-.443.43.43 0 0 0-.164-.359c-.076-.06-.26-.132-.55-.22-.42-.13-.7-.24-.842-.33s-.252-.21-.33-.363a1.11 1.11 0 0 1-.117-.516c0-.332.106-.602.32-.81s.506-.31.882-.31c.237 0 .445.043.623.128a.99.99 0 0 1 .414.344c.095.144.16.35.197.62l-.527.088c-.05-.425-.28-.637-.692-.637-.234 0-.41.048-.524.143a.44.44 0 0 0-.172.359c0 .144.055.257.165.34.066.05.26.127.586.234.447.144.736.26.868.344a.84.84 0 0 1 .307.344c.074.144.1.316.1.516 0 .37-.118.67-.355.9s-.555.344-.963.344c-.764 0-1.207-.418-1.33-1.252zm5.493 1.16h-.502v-5.37h.538v1.915c.115-.176.245-.306.39-.392s.308-.132.487-.132c.25 0 .474.075.677.223s.37.375.49.678.183.67.183 1.102c0 .66-.138 1.168-.414 1.527s-.598.535-.967.535a.91.91 0 0 1-.501-.143c-.147-.098-.274-.242-.38-.432V16zm-.008-1.974c0 .403.037.704.1.905s.177.353.312.458.283.157.446.157c.223 0 .42-.124.6-.373s.26-.626.26-1.124c0-.5-.083-.885-.25-1.124s-.37-.36-.612-.36c-.222 0-.42.126-.597.377s-.26.6-.26 1.084zm5.113.722l.556.084c-.092.415-.26.73-.505.94s-.542.315-.9.315a1.35 1.35 0 0 1-1.098-.513c-.28-.344-.418-.84-.418-1.487 0-.67.14-1.183.42-1.534s.64-.53 1.073-.53c.413 0 .757.173 1.033.52s.414.848.414 1.505l-.004.176h-2.38c.022.437.123.767.304.99a.82.82 0 0 0 .659.333c.405 0 .687-.266.846-.798zm-1.776-1.066h1.78c-.024-.337-.096-.588-.216-.754-.173-.242-.394-.363-.662-.363-.242 0-.448.1-.62.304s-.265.47-.282.813zM209.01 16v-3.89h.487v.553c.117-.215.26-.375.428-.48s.366-.16.586-.16c.17 0 .328.034.472.103s.264.154.352.264.157.248.2.42.066.44.066.798V16h-.542v-2.366c0-.286-.024-.494-.073-.626a.61.61 0 0 0-.231-.304.6.6 0 0 0-.359-.11.75.75 0 0 0-.618.289c-.154.193-.23.524-.23.992V16h-.538zm5.603-1.252l.556.084c-.093.415-.26.73-.505.94s-.542.315-.9.315c-.452 0-.818-.17-1.1-.513s-.417-.84-.417-1.487c0-.67.14-1.183.42-1.534s.64-.53 1.073-.53c.413 0 .757.173 1.033.52s.414.848.414 1.505l-.004.176h-2.38c.022.437.124.767.304.99s.4.333.66.333c.405 0 .687-.266.846-.798zm-1.777-1.066h1.78c-.024-.337-.096-.588-.216-.754-.173-.242-.394-.363-.663-.363-.24 0-.448.1-.62.304s-.264.47-.282.813zM216.003 16v-3.376h-.48v-.513h.48v-.414c0-.305.032-.533.095-.685s.16-.27.3-.352.296-.12.494-.12c.154 0 .322.022.505.066l-.08.575a1.5 1.5 0 0 0-.319-.037c-.16 0-.277.043-.348.128s-.102.243-.102.48v.36h.622v.513h-.622V16h-.535zm1.56-4.61v-.758h.54v.758h-.54zm0 4.61v-3.89h.54V16h-.54zm3.46-1.425l.53.084c-.06.464-.215.818-.46 1.062s-.54.366-.883.366c-.418 0-.762-.17-1.033-.513s-.403-.852-.403-1.523.136-1.183.407-1.52a1.29 1.29 0 0 1 1.051-.509c.33 0 .607.103.83.308s.373.513.436.923l-.524.1c-.05-.264-.14-.46-.267-.6s-.28-.198-.458-.198c-.266 0-.487.118-.663.355s-.26.608-.26 1.12c0 .53.083.913.25 1.15s.384.355.645.355c.205 0 .38-.078.524-.234s.24-.404.278-.736zm.985-3.186v-.758h.538v.758h-.538zm0 4.61v-3.89h.538V16h-.538zm3.45-.48c-.18.188-.37.33-.564.425s-.398.143-.608.143c-.332 0-.597-.1-.795-.3s-.296-.47-.296-.81c0-.225.046-.424.14-.597s.22-.31.38-.406.405-.17.732-.216c.44-.064.762-.14.967-.227l.003-.168c0-.266-.047-.453-.142-.56-.135-.156-.34-.234-.62-.234-.252 0-.44.053-.564.158s-.216.297-.275.582l-.53-.088c.076-.417.228-.72.458-.912s.563-.286.992-.286c.335 0 .597.063.788.19s.3.28.36.465.076.457.076.813v.88l.033 1.165c.025.16.07.314.14.465h-.564c-.057-.134-.093-.294-.1-.48zm-.044-1.472c-.198.098-.492.18-.883.25-.227.04-.386.084-.476.136s-.16.12-.212.212a.65.65 0 0 0-.073.315c0 .185.057.334.172.447s.273.165.476.165c.193 0 .367-.05.523-.15a.94.94 0 0 0 .356-.399c.078-.168.117-.413.117-.732v-.242zM226.8 16v-3.89h.487v.6c.125-.273.238-.454.34-.542s.222-.136.35-.136c.18 0 .365.07.553.213l-.183.61a.68.68 0 0 0-.392-.143.48.48 0 0 0-.315.121.65.65 0 0 0-.201.337 3.06 3.06 0 0 0-.103.802V16h-.538zm2.05-4.61v-.758h.538v.758h-.538zm0 4.61v-3.89h.538V16h-.538zm1.168-1.945c0-.67.14-1.178.42-1.52s.64-.513 1.073-.513c.425 0 .78.17 1.066.513s.428.835.428 1.48c0 .698-.14 1.218-.42 1.56s-.638.513-1.073.513c-.427 0-.783-.17-1.07-.513s-.425-.85-.425-1.52zm.553 0c0 .503.092.878.275 1.124s.4.366.68.366c.254 0 .47-.123.652-.37s.274-.623.274-1.12-.09-.873-.274-1.117-.4-.37-.68-.37c-.257 0-.475.123-.656.37s-.27.62-.27 1.117zm2.864.784l.534-.103c.032.273.12.477.26.612s.33.198.564.198.415-.057.542-.172a.57.57 0 0 0 .195-.443c0-.154-.055-.274-.165-.36-.076-.06-.26-.132-.55-.22-.42-.13-.7-.24-.842-.33a.93.93 0 0 1-.329-.363 1.1 1.1 0 0 1-.118-.516c0-.332.107-.602.32-.81s.507-.31.883-.31c.236 0 .444.043.622.128s.32.2.414.344.16.35.198.62l-.528.088c-.05-.425-.28-.637-.692-.637-.234 0-.41.048-.523.143a.44.44 0 0 0-.173.359c0 .144.055.257.165.34.066.05.26.127.586.234.447.144.736.26.868.344s.234.198.308.344a1.13 1.13 0 0 1 .11.516c0 .37-.12.67-.356.9s-.555.344-.963.344c-.764 0-1.207-.418-1.33-1.252zm4.995 2.65v-5.38h.494v.505a1.27 1.27 0 0 1 .407-.454.95.95 0 0 1 .513-.139c.25 0 .478.075.68.223s.365.376.487.68.186.668.186 1.095c0 .662-.14 1.172-.417 1.53s-.6.535-.974.535c-.166 0-.32-.043-.465-.128s-.27-.206-.374-.362v1.893h-.538zm.487-3.413c0 .503.084.874.253 1.113s.372.355.61.355c.23 0 .43-.123.604-.37s.26-.627.26-1.143c0-.508-.085-.884-.253-1.128s-.374-.366-.615-.366c-.218 0-.415.132-.594.395s-.267.642-.267 1.143zm2.732-.022c0-.67.14-1.178.42-1.52s.64-.513 1.073-.513c.425 0 .78.17 1.066.513s.428.835.428 1.48c0 .698-.14 1.218-.42 1.56s-.638.513-1.073.513c-.427 0-.784-.17-1.07-.513s-.425-.85-.425-1.52zm.553 0c0 .503.09.878.275 1.124s.4.366.68.366c.254 0 .47-.123.652-.37s.274-.623.274-1.12-.09-.873-.274-1.117-.41-.37-.682-.37c-.256 0-.474.123-.655.37s-.27.62-.27 1.117zM245.27 16v-3.89h.487v.6c.124-.273.238-.454.34-.542s.223-.136.352-.136c.18 0 .365.07.553.213l-.183.61a.68.68 0 0 0-.392-.143c-.115 0-.22.04-.315.12a.65.65 0 0 0-.201.337 3.02 3.02 0 0 0-.103.802V16h-.538zm3.918 0v-3.376h-.48v-.513h.48v-.414c0-.305.032-.533.095-.685s.16-.27.3-.352.296-.12.494-.12c.154 0 .322.022.505.066l-.08.575a1.5 1.5 0 0 0-.319-.037c-.16 0-.277.043-.348.128s-.102.243-.102.48v.36h.622v.513h-.622V16h-.535zm3.64-.48c-.18.188-.368.33-.564.425a1.37 1.37 0 0 1-.608.143c-.332 0-.596-.1-.794-.3s-.297-.47-.297-.81c0-.225.047-.424.14-.597a1.04 1.04 0 0 1 .381-.406c.16-.098.405-.17.733-.216.44-.064.76-.14.966-.227l.004-.168c0-.266-.048-.453-.143-.56-.134-.156-.34-.234-.62-.234-.25 0-.44.053-.564.158s-.216.297-.274.582l-.53-.088c.075-.417.228-.72.457-.912s.563-.286.993-.286c.334 0 .597.063.787.19s.3.28.36.465.077.457.077.813v.88l.033 1.165c.024.16.07.314.14.465h-.564c-.056-.134-.093-.294-.1-.48zm-.044-1.472c-.197.098-.492.18-.882.25-.227.04-.386.084-.476.136s-.16.12-.213.212a.66.66 0 0 0-.073.315c0 .185.057.334.172.447s.274.165.476.165a.95.95 0 0 0 .524-.15.93.93 0 0 0 .355-.399c.078-.168.117-.413.117-.732v-.242zM255.063 16l-1.212-3.89h.57l.685 2.33.205.784.198-.74.7-2.373h.557L255.57 16h-.506zm1.98-1.945c0-.67.14-1.178.422-1.52s.64-.513 1.073-.513c.424 0 .78.17 1.065.513s.43.835.43 1.48c0 .698-.14 1.218-.42 1.56s-.64.513-1.073.513c-.428 0-.784-.17-1.07-.513s-.425-.85-.425-1.52zm.553 0c0 .503.092.878.275 1.124s.4.366.68.366c.254 0 .47-.123.652-.37s.275-.623.275-1.12-.092-.873-.275-1.117-.4-.37-.68-.37c-.256 0-.475.123-.656.37s-.27.62-.27 1.117zm3.07 1.945v-3.89h.487v.6c.125-.273.238-.454.34-.542s.222-.136.35-.136c.18 0 .365.07.553.213l-.183.61a.68.68 0 0 0-.392-.143c-.114 0-.22.04-.314.12s-.163.193-.202.337a3.06 3.06 0 0 0-.102.802V16h-.54zm5.834 0v-.49c-.098.188-.223.332-.377.432s-.32.147-.498.147c-.376 0-.702-.177-.978-.53s-.4-.857-.4-1.5c0-.442.06-.817.183-1.124s.284-.536.487-.685a1.13 1.13 0 0 1 .681-.223c.178 0 .343.048.495.143a1.11 1.11 0 0 1 .38.392V10.63h.542V16h-.505zm-1.7-1.94c0 .503.086.876.26 1.12s.38.366.61.366.43-.117.597-.352.253-.588.253-1.062c0-.544-.084-.94-.253-1.2s-.38-.377-.637-.377c-.227 0-.422.12-.586.363s-.245.616-.245 1.132zm3.06-2.67v-.758h.54v.758h-.54zm0 4.61v-3.89h.54V16h-.54zm1.355 0v-5.37h.54V16h-.54zm1.385-4.61v-.758h.538v.758h-.538zm0 4.61v-3.89h.538V16h-.538zm1.267.322l.527.095c.024.207.098.36.22.46s.29.154.51.154c.237 0 .425-.057.564-.172s.238-.28.29-.505c.032-.137.048-.425.048-.864a1.27 1.27 0 0 1-.396.381c-.146.085-.31.128-.487.128-.38 0-.697-.16-.948-.483-.288-.37-.433-.868-.433-1.49 0-.418.064-.782.19-1.095s.293-.542.498-.69.44-.22.696-.22a.97.97 0 0 1 .512.139c.157.093.295.232.414.417v-.47h.498v3.362c0 .598-.05 1.024-.146 1.278a1.23 1.23 0 0 1-.48.604c-.222.15-.49.223-.802.223-.413 0-.73-.11-.952-.333s-.33-.53-.322-.923zm.45-2.336c0 .5.084.883.253 1.117s.375.35.62.35.45-.115.622-.344.257-.594.257-1.095c0-.488-.088-.85-.264-1.088s-.39-.36-.64-.36c-.225 0-.422.12-.593.36s-.253.6-.253 1.058zm5.255.762l.557.084c-.093.415-.26.73-.505.94s-.542.315-.9.315c-.452 0-.818-.17-1.1-.513s-.417-.84-.417-1.487c0-.67.14-1.183.42-1.534s.64-.53 1.073-.53c.412 0 .756.173 1.032.52s.414.848.414 1.505l-.003.176h-2.38c.022.437.123.767.304.99s.4.333.66.333c.406 0 .688-.266.846-.798zm-1.776-1.066h1.78c-.025-.337-.097-.588-.216-.754-.174-.242-.394-.363-.663-.363-.242 0-.448.1-.62.304s-.265.47-.282.813zM278.8 16v-3.89h.487v.553a1.25 1.25 0 0 1 .429-.48c.17-.107.366-.16.585-.16a1.09 1.09 0 0 1 .473.103c.146.066.264.154.35.264s.158.248.202.42.066.44.066.798V16h-.542v-2.366c0-.286-.025-.494-.073-.626a.61.61 0 0 0-.231-.304c-.103-.073-.222-.1-.36-.1a.75.75 0 0 0-.619.289c-.154.193-.23.524-.23.992V16h-.538zm5.51-1.425l.532.084c-.062.464-.215.818-.462 1.062a1.2 1.2 0 0 1-.882.366c-.418 0-.762-.17-1.033-.513s-.403-.852-.403-1.523.135-1.183.406-1.52a1.29 1.29 0 0 1 1.051-.509c.33 0 .607.103.832.308s.372.513.436.923l-.524.1c-.05-.264-.14-.46-.267-.6s-.28-.198-.458-.198c-.266 0-.487.118-.663.355s-.26.608-.26 1.12c0 .53.083.913.25 1.15a.76.76 0 0 0 .644.355c.206 0 .38-.078.524-.234s.24-.404.278-.736zm.986-3.186v-.758h.538v.758h-.538zm0 4.61v-3.89h.538V16h-.538zm3.552-1.252l.556.084c-.092.415-.26.73-.505.94s-.542.315-.9.315a1.35 1.35 0 0 1-1.098-.513c-.28-.344-.418-.84-.418-1.487 0-.67.14-1.183.42-1.534s.64-.53 1.073-.53c.413 0 .757.173 1.033.52s.414.848.414 1.505l-.004.176h-2.38c.022.437.123.767.304.99a.82.82 0 0 0 .659.333c.405 0 .687-.266.846-.798zm-1.776-1.066h1.78c-.025-.337-.097-.588-.217-.754-.173-.242-.394-.363-.662-.363-.242 0-.448.1-.62.304s-.265.47-.282.813zm6.9 1.066l.557.084c-.093.415-.26.73-.506.94s-.542.315-.9.315c-.452 0-.818-.17-1.1-.513s-.418-.84-.418-1.487c0-.67.14-1.183.422-1.534s.64-.53 1.073-.53c.412 0 .756.173 1.032.52s.414.848.414 1.505l-.004.176h-2.38c.022.437.123.767.304.99s.4.333.66.333c.405 0 .687-.266.846-.798zm-1.776-1.066h1.78c-.025-.337-.097-.588-.216-.754-.174-.242-.395-.363-.663-.363-.242 0-.448.1-.62.304s-.265.47-.282.813zm2.81 1.157l.535-.103c.03.273.118.477.26.612s.33.198.563.198.416-.057.542-.172a.57.57 0 0 0 .195-.443c0-.154-.055-.274-.165-.36-.076-.06-.26-.132-.55-.22-.42-.13-.7-.24-.842-.33a.93.93 0 0 1-.329-.363 1.1 1.1 0 0 1-.118-.516c0-.332.107-.602.32-.81s.507-.31.883-.31c.236 0 .444.043.622.128s.32.2.414.344.16.35.198.62l-.528.088c-.048-.425-.28-.637-.692-.637-.234 0-.41.048-.523.143a.44.44 0 0 0-.173.359c0 .144.055.257.165.34.066.05.26.127.586.234.447.144.736.26.868.344s.234.198.308.344a1.13 1.13 0 0 1 .11.516c0 .37-.12.67-.356.9s-.555.344-.963.344c-.764 0-1.207-.418-1.33-1.252zm4.486.57l.073.582c-.15.04-.283.06-.403.06-.188 0-.34-.037-.454-.1s-.194-.178-.238-.308-.062-.387-.062-.773v-2.238h-.396v-.513h.396v-.963l.538-.396v1.36h.546v.513h-.546v2.274c0 .2.016.345.048.406.046.088.133.132.26.132.06 0 .14-.008.238-.026zm2.692-.663l.556.084c-.093.415-.26.73-.505.94s-.542.315-.9.315c-.452 0-.818-.17-1.1-.513s-.417-.84-.417-1.487c0-.67.14-1.183.42-1.534s.64-.53 1.073-.53c.413 0 .757.173 1.033.52s.414.848.414 1.505l-.004.176h-2.38c.022.437.124.767.304.99s.4.333.66.333c.405 0 .687-.266.846-.798zm-1.777-1.066h1.78c-.024-.337-.096-.588-.216-.754-.173-.242-.394-.363-.663-.363-.24 0-.448.1-.62.304s-.264.47-.282.813zm6.91 1.066l.556.084c-.092.415-.26.73-.505.94s-.542.315-.9.315a1.35 1.35 0 0 1-1.098-.513c-.28-.344-.418-.84-.418-1.487 0-.67.14-1.183.42-1.534s.64-.53 1.073-.53c.413 0 .757.173 1.033.52s.414.848.414 1.505l-.004.176h-2.38c.022.437.123.767.304.99a.82.82 0 0 0 .659.333c.405 0 .687-.266.846-.798zm-1.776-1.066h1.78c-.025-.337-.097-.588-.217-.754-.173-.242-.394-.363-.662-.363-.242 0-.448.1-.62.304s-.265.47-.282.813zm2.81 1.157l.534-.103c.032.273.12.477.26.612s.33.198.564.198.415-.057.542-.172a.57.57 0 0 0 .194-.443.43.43 0 0 0-.164-.359c-.076-.06-.26-.132-.55-.22-.42-.13-.7-.24-.842-.33s-.252-.21-.33-.363a1.11 1.11 0 0 1-.117-.516c0-.332.106-.602.32-.81s.506-.31.882-.31c.237 0 .445.043.623.128a.99.99 0 0 1 .414.344c.095.144.16.35.197.62l-.527.088c-.05-.425-.28-.637-.692-.637-.234 0-.41.048-.524.143a.44.44 0 0 0-.172.359c0 .144.055.257.165.34.066.05.26.127.586.234.447.144.736.26.868.344a.84.84 0 0 1 .307.344c.074.144.1.316.1.516 0 .37-.118.67-.355.9s-.555.344-.963.344c-.764 0-1.207-.418-1.33-1.252zm3.28 2.65v-5.38h.494v.505a1.27 1.27 0 0 1 .407-.454.95.95 0 0 1 .512-.139c.252 0 .48.075.682.223s.365.376.487.68.186.668.186 1.095c0 .662-.14 1.172-.417 1.53s-.6.535-.974.535c-.166 0-.32-.043-.465-.128s-.27-.206-.374-.362v1.893h-.538zm.487-3.413c0 .503.084.874.253 1.113s.372.355.61.355c.23 0 .43-.123.604-.37s.26-.627.26-1.143c0-.508-.084-.884-.252-1.128s-.374-.366-.616-.366c-.217 0-.415.132-.593.395s-.267.642-.267 1.143zm5.013 1.443c-.18.188-.368.33-.564.425a1.37 1.37 0 0 1-.608.143c-.332 0-.596-.1-.794-.3s-.297-.47-.297-.81c0-.225.047-.424.14-.597a1.04 1.04 0 0 1 .381-.406c.16-.098.405-.17.733-.216.44-.064.76-.14.966-.227l.004-.168c0-.266-.048-.453-.143-.56-.134-.156-.34-.234-.62-.234-.25 0-.44.053-.564.158s-.216.297-.274.582l-.53-.088c.075-.417.228-.72.457-.912s.563-.286.993-.286c.334 0 .597.063.787.19s.3.28.36.465.077.457.077.813v.88l.033 1.165c.024.16.07.314.14.465h-.564c-.056-.134-.093-.294-.1-.48zm-.044-1.472c-.197.098-.492.18-.882.25-.227.04-.386.084-.476.136s-.16.12-.213.212a.65.65 0 0 0-.073.315c0 .185.057.334.172.447s.274.165.476.165a.95.95 0 0 0 .524-.15.93.93 0 0 0 .355-.399c.078-.168.117-.413.117-.732v-.242zm3.476.527l.53.084c-.06.464-.215.818-.462 1.062a1.2 1.2 0 0 1-.882.366c-.418 0-.762-.17-1.033-.513s-.403-.852-.403-1.523.136-1.183.407-1.52.623-.51 1.05-.51c.33 0 .606.103.83.308s.372.513.436.923l-.524.1c-.05-.264-.14-.46-.267-.6s-.28-.198-.458-.198c-.266 0-.487.118-.663.355s-.26.608-.26 1.12c0 .53.083.913.25 1.15s.383.355.645.355c.205 0 .38-.078.523-.234s.24-.404.28-.736zm.985-3.186v-.758h.538v.758h-.538zm0 4.61v-3.89h.538V16h-.538zm1.168-1.945c0-.67.14-1.178.42-1.52s.64-.513 1.073-.513c.425 0 .78.17 1.066.513s.428.835.428 1.48c0 .698-.14 1.218-.42 1.56s-.638.513-1.073.513c-.427 0-.784-.17-1.07-.513s-.425-.85-.425-1.52zm.553 0c0 .503.092.878.275 1.124s.4.366.68.366c.254 0 .47-.123.652-.37s.274-.623.274-1.12-.09-.873-.274-1.117-.4-.37-.68-.37c-.257 0-.475.123-.656.37s-.27.62-.27 1.117zM326.51 16v-.75h.615V16c0 .29-.043.518-.128.68a.88.88 0 0 1-.373.381l-.15-.282c.1-.06.193-.146.25-.264s.087-.287.092-.516h-.304zm5.336 0v-.49c-.098.188-.224.332-.378.432s-.32.147-.498.147c-.376 0-.7-.177-.977-.53s-.41-.857-.41-1.5c0-.442.062-.817.184-1.124s.284-.536.487-.685a1.13 1.13 0 0 1 .681-.223.91.91 0 0 1 .494.143c.154.093.28.223.38.392V10.63h.542V16h-.505zm-1.71-1.94c0 .503.087.876.26 1.12s.38.366.612.366.43-.117.597-.352.253-.588.253-1.062c0-.544-.085-.94-.253-1.2s-.38-.377-.637-.377c-.227 0-.423.12-.586.363s-.246.616-.246 1.132zm5.245.688l.556.084c-.093.415-.26.73-.505.94s-.542.315-.9.315c-.452 0-.818-.17-1.1-.513s-.417-.84-.417-1.487c0-.67.14-1.183.42-1.534s.64-.53 1.073-.53c.413 0 .757.173 1.033.52s.414.848.414 1.505l-.004.176h-2.38c.022.437.123.767.303.99s.4.333.66.333c.405 0 .687-.266.846-.798zm-1.777-1.066h1.78c-.024-.337-.096-.588-.216-.754-.173-.242-.394-.363-.663-.363-.24 0-.448.1-.62.304s-.264.47-.282.813zM338.318 16v-5.37h.538V16h-.538zm1.182-1.945c0-.67.14-1.178.422-1.52s.64-.513 1.073-.513c.424 0 .78.17 1.065.513s.43.835.43 1.48c0 .698-.14 1.218-.42 1.56s-.64.513-1.073.513c-.428 0-.784-.17-1.07-.513s-.425-.85-.425-1.52zm.553 0c0 .503.092.878.275 1.124s.4.366.68.366c.254 0 .47-.123.652-.37s.275-.623.275-1.12-.092-.873-.275-1.117-.4-.37-.68-.37c-.256 0-.475.123-.656.37s-.27.62-.27 1.117zm6.874.52l.53.084c-.06.464-.215.818-.46 1.062s-.54.366-.883.366a1.26 1.26 0 0 1-1.032-.513c-.27-.344-.403-.852-.403-1.523s.135-1.183.406-1.52a1.29 1.29 0 0 1 1.051-.509c.33 0 .607.103.832.308s.372.513.435.923l-.523.1c-.052-.264-.14-.46-.268-.6a.61.61 0 0 0-.457-.198c-.267 0-.488.118-.663.355s-.26.608-.26 1.12c0 .53.083.913.25 1.15a.76.76 0 0 0 .644.355c.205 0 .38-.078.524-.234s.24-.404.278-.736zm.784-.52c0-.67.14-1.178.42-1.52s.64-.513 1.073-.513c.425 0 .78.17 1.066.513s.428.835.428 1.48c0 .698-.14 1.218-.42 1.56s-.638.513-1.073.513c-.427 0-.784-.17-1.07-.513s-.425-.85-.425-1.52zm.553 0c0 .503.09.878.275 1.124s.4.366.68.366c.254 0 .47-.123.652-.37s.274-.623.274-1.12-.09-.873-.274-1.117-.41-.37-.682-.37c-.256 0-.474.123-.655.37s-.27.62-.27 1.117zm3.07 1.945v-3.89h.487v.553c.117-.215.26-.375.428-.48a1.08 1.08 0 0 1 .586-.161 1.09 1.09 0 0 1 .473.103.93.93 0 0 1 .351.264c.09.107.158.248.202.42s.066.44.066.798V16h-.542v-2.366c0-.286-.025-.494-.074-.626a.61.61 0 0 0-.23-.304c-.103-.073-.223-.1-.36-.1a.75.75 0 0 0-.619.289c-.154.193-.23.524-.23.992V16h-.538zm4.625-.6l.073.582c-.15.04-.283.06-.403.06-.188 0-.34-.037-.454-.1a.59.59 0 0 1-.238-.308c-.04-.13-.062-.387-.062-.773v-2.238h-.395v-.513h.395v-.963l.538-.396v1.36h.546v.513h-.546v2.274c0 .2.016.345.048.406.046.088.133.132.26.132.06 0 .14-.008.238-.026zm.51.6v-3.89h.487v.6c.125-.273.238-.454.34-.542s.222-.136.35-.136c.18 0 .365.07.553.213l-.183.61a.68.68 0 0 0-.392-.143.48.48 0 0 0-.315.121.65.65 0 0 0-.201.337 3.06 3.06 0 0 0-.103.802V16h-.538zm4.13-.48c-.18.188-.37.33-.564.425a1.37 1.37 0 0 1-.608.143c-.332 0-.597-.1-.795-.3s-.296-.47-.296-.81c0-.225.046-.424.14-.597a1.04 1.04 0 0 1 .381-.406c.16-.098.405-.17.732-.216.44-.064.762-.14.967-.227l.004-.168c0-.266-.048-.453-.143-.56-.134-.156-.34-.234-.62-.234-.252 0-.44.053-.564.158s-.216.297-.275.582l-.53-.088c.076-.417.23-.72.458-.912s.563-.286.992-.286c.335 0 .597.063.788.19s.3.28.36.465.077.457.077.813v.88l.033 1.165c.024.16.07.314.14.465h-.564c-.056-.134-.093-.294-.1-.48zm-.044-1.472c-.198.098-.492.18-.883.25-.227.04-.385.084-.476.136s-.16.12-.212.212a.65.65 0 0 0-.073.315c0 .185.057.334.172.447s.273.165.476.165c.193 0 .367-.05.524-.15s.277-.233.355-.4.117-.413.117-.732v-.242zM361.938 16v-3.89h.487v.6c.125-.273.238-.454.34-.542s.222-.136.35-.136c.18 0 .365.07.553.213l-.183.61a.68.68 0 0 0-.392-.143c-.114 0-.22.04-.314.12s-.163.193-.202.337a3.06 3.06 0 0 0-.102.802V16h-.54zm2.05-4.61v-.758h.538v.758h-.538zm0 4.61v-3.89h.538V16h-.538zm1.168-1.945c0-.67.14-1.178.42-1.52s.64-.513 1.073-.513c.425 0 .78.17 1.066.513s.43.835.43 1.48c0 .698-.14 1.218-.422 1.56s-.638.513-1.073.513c-.427 0-.783-.17-1.07-.513s-.425-.85-.425-1.52zm.553 0c0 .503.092.878.275 1.124s.4.366.68.366c.254 0 .47-.123.652-.37s.275-.623.275-1.12-.092-.873-.275-1.117-.4-.37-.68-.37c-.257 0-.475.123-.656.37s-.27.62-.27 1.117zM370.478 16v-5.37h.54V16h-.54zm1.183-1.945c0-.67.14-1.178.42-1.52s.64-.513 1.073-.513c.425 0 .78.17 1.066.513s.428.835.428 1.48c0 .698-.14 1.218-.42 1.56s-.638.513-1.073.513c-.427 0-.783-.17-1.07-.513s-.425-.85-.425-1.52zm.553 0c0 .503.092.878.275 1.124s.4.366.68.366c.254 0 .47-.123.652-.37s.274-.623.274-1.12-.09-.873-.274-1.117-.4-.37-.68-.37c-.257 0-.475.123-.656.37s-.27.62-.27 1.117zm2.864.784l.535-.103c.03.273.118.477.26.612s.33.198.564.198.415-.057.542-.172.194-.265.194-.443c0-.154-.055-.274-.165-.36-.076-.06-.26-.132-.55-.22-.42-.13-.7-.24-.842-.33a.93.93 0 0 1-.329-.363 1.1 1.1 0 0 1-.118-.516c0-.332.107-.602.32-.81s.507-.31.883-.31c.236 0 .444.043.622.128s.32.2.414.344.16.35.198.62l-.528.088c-.048-.425-.28-.637-.692-.637-.234 0-.41.048-.523.143a.44.44 0 0 0-.173.359c0 .144.055.257.165.34.066.05.26.127.586.234.447.144.736.26.868.344s.234.198.308.344a1.13 1.13 0 0 1 .11.516c0 .37-.12.67-.356.9s-.555.344-.963.344c-.764 0-1.207-.418-1.33-1.252zm5.054 1.16v-5.37h1.65c.335 0 .6.053.795.158s.355.264.48.483.186.463.186.73c0 .247-.053.47-.16.667a1.25 1.25 0 0 1-.454.476 1.18 1.18 0 0 1 .604.476c.15.222.224.497.224.824s-.067.6-.202.857-.308.422-.53.535-.527.165-.915.165h-1.677zm.582-3.113h.952c.25 0 .426-.017.53-.05.15-.05.267-.137.348-.256s.124-.287.124-.494c0-.193-.037-.353-.113-.48a.58.58 0 0 0-.297-.267c-.122-.05-.343-.073-.663-.073h-.882v1.622zm0 2.48h1.095c.242 0 .42-.022.535-.066.166-.063.29-.167.377-.31s.132-.33.132-.55c0-.203-.042-.373-.125-.513a.73.73 0 0 0-.337-.308c-.14-.066-.36-.1-.66-.1h-1.018v1.846zm5.643-.62l.557.084c-.093.415-.26.73-.506.94s-.542.315-.9.315c-.452 0-.818-.17-1.1-.513s-.418-.84-.418-1.487c0-.67.14-1.183.422-1.534s.64-.53 1.073-.53c.412 0 .756.173 1.032.52s.414.848.414 1.505l-.004.176h-2.38c.022.437.123.767.304.99s.4.333.66.333c.406 0 .687-.266.846-.798zm-1.776-1.066h1.78c-.025-.337-.097-.588-.216-.754-.174-.242-.395-.363-.663-.363-.242 0-.448.1-.62.304s-.265.47-.282.813zM387.595 16v-3.89h.487v.553c.117-.215.26-.375.428-.48a1.08 1.08 0 0 1 .586-.161 1.09 1.09 0 0 1 .473.103c.146.066.264.154.35.264s.158.248.202.42.066.44.066.798V16h-.542v-2.366c0-.286-.025-.494-.073-.626a.61.61 0 0 0-.231-.304c-.103-.073-.222-.1-.36-.1a.75.75 0 0 0-.619.289c-.154.193-.23.524-.23.992V16h-.538zm5.603-1.252l.557.084c-.093.415-.262.73-.506.94s-.542.315-.9.315c-.45 0-.817-.17-1.098-.513s-.418-.84-.418-1.487c0-.67.14-1.183.42-1.534s.64-.53 1.073-.53c.413 0 .757.173 1.033.52s.414.848.414 1.505l-.004.176h-2.38c.022.437.123.767.304.99s.4.333.66.333c.405 0 .687-.266.846-.798zm-1.776-1.066h1.78c-.025-.337-.097-.588-.216-.754-.174-.242-.395-.363-.663-.363-.242 0-.448.1-.62.304s-.265.47-.282.813zM394.6 16v-3.376h-.48v-.513h.48v-.414c0-.305.03-.533.095-.685s.16-.27.29-.352.297-.12.495-.12c.153 0 .322.022.505.066l-.08.575a1.49 1.49 0 0 0-.318-.037c-.16 0-.277.043-.348.128s-.103.243-.103.48v.36h.623v.513h-.623V16h-.534zm1.56-4.61v-.758h.538v.758h-.538zm0 4.61v-3.89h.538V16h-.538zm3.46-1.425l.53.084c-.06.464-.214.818-.46 1.062a1.2 1.2 0 0 1-.883.366 1.26 1.26 0 0 1-1.032-.513c-.27-.344-.403-.852-.403-1.523s.135-1.183.406-1.52a1.29 1.29 0 0 1 1.051-.509c.33 0 .607.103.832.308s.372.513.435.923l-.523.1c-.052-.264-.14-.46-.268-.6a.61.61 0 0 0-.457-.198c-.266 0-.487.118-.663.355s-.26.608-.26 1.12c0 .53.083.913.25 1.15a.76.76 0 0 0 .644.355c.205 0 .38-.078.524-.234s.24-.404.278-.736zm.985-3.186v-.758h.54v.758h-.54zm0 4.61v-3.89h.54V16h-.54zm3.45-.48c-.18.188-.368.33-.564.425a1.37 1.37 0 0 1-.608.143c-.332 0-.597-.1-.794-.3s-.297-.47-.297-.81c0-.225.046-.424.14-.597a1.04 1.04 0 0 1 .381-.406c.16-.098.405-.17.732-.216.44-.064.762-.14.967-.227l.004-.168c0-.266-.048-.453-.143-.56-.134-.156-.34-.234-.62-.234-.25 0-.44.053-.564.158s-.216.297-.274.582l-.53-.088c.075-.417.228-.72.457-.912s.563-.286.993-.286c.334 0 .597.063.787.19s.3.28.36.465.077.457.077.813v.88l.033 1.165c.024.16.07.314.14.465h-.564c-.056-.134-.093-.294-.1-.48zM404 14.048c-.198.098-.492.18-.882.25-.227.04-.386.084-.476.136a.52.52 0 0 0-.213.212.65.65 0 0 0-.073.315c0 .185.057.334.172.447s.273.165.476.165a.95.95 0 0 0 .524-.15.93.93 0 0 0 .355-.399c.078-.168.117-.413.117-.732v-.242zM405.385 16v-3.89h.488v.6c.124-.273.238-.454.34-.542s.222-.136.352-.136c.18 0 .365.07.553.213l-.183.61c-.135-.095-.265-.143-.392-.143-.115 0-.22.04-.315.12a.65.65 0 0 0-.202.337 3.06 3.06 0 0 0-.102.802V16h-.54zm2.05-4.61v-.758h.54v.758h-.54zm0 4.61v-3.89h.54V16h-.54zm1.168-1.945c0-.67.14-1.178.422-1.52s.64-.513 1.073-.513c.424 0 .78.17 1.065.513s.43.835.43 1.48c0 .698-.14 1.218-.42 1.56s-.64.513-1.073.513c-.428 0-.784-.17-1.07-.513s-.425-.85-.425-1.52zm.553 0c0 .503.092.878.275 1.124s.4.366.68.366c.254 0 .47-.123.652-.37s.275-.623.275-1.12-.092-.873-.275-1.117-.4-.37-.68-.37c-.256 0-.475.123-.656.37s-.27.62-.27 1.117zm2.864.784l.535-.103c.032.273.118.477.26.612s.33.198.564.198.415-.057.542-.172.194-.265.194-.443c0-.154-.055-.274-.165-.36-.076-.06-.26-.132-.55-.22-.42-.13-.7-.24-.842-.33s-.252-.21-.33-.363a1.11 1.11 0 0 1-.117-.516c0-.332.106-.602.318-.81s.507-.31.883-.31a1.43 1.43 0 0 1 .623.128c.18.085.318.2.413.344s.16.35.198.62l-.527.088c-.05-.425-.28-.637-.692-.637-.235 0-.41.048-.524.143a.44.44 0 0 0-.172.359c0 .144.055.257.165.34.066.05.26.127.586.234.446.144.736.26.867.344a.84.84 0 0 1 .308.344 1.13 1.13 0 0 1 .11.516c0 .37-.118.67-.355.9s-.556.344-.963.344c-.765 0-1.208-.418-1.33-1.252zm4.8 0l.535-.103c.032.273.118.477.26.612s.33.198.564.198.415-.057.542-.172.194-.265.194-.443c0-.154-.055-.274-.165-.36-.075-.06-.26-.132-.55-.22-.42-.13-.7-.24-.842-.33s-.252-.21-.33-.363a1.11 1.11 0 0 1-.117-.516c0-.332.106-.602.318-.81s.507-.31.883-.31a1.43 1.43 0 0 1 .623.128c.18.085.318.2.413.344s.162.35.198.62l-.527.088c-.05-.425-.28-.637-.692-.637-.235 0-.41.048-.524.143a.44.44 0 0 0-.172.359c0 .144.055.257.165.34.066.05.26.127.586.234.446.144.736.26.868.344s.234.198.307.344a1.13 1.13 0 0 1 .11.516c0 .37-.118.67-.355.9s-.556.344-.963.344c-.765 0-1.208-.418-1.33-1.252zm5.464-.09l.557.084c-.093.415-.26.73-.506.94s-.542.315-.9.315c-.452 0-.818-.17-1.1-.513s-.418-.84-.418-1.487c0-.67.14-1.183.422-1.534s.64-.53 1.073-.53c.412 0 .756.173 1.032.52s.414.848.414 1.505l-.004.176h-2.38c.022.437.123.767.304.99s.4.333.66.333c.405 0 .687-.266.846-.798zm-1.776-1.066h1.78c-.025-.337-.097-.588-.216-.754-.174-.242-.395-.363-.663-.363-.242 0-.448.1-.62.304s-.265.47-.282.813zM423.513 16v-3.89H424v.6c.125-.273.238-.454.34-.542s.222-.136.35-.136c.18 0 .365.07.553.213l-.183.61a.68.68 0 0 0-.392-.143c-.115 0-.22.04-.315.12a.65.65 0 0 0-.201.337 3.02 3.02 0 0 0-.103.802V16h-.538zm4.13-.48c-.18.188-.37.33-.564.425a1.37 1.37 0 0 1-.608.143c-.332 0-.597-.1-.795-.3s-.296-.47-.296-.81c0-.225.046-.424.14-.597a1.04 1.04 0 0 1 .381-.406c.16-.098.405-.17.732-.216.44-.064.762-.14.967-.227l.004-.168c0-.266-.048-.453-.143-.56-.135-.156-.34-.234-.62-.234-.252 0-.44.053-.564.158s-.216.297-.275.582l-.53-.088c.076-.417.228-.72.458-.912s.563-.286.992-.286c.335 0 .597.063.788.19s.3.28.36.465.077.457.077.813v.88l.032 1.165c.025.16.07.314.14.465h-.564c-.056-.134-.093-.294-.1-.48zm-.044-1.472c-.198.098-.492.18-.883.25-.227.04-.385.084-.476.136s-.16.12-.212.212a.65.65 0 0 0-.073.315c0 .185.057.334.172.447s.273.165.476.165c.193 0 .367-.05.523-.15s.278-.233.356-.4.117-.413.117-.732v-.242zm-1.14-2.42l.4-1.025h.707l-.66 1.025h-.447zM428.984 16v-3.89h.487v.553a1.25 1.25 0 0 1 .429-.48c.17-.107.366-.16.586-.16a1.09 1.09 0 0 1 .472.103c.146.066.264.154.352.264s.157.248.2.42.066.44.066.798V16h-.542v-2.366c0-.286-.025-.494-.073-.626a.61.61 0 0 0-.231-.304c-.103-.073-.222-.1-.36-.1a.75.75 0 0 0-.619.289c-.154.193-.23.524-.23.992V16h-.538zm5.12 0v-5.37h.538V16h-.538zm1.183-1.945c0-.67.14-1.178.42-1.52s.64-.513 1.073-.513a1.33 1.33 0 0 1 1.065.513c.286.342.43.835.43 1.48 0 .698-.14 1.218-.42 1.56s-.64.513-1.073.513a1.34 1.34 0 0 1-1.07-.513c-.283-.344-.424-.85-.424-1.52zm.553 0c0 .503.09.878.274 1.124s.4.366.68.366c.254 0 .472-.123.652-.37s.275-.623.275-1.12-.092-.873-.275-1.117-.4-.37-.68-.37c-.256 0-.475.123-.655.37s-.27.62-.27 1.117zm2.863.784l.535-.103c.032.273.118.477.26.612s.33.198.564.198.415-.057.542-.172.194-.265.194-.443c0-.154-.055-.274-.165-.36-.075-.06-.258-.132-.55-.22-.42-.13-.7-.24-.842-.33s-.252-.21-.33-.363a1.11 1.11 0 0 1-.117-.516c0-.332.106-.602.32-.81s.506-.31.882-.31a1.43 1.43 0 0 1 .623.128c.18.085.318.2.413.344s.162.35.198.62l-.527.088c-.05-.425-.28-.637-.692-.637-.235 0-.41.048-.524.143a.44.44 0 0 0-.172.359c0 .144.055.257.165.34.066.05.26.127.586.234.446.144.736.26.868.344s.234.198.307.344a1.13 1.13 0 0 1 .11.516c0 .37-.118.67-.355.9s-.556.344-.963.344c-.764 0-1.208-.418-1.33-1.252zm7.065 1.16v-.49c-.098.188-.224.332-.378.432s-.32.147-.498.147c-.376 0-.702-.177-.977-.53s-.41-.857-.41-1.5c0-.442.06-.817.184-1.124s.284-.536.487-.685a1.13 1.13 0 0 1 .681-.223.91.91 0 0 1 .494.143c.154.093.28.223.38.392V10.63h.542V16h-.505zm-1.71-1.94c0 .503.087.876.26 1.12s.38.366.612.366.428-.117.597-.352.253-.588.253-1.062c0-.544-.085-.94-.253-1.2s-.38-.377-.637-.377c-.227 0-.423.12-.586.363s-.246.616-.246 1.132zm5.245.688l.556.084c-.093.415-.26.73-.505.94s-.542.315-.9.315c-.452 0-.818-.17-1.1-.513s-.417-.84-.417-1.487c0-.67.14-1.183.42-1.534s.64-.53 1.073-.53c.413 0 .757.173 1.033.52s.413.848.413 1.505l-.003.176h-2.38c.022.437.124.767.304.99s.4.333.66.333c.405 0 .687-.266.846-.798zm-1.777-1.066h1.78c-.024-.337-.096-.588-.216-.754-.173-.242-.394-.363-.663-.363-.24 0-.448.1-.62.304s-.265.47-.282.813zM452.24 16v-5.37h.538V16h-.538zm3.566-1.252l.557.084c-.093.415-.26.73-.505.94s-.542.315-.9.315c-.452 0-.818-.17-1.1-.513s-.417-.84-.417-1.487c0-.67.14-1.183.42-1.534s.64-.53 1.073-.53a1.27 1.27 0 0 1 1.033.52c.275.347.413.848.413 1.505l-.003.176h-2.38c.022.437.124.767.304.99s.4.333.66.333c.406 0 .688-.266.846-.798zm-1.776-1.066h1.78c-.024-.337-.096-.588-.216-.754-.173-.242-.394-.363-.663-.363-.242 0-.448.1-.62.304s-.265.47-.282.813zm3 3.816l-.06-.62a1.02 1.02 0 0 0 .308.059c.114 0 .208-.023.282-.07a.51.51 0 0 0 .186-.216c.017-.034.088-.25.213-.645l-1.212-3.897h.582l.666 2.252.23.9.22-.886.68-2.267h.542l-1.212 3.955c-.16.513-.285.855-.377 1.025s-.195.298-.312.373-.245.114-.392.114c-.102 0-.218-.027-.347-.08zM459.837 16v-.75h.616V16h-.616z" fill="#000"/><defs><clipPath id="A"><path fill="#fff" d="M0 0h563.5v80.9H0z"/></clipPath></defs></svg>