<svg xmlns="http://www.w3.org/2000/svg" width="579" height="89" fill="none" xmlns:v="https://vecta.io/nano"><g fill="#000"><path d="M167.268 45.904l1.042-.123c.117.823.5 1.235 1.15 1.235.322 0 .576-.084.76-.25a.82.82 0 0 0 .277-.628c0-.146-.032-.27-.097-.373a.69.69 0 0 0-.294-.25c-.132-.067-.45-.18-.958-.334-.454-.138-.787-.287-.998-.448s-.38-.372-.505-.633a1.98 1.98 0 0 1-.185-.848c0-.352.08-.668.238-.95a1.58 1.58 0 0 1 .663-.637c.282-.144.63-.215 1.042-.215.62 0 1.106.168 1.454.505s.534.82.554 1.446l-1.068.057c-.047-.346-.148-.587-.303-.725s-.376-.207-.664-.207-.508.06-.663.18-.233.27-.233.448a.56.56 0 0 0 .211.444c.14.12.464.252.97.395.536.155.923.32 1.16.492s.424.39.55.663.19.598.19.984c0 .56-.173 1.03-.52 1.41s-.88.57-1.613.57c-1.295 0-2.015-.737-2.162-2.21zm5.07-1.085c0-.768.113-1.4.338-1.894s.526-.87.893-1.112.8-.365 1.33-.365c.756 0 1.37.288 1.846.866s.716 1.4.716 2.465c0 1.078-.252 1.92-.756 2.527-.442.536-1.043.804-1.802.804s-1.368-.265-1.8-.795c-.504-.607-.756-1.44-.756-2.496zm1.1-.044c0 .74.14 1.298.422 1.67s.63.554 1.045.554.767-.183 1.042-.55.413-.934.413-1.696c0-.747-.135-1.3-.404-1.657a1.25 1.25 0 0 0-1.051-.536c-.433 0-.786.18-1.06.54s-.408.92-.408 1.674zm4.98 3.226v-6.4h1.063v5.304h2.655V48h-3.718zm4.537 0v-6.442h1.064V48h-1.064zm5.56-2.37l1.033.4c-.16.72-.43 1.248-.804 1.582s-.837.497-1.384.497a2.05 2.05 0 0 1-1.675-.795c-.492-.612-.738-1.44-.738-2.48 0-1.1.247-1.96.743-2.58.43-.54 1.01-.81 1.735-.81.592 0 1.087.202 1.486.606.284.287.492.713.624 1.28l-1.055.308c-.067-.35-.202-.615-.404-.8s-.435-.28-.708-.28c-.39 0-.707.17-.953.5s-.37.9-.37 1.683c0 .812.12 1.39.36 1.73s.552.514.936.514a.97.97 0 0 0 .729-.325c.206-.22.353-.567.444-1.042zm2.002 2.37v-6.442h1.063V48h-1.063zm3.368 0v-5.352h-1.57v-1.1h4.197v1.1h-1.564V48h-1.064zm3.4-6.442h1.064v3.49l.04 1.06c.047.284.16.504.334.66s.413.233.703.233c.247 0 .447-.054.602-.163s.26-.264.317-.457.088-.615.088-1.257v-3.564h1.068v3.384c0 .864-.047 1.5-.14 1.877a1.59 1.59 0 0 1-.624.936c-.322.237-.75.356-1.28.356-.55 0-.98-.098-1.292-.295s-.532-.477-.672-.835-.207-1.023-.207-1.986v-3.437zm5.42 0h1.947c.492 0 .862.056 1.11.167s.484.293.695.554.376.6.496 1.015.18.933.18 1.55c0 .557-.063 1.04-.19 1.455s-.286.735-.48.976-.428.422-.704.545-.624.18-1.054.18h-2.004v-6.442zm1.063 1.1v4.267h.8c.343 0 .6-.032.743-.097a.89.89 0 0 0 .378-.29c.1-.132.18-.338.246-.62s.097-.652.097-1.112c0-.478-.034-.854-.102-1.13s-.167-.492-.307-.65-.306-.262-.506-.312c-.15-.038-.438-.057-.865-.057h-.484zm6.5-1.1h1.946c.493 0 .863.056 1.112.167s.484.293.695.554.376.6.496 1.015.18.933.18 1.55c0 .557-.063 1.04-.19 1.455s-.285.735-.48.976-.427.422-.703.545-.624.18-1.054.18h-2.004v-6.442zm1.063 1.1v4.267h.8c.343 0 .6-.032.743-.097a.89.89 0 0 0 .378-.29c.1-.132.18-.338.246-.62s.096-.652.096-1.112c0-.478-.033-.854-.1-1.13s-.167-.492-.307-.65a.97.97 0 0 0-.506-.312c-.15-.038-.438-.057-.865-.057h-.484zM215.693 48v-6.442h3.92v1.1h-2.857v1.428h2.654v1.085h-2.654v1.754h2.953V48h-4.016zm6.886-2.096l1.04-.123c.117.823.5 1.235 1.152 1.235.322 0 .575-.084.76-.25a.82.82 0 0 0 .277-.628c0-.146-.033-.27-.097-.373s-.163-.186-.294-.25-.452-.18-.958-.334c-.455-.138-.787-.287-.998-.448s-.38-.372-.505-.633a1.98 1.98 0 0 1-.185-.848c0-.352.08-.668.237-.95a1.58 1.58 0 0 1 .664-.637c.28-.144.628-.215 1.04-.215.622 0 1.106.168 1.455.505s.533.82.554 1.446l-1.068.057c-.047-.346-.148-.587-.303-.725s-.377-.207-.664-.207-.508.06-.664.18-.232.27-.232.448a.56.56 0 0 0 .211.444c.14.12.464.252.97.395.536.155.923.32 1.16.492s.423.39.55.663.19.598.19.984c0 .56-.173 1.03-.518 1.41s-.88.57-1.613.57c-1.295 0-2.016-.737-2.162-2.21zM227.863 48v-6.442h3.92v1.1h-2.856v1.428h2.654v1.085h-2.654v1.754h2.953V48h-4.017zm7.468-2.37v-1.085h2.3v2.566c-.232.273-.56.507-.985.703a3.02 3.02 0 0 1-1.278.295c-.522 0-.982-.128-1.38-.382s-.715-.642-.95-1.15-.347-1.115-.347-1.806c0-.71.118-1.315.352-1.82s.543-.88.918-1.13.83-.373 1.354-.373c.63 0 1.134.16 1.512.483s.625.8.733 1.41l-1.054.242c-.08-.33-.224-.584-.435-.76s-.463-.264-.756-.264a1.34 1.34 0 0 0-1.103.532c-.28.352-.422.89-.422 1.613 0 .776.152 1.367.457 1.77.26.35.614.523 1.06.523a1.62 1.62 0 0 0 .646-.145c.226-.1.426-.234.602-.404v-.817h-1.222zm3.37-4.074h1.063v3.49l.04 1.06c.047.284.158.504.334.66s.413.233.703.233c.246 0 .447-.054.602-.163a.82.82 0 0 0 .316-.457c.06-.196.088-.615.088-1.257v-3.564h1.068v3.384c0 .864-.047 1.5-.14 1.877a1.58 1.58 0 0 1-.624.936c-.322.237-.748.356-1.278.356-.55 0-.982-.098-1.292-.295s-.532-.477-.673-.835-.206-1.023-.206-1.986v-3.437zM244.13 48v-6.442h2.246c.574 0 .984.06 1.23.176s.448.315.607.602.237.626.237 1.024c0 .504-.122.9-.365 1.217s-.583.5-1.028.58c.228.164.417.344.567.54s.353.542.61 1.046l.64 1.257h-1.27l-.773-1.402-.567-.95c-.1-.13-.205-.217-.317-.264s-.3-.075-.536-.075h-.22V48h-1.064zm1.064-3.718h.79c.483 0 .79-.02.922-.062a.6.6 0 0 0 .321-.259c.082-.13.123-.3.123-.514 0-.205-.04-.37-.123-.492a.62.62 0 0 0-.334-.259c-.1-.032-.388-.048-.865-.048h-.835v1.635zm4.137.536c0-.768.113-1.4.338-1.894s.526-.87.892-1.112.8-.365 1.332-.365c.756 0 1.37.288 1.846.866s.716 1.4.716 2.465c0 1.078-.252 1.92-.756 2.527-.442.536-1.043.804-1.802.804s-1.368-.265-1.8-.795c-.504-.607-.756-1.44-.756-2.496zm1.1-.044c0 .74.14 1.298.42 1.67s.63.554 1.046.554.766-.183 1.042-.55.413-.934.413-1.696c0-.747-.135-1.3-.404-1.657a1.25 1.25 0 0 0-1.051-.536c-.433 0-.786.18-1.06.54s-.408.92-.408 1.674zM258.875 48l-1.886-6.442h1.156l1.336 4.768 1.292-4.768h1.134l-1.9 6.442h-1.142zm3.452-3.182c0-.768.112-1.4.338-1.894s.526-.87.892-1.112.8-.365 1.332-.365c.755 0 1.37.288 1.845.866s.717 1.4.717 2.465c0 1.078-.252 1.92-.756 2.527-.443.536-1.043.804-1.802.804-.765 0-1.368-.265-1.81-.795-.504-.607-.755-1.44-.755-2.496zm1.098-.044c0 .74.14 1.298.422 1.67s.63.554 1.046.554.766-.183 1.04-.55.414-.934.414-1.696c0-.747-.135-1.3-.405-1.657s-.616-.536-1.05-.536-.787.18-1.06.54-.41.92-.41 1.674zm4.98 3.226v-6.4h1.064v5.304h2.654V48h-3.718zm4.56-6.442h1.063v3.49l.04 1.06c.046.284.158.504.334.66s.413.233.703.233c.246 0 .446-.054.602-.163s.26-.264.316-.457.088-.615.088-1.257v-3.564h1.068v3.384c0 .864-.047 1.5-.14 1.877a1.59 1.59 0 0 1-.624.936c-.322.237-.748.356-1.28.356-.55 0-.98-.098-1.292-.295s-.53-.477-.672-.835-.206-1.023-.206-1.986v-3.437zM278.404 48v-6.442h1.037l2.162 4.302v-4.302h.993V48h-1.072l-2.127-4.2V48h-.993zm6.594 0v-5.352h-1.57v-1.1h4.196v1.1h-1.564V48h-1.063zm7.626 0h-1.16l-.46-1.463h-2.1L288.458 48h-1.134l2.057-6.442h1.13L292.624 48zm-1.964-2.55l-.725-2.39-.717 2.39h1.442zm2.62 2.55v-6.442h2.246c.574 0 .984.06 1.23.176s.448.315.607.602.237.626.237 1.024c0 .504-.122.9-.365 1.217s-.583.5-1.028.58c.228.164.417.344.567.54s.353.542.61 1.046l.64 1.257h-1.27l-.773-1.402-.567-.95c-.1-.13-.205-.217-.317-.264s-.3-.075-.536-.075h-.22V48h-1.064zm1.064-3.718h.79c.483 0 .79-.02.922-.062a.6.6 0 0 0 .321-.259c.082-.13.123-.3.123-.514 0-.205-.04-.37-.123-.492a.62.62 0 0 0-.334-.259c-.1-.032-.388-.048-.865-.048h-.835v1.635zM298.662 48v-6.442h1.064V48h-1.064zm1.967-3.182c0-.768.112-1.4.338-1.894s.526-.87.892-1.112.8-.365 1.332-.365c.755 0 1.37.288 1.845.866s.717 1.4.717 2.465c0 1.078-.252 1.92-.756 2.527-.443.536-1.043.804-1.802.804-.765 0-1.368-.265-1.81-.795-.503-.607-.755-1.44-.755-2.496zm1.098-.044c0 .74.14 1.298.422 1.67s.63.554 1.046.554.766-.183 1.04-.55.414-.934.414-1.696c0-.747-.135-1.3-.405-1.657s-.616-.536-1.05-.536-.787.18-1.06.54-.41.92-.41 1.674zM310.08 48v-2.71l-1.934-3.73h1.248l1.244 2.55 1.222-2.55h1.226l-1.943 3.74V48h-1.063zm9.022-2.37l1.033.4c-.162.72-.43 1.248-.805 1.582s-.836.497-1.384.497c-.688 0-1.247-.265-1.674-.795-.492-.612-.74-1.44-.74-2.48 0-1.1.248-1.96.743-2.58.43-.54 1.01-.81 1.736-.81.592 0 1.087.202 1.485.606.285.287.493.713.624 1.28l-1.054.308c-.068-.35-.202-.615-.405-.8s-.435-.28-.707-.28c-.4 0-.708.17-.954.5s-.37.9-.37 1.683c0 .812.12 1.39.36 1.73s.553.514.936.514a.97.97 0 0 0 .73-.325c.205-.22.353-.567.444-1.042zM321.14 48v-6.442h3.92v1.1h-2.857v1.428h2.654v1.085h-2.654v1.754h2.953V48h-4.016zm5.01 0v-6.442h2.246c.574 0 .984.06 1.23.176s.448.315.606.602.237.626.237 1.024c0 .504-.12.9-.364 1.217s-.583.5-1.03.58c.23.164.418.344.567.54s.353.542.61 1.046l.642 1.257h-1.27l-.774-1.402-.567-.95c-.1-.13-.205-.217-.316-.264s-.3-.075-.536-.075h-.22V48h-1.064zm1.064-3.718h.79c.483 0 .79-.02.923-.062a.6.6 0 0 0 .321-.259c.082-.13.123-.3.123-.514 0-.205-.04-.37-.123-.492s-.194-.212-.334-.26c-.1-.032-.39-.048-.866-.048h-.835v1.635zm5.54 3.718v-5.352h-1.57v-1.1h4.197v1.1h-1.564V48h-1.064zm3.377 0v-6.442h1.064V48h-1.064zm2.186 0v-6.442h3.622v1.1h-2.558v1.525h2.2v1.1h-2.2V48h-1.064zm4.56 0v-6.442h1.063V48h-1.063zm5.56-2.37l1.033.4c-.162.72-.43 1.248-.805 1.582s-.836.497-1.384.497c-.688 0-1.246-.265-1.674-.795-.492-.612-.738-1.44-.738-2.48 0-1.1.247-1.96.742-2.58.43-.54 1.01-.81 1.736-.81.592 0 1.087.202 1.485.606.285.287.493.713.624 1.28l-1.054.308c-.068-.35-.202-.615-.405-.8s-.435-.28-.707-.28c-.4 0-.708.17-.954.5s-.37.9-.37 1.683c0 .812.12 1.39.36 1.73s.552.514.936.514a.97.97 0 0 0 .729-.325c.205-.22.353-.567.444-1.042zm6.796 2.37h-1.16l-.462-1.463h-2.11L351.068 48h-1.134l2.057-6.442h1.13L355.234 48zm-1.964-2.55l-.726-2.39-.716 2.39h1.442zm2.612-3.894h1.947c.492 0 .863.056 1.112.167s.483.293.694.554.376.6.497 1.015.18.933.18 1.55c0 .557-.063 1.04-.19 1.455s-.286.735-.48.976a1.88 1.88 0 0 1-.703.545c-.273.12-.624.18-1.055.18h-2.004v-6.442zm1.064 1.1v4.267h.8c.343 0 .59-.032.743-.097a.89.89 0 0 0 .378-.29c.1-.132.182-.338.246-.62s.097-.652.097-1.112c0-.478-.034-.854-.1-1.13s-.167-.492-.308-.65a.97.97 0 0 0-.505-.312c-.15-.038-.438-.057-.866-.057h-.483zm4.146 2.17c0-.768.112-1.4.338-1.894s.526-.87.892-1.112.8-.365 1.332-.365c.756 0 1.37.288 1.845.866s.717 1.4.717 2.465c0 1.078-.252 1.92-.756 2.527-.443.536-1.043.804-1.802.804-.765 0-1.368-.265-1.8-.795-.504-.607-.756-1.44-.756-2.496zm1.098-.044c0 .74.14 1.298.422 1.67s.63.554 1.046.554.766-.183 1.042-.55.413-.934.413-1.696c0-.747-.135-1.3-.405-1.657s-.616-.536-1.05-.536-.787.18-1.06.54-.41.92-.41 1.674zM369.257 48v-6.442h1.063V48h-1.063zm2.2 0v-6.442h1.037l2.162 4.302v-4.302h.994V48h-1.073l-2.127-4.2V48h-.993zm5.4-6.442h1.946c.493 0 .863.056 1.112.167s.484.293.695.554.376.6.496 1.015.18.933.18 1.55c0 .557-.063 1.04-.19 1.455s-.285.735-.48.976-.427.422-.703.545-.624.18-1.054.18h-2.004v-6.442zm1.063 1.1v4.267h.8c.343 0 .6-.032.743-.097a.89.89 0 0 0 .378-.29c.1-.132.18-.338.246-.62s.096-.652.096-1.112c0-.478-.033-.854-.1-1.13s-.167-.492-.307-.65-.306-.262-.506-.312c-.15-.038-.438-.057-.865-.057h-.484zM382.236 48v-6.442h1.063V48h-1.063zm3.526 0l-1.885-6.442h1.156l1.335 4.768 1.292-4.768h1.134L386.905 48h-1.143zm3.632 0v-6.442h1.064V48h-1.064zm2.173-6.442h1.947c.492 0 .863.056 1.112.167s.483.293.694.554.376.6.497 1.015.18.933.18 1.55c0 .557-.063 1.04-.19 1.455s-.286.735-.48.976a1.88 1.88 0 0 1-.703.545c-.273.12-.624.18-1.055.18h-2.004v-6.442zm1.064 1.1v4.267h.8c.343 0 .59-.032.743-.097a.89.89 0 0 0 .378-.29c.1-.132.182-.338.246-.62s.097-.652.097-1.112c0-.478-.034-.854-.1-1.13s-.167-.492-.308-.65a.97.97 0 0 0-.505-.312c-.15-.038-.438-.057-.866-.057h-.483zm4.348-1.1h1.063v3.49l.04 1.06c.047.284.158.504.334.66s.413.233.703.233c.246 0 .447-.054.602-.163a.82.82 0 0 0 .316-.457c.06-.196.088-.615.088-1.257v-3.564h1.068v3.384c0 .864-.047 1.5-.14 1.877a1.59 1.59 0 0 1-.624.936c-.323.237-.75.356-1.28.356-.55 0-.982-.098-1.292-.295s-.532-.477-.673-.835-.206-1.023-.206-1.986v-3.437zM407.167 48h-1.16l-.46-1.463h-2.11L403 48h-1.133l2.056-6.442h1.13L407.167 48zm-1.964-2.55l-.725-2.39-.716 2.39h1.44zM407.85 48v-6.4h1.063v5.304h2.654V48h-3.717z"/><path d="M258.268 63.904l1.042-.123c.117.823.5 1.235 1.15 1.235.322 0 .576-.084.76-.25a.82.82 0 0 0 .277-.628c0-.147-.032-.27-.097-.374a.69.69 0 0 0-.294-.25c-.132-.067-.45-.18-.958-.334-.454-.138-.787-.287-.998-.448a1.71 1.71 0 0 1-.505-.633 1.98 1.98 0 0 1-.185-.848c0-.352.08-.668.238-.95a1.58 1.58 0 0 1 .663-.637c.282-.144.63-.215 1.042-.215.62 0 1.106.168 1.454.505s.534.82.554 1.446l-1.068.057c-.047-.346-.148-.587-.303-.725s-.376-.207-.664-.207-.508.06-.663.18-.233.27-.233.448a.56.56 0 0 0 .211.444c.14.12.464.252.97.395.536.155.923.32 1.16.492s.424.4.55.663.2.598.2.984c0 .56-.173 1.03-.52 1.4s-.88.57-1.613.57c-1.295 0-2.015-.737-2.162-2.2zM263.462 66v-6.442h3.92v1.1h-2.856v1.428h2.654v1.085h-2.654v1.753h2.953V66h-4.017zm7.38-2.37v-1.085h2.298v2.566c-.23.272-.56.507-.984.703s-.85.294-1.28.294c-.522 0-.98-.127-1.38-.382s-.715-.642-.95-1.15-.347-1.115-.347-1.806c0-.7.117-1.315.35-1.82s.544-.88.92-1.13.83-.373 1.353-.373c.63 0 1.134.16 1.512.483s.625.8.734 1.4l-1.055.242c-.08-.33-.224-.584-.435-.76s-.463-.264-.756-.264a1.34 1.34 0 0 0-1.103.532c-.28.352-.422.9-.422 1.613 0 .776.153 1.367.457 1.77.26.35.614.523 1.06.523a1.61 1.61 0 0 0 .646-.145c.222-.097.427-.234.602-.404v-.817h-1.22zm3.274 2.37v-6.442h1.595l.958 4.395.95-4.395h1.6V66h-1v-5.07L277.18 66h-1.03l-1.04-5.07V66h-.993zm6.17 0v-6.442h3.92v1.1h-2.857v1.428h2.654v1.085h-2.654v1.753h2.953V66h-4.016zm4.93 0v-6.442h1.037l2.163 4.302v-4.302h.993V66h-1.073l-2.127-4.2V66h-.993zm6.504 0v-5.352h-1.57v-1.1h4.197v1.1h-1.564V66h-1.064zm2.975-3.182c0-.768.113-1.4.34-1.894s.526-.87.892-1.112.8-.365 1.33-.365c.756 0 1.37.288 1.846.866s.716 1.4.716 2.465c0 1.078-.252 1.92-.756 2.527-.442.536-1.042.804-1.8.804-.765 0-1.368-.265-1.8-.795-.504-.606-.756-1.438-.756-2.496zm1.1-.044c0 .74.14 1.298.422 1.67s.63.554 1.046.554.766-.183 1.04-.55.413-.934.413-1.696c0-.747-.134-1.3-.404-1.657a1.25 1.25 0 0 0-1.05-.536 1.27 1.27 0 0 0-1.06.54c-.273.36-.4.92-.4 1.674zm6.65 1.13l1.04-.123c.118.823.5 1.235 1.152 1.235.322 0 .575-.084.76-.25a.82.82 0 0 0 .277-.628c0-.147-.032-.27-.097-.374a.69.69 0 0 0-.294-.25c-.132-.067-.45-.18-.958-.334-.454-.138-.787-.287-.998-.448a1.71 1.71 0 0 1-.505-.633 1.98 1.98 0 0 1-.185-.848c0-.352.08-.668.238-.95a1.58 1.58 0 0 1 .663-.637c.28-.144.63-.215 1.042-.215.62 0 1.106.168 1.454.505s.533.82.554 1.446l-1.068.057c-.047-.346-.148-.587-.303-.725s-.377-.207-.664-.207-.508.06-.663.18-.233.27-.233.448a.56.56 0 0 0 .211.444c.14.12.464.252.97.395.536.155.923.32 1.16.492s.423.4.55.663.2.598.2.984c0 .56-.173 1.03-.518 1.4s-.88.57-1.613.57c-1.295 0-2.016-.737-2.162-2.2zM308.38 66l-1.26-6.442h1.094l.8 4.425.967-4.425h1.27l.927 4.5.813-4.5h1.072L312.77 66h-1.134l-1.054-4.816L309.535 66h-1.156zm6.2 0v-6.442h1.596l.958 4.395.95-4.395h1.6V66h-.988v-5.07L317.65 66h-1.028l-1.04-5.07V66h-.994zm-63.04 21v-6.442h1.037l2.163 4.302v-4.302h.993V87h-1.073l-2.127-4.2V87h-.993zm5.305-6.442h1.063v3.5l.04 1.06c.046.284.158.504.334.66s.413.233.703.233c.246 0 .446-.054.602-.163s.26-.264.316-.457.088-.615.088-1.257V80.56h1.068v3.384c0 .864-.047 1.5-.14 1.876a1.59 1.59 0 0 1-.624.936c-.322.237-.748.356-1.28.356-.55 0-.98-.098-1.292-.294a1.68 1.68 0 0 1-.672-.835c-.142-.358-.206-1.023-.206-1.986V80.56zm1.564-.43l.497-1.314h1.138l-.993 1.314h-.642zM262.175 87v-6.442h1.596l.958 4.395.95-4.395h1.6V87h-.988v-5.07L265.24 87h-1.04l-1.042-5.07V87h-.993zm6.17 0v-6.442h3.92v1.1h-2.856v1.428h2.654v1.085h-2.654v1.753h2.953V87h-4.017zm4.922 0v-6.442h2.246c.574 0 .984.06 1.23.176s.448.315.607.602.237.625.237 1.024c0 .504-.122.9-.365 1.217s-.583.5-1.028.58c.228.164.417.344.567.54s.353.542.6 1.046l.64 1.257h-1.27l-.773-1.402-.567-.95c-.1-.13-.205-.217-.317-.264s-.3-.075-.536-.075h-.22V87h-1.064zm1.064-3.718h.8c.483 0 .8-.02.922-.062a.6.6 0 0 0 .321-.259c.082-.13.123-.3.123-.514 0-.205-.04-.37-.123-.492a.62.62 0 0 0-.334-.259c-.1-.032-.388-.048-.865-.048h-.835v1.635zm4.047.536c0-.768.113-1.4.338-1.894s.526-.87.892-1.112.8-.365 1.332-.365c.756 0 1.37.288 1.846.866s.716 1.4.716 2.465c0 1.078-.252 1.92-.756 2.527-.442.536-1.043.804-1.802.804s-1.368-.265-1.8-.795c-.504-.606-.756-1.438-.756-2.496zm1.1-.044c0 .74.14 1.298.42 1.67s.63.554 1.046.554.766-.183 1.042-.55.413-.934.413-1.696c0-.747-.135-1.3-.404-1.657a1.25 1.25 0 0 0-1.051-.536c-.433 0-.786.18-1.06.54s-.408.92-.408 1.674zm6.912-3.217h1.947c.492 0 .863.056 1.112.167s.483.293.694.554.377.6.497 1.015.18.933.18 1.55c0 .557-.063 1.04-.2 1.455s-.286.735-.48.976-.428.422-.703.545-.624.18-1.055.18h-2.004v-6.442zm1.064 1.1v4.267h.8c.343 0 .6-.032.743-.097a.89.89 0 0 0 .378-.29c.1-.132.182-.338.246-.62s.097-.652.097-1.112c0-.478-.034-.854-.1-1.13s-.167-.492-.308-.65a.97.97 0 0 0-.505-.312c-.15-.038-.438-.057-.866-.057h-.483zm4.27 5.353v-6.442h3.92v1.1h-2.856v1.428h2.654v1.085h-2.654v1.753h2.953V87h-4.017zm6.974 0v-6.442h1.714c.64 0 1.056.03 1.253.092.313.1.57.312.773.637s.308.744.308 1.257c0 .466-.088.857-.264 1.173s-.396.535-.66.664-.718.2-1.363.2h-.698V87h-1.064zm1.064-5.353v1.828h.6c.395 0 .663-.028.804-.084a.72.72 0 0 0 .35-.3c.1-.145.137-.325.137-.536a.98.98 0 0 0-.141-.541c-.094-.147-.2-.245-.347-.294s-.43-.075-.875-.075h-.518zm3.647 2.17c0-.768.113-1.4.34-1.894s.525-.87.892-1.112.8-.365 1.33-.365c.756 0 1.37.288 1.846.866s.716 1.4.716 2.465c0 1.078-.252 1.92-.756 2.527-.442.536-1.043.804-1.8.804-.765 0-1.37-.265-1.8-.795-.504-.606-.756-1.438-.756-2.496zm1.1-.044c0 .74.14 1.298.422 1.67s.63.554 1.046.554.766-.183 1.04-.55.413-.934.413-1.696c0-.747-.135-1.3-.404-1.657a1.25 1.25 0 0 0-1.05-.536 1.27 1.27 0 0 0-1.06.54c-.273.36-.4.92-.4 1.674zm.905-3.647l.497-1.314h1.138l-.993 1.314h-.642zM309.4 87v-6.4h1.063v5.304h2.655V87H309.4zm4.447 0v-6.442h1.064V87h-1.064zm1.63 0v-1.173l2.777-4.18h-2.465v-1.1h3.867v1l-2.892 4.346h3.006V87h-4.293zm9.73 0h-1.16l-.462-1.463h-2.1L321.04 87h-1.134l2.057-6.442h1.13L325.206 87zm-1.964-2.55l-.725-2.4-.717 2.4h1.442zm2.7-.883v-1.235h1.015v1.235h-1.015zm0 3.432v-1.235h1.015V87h-1.015z"/><path d="M198.52 74v-5.727h3.394v.676h-2.773v1.754h2.597v.672h-2.597v1.95h2.882V74h-3.503zm4.058-1.238l.57-.11c.034.292.127.51.278.652s.35.21.6.21.443-.06.578-.184a.61.61 0 0 0 .207-.473c0-.164-.058-.292-.175-.383-.08-.062-.276-.14-.586-.234-.448-.138-.748-.255-.9-.352s-.268-.225-.35-.387-.125-.345-.125-.55c0-.354.113-.642.34-.863s.54-.332.94-.332c.253 0 .474.046.664.137s.34.214.44.367.172.374.21.66l-.562.094c-.052-.453-.298-.68-.738-.68-.25 0-.437.05-.56.152a.47.47 0 0 0-.184.383.43.43 0 0 0 .176.363c.07.052.28.135.625.25.477.154.785.276.926.367s.25.21.328.367.117.337.117.55c0 .396-.126.716-.38.96s-.592.367-1.027.367c-.815 0-1.288-.445-1.418-1.336zm4.785.61l.078.62c-.158.042-.302.063-.43.063-.2 0-.362-.04-.485-.117s-.207-.2-.254-.328-.066-.413-.066-.824v-2.387h-.422v-.547h.422v-1.027l.574-.422v1.45h.582v.547h-.582v2.426c0 .224.017.368.05.434.05.094.142.14.277.14.065 0 .15-.01.254-.027zm2.87-.707l.594.1c-.1.443-.28.777-.54 1.004s-.578.336-.96.336c-.482 0-.872-.182-1.172-.547s-.445-.896-.445-1.586c0-.716.15-1.262.45-1.637s.684-.566 1.145-.566c.44 0 .807.185 1.1.555s.442.905.442 1.606l-.004.188h-2.54c.023.466.13.818.324 1.055s.427.355.703.355c.432 0 .733-.284.902-.852zm-1.894-1.137h1.898c-.026-.36-.103-.628-.23-.805-.185-.258-.42-.387-.707-.387-.258 0-.478.108-.66.324s-.283.503-.3.867zm7.273.953l.567.1c-.065.495-.23.872-.492 1.133s-.575.39-.942.39c-.445 0-.812-.182-1.1-.547s-.43-.91-.43-1.625c0-.72.144-1.262.433-1.62s.666-.543 1.122-.543c.35 0 .647.11.886.328s.397.547.465.984l-.56.105c-.054-.28-.15-.49-.285-.63a.65.65 0 0 0-.488-.211c-.284 0-.52.126-.707.38s-.277.648-.277 1.195c0 .565.088.974.265 1.227s.41.38.688.38a.73.73 0 0 0 .558-.25c.157-.17.256-.43.297-.785zm3.38.184l.594.1c-.1.443-.28.777-.54 1.004s-.578.336-.96.336c-.482 0-.872-.182-1.172-.547s-.445-.896-.445-1.586c0-.716.15-1.262.45-1.637s.684-.566 1.144-.566c.44 0 .808.185 1.102.555s.44.905.44 1.606l-.003.188h-2.54c.024.466.132.818.325 1.055s.427.355.703.355c.432 0 .733-.284.902-.852zm-1.894-1.137h1.898c-.026-.36-.103-.628-.23-.805-.185-.258-.42-.387-.707-.387-.258 0-.478.108-.66.324s-.282.503-.3.867zM220.312 74v-4.148h.52v.63c.133-.292.254-.484.363-.578a.56.56 0 0 1 .375-.144c.193 0 .4.075.6.227l-.195.652c-.143-.102-.283-.152-.418-.152-.123 0-.235.043-.336.13s-.173.206-.215.36c-.073.268-.11.553-.11.855V74h-.575zm3.473-.63l.078.62a1.71 1.71 0 0 1-.429.063c-.2 0-.362-.04-.485-.117s-.207-.2-.254-.328-.066-.413-.066-.824v-2.387h-.422v-.547h.422v-1.027l.574-.422v1.45h.582v.547h-.582v2.426c0 .224.017.368.05.434.05.094.142.14.277.14.065 0 .15-.01.254-.027zm.543-4.29v-.81h.574v.81h-.574zm0 4.918v-4.148h.574V74h-.574zm1.625 0v-3.602h-.512v-.547h.512v-.44c0-.326.034-.57.102-.73a.77.77 0 0 1 .308-.375c.14-.086.317-.13.528-.13.164 0 .343.023.54.07l-.086.613a1.6 1.6 0 0 0-.34-.039c-.172 0-.296.046-.37.137s-.1.26-.1.512v.383h.665v.547h-.665V74h-.57zm1.664-4.918v-.81h.574v.81h-.574zm0 4.918v-4.148h.574V74h-.574zm3.692-1.52l.566.1c-.065.495-.23.872-.492 1.133s-.574.39-.942.39c-.445 0-.812-.182-1.1-.547s-.43-.91-.43-1.625c0-.72.145-1.262.434-1.62s.665-.543 1.12-.543c.35 0 .647.11.887.328s.397.547.464.984l-.558.105c-.055-.28-.15-.49-.285-.63s-.3-.21-.49-.21a.85.85 0 0 0-.707.379c-.185.25-.277.648-.277 1.195 0 .565.09.974.266 1.227a.81.81 0 0 0 .687.379c.22 0 .405-.083.56-.25s.255-.43.297-.785zm3.27 1.008c-.193.2-.393.352-.6.453s-.425.152-.65.152c-.354 0-.637-.107-.848-.32s-.316-.5-.316-.863a1.34 1.34 0 0 1 .148-.637c.1-.185.235-.33.407-.434s.432-.18.78-.23c.47-.068.812-.148 1.03-.242l.004-.18c0-.284-.05-.483-.152-.598-.143-.167-.363-.25-.66-.25-.27 0-.47.056-.602.168s-.23.316-.293.62l-.566-.094c.08-.445.243-.77.488-.973s.6-.305 1.06-.305c.356 0 .636.068.84.203s.33.298.383.496.082.487.082.867v.938l.035 1.242a1.9 1.9 0 0 0 .149.496h-.602c-.06-.143-.1-.314-.117-.512zm-.047-1.57c-.21.104-.524.193-.94.266-.242.042-.412.1-.508.145s-.172.128-.227.227-.078.208-.078.336c0 .198.062.357.184.477s.292.176.508.176a1.01 1.01 0 0 0 .558-.16.99.99 0 0 0 .379-.426c.084-.18.125-.44.125-.78v-.258zM238.215 74v-.523a1.18 1.18 0 0 1-.403.461.97.97 0 0 1-.531.156c-.4 0-.748-.19-1.043-.567s-.437-.914-.437-1.602c0-.47.065-.87.195-1.2s.303-.572.52-.73.46-.238.726-.238c.2 0 .366.05.528.152s.3.238.406.418v-2.055h.578V74h-.54zm-1.824-2.07c0 .536.092.935.277 1.195s.405.39.652.39.457-.125.637-.375.27-.628.27-1.133c0-.58-.1-1.004-.27-1.27s-.406-.402-.68-.402c-.242 0-.45.13-.625.387s-.26.657-.26 1.207zm3.05-.004c0-.716.15-1.256.45-1.62a1.42 1.42 0 0 1 1.144-.547c.453 0 .832.182 1.137.547s.457.89.457 1.578c0 .745-.15 1.3-.45 1.664s-.68.547-1.145.547c-.456 0-.836-.182-1.14-.547s-.454-.908-.454-1.62zm.6 0c0 .536.098.936.293 1.2s.438.39.727.39c.27 0 .502-.132.695-.395s.293-.664.293-1.195-.098-.93-.293-1.19-.437-.395-.726-.395c-.274 0-.507.132-.7.395s-.29.66-.29 1.19zM247.34 74v-.523c-.104.2-.238.354-.402.46s-.342.156-.532.156c-.4 0-.748-.19-1.043-.567s-.437-.914-.437-1.602c0-.47.065-.87.195-1.2s.303-.572.52-.73.46-.238.726-.238c.2 0 .366.05.528.152s.3.238.406.418v-2.055h.578V74h-.54zm-1.824-2.07c0 .536.092.935.277 1.195s.405.39.652.39.457-.125.637-.375.27-.628.27-1.133c0-.58-.1-1.004-.27-1.27s-.406-.402-.68-.402c-.242 0-.45.13-.625.387s-.26.657-.26 1.207zm5.593.734l.594.1c-.1.443-.28.777-.54 1.004s-.578.336-.96.336c-.482 0-.872-.182-1.172-.547s-.445-.896-.445-1.586c0-.716.15-1.262.45-1.637s.684-.566 1.145-.566c.44 0 .807.185 1.1.555s.442.905.442 1.606l-.004.188h-2.54c.023.466.13.818.324 1.055s.427.355.703.355c.432 0 .733-.284.902-.852zm-1.894-1.137h1.898c-.026-.36-.103-.628-.23-.805-.185-.258-.42-.387-.707-.387-.258 0-.478.108-.66.324s-.283.503-.3.867zm4.824 1.234l.57-.11c.034.292.127.51.278.652s.35.21.6.21.443-.06.578-.184a.61.61 0 0 0 .207-.473c0-.164-.058-.292-.175-.383-.08-.062-.276-.14-.586-.234-.448-.138-.748-.255-.9-.352s-.268-.225-.35-.387-.125-.345-.125-.55c0-.354.113-.642.34-.863s.54-.332.94-.332c.253 0 .474.046.664.137s.34.214.44.367.172.374.21.66l-.562.094c-.052-.453-.298-.68-.738-.68-.25 0-.437.05-.56.152a.47.47 0 0 0-.184.383.43.43 0 0 0 .176.363c.07.052.28.135.625.25.477.154.785.276.926.367s.25.21.328.367.117.337.117.55c0 .396-.126.716-.38.96s-.592.367-1.027.367c-.815 0-1.288-.445-1.418-1.336zm5.828-.098l.594.1c-.1.443-.28.777-.54 1.004s-.578.336-.96.336c-.482 0-.872-.182-1.172-.547s-.445-.896-.445-1.586c0-.716.15-1.262.45-1.637s.684-.566 1.145-.566c.44 0 .807.185 1.1.555s.44.905.44 1.606l-.003.188h-2.54c.023.466.13.818.324 1.055s.427.355.703.355c.432 0 .733-.284.902-.852zm-1.894-1.137h1.898c-.026-.36-.103-.628-.23-.805-.185-.258-.42-.387-.707-.387-.258 0-.478.108-.66.324s-.282.503-.3.867zm3.105 2.817l.563.102c.026.22.104.385.234.492s.31.164.543.164c.253 0 .453-.06.602-.184s.253-.3.308-.54c.034-.146.05-.453.05-.922-.125.18-.266.315-.422.406a1.01 1.01 0 0 1-.519.137c-.407 0-.744-.172-1.012-.516-.308-.396-.46-.926-.46-1.6 0-.445.068-.835.203-1.168s.312-.578.53-.734a1.26 1.26 0 0 1 .742-.234c.2 0 .383.05.547.148s.314.247.442.445v-.5h.53v3.586c0 .638-.052 1.092-.156 1.363a1.31 1.31 0 0 1-.512.645c-.237.16-.522.238-.855.238-.44 0-.78-.118-1.016-.355s-.352-.565-.344-.984zm.48-2.492c0 .544.09.94.27 1.19s.4.375.66.375.482-.122.664-.367.274-.634.274-1.168c0-.52-.094-.907-.28-1.16s-.416-.383-.684-.383c-.24 0-.45.128-.633.383s-.27.63-.27 1.13zM267.066 74v-.61c-.132.234-.29.4-.468.527s-.383.176-.6.176c-.268 0-.497-.072-.687-.215s-.318-.33-.383-.55-.094-.523-.094-.906v-2.57h.574v2.3c0 .427.02.714.063.86s.124.26.238.348.25.13.4.13c.276 0 .502-.113.68-.34.15-.195.227-.553.227-1.074v-2.223h.578V74h-.516zm1.418 0v-4.148h.52v.63c.133-.292.254-.484.363-.578a.56.56 0 0 1 .375-.144c.193 0 .4.075.6.227l-.195.652c-.144-.102-.283-.152-.418-.152-.123 0-.235.043-.336.13s-.173.206-.215.36c-.073.268-.11.553-.11.855V74h-.575zm1.973-2.074c0-.716.15-1.256.45-1.62s.684-.547 1.145-.547c.453 0 .832.182 1.137.547s.457.89.457 1.578c0 .745-.15 1.3-.45 1.664s-.68.547-1.144.547c-.456 0-.836-.182-1.14-.547s-.453-.908-.453-1.62zm.6 0c0 .536.098.936.293 1.2s.437.39.726.39c.27 0 .503-.132.696-.395s.293-.664.293-1.195-.098-.93-.293-1.19-.438-.395-.727-.395c-.273 0-.506.132-.7.395s-.29.66-.29 1.19zm5.1 2.074v-5.727h.575v2.055c.135-.2.287-.332.457-.426s.36-.144.566-.144c.362 0 .647.116.856.348s.316.65.316 1.266V74h-.574v-2.63c0-.36-.064-.617-.192-.773s-.303-.234-.527-.234c-.25 0-.464.1-.64.3s-.26.556-.26 1.066V74h-.575zm5.868-.512a2.16 2.16 0 0 1-.602.453 1.46 1.46 0 0 1-.648.152c-.355 0-.637-.107-.848-.32s-.316-.5-.316-.863c0-.24.05-.452.148-.637s.234-.33.406-.434.433-.18.782-.23c.468-.068.812-.148 1.03-.242l.004-.18c0-.284-.05-.483-.153-.598-.143-.167-.363-.25-.66-.25-.268 0-.47.056-.6.168s-.23.316-.293.62l-.567-.094c.08-.445.244-.77.49-.973s.6-.305 1.058-.305c.357 0 .637.068.84.203a.85.85 0 0 1 .383.496c.054.198.082.487.082.867v.938l.035 1.242a1.9 1.9 0 0 0 .148.496h-.6c-.06-.143-.1-.314-.117-.512zm-.047-1.57c-.21.104-.525.193-.942.266-.242.042-.41.1-.507.145s-.172.128-.227.227-.078.208-.078.336c0 .198.06.357.183.477s.292.176.508.176c.206 0 .392-.053.56-.16s.295-.25.38-.426.125-.44.125-.78v-.258zm3.707.563l.566.1c-.065.495-.23.872-.492 1.133a1.28 1.28 0 0 1-.941.391c-.446 0-.813-.182-1.102-.547s-.43-.91-.43-1.625c0-.72.145-1.262.434-1.62s.665-.543 1.12-.543c.352 0 .647.11.887.328s.397.547.465.984l-.56.105c-.055-.28-.15-.49-.285-.63s-.298-.21-.488-.21c-.284 0-.52.126-.707.38s-.278.648-.278 1.195c0 .565.09.974.266 1.227s.41.38.687.38c.22 0 .405-.083.56-.25s.255-.43.297-.785zm3.38.184l.593.1c-.1.443-.278.777-.54 1.004s-.578.336-.96.336a1.44 1.44 0 0 1-1.171-.547c-.297-.367-.446-.896-.446-1.586 0-.716.15-1.262.45-1.637s.684-.566 1.145-.566c.44 0 .807.185 1.102.555s.44.905.44 1.606l-.004.188h-2.54c.023.466.132.818.324 1.055s.427.355.703.355c.433 0 .733-.284.903-.852zm-1.895-1.137h1.9c-.026-.36-.103-.628-.23-.805-.185-.258-.42-.387-.707-.387-.258 0-.478.108-.66.324s-.283.503-.3.867zm5.043 4.063v-5.738h.527v.54c.13-.224.275-.385.434-.484s.34-.148.547-.148a1.2 1.2 0 0 1 .727.238c.216.16.39.4.52.727s.2.712.2 1.168c0 .706-.148 1.25-.445 1.633s-.64.57-1.04.57c-.177 0-.343-.046-.496-.137s-.287-.22-.4-.387v2.02h-.574zm.52-3.64c0 .536.09.932.27 1.188s.397.38.653.38c.244 0 .46-.132.644-.395s.277-.67.277-1.22c0-.542-.09-.943-.27-1.203s-.4-.39-.656-.39c-.232 0-.443.14-.633.422s-.285.685-.285 1.22zm5.347 1.54c-.192.2-.393.352-.6.453s-.425.152-.65.152c-.354 0-.636-.107-.847-.32s-.317-.5-.317-.863c0-.24.05-.452.15-.637s.234-.33.406-.434.432-.18.78-.23c.47-.068.813-.148 1.03-.242l.004-.18c0-.284-.05-.483-.152-.598-.143-.167-.363-.25-.66-.25-.268 0-.47.056-.602.168s-.23.316-.293.62l-.566-.094c.08-.445.243-.77.488-.973s.6-.305 1.06-.305c.357 0 .637.068.84.203s.33.298.382.496.082.487.082.867v.938l.036 1.242a1.9 1.9 0 0 0 .148.496h-.6c-.06-.143-.1-.314-.118-.512zm-.047-1.57c-.21.104-.524.193-.94.266-.242.042-.41.1-.508.145s-.172.128-.226.227-.078.208-.078.336c0 .198.06.357.183.477s.292.176.508.176c.206 0 .392-.053.56-.16s.295-.25.378-.426.125-.44.125-.78v-.258zM299.5 74v-4.148h.52v.63c.132-.292.253-.484.363-.578a.56.56 0 0 1 .375-.144c.193 0 .39.075.6.227l-.196.652c-.143-.102-.282-.152-.418-.152a.51.51 0 0 0-.336.129.69.69 0 0 0-.214.359c-.073.268-.1.553-.1.855V74h-.574zm3.473-.63l.078.62a1.71 1.71 0 0 1-.43.063c-.2 0-.362-.04-.484-.117a.62.62 0 0 1-.254-.328c-.044-.138-.067-.413-.067-.824v-2.387h-.42v-.547h.42v-1.027l.575-.422v1.45h.582v.547h-.582v2.426c0 .224.017.368.05.434.05.094.142.14.278.14.065 0 .15-.01.254-.027zm2.87-.707l.594.1c-.1.443-.28.777-.54 1.004a1.41 1.41 0 0 1-.96.336c-.482 0-.873-.182-1.172-.547s-.446-.896-.446-1.586c0-.716.15-1.262.45-1.637s.683-.566 1.144-.566c.44 0 .807.185 1.102.555s.44.905.44 1.606l-.004.188h-2.54c.024.466.132.818.324 1.055s.427.355.703.355c.433 0 .733-.284.903-.852zm-1.895-1.137h1.9c-.026-.36-.103-.628-.23-.805-.185-.258-.42-.387-.707-.387-.258 0-.478.108-.66.324s-.283.503-.3.867zM311.2 74v-.523c-.104.2-.238.354-.402.46a.97.97 0 0 1-.531.156c-.4 0-.75-.19-1.043-.567s-.438-.914-.438-1.602c0-.47.065-.87.195-1.2s.304-.572.52-.73a1.21 1.21 0 0 1 .727-.238.97.97 0 0 1 .527.152c.164.1.3.238.406.418v-2.055h.578V74h-.54zm-1.824-2.07c0 .536.092.935.277 1.195s.405.39.653.39.457-.125.636-.375.27-.628.27-1.133c0-.58-.1-1.004-.27-1.27s-.406-.402-.68-.402c-.242 0-.45.13-.625.387s-.262.657-.262 1.207zm5.594.734l.593.1c-.098.443-.278.777-.54 1.004s-.578.336-.96.336a1.44 1.44 0 0 1-1.171-.547c-.297-.367-.446-.896-.446-1.586 0-.716.15-1.262.45-1.637s.683-.566 1.144-.566c.44 0 .807.185 1.102.555s.44.905.44 1.606l-.004.188h-2.54c.023.466.132.818.324 1.055s.427.355.703.355c.433 0 .733-.284.903-.852zm-1.895-1.137h1.9c-.026-.36-.103-.628-.23-.805-.185-.258-.42-.387-.707-.387-.258 0-.478.108-.66.324s-.283.503-.3.867zM318.102 74v-5.727h.574V74h-.574zm3.695-.512c-.193.2-.393.352-.602.453a1.46 1.46 0 0 1-.648.152c-.354 0-.637-.107-.848-.32s-.316-.5-.316-.863c0-.24.05-.452.148-.637s.235-.33.407-.434.432-.18.78-.23c.47-.068.812-.148 1.03-.242l.004-.18c0-.284-.05-.483-.152-.598-.144-.167-.364-.25-.66-.25-.268 0-.468.056-.6.168s-.23.316-.293.62l-.567-.094c.08-.445.244-.77.49-.973s.6-.305 1.058-.305c.357 0 .637.068.84.203a.85.85 0 0 1 .383.496c.055.198.082.487.082.867v.938l.035 1.242a1.9 1.9 0 0 0 .149.496h-.602c-.06-.143-.1-.314-.117-.512zm-.047-1.57c-.21.104-.525.193-.94.266-.243.042-.412.1-.508.145s-.172.128-.227.227-.078.208-.078.336c0 .198.06.357.184.477s.29.176.508.176c.205 0 .39-.053.558-.16s.296-.25.38-.426.125-.44.125-.78v-.258zm3.305 3.672v-5.738h.527v.54c.13-.224.275-.385.434-.484a1.01 1.01 0 0 1 .546-.148c.27 0 .51.08.727.238s.39.4.52.727.2.712.2 1.168c0 .706-.15 1.25-.446 1.633s-.64.57-1.04.57c-.177 0-.342-.046-.496-.137s-.286-.22-.398-.387v2.02h-.574zm.52-3.64c0 .536.1.932.27 1.188s.397.38.652.38c.245 0 .46-.132.645-.395s.277-.67.277-1.22c0-.542-.1-.943-.27-1.203s-.398-.39-.656-.39c-.232 0-.443.14-.633.422s-.285.685-.285 1.22zm2.914-.023c0-.716.15-1.256.45-1.62a1.42 1.42 0 0 1 1.144-.547c.453 0 .832.182 1.137.547s.457.89.457 1.578c0 .745-.15 1.3-.45 1.664s-.68.547-1.145.547c-.456 0-.836-.182-1.14-.547s-.453-.908-.453-1.62zm.6 0c0 .536.098.936.293 1.2s.438.39.727.39c.27 0 .502-.132.695-.395s.293-.664.293-1.195-.098-.93-.293-1.19-.438-.395-.727-.395c-.273 0-.506.132-.7.395s-.29.66-.29 1.19zm.582-2.6l.426-1.094h.754l-.703 1.094h-.477zM332.336 74v-5.727h.574V74h-.574zm1.476-4.918v-.81h.575v.81h-.575zm0 4.918v-4.148h.575V74h-.575zm1.168 0v-.57l2.168-3.03-.652.023h-1.387v-.57h2.782v.465l-1.844 2.633-.356.48.727-.035h1.574V74h-3.012zm5.793-.512c-.192.2-.393.352-.6.453s-.425.152-.65.152c-.354 0-.636-.107-.847-.32s-.317-.5-.317-.863c0-.24.05-.452.15-.637s.234-.33.406-.434.432-.18.78-.23c.47-.068.813-.148 1.032-.242l.003-.18c0-.284-.05-.483-.152-.598-.143-.167-.363-.25-.66-.25-.268 0-.47.056-.602.168s-.23.316-.293.62l-.566-.094c.08-.445.244-.77.488-.973s.6-.305 1.06-.305c.357 0 .637.068.84.203s.33.298.383.496.082.487.082.867v.938l.035 1.242a1.9 1.9 0 0 0 .148.496h-.6c-.06-.143-.1-.314-.118-.512zm-.046-1.57c-.21.104-.525.193-.942.266-.242.042-.41.1-.508.145s-.172.128-.226.227-.078.208-.078.336c0 .198.06.357.183.477s.292.176.508.176c.206 0 .392-.053.56-.16s.295-.25.38-.426.125-.44.125-.78v-.258zm3.3 2.082v-5.01h.806l1.682 3.346V68.99h.772V74h-.834l-1.654-3.268V74h-.772zm3.944-1.866a2.2 2.2 0 0 1 .212-.971c.14-.292.326-.5.554-.656s.484-.22.77-.22c.478 0 .854.188 1.128.564s.4.81.4 1.313c0 .374-.072.71-.216 1.012a1.6 1.6 0 0 1-.56.68 1.36 1.36 0 0 1-.759.226c-.442 0-.81-.17-1.1-.506s-.437-.818-.437-1.442zm.807.05c0 .367.07.645.215.834s.317.28.52.28.368-.094.5-.284.212-.468.212-.837c0-.36-.072-.635-.216-.824s-.315-.284-.516-.284-.37.095-.512.284-.212.466-.212.83zM351.672 74v-.96h.8V74h-.8zm4.252 0l-1.466-5.01h.9l1.04 3.71 1.005-3.71h.882l-1.47 5.01h-.89zm4.693-1.842v-.844h1.788V73.3c-.18.212-.435.394-.766.547a2.35 2.35 0 0 1-.994.229 1.95 1.95 0 0 1-1.074-.297c-.3-.2-.556-.5-.738-.895s-.27-.867-.27-1.405c0-.55.09-1.023.273-1.415s.423-.685.715-.88.645-.3 1.053-.3c.49 0 .88.125 1.175.376s.487.614.57 1.097l-.82.188c-.062-.257-.175-.454-.34-.59s-.36-.205-.587-.205a1.04 1.04 0 0 0-.858.413c-.22.273-.33.692-.33 1.254 0 .604.12 1.063.356 1.377.203.27.477.407.824.407a1.26 1.26 0 0 0 .502-.113 1.58 1.58 0 0 0 .468-.314v-.636h-.95zm2.56 1.842v-5.01h1.747c.446 0 .765.046.957.137s.348.245.472.468.184.486.184.796c0 .392-.094.707-.284.947s-.453.4-.8.45c.177.128.324.268.44.42s.274.42.475.813l.5.978h-.988l-.602-1.1-.44-.738c-.077-.1-.16-.17-.246-.205s-.225-.058-.417-.058h-.17V74h-.827zm.827-2.892h.616c.376 0 .615-.016.717-.048s.186-.1.25-.202.096-.234.096-.4c0-.16-.032-.287-.096-.383s-.15-.165-.26-.202c-.077-.025-.302-.038-.673-.038h-.65v1.272zm6.07-2.14c.398 0 .72.2.967.57s.37 1.04.37 1.99-.123 1.61-.37 1.99-.567.567-.964.567-.72-.188-.967-.564-.37-1.044-.37-2.003c0-.94.123-1.6.37-1.98s.567-.57.964-.57zm0 .796c-.155 0-.28.103-.373.308s-.137.7-.137 1.456.046 1.25.137 1.456.218.304.373.304.28-.103.372-.308.137-.69.137-1.453-.046-1.25-.137-1.456-.215-.308-.372-.308zm3.192-.796c.4 0 .72.2.967.57s.37 1.04.37 1.99-.124 1.61-.37 1.99-.567.567-.963.567-.722-.188-.968-.564-.37-1.044-.37-2.003c0-.94.123-1.6.37-1.98s.568-.57.964-.57zm0 .796c-.155 0-.28.103-.372.308s-.137.7-.137 1.456.045 1.25.137 1.456.217.304.372.304.282-.103.373-.308.136-.69.136-1.453-.045-1.25-.136-1.456-.216-.308-.373-.308zm3.192-.796c.4 0 .722.2.968.57s.37 1.04.37 1.99-.123 1.61-.37 1.99-.568.567-.964.567-.72-.188-.967-.564-.37-1.044-.37-2.003c0-.94.124-1.6.37-1.98s.567-.57.963-.57zm0 .796c-.154 0-.28.103-.372.308s-.137.7-.137 1.456.046 1.25.137 1.456.218.304.372.304.282-.103.373-.308.137-.69.137-1.453-.046-1.25-.137-1.456-.215-.308-.373-.308zM380.335 74h-.786v-3.62c-.294.33-.633.573-1.018.728v-.872c.22-.09.445-.247.68-.475s.398-.494.49-.793h.635V74z"/><path d="M101.536 58v-6.442h1.714c.64 0 1.056.03 1.252.092.314.1.572.312.774.637s.307.744.307 1.257c0 .466-.087.857-.263 1.173s-.396.535-.66.664-.718.19-1.363.19h-.698V58h-1.064zm1.064-5.352v1.828h.588c.396 0 .664-.028.805-.084s.26-.155.35-.3.136-.325.136-.536a.98.98 0 0 0-.14-.541c-.094-.146-.2-.245-.347-.294s-.43-.075-.875-.075h-.518zm3.647 2.17c0-.768.113-1.4.338-1.894s.526-.87.893-1.112.8-.365 1.33-.365c.756 0 1.37.288 1.846.866s.716 1.4.716 2.465c0 1.078-.252 1.92-.756 2.527-.442.536-1.043.804-1.802.804s-1.368-.265-1.8-.795c-.504-.607-.756-1.44-.756-2.496zm1.1-.044c0 .74.14 1.298.422 1.67s.63.554 1.045.554.767-.183 1.042-.55.413-.934.413-1.696c0-.747-.135-1.3-.404-1.657a1.25 1.25 0 0 0-1.051-.536c-.433 0-.786.18-1.06.54s-.408.92-.408 1.674zm.905-3.647l.497-1.314h1.138l-.993 1.314h-.642zM112.237 58v-6.4h1.063v5.304h2.655V58h-3.718zm4.447 0v-6.442h1.064V58h-1.064zm1.63 0v-1.173l2.778-4.18h-2.466v-1.1h3.868v1.01l-2.892 4.346h3.006V58h-4.294zm9.73 0h-1.16l-.462-1.463h-2.11L123.878 58h-1.134l2.057-6.442h1.13L128.044 58zm-1.964-2.55l-.726-2.39-.716 2.39h1.442zm4.306-3.894h1.947c.492 0 .863.056 1.112.167s.483.293.694.554.377.6.497 1.015.18.933.18 1.55c0 .557-.063 1.04-.19 1.455s-.286.735-.48.976-.428.422-.703.545-.624.18-1.055.18h-2.004v-6.442zm1.064 1.1v4.267h.8c.342 0 .6-.032.742-.097a.89.89 0 0 0 .378-.29c.1-.132.182-.338.246-.62s.097-.652.097-1.112c0-.478-.034-.854-.1-1.13s-.167-.492-.308-.65-.306-.262-.505-.312c-.15-.038-.438-.057-.866-.057h-.483zM135.72 58v-6.442h3.92v1.1h-2.856v1.428h2.654v1.085h-2.654v1.754h2.953V58h-4.017zm6.706-2.096l1.042-.123c.117.823.5 1.235 1.15 1.235.322 0 .576-.084.76-.25a.82.82 0 0 0 .277-.628c0-.146-.032-.27-.096-.373a.7.7 0 0 0-.295-.25c-.132-.067-.45-.18-.958-.334-.454-.138-.787-.287-.997-.448s-.38-.372-.506-.633a1.98 1.98 0 0 1-.184-.848c0-.352.08-.668.237-.95a1.58 1.58 0 0 1 .663-.637c.282-.144.63-.215 1.042-.215.62 0 1.106.168 1.455.505s.533.82.553 1.446l-1.068.057c-.046-.346-.148-.587-.303-.725s-.376-.207-.663-.207-.51.06-.664.18-.233.27-.233.448a.56.56 0 0 0 .211.444c.14.12.464.252.97.395.536.155.923.32 1.16.492s.424.39.55.663.19.598.19.984c0 .56-.173 1.03-.52 1.41s-.88.57-1.613.57c-1.295 0-2.015-.737-2.162-2.21zM147.622 58v-6.442h3.92v1.1h-2.857v1.428h2.654v1.085h-2.654v1.754h2.953V58h-4.016zM155 55.63v-1.085h2.298v2.566c-.23.273-.56.507-.984.703s-.85.295-1.28.295c-.52 0-.98-.128-1.38-.382s-.715-.642-.95-1.15-.347-1.115-.347-1.806c0-.71.117-1.315.35-1.82s.544-.88.92-1.13.83-.373 1.353-.373c.63 0 1.134.16 1.512.483s.626.8.734 1.41l-1.055.242c-.08-.33-.224-.584-.435-.76s-.463-.264-.756-.264a1.34 1.34 0 0 0-1.103.532c-.28.352-.42.89-.42 1.613 0 .776.152 1.367.457 1.77a1.25 1.25 0 0 0 1.059.523 1.62 1.62 0 0 0 .646-.145 2.06 2.06 0 0 0 .602-.404v-.817H155zm3.278-4.074h1.064v3.49l.04 1.06c.047.284.16.504.334.66s.413.233.703.233c.247 0 .447-.054.603-.163s.26-.264.316-.457.088-.615.088-1.257v-3.564h1.068v3.384c0 .864-.047 1.5-.14 1.877a1.59 1.59 0 0 1-.624.936c-.322.237-.75.356-1.28.356-.55 0-.98-.098-1.292-.295s-.532-.477-.672-.835-.207-1.023-.207-1.986v-3.437zm5.34 6.442v-6.442h2.245c.575 0 .985.06 1.23.176s.448.315.606.602.238.626.238 1.024c0 .504-.122.9-.365 1.217s-.583.5-1.03.58c.23.164.418.344.567.54s.353.542.61 1.046l.642 1.257h-1.27l-.774-1.402-.567-.95c-.1-.13-.205-.217-.316-.264s-.3-.075-.536-.075h-.22V58h-1.063zm1.063-3.718h.79c.484 0 .79-.02.923-.062a.6.6 0 0 0 .321-.259c.082-.13.123-.3.123-.514 0-.205-.04-.37-.123-.492s-.194-.212-.334-.26c-.1-.032-.388-.048-.866-.048h-.835v1.635zm4.048.536c0-.768.112-1.4.338-1.894s.526-.87.892-1.112.8-.365 1.332-.365c.755 0 1.37.288 1.845.866s.717 1.4.717 2.465c0 1.078-.252 1.92-.756 2.527-.443.536-1.043.804-1.802.804-.765 0-1.368-.265-1.81-.795-.504-.607-.755-1.44-.755-2.496zm1.098-.044c0 .74.14 1.298.422 1.67s.63.554 1.046.554.766-.183 1.04-.55.414-.934.414-1.696c0-.747-.135-1.3-.405-1.657s-.616-.536-1.05-.536-.787.18-1.06.54-.41.92-.41 1.674zm6.913-3.217h1.947c.492 0 .862.056 1.11.167s.484.293.695.554.376.6.496 1.015.18.933.18 1.55c0 .557-.063 1.04-.19 1.455s-.285.735-.48.976-.427.422-.703.545-.624.18-1.054.18h-2.004v-6.442zm1.063 1.1v4.267h.8c.343 0 .6-.032.743-.097a.89.89 0 0 0 .378-.29c.1-.132.18-.338.246-.62s.096-.652.096-1.112c0-.478-.033-.854-.1-1.13s-.167-.492-.307-.65-.306-.262-.506-.312c-.15-.038-.438-.057-.865-.057h-.484zM182.075 58v-6.442h3.92v1.1h-2.857v1.428h2.654v1.085h-2.654v1.754h2.953V58h-4.016zm8.323 0l-1.885-6.442h1.155l1.336 4.768 1.292-4.768h1.134L191.54 58h-1.143zm3.542 0v-6.442h1.063V58h-1.063zm2.083-6.442h1.947c.492 0 .863.056 1.112.167s.483.293.694.554.376.6.496 1.015.18.933.18 1.55c0 .557-.063 1.04-.19 1.455s-.286.735-.48.976a1.88 1.88 0 0 1-.703.545c-.273.12-.624.18-1.055.18h-2.004v-6.442zm1.063 1.1v4.267h.8c.343 0 .59-.032.743-.097a.89.89 0 0 0 .378-.29c.1-.132.18-.338.246-.62s.097-.652.097-1.112c0-.478-.034-.854-.1-1.13s-.167-.492-.308-.65a.97.97 0 0 0-.505-.312c-.15-.038-.438-.057-.866-.057h-.484zm9.03 5.352h-1.16l-.46-1.463h-2.1L201.95 58h-1.134l2.057-6.442h1.13L206.117 58zm-1.964-2.55l-.725-2.39-.717 2.39h1.442zm4.31 2.55v-6.442h1.714c.638 0 1.056.03 1.252.092.314.1.57.312.774.637s.307.744.307 1.257c0 .466-.088.857-.263 1.173s-.396.535-.66.664-.717.19-1.362.19h-.7V58h-1.063zm1.063-5.352v1.828h.59c.396 0 .664-.028.804-.084a.72.72 0 0 0 .352-.299c.09-.146.136-.325.136-.536s-.047-.394-.14-.54-.2-.245-.348-.294-.43-.075-.874-.075h-.52zM217.604 58h-1.16l-.46-1.463h-2.11L213.438 58h-1.133l2.056-6.442h1.13L217.604 58zm-1.964-2.55l-.725-2.39-.716 2.39h1.44zm2.53 2.55v-6.442h2.246c.574 0 .984.06 1.23.176s.45.315.607.602.237.626.237 1.024c0 .504-.12.9-.365 1.217s-.583.5-1.028.58c.23.164.418.344.567.54s.353.542.61 1.046l.64 1.257h-1.27l-.773-1.402-.567-.95c-.1-.13-.205-.217-.316-.264s-.3-.075-.536-.075h-.22V58h-1.064zm1.064-3.718h.79c.483 0 .79-.02.923-.062a.6.6 0 0 0 .321-.259c.082-.13.123-.3.123-.514 0-.205-.04-.37-.123-.492s-.194-.212-.334-.26c-.1-.032-.39-.048-.866-.048h-.835v1.635zM228.257 58h-1.16l-.462-1.463h-2.11L224.09 58h-1.134l2.057-6.442h1.13L228.257 58zm-1.965-2.55l-.725-2.39-.716 2.39h1.44zm5.502 2.55v-5.352h-1.568v-1.1h4.196v1.1h-1.564V58h-1.064zm7.537 0h-1.16l-.462-1.463h-2.11L235.165 58h-1.134l2.057-6.442h1.13L239.33 58zm-1.964-2.55l-.725-2.39-.717 2.39h1.442zm2.53 2.55v-6.442h2.246c.574 0 .984.06 1.23.176s.448.315.606.602.238.626.238 1.024c0 .504-.122.9-.365 1.217s-.583.5-1.028.58c.228.164.417.344.567.54s.353.542.6 1.046l.642 1.257h-1.27l-.773-1.402-.567-.95c-.1-.13-.205-.217-.317-.264s-.3-.075-.536-.075h-.22V58h-1.063zm1.063-3.718h.79c.484 0 .79-.02.923-.062a.6.6 0 0 0 .321-.259c.082-.13.123-.3.123-.514 0-.205-.04-.37-.123-.492a.62.62 0 0 0-.334-.259c-.1-.032-.388-.048-.866-.048h-.835v1.635zm6.166-2.725h1.068v4.078c0 .66-.066 1.15-.198 1.472s-.33.57-.593.743-.583.26-.967.26c-.507 0-.904-.174-1.19-.523s-.432-.874-.435-1.578l1.006-.14c.012.378.06.646.145.804a.55.55 0 0 0 .515.325c.222 0 .386-.078.492-.233s.158-.507.158-1.046v-4.162zM249.33 58v-6.442h3.92v1.1h-2.857v1.428h2.654v1.085h-2.654v1.754h2.953V58h-4.016zm6.108 0v-5.352h-1.57v-1.1h4.197v1.1H256.5V58h-1.063zm7.537 0h-1.16l-.46-1.463h-2.11L258.808 58h-1.134l2.056-6.442h1.13L262.974 58zm-1.965-2.55l-.725-2.39-.716 2.39h1.44zm2.26.453l1.042-.123c.117.823.5 1.235 1.15 1.235.322 0 .576-.084.76-.25a.82.82 0 0 0 .277-.628c0-.146-.032-.27-.097-.373a.69.69 0 0 0-.294-.25c-.132-.067-.45-.18-.958-.334-.454-.138-.787-.287-.998-.448s-.38-.372-.505-.633a1.98 1.98 0 0 1-.185-.848c0-.352.08-.668.238-.95a1.58 1.58 0 0 1 .663-.637c.282-.144.63-.215 1.042-.215.62 0 1.106.168 1.454.505s.534.82.554 1.446l-1.068.057c-.047-.346-.148-.587-.303-.725s-.376-.207-.664-.207-.508.06-.663.18-.233.27-.233.448a.56.56 0 0 0 .211.444c.14.12.464.252.97.395.536.155.923.32 1.16.492s.424.39.55.663.19.598.19.984c0 .56-.173 1.03-.52 1.41s-.88.57-1.613.57c-1.295 0-2.015-.737-2.162-2.21zm7.242-4.346h1.947c.492 0 .863.056 1.112.167s.483.293.694.554.377.6.497 1.015.18.933.18 1.55c0 .557-.063 1.04-.19 1.455s-.286.735-.48.976-.428.422-.703.545-.624.18-1.055.18H270.5v-6.442zm1.064 1.1v4.267h.8c.342 0 .6-.032.742-.097a.89.89 0 0 0 .378-.29c.1-.132.182-.338.246-.62s.097-.652.097-1.112c0-.478-.034-.854-.1-1.13s-.167-.492-.308-.65-.306-.262-.505-.312c-.15-.038-.438-.057-.866-.057h-.483zm4.27 5.352v-6.442h3.92v1.1h-2.856v1.428h2.654v1.085h-2.654v1.754h2.953V58h-4.017zm10.358-2.37l1.033.4c-.16.72-.43 1.248-.804 1.582s-.837.497-1.385.497c-.688 0-1.246-.265-1.674-.795-.492-.612-.738-1.44-.738-2.48 0-1.1.247-1.96.742-2.58.43-.54 1-.81 1.736-.81.592 0 1.087.202 1.486.606.284.287.492.713.624 1.28l-1.055.308c-.067-.35-.202-.615-.404-.8a1 1 0 0 0-.708-.281c-.39 0-.707.17-.953.5s-.37.9-.37 1.683c0 .812.12 1.39.36 1.73s.552.514.936.514a.97.97 0 0 0 .729-.325c.205-.22.353-.567.444-1.042zM288.15 58v-6.442h2.246c.574 0 .984.06 1.23.176s.448.315.606.602.238.626.238 1.024c0 .504-.122.9-.365 1.217s-.583.5-1.028.58c.228.164.417.344.567.54s.353.542.6 1.046l.642 1.257h-1.27l-.773-1.402-.567-.95c-.1-.13-.205-.217-.317-.264s-.3-.075-.536-.075h-.22V58h-1.063zm1.063-3.718h.79c.484 0 .79-.02.923-.062a.6.6 0 0 0 .321-.259c.082-.13.123-.3.123-.514 0-.205-.04-.37-.123-.492a.62.62 0 0 0-.334-.259c-.1-.032-.388-.048-.866-.048h-.835v1.635zM293.476 58v-6.442h3.92v1.1h-2.856v1.428h2.654v1.085h-2.654v1.754h2.953V58h-4.017zm1.367-6.873l.496-1.314h1.14l-.994 1.314h-.64zm3.546.43h1.947c.492 0 .863.056 1.112.167s.483.293.694.554.377.6.497 1.015.18.933.18 1.55c0 .557-.063 1.04-.19 1.455s-.286.735-.48.976-.428.422-.703.545-.624.18-1.055.18h-2.004v-6.442zm1.064 1.1v4.267h.8c.343 0 .59-.032.743-.097a.89.89 0 0 0 .378-.29c.1-.132.182-.338.246-.62s.097-.652.097-1.112c0-.478-.034-.854-.1-1.13s-.167-.492-.308-.65a.97.97 0 0 0-.505-.312c-.15-.038-.438-.057-.866-.057h-.483zM303.69 58v-6.442h1.063V58h-1.063zm3.278 0v-5.352h-1.57v-1.1h4.197v1.1h-1.564V58h-1.064zm2.975-3.182c0-.768.113-1.4.34-1.894s.526-.87.892-1.112.8-.365 1.33-.365c.756 0 1.37.288 1.846.866s.716 1.4.716 2.465c0 1.078-.252 1.92-.755 2.527-.443.536-1.043.804-1.802.804-.765 0-1.368-.265-1.81-.795-.504-.607-.756-1.44-.756-2.496zm1.1-.044c0 .74.14 1.298.422 1.67s.63.554 1.046.554.766-.183 1.04-.55.413-.934.413-1.696c0-.747-.134-1.3-.404-1.657a1.25 1.25 0 0 0-1.05-.536c-.434 0-.787.18-1.06.54s-.41.92-.41 1.674zM319.215 58v-2.71l-1.934-3.73h1.248l1.244 2.55 1.222-2.55h1.226l-1.943 3.74V58h-1.063zm2.988.1l1.3-6.662h.76L322.95 58.1h-.747zm2.39-3.292c0-.768.113-1.4.338-1.894s.526-.87.892-1.112.8-.365 1.332-.365c.756 0 1.37.288 1.845.866s.717 1.4.717 2.465c0 1.078-.252 1.92-.756 2.527-.442.536-1.043.804-1.802.804-.764 0-1.368-.265-1.8-.795-.504-.607-.756-1.44-.756-2.496zm1.098-.044c0 .74.14 1.298.422 1.67s.63.554 1.046.554.766-.183 1.042-.55.413-.934.413-1.696c0-.747-.135-1.3-.405-1.657s-.616-.536-1.05-.536-.786.18-1.06.54-.41.92-.41 1.674zm10.3.857l1.033.4c-.16.72-.43 1.248-.804 1.582s-.837.497-1.385.497c-.688 0-1.246-.265-1.674-.795-.492-.612-.738-1.44-.738-2.48 0-1.1.247-1.96.742-2.58.43-.54 1-.81 1.736-.81.592 0 1.087.202 1.486.606.284.287.492.713.624 1.28l-1.055.308c-.067-.35-.202-.615-.404-.8a1 1 0 0 0-.708-.281c-.39 0-.707.17-.953.5s-.37.9-.37 1.683c0 .812.12 1.39.36 1.73s.552.514.936.514a.97.97 0 0 0 .729-.325c.205-.22.353-.567.444-1.042zm1.934-4.074H339v3.49l.04 1.06c.047.284.158.504.334.66s.413.233.703.233c.246 0 .447-.054.602-.163a.82.82 0 0 0 .316-.457c.06-.196.088-.615.088-1.257v-3.564h1.068v3.384c0 .864-.047 1.5-.14 1.877a1.58 1.58 0 0 1-.624.936c-.322.237-.748.356-1.278.356-.55 0-.982-.098-1.292-.295s-.532-.477-.673-.835-.206-1.023-.206-1.986v-3.437zm5.34 6.442v-6.442h3.92v1.1h-2.856v1.428h2.654v1.085h-2.654v1.754h2.953V58h-4.017zm4.93 0v-6.442h1.037l2.162 4.302v-4.302h.993V58h-1.072l-2.127-4.2V58h-.993zm6.504 0v-5.352h-1.57v-1.1h4.197v1.1h-1.565V58H354.7zm7.536 0h-1.16l-.46-1.463h-2.1L358.07 58h-1.133l2.056-6.442h1.13L362.237 58zm-1.964-2.55l-.725-2.39-.716 2.39h1.44zm2.26.453l1.04-.123c.117.823.5 1.235 1.152 1.235.322 0 .575-.084.76-.25a.82.82 0 0 0 .277-.628c0-.146-.033-.27-.097-.373s-.163-.186-.294-.25-.452-.18-.958-.334c-.455-.138-.787-.287-.998-.448s-.38-.372-.505-.633a1.98 1.98 0 0 1-.185-.848c0-.352.08-.668.237-.95s.383-.494.664-.637.628-.215 1.04-.215c.622 0 1.106.168 1.455.505s.533.82.554 1.446l-1.068.057c-.047-.346-.148-.587-.303-.725s-.377-.207-.664-.207-.508.06-.663.18-.233.27-.233.448a.56.56 0 0 0 .211.444c.14.12.464.252.97.395.536.155.923.32 1.16.492s.423.39.55.663.19.598.19.984c0 .56-.173 1.03-.518 1.41s-.88.57-1.613.57c-1.295 0-2.016-.737-2.162-2.21zm6.978 0l1.042-.123c.117.823.5 1.235 1.15 1.235.322 0 .576-.084.76-.25a.82.82 0 0 0 .277-.628c0-.146-.032-.27-.096-.373a.7.7 0 0 0-.295-.25c-.132-.067-.45-.18-.958-.334-.454-.138-.787-.287-.997-.448s-.38-.372-.506-.633a1.98 1.98 0 0 1-.184-.848c0-.352.08-.668.237-.95a1.58 1.58 0 0 1 .663-.637c.282-.144.63-.215 1.042-.215.62 0 1.106.168 1.455.505s.533.82.553 1.446l-1.068.057c-.046-.346-.148-.587-.303-.725s-.376-.207-.663-.207-.51.06-.664.18-.233.27-.233.448a.56.56 0 0 0 .211.444c.14.12.464.252.97.395.536.155.923.32 1.16.492s.424.39.55.663.19.598.19.984c0 .56-.173 1.03-.52 1.41s-.88.57-1.613.57c-1.295 0-2.015-.737-2.162-2.21zm8.574-.272l1.033.4c-.16.72-.43 1.248-.805 1.582s-.836.497-1.384.497c-.688 0-1.246-.265-1.674-.795-.492-.612-.738-1.44-.738-2.48 0-1.1.247-1.96.742-2.58.43-.54 1-.81 1.736-.81.592 0 1.087.202 1.485.606.285.287.493.713.625 1.28l-1.055.308c-.068-.35-.202-.615-.404-.8a1 1 0 0 0-.708-.281c-.4 0-.708.17-.954.5s-.37.9-.37 1.683c0 .812.12 1.39.36 1.73s.552.514.936.514a.97.97 0 0 0 .729-.325c.205-.22.353-.567.444-1.042zm1.73-.813c0-.768.113-1.4.34-1.894s.526-.87.892-1.112.8-.365 1.33-.365c.756 0 1.372.288 1.846.866s.716 1.4.716 2.465c0 1.078-.25 1.92-.755 2.527-.443.536-1.043.804-1.802.804-.765 0-1.368-.265-1.81-.795-.504-.607-.756-1.44-.756-2.496zm1.1-.044c0 .74.14 1.298.422 1.67s.63.554 1.046.554.766-.183 1.04-.55.413-.934.413-1.696c0-.747-.134-1.3-.404-1.657s-.617-.536-1.05-.536-.787.18-1.06.54-.41.92-.41 1.674zm6.05 3.226v-5.352h-1.57v-1.1h4.197v1.1h-1.564V58h-1.064zm3.287 0v-6.442h1.064V58h-1.064zm6.852 0h-1.16l-.46-1.463h-2.11L392.938 58h-1.134l2.056-6.442H395L397.104 58zm-1.965-2.55l-.725-2.39-.716 2.39h1.44zm2.527-3.894h2.114c.577 0 .983.053 1.217.158s.432.29.593.558.242.568.242.905c0 .3-.07.592-.207.844s-.316.434-.536.554c.314.11.558.302.734.57s.268.598.268.984c0 .47-.112.866-.338 1.19s-.492.522-.8.598c-.214.053-.7.08-1.5.08h-1.797v-6.442zm1.063 1.072v1.5h.704l.782-.022a.67.67 0 0 0 .426-.229c.103-.126.154-.296.154-.5 0-.19-.043-.344-.128-.462s-.183-.195-.303-.224-.457-.044-1.02-.044h-.616zm0 2.562v1.723h.99c.434 0 .712-.022.835-.066s.226-.136.308-.268.127-.305.127-.5c0-.21-.045-.384-.136-.52a.66.66 0 0 0-.356-.281c-.146-.053-.448-.08-.905-.08h-.862zM407.756 58h-1.16l-.462-1.463h-2.11L403.6 58h-1.134l2.057-6.442h1.13L407.756 58zm-1.964-2.55l-.726-2.39-.716 2.39h1.442zm2.54 2.55v-6.442h1.037l2.162 4.302v-4.302h.993V58h-1.072l-2.127-4.2V58h-.993zm5.326 0v-6.442h1.063v2.86l2.158-2.86h1.437l-1.99 2.51L418.42 58h-1.38l-1.455-3.023-.866 1.077V58h-1.063zm10.753-2.37l1.033.4c-.16.72-.43 1.248-.804 1.582s-.837.497-1.385.497c-.688 0-1.246-.265-1.674-.795-.492-.612-.738-1.44-.738-2.48 0-1.1.247-1.96.742-2.58.43-.54 1-.81 1.736-.81.592 0 1.087.202 1.486.606.284.287.492.713.624 1.28l-1.055.308c-.067-.35-.202-.615-.404-.8a1 1 0 0 0-.708-.281c-.39 0-.707.17-.953.5s-.37.9-.37 1.683c0 .812.12 1.39.36 1.73s.552.514.936.514a.97.97 0 0 0 .729-.325c.205-.22.353-.567.444-1.042zm1.732-.813c0-.768.112-1.4.338-1.894s.526-.87.892-1.112.8-.365 1.332-.365c.755 0 1.37.288 1.845.866s.717 1.4.717 2.465c0 1.078-.252 1.92-.756 2.527-.443.536-1.043.804-1.802.804-.765 0-1.368-.265-1.81-.795-.503-.607-.755-1.44-.755-2.496zm1.098-.044c0 .74.14 1.298.422 1.67s.63.554 1.046.554.766-.183 1.04-.55.414-.934.414-1.696c0-.747-.135-1.3-.405-1.657s-.616-.536-1.05-.536-.787.18-1.06.54-.41.92-.41 1.674zm4.89 3.226v-6.4h1.064v5.304h2.654V58h-3.718zm4.478 0v-6.442h1.714c.64 0 1.056.03 1.253.092.313.1.57.312.773.637s.308.744.308 1.257c0 .466-.088.857-.264 1.173s-.395.535-.66.664-.718.19-1.362.19h-.7V58H436.6zm1.064-5.352v1.828h.59c.395 0 .663-.028.804-.084s.26-.155.35-.3.137-.325.137-.536a.98.98 0 0 0-.141-.541c-.094-.146-.21-.245-.347-.294s-.43-.075-.875-.075h-.518zM445.75 58h-1.16l-.462-1.463h-2.11L441.585 58h-1.134l2.057-6.442h1.13L445.75 58zm-1.964-2.55l-.725-2.39-.717 2.39h1.442zM446.96 58v-5.352h-1.568v-1.1h4.196v1.1h-1.564V58h-1.064zm3.323 0v-6.442h2.245c.575 0 .985.06 1.23.176s.448.315.606.602.238.626.238 1.024c0 .504-.122.9-.365 1.217s-.583.5-1.03.58c.23.164.418.344.567.54s.353.542.61 1.046l.642 1.257h-1.27l-.774-1.402-.567-.95c-.1-.13-.205-.217-.316-.264s-.3-.075-.536-.075h-.22V58h-1.063zm1.063-3.718h.79c.484 0 .79-.02.923-.062a.6.6 0 0 0 .321-.259c.082-.13.123-.3.123-.514 0-.205-.04-.37-.123-.492a.62.62 0 0 0-.334-.259c-.1-.032-.388-.048-.866-.048h-.835v1.635zM455.573 58v-6.442h1.063V58h-1.063zm6.85 0h-1.16l-.462-1.463h-2.11L458.258 58h-1.134l2.057-6.442h1.13L462.424 58zm-1.965-2.55l-.725-2.39-.716 2.39h1.44zm4.043.453l1.042-.123c.117.823.5 1.235 1.15 1.235.323 0 .576-.084.76-.25a.82.82 0 0 0 .276-.628c0-.146-.032-.27-.096-.373a.7.7 0 0 0-.295-.25c-.132-.067-.45-.18-.958-.334-.454-.138-.786-.287-.997-.448s-.38-.372-.506-.633a1.98 1.98 0 0 1-.184-.848c0-.352.08-.668.237-.95s.382-.494.664-.637.628-.215 1.04-.215c.62 0 1.106.168 1.455.505s.533.82.553 1.446l-1.067.057c-.047-.346-.148-.587-.304-.725s-.376-.207-.663-.207-.508.06-.664.18-.233.27-.233.448.07.324.21.444.465.252.97.395c.537.155.923.32 1.16.492s.423.39.55.663.19.598.19.984c0 .56-.173 1.03-.52 1.41s-.88.57-1.612.57c-1.295 0-2.016-.737-2.163-2.21zM469.688 58v-1.235h1.015V58h-1.015zm6.825 0h-1.16l-.462-1.463h-2.11L472.347 58h-1.134l2.057-6.442h1.13L476.513 58zm-1.965-2.55l-.725-2.39-.716 2.39h1.44zM477.07 58v-1.235h1.015V58h-1.015z"/></g><g fill="#ec111a"><path d="M138.6 8.3c0 .1-.1.1-.1 0h.1z"/><path d="M132.2 6.9c.7-.2 1.4-.3 2.1-.3 2.9 0 5.2 1.5 5.2 3.3 0 1-.7 2.1-2.1 3.1-.7.2-1.4.3-2.1.3-2.9 0-5.2-1.5-5.2-3.4 0-.9.7-2 2.1-3zm12.5-3.1c2.7 1.6 4.4 3.8 4.4 6.2 0 4.7-6.4 8.6-14.3 8.6-2.9 0-5.7-.5-8-1.5.6 0 4.1.3 7 .2 3.6-.2 12.5-1.9 12.5-6.5 0-3.8-7-5-9.7-4.8-1.8.1-3.2.4-4 .7 1.1-.7 2.7-1.4 4.6-1.9 0-.1 4.8-1.2 7.5-1zM120.5 10c0-4.7 6.4-8.6 14.3-8.6 2.9 0 5.7.5 8 1.5-.6 0-4.1-.3-6.9-.2-3.6.2-12.5 1.9-12.5 6.5 0 3.8 7 5 9.7 4.8 1.8-.1 3.2-.4 4-.7-1.1.7-2.7 1.4-4.6 1.9 0 0-4.8 1.1-7.5.9-2.8-1.5-4.5-3.7-4.5-6.1zm41.1-1.3c-.4-.7-1.2-1.1-2.1-1.1-1.6 0-2.8 1.2-3 2.7s.6 2.7 2.2 2.7c.8 0 1.7-.4 2.4-1l-.5 3c-.9.3-1.5.5-2.3.5-1.4 0-2.6-.5-3.4-1.4-.9-1-1.2-2.2-1-3.7.2-1.3.9-2.6 2-3.6s2.6-1.6 4-1.6c.8 0 1.5.2 2.2.5l-.5 3zm3.5 1.5c-.3 1.7.8 2.9 2.3 2.9s2.9-1.2 3.2-2.9c.2-1.3-.8-2.6-2.3-2.6-1.6 0-3 1.2-3.2 2.6zm8.1 0c-.5 3.2-3.1 5.4-6.2 5.4s-5-2.2-4.5-5.4c.5-2.9 3.4-5 6.2-5 2.7-.1 5 2 4.5 5zm3.5 2.9h3l-.3 2.1h-5.6l1.6-9.7h2.5l-1.2 7.6zm7.3-3.2h.4c.9 0 1.8 0 2-1.2s-.6-1.2-1.6-1.2h-.4l-.4 2.4zm-1.8-4.4h3.9c2.1 0 3.4 1 3 3.2-.4 2.3-1.8 3.3-4 3.3h-1.4l-.5 3.2h-2.5l1.5-9.7zm11.6 3l-1.6 3.1h2.1l-.5-3.1zm-2.6 5l-.9 1.7h-2.7l5.3-9.8h2.8l2.1 9.8h-2.7l-.4-1.7h-3.5zm11 1.7h-2.5l1.2-7.6h-2.1l.3-2.1h6.7l-.3 2.1h-2.1l-1.2 7.6zm6.8-5.4h.2c.8 0 1.8-.2 2-1.2.2-1.1-.7-1.2-1.6-1.2h-.2l-.4 2.4zm4.7 5.4h-3.2l-1.8-3.8-.6 3.8h-2.5l1.5-9.8h3.8c1.9 0 3.2.9 2.9 3-.2 1.3-1.1 2.5-2.6 2.8l2.5 4zm3.6 0h-2.5l1.5-9.7h2.6l-1.6 9.7zm7.5-6.7l-1.6 3.1h2.1l-.5-3.1zm-2.6 5l-.9 1.7h-2.7l5.3-9.8h2.8l2.1 9.8H226l-.4-1.7h-3.4zm-179 .3c-1.1 0-1.9-.9-1.9-1.9a1.97 1.97 0 0 1 1.9-1.9c1.1 0 1.9.9 1.9 1.9s-.8 1.9-1.9 1.9zm0-6.3c-2.4 0-4.3 2-4.3 4.3 0 2.4 1.9 4.3 4.3 4.3s4.3-2 4.3-4.3c.1-2.3-1.9-4.3-4.3-4.3zm9.9.2h-1.2V5.2h-2.6v2.5h-1.1v2.4h1.1V16h2.6v-5.9h1.2V7.7zm3.8 0h-2.6V16h2.6V7.7zm-1.3-4c-.8 0-1.4.6-1.4 1.4s.6 1.4 1.4 1.4S57 5.9 57 5.1c.1-.7-.6-1.4-1.4-1.4zM92.9 10a1.47 1.47 0 0 1 1.5 1.5V16H97v-4.9c0-2.2-1.3-3.6-3.3-3.6-.8 0-1.7.4-2.4 1.5V7.7h-2.6V16h2.6v-4.5c0-.8.7-1.5 1.6-1.5zm13.6 6l-3.2-4.1 3-4.2h-3.1l-2.3 3.4V3.9h-2.6V16h2.6v-3.4l2.6 3.4h3zM30 13.8c.2-.5.3-.9.3-1.5 0-.8-.3-1.6-.7-2.1-.7-.7-1.6-1.2-2.9-1.5-.3-.1-.5-.2-.7-.3s-.4-.3-.5-.4c-.2-.2-.2-.4-.2-.7 0-.4.2-.6.5-.9.4-.3 1.2-.3 2.1 0 .3.1.5.2.8.4l1.1-2.2c-.4-.2-1-.6-1.6-.7-.6-.2-1.2-.2-1.8-.2s-1.2.1-1.6.3a9.13 9.13 0 0 0-1.3.8c-.3.3-.7.8-.8 1.3-.2.5-.3 1-.3 1.5 0 .6.3 1.5 1 2.2.8.7 1.6 1 2 1.1l1 .3c.3.1.5.2.7.4.2.1.3.3.4.4a.9.9 0 0 1 .1.5c0 .3-.1.5-.4.7-.2.2-.6.3-1.2.3-.5 0-1-.1-1.4-.3s-.7-.4-1.2-.6l-1.3 2.3c.9.8 2.4 1.3 3.7 1.3.7 0 1.4-.1 2-.3a5.3 5.3 0 0 0 1.5-.8c.1-.4.5-.9.7-1.3zm78.3 1.9c-.6 0-1.2-.5-1.2-1.2s.5-1.2 1.2-1.2c.6 0 1.2.5 1.2 1.2s-.5 1.2-1.2 1.2zm0-2.6c-.8 0-1.4.6-1.4 1.4s.6 1.4 1.4 1.4 1.4-.6 1.4-1.4c.1-.7-.6-1.4-1.4-1.4z"/><path d="M108.1 14.5h.3c.1 0 .2-.1.2-.2s-.1-.2-.2-.2h-.3v.4zm.2.3h-.2v.5h-.3v-1.6h.6a.47.47 0 0 1 .5.5.55.55 0 0 1-.3.5l.3.6h-.3l-.3-.5zm-71.2-1.7c-.4.4-.9.7-1.5.7-1.1 0-1.9-.9-1.9-1.9 0-1.1.9-1.9 1.9-1.9.6 0 1.1.3 1.5.7L38.8 9c-.8-.9-1.9-1.4-3.2-1.4-2.4 0-4.5 1.7-4.5 4.3s2.1 4.3 4.5 4.3c1.3 0 2.4-.5 3.2-1.4l-1.7-1.7zm25.4.7c-1.1 0-2-.9-2-2s.9-2 2-2 2 .9 2 2-.9 2-2 2zm4.6 2.2V7.7h-2.5v.9l-.2-.2c-.6-.6-1.3-.9-2.2-.9-2.2 0-4.1 2-4.1 4.3 0 2.4 1.9 4.3 4.1 4.3.8 0 1.5-.3 2.2-.9l.2-.2v1h2.5zm15.8-2.2c-1.1 0-2-.9-2-2s.9-2 2-2 2 .9 2 2-.9 2-2 2zm4.6 2.2V7.7H85v.9l-.2-.2c-.6-.6-1.3-.9-2.2-.9-2.2 0-4.1 2-4.1 4.3 0 2.4 1.9 4.3 4.1 4.3.8 0 1.5-.3 2.2-.9l.2-.2v1h2.5zM71 11.9c0-1.1.9-2 2-2s2 .9 2 2-.9 2-2 2-2-1-2-2zm0 4.1v-.9l.2.2c.6.6 1.3.9 2.2.9 2.2 0 4.1-2 4.1-4.3 0-2.4-1.9-4.3-4.1-4.3-.8 0-1.5.3-2.2.9l-.2.1V3.9h-2.5V16H71zM14.6 3.7H9c-3.2 0-5.9 2.4-6.2 5.6-.5-.9-.8-2-.8-3C2 2.8 4.8 0 8.3 0H18l-3.4 3.7zM3.4 16.2H9c3.2 0 5.9-2.4 6.2-5.6.5.9.8 1.9.8 3 0 3.5-2.8 6.3-6.3 6.3H0l3.4-3.7zM14 10a4.95 4.95 0 0 1-5 5 4.95 4.95 0 0 1-5-5 4.95 4.95 0 0 1 5-5 4.95 4.95 0 0 1 5 5z"/></g><g clip-path="url(#A)"><g fill="#009d76"><path d="M487.9 0H463v25.6h24.9V0z"/><path d="M487.1 13a334.36 334.36 0 0 0 .2 10.8c0 .6-.4 1-.9 1h-21.5c-.5 0-.8-.4-.9-1 0 0-.6-4.7-.6-11.8s.6-10.5.6-10.5c.1-.6.4-1 .9-1h21.6c.5 0 .9.5.9 1 0 0-.3 6.1-.3 11.5z"/><path d="M482.4 6.9l-3.7 2 .1-.2c.9-1 1.3-1.4 1.8-2.3l-5.4.6h.1c1.5-.7 4.2-1.4 5.5-1.6-.3-.5-3.1-2-3.7-2.3l.1-.2c2.1.2 4.8 1.2 6 2 .5-.2 1-.2 2-.3 0 0-.1.6-1.2 1.3.3.7-.4 4.6-.9 5.6 0-1.6-.2-3.7-.7-4.6zm-11.3 13.9l.1-.2c-.8-.3-1.6-.6-2.3-1.2.2-.6.4-1.1.8-1.7l.1-.2c-.7.1-1.3.4-1.9.5-.5-.9-.7-2.1-.9-3.2l-.1.2c-.1 1.3-.2 2.2 0 3.2l-1.4.3-.1.2 1.9 1.1c.4.9.8 1.5 1.5 2.1l.1-.2c-.1-.5-.3-.9-.2-1.4.8.3 1.5.5 2.4.5z"/><path d="M473.4 7.9s-.3.6-.6 1.4h-.1c1.9.3 3.7 1.1 4.2 1.3l-.1.2c-2-.4-3-.3-3.8-.3-.7.1-.9.2-.9.2-.4 1-.7 2.5-.8 3.1v.2c-.4-.9-.9-2.7-.9-2.7-1 .6-3.3 2.8-3.3 2.8 1.3-2.6 2.6-3.8 2.6-3.8-.5-.5-1.7-.7-2.5-.7l.1-.2c.5-.2 1.6-.2 2.4-.3h1.4c.7-.6 1.9-1.1 2.3-1.2zm2.4 11.3c-.4.6-.7 1-1.2 1.5-.7.2-1.4.1-2 .1l-.1.2c.5.2.9.4 1.4.5-.4.4-.9.6-1.3.9l-.1.2c.8-.2 1.8-.5 2.6-1 .4 0 .8 0 1-.1l.1-.2c0-.2-.2-.3-.2-.5l1.8-1.7.1-.2c-.6.4-1.3 1-2 1.3-.1-.4-.1-.6-.1-1z"/></g><g fill="#fff"><path d="M482.4 6.7l-3.7 2c1-1.1 1.3-1.5 1.9-2.5l-5.4.6c1.4-.8 4.2-1.6 5.6-1.8-.3-.5-3.1-2-3.8-2.3 2.2.2 4.8 1 6.1 1.8.5-.2 1-.2 2-.3-.1.6-.1.9-1.1 1.5.3.7-.4 4.6-.9 5.6.1-1.6-.1-3.7-.7-4.6zm-11.2 13.9c-.9-.3-1.5-.7-2.2-1.4.2-.6.4-1.1.8-1.7l-1.9.3c-.5-.9-.7-1.8-1-3-.1 1.3-.2 2.2 0 3.2-.6.2-1 .3-1.4.5l1.9 1.1c.4.9.8 1.5 1.5 2.1-.2-.6-.2-1-.1-1.6a5.68 5.68 0 0 0 2.4.5zm2.3-12.8c-.3.4-.6 1.1-.7 1.4 2.3.3 4.1 1.5 4.1 1.5-2-.4-3-.3-3.8-.2-.7.1-.9.2-.9.2-.5 1.2-.9 3.3-.9 3.3l-.8-2.9c-1 .6-3.3 2.8-3.3 2.8 1.3-2.6 2.6-3.8 2.6-3.8-.5-.4-1.7-.7-2.5-.7.4-.2 1.5-.4 2.4-.4h1.4c.8-.7 2-1.2 2.4-1.2zm2.4 11.2c-.4.6-.7 1-1.2 1.5-.8.2-1.4.3-2.1.3.5.2.9.4 1.4.5l-1.3 1.1c.8-.2 1.8-.5 2.6-1 .4 0 .8 0 1-.1-.1-.2-.1-.4-.2-.7l1.8-1.7c-.6.5-1.2.8-1.9 1.2-.1-.4-.1-.7-.1-1.1z"/></g><g fill="#000"><path d="M497.1 4.4c1.6 0 2.2.3 2.2 1.2 0 .2-.1.5-.2.6-.3.4-.9.6-1.7.5l-.5 1.3h.4c.9 0 1.6.3 2 .8.2.2.3.5.3.8 0 .9-.8 1.4-2.4 1.4h-1c-.1-1.2-.1-2.9-.1-3.4l.1-3c.3-.2.6-.2.9-.2zm-2.9-.9c.1.9.1 3.1.1 4l-.1 4.4v.1h3.8c1.9 0 3.9-.6 3.9-2.3 0-1.1-.8-1.9-2.2-2.3 1-.3 1.7-1 1.7-1.9 0-1.4-1.6-1.9-3-2h-4.2zm16.4 0h-1.9l.1 2.1.1 3.2c-.1-.3-.2-.5-.8-1.3l-2.6-4h-2.2v.1c.1.9.1 3.1.1 4l-.1 4.4v.1h1.9V12l-.1-6.2c.1.2.2.5.5.9 0 .1 3.3 5 3.5 5.3h1.5v-.1c-.1-1.1-.1-3.6-.1-4.4.1-.8.1-3.1.1-4zm5.1 1c1.1 0 1.8.2 2.2.7.2.2.2.5.2.8 0 1.2-1.3 1.5-2.5 1.5h-.7V4.6c.3-.1.5-.1.8-.1zm-2.8-1c.1.9.1 3.1.1 4l-.1 4.4v.1h2.3v-.1c-.1-.8-.2-2.3-.2-3.5h.7c3 0 4.5-.8 4.5-2.6 0-2-2.1-2.4-3.8-2.5l-3.5.2zm14.5 1c1.1 0 1.8.2 2.2.7.2.2.2.5.2.8 0 1.2-1.3 1.5-2.5 1.5h-.7V4.7c.3-.2.6-.2.8-.2zm-2.8-1c.1.9.1 3.1.1 4l-.1 4.4v.1h2.3v-.1c-.1-.8-.1-2.3-.1-3.4h.7c3 0 4.5-.8 4.5-2.6 0-2-2.1-2.4-3.8-2.5l-3.6.1zm11 2.5c.2.4.7 1.5 1.2 2.9h-2.4l1.2-2.9zm-.5-2.5l-3.6 8.4-.1.1h2l.6-1.9h3.2c.4.9.6 1.6.7 1.9h2.3l-3.7-8.5h-1.4zm6.1 0c.1.9.1 3.1.1 4l-.1 4.4v.1h2.3v-.1c-.1-1.1-.1-3.6-.1-4.4l.1-3c.2 0 .4 0 .6-.1 1.1 0 1.8.2 2.2.7.2.2.3.5.3.8 0 1-.9 1.5-1.7 1.5h-.7l.1.2c.8 1.2 2 3.4 2.5 4.4h2.5l-.1-.1c-.1-.1-1.7-2.6-2.4-3.6v-.1c1.2-.4 1.9-1.1 1.9-2.2 0-2-2.1-2.4-3.8-2.5h-3.7zm11.2 0h-2.2v.1c.1.9.1 3.1.1 4l-.1 4.4v.1h2.3V12c-.1-1.1-.1-3.6-.1-4.4V3.5zm5.1.9c1.6 0 2.2.3 2.2 1.2 0 .2-.1.5-.2.6-.3.4-.9.6-1.7.5l-.5 1.3h.4c.9 0 1.6.3 2 .8.3.2.4.4.4.7 0 .9-.8 1.4-2.4 1.4h-1c-.1-1.2-.1-2.9-.1-3.4l.1-3c.2-.1.5-.1.8-.1zm-2.9-.9c.1.9.1 3.1.1 4l-.1 4.4v.1h3.8c1.9 0 3.9-.6 3.9-2.3 0-1.1-.8-1.9-2.2-2.3 1-.3 1.7-1 1.7-1.9 0-1.4-1.6-1.9-3-2h-4.2z"/><path d="M566.9 5.9c.2.4.6 1.5 1.2 2.9h-2.4l1.2-2.9zm1-2.4h-1.5l-3.6 8.3-.1.1h2l.6-1.9h3.2c.4.9.6 1.6.7 1.9h2.3l-3.6-8.4zm4.3 2.2c0 1.5 1.5 2.1 2.7 2.6 1 .4 2 .8 2 1.6 0 .2 0 .4-.2.5-.2.3-.7.4-1.5.4s-1.6-.3-2.6-.7l-.4-.2v1.8l.3.1h.2c.5.1 1.4.3 2.3.3 2.4 0 3.9-1 3.9-2.6 0-1.5-1.5-2.1-2.8-2.7-1-.4-2-.8-2-1.5 0-.2 0-.8 1.2-.8.9 0 1.8.4 2.3.6l.5.2V3.5l-.5-.1a10.61 10.61 0 0 0-2.1-.2c-1.9 0-3.3 1-3.3 2.5zm-72.3 10.7c-.4-.2-.9-.4-1.5-.4-1.9 0-2.5 1.5-2.5 2.8 0 1.8 1.1 2.7 2.5 2.7.9 0 1.6-.4 2.2-1v1.6c-.6.3-1.4.5-2.5.5-2.6 0-4.2-1.7-4.2-3.8 0-2.2 1.7-3.8 4.5-3.8.7 0 1.3.1 1.9.3l-.4 1.1zm6.4 3.3l-1-2.5-1.1 2.5h2.1zm-.2-4.7a185.12 185.12 0 0 0 3.2 7.3h-2c-.1-.3-.3-.9-.7-1.7h-2.8l-.6 1.7h-1.7l3.2-7.3h1.4zm7.6 0c1.5 0 3.3.4 3.3 2.1 0 1-.5 1.6-1.6 1.9l2.2 3.3h-2.1l-2.3-4c.1 0 .3.1.6.1.6 0 1.5-.5 1.5-1.3 0-1.1-1.2-1.3-1.9-1.3h-.8l-.1 2.6.1 3.9h-2c.1-1 .1-2.3.1-3.9l-.1-3.5h3.1v.1zm7.1.9l-.1 2.6v2.9h.5c1.7 0 2.6-.6 2.6-2.8s-.9-2.8-2.7-2.7h-.3zm.8-.9c3 0 4.2 1.6 4.2 3.7s-1.1 3.7-4.3 3.7h-2.7c.1-1 .1-2.3.1-3.8l-.1-3.5h2.8V15zm7.8 0c-.1.9-.1 2.8-.1 3.5l.1 3.8h-2c.1-1 .1-3.2.1-3.8l-.1-3.5h2zm7.6 0v1.1c-.6 0-2-.1-2.4-.1h-1.1v2.1h2.5v1.1l-2.5-.1.1 3.2h-2c.1-1 .1-3.2.1-3.8l-.1-3.5h5.4z"/></g></g><defs><clipPath id="A"><path fill="#fff" transform="translate(463)" d="M0 0h115.9v25.6H0z"/></clipPath></defs></svg>