<svg width="62" height="62" viewBox="0 0 62 62" fill="none" xmlns="http://www.w3.org/2000/svg">
<path d="M22.8037 55.7128H17.3673C17.3051 55.7128 17.2428 55.7128 17.2013 55.6921C17.1391 55.7128 17.0976 55.7128 17.0353 55.7128H11.4537C11.1632 55.7128 10.9349 55.4846 10.9349 55.1941C10.9142 50.1104 10.8934 42.7858 10.8727 36.6024H6.70199C6.55675 36.6024 6.43225 36.5401 6.3285 36.4571C6.1625 36.2911 6.1625 36.2911 6.18325 34.0294C6.204 32.8052 6.22475 31.1867 6.2455 29.5682C6.287 26.3313 6.34925 23.0943 6.34925 23.0943C6.34925 23.0528 6.34925 23.0321 6.34925 22.9906C6.55675 21.9116 7.15849 20.9364 7.98847 20.2516C8.52796 19.8159 9.08821 19.5254 9.6277 19.4009L13.3004 18.3427C13.4041 18.3012 13.4871 18.2182 13.5079 18.1144L13.6531 16.9317C12.7194 16.1224 12.0139 15.002 11.6197 13.7362C10.8727 13.4665 10.3539 12.6158 10.3539 11.5783C10.3539 10.4993 10.8934 9.62781 11.7234 9.39956C11.9932 9.31656 12.2837 9.48256 12.3667 9.7523C12.4497 10.022 12.2837 10.3125 12.0139 10.3955C11.7234 10.4785 11.4122 10.935 11.4122 11.5783C11.4122 12.2008 11.7234 12.7403 12.0969 12.7818C12.3044 12.8025 12.4912 12.9478 12.5534 13.176C12.8854 14.4625 13.5909 15.583 14.5454 16.3092C14.6906 16.4129 14.7529 16.5997 14.7321 16.7864L14.5661 18.2597C14.5039 18.7992 14.1304 19.2349 13.6116 19.3801L9.91819 20.4591C9.89744 20.4591 9.89744 20.4591 9.87669 20.4591C9.48245 20.5421 9.06746 20.7704 8.65246 21.1024C8.00922 21.6419 7.55273 22.3888 7.36598 23.1981C7.30373 27.5348 7.19999 33.8427 7.19999 35.6064H10.8727C10.8727 33.8012 10.8519 32.1412 10.8519 30.668L10.8312 24.9618C10.8312 24.8166 10.8934 24.6921 10.9764 24.5883C11.0802 24.4846 11.2047 24.4431 11.3499 24.4431C11.7234 24.4431 11.8272 24.6921 11.8479 24.9618H11.8687V25.1278C11.8687 25.1901 11.8687 25.2523 11.8687 25.3146C11.8687 25.5428 11.8687 25.854 11.8687 26.269C11.8687 27.099 11.8687 28.2818 11.8894 29.6927C11.8894 30.004 11.8894 30.3152 11.8894 30.6472L11.9102 36.1251C11.9102 36.1459 11.9102 36.1874 11.9102 36.2081C11.9102 37.4739 11.9102 38.7811 11.9309 40.0883C11.9517 46.4792 11.9724 52.8701 11.9724 54.6961H16.5166V36.2289C16.5166 36.0421 16.5996 35.8761 16.7656 35.7931C16.9108 35.6894 17.0976 35.6894 17.2636 35.7724C17.4918 35.8761 17.5333 36.0421 17.5541 36.2496C17.5541 36.3119 17.5541 36.3741 17.5541 36.4364C17.5541 36.5816 17.5541 36.7891 17.5748 37.0381C17.5956 37.5569 17.5956 38.3038 17.6163 39.1961C17.6578 40.9805 17.6786 43.346 17.7201 45.7322C17.7823 49.5502 17.8446 53.3681 17.8653 54.7168H22.2642C22.2642 52.8494 22.2227 46.2717 22.202 39.7563C22.1812 35.2536 22.1812 31.6639 22.1812 29.091C22.1812 24.0073 22.1812 24.0073 22.3887 23.8206C22.5755 23.6338 22.9282 23.6338 23.1357 23.8206C23.3432 24.0281 23.3432 24.0281 23.3017 30.2115C23.281 32.4317 23.2602 34.6519 23.2395 35.6271C24.3185 35.6271 26.0199 35.6271 26.8707 35.6271C26.8707 33.8427 26.7877 27.5763 26.7254 23.2188C26.5594 22.3888 26.1029 21.6419 25.4389 21.1231C25.024 20.7704 24.609 20.5629 24.2147 20.4799C24.194 20.4799 24.194 20.4799 24.1732 20.4799L20.4798 19.4009C20.3553 19.3594 20.2308 19.2971 20.1063 19.2349C19.7743 19.0067 19.5668 18.6747 19.5253 18.2804L19.3593 16.8072C19.3385 16.6204 19.4215 16.4544 19.546 16.3299C20.4798 15.6037 21.1853 14.4832 21.538 13.1967C21.6003 12.9893 21.7663 12.8233 21.9945 12.8025C22.368 12.761 22.6792 12.2215 22.6792 11.599C22.6792 10.935 22.368 10.4993 22.0775 10.4163C21.8078 10.3333 21.6418 10.0428 21.7248 9.77305C21.8078 9.50331 22.0982 9.33731 22.368 9.42031C23.1772 9.64856 23.7375 10.5408 23.7375 11.599C23.7375 12.6158 23.2187 13.4872 22.4717 13.757C22.0775 15.0435 21.372 16.1432 20.4383 16.9524L20.5628 18.1352C20.5628 18.2182 20.625 18.3012 20.6873 18.3427C20.708 18.3634 20.7288 18.3634 20.7703 18.3842L24.443 19.4424C25.0032 19.5669 25.5427 19.8574 26.0822 20.2931C26.9329 20.9986 27.5139 21.9739 27.7214 23.0321C27.7214 23.0736 27.7214 23.0943 27.7214 23.1358C27.7214 23.1358 27.7629 26.3728 27.8044 29.6097C27.8252 31.2282 27.8459 32.8467 27.8459 34.0709C27.8667 36.2911 27.8667 36.2911 27.7422 36.4571L27.7214 36.4779C27.5762 36.6439 27.5762 36.6439 26.6009 36.6439H23.1772C23.198 42.5575 23.2187 49.5709 23.2602 55.2148C23.2602 55.3601 23.198 55.4846 23.115 55.5883C23.032 55.6921 22.9282 55.7128 22.8037 55.7128Z" fill="#FB6330"/>
<path d="M11.8481 10.3956C11.5784 10.3956 11.3501 10.1881 11.3294 9.89758C11.3294 9.77308 11.2049 6.72288 13.0723 4.77241C14.0683 3.73493 15.417 3.21619 17.077 3.21619C18.7577 3.21619 20.1065 3.73493 21.0817 4.77241C22.9284 6.72288 22.8039 9.75233 22.8039 9.87683C22.7832 10.1673 22.5342 10.3748 22.2644 10.3748C21.9739 10.3541 21.7664 10.1258 21.7664 9.83533C21.7664 9.79383 21.8702 7.09637 20.3347 5.4779C19.5462 4.64791 18.4672 4.23292 17.077 4.23292C15.7075 4.23292 14.6078 4.64791 13.8193 5.4779C12.2631 7.09637 12.3668 9.81458 12.3668 9.83533C12.3876 10.1258 12.1593 10.3541 11.8689 10.3748C11.8689 10.3956 11.8481 10.3956 11.8481 10.3956Z" fill="#FB6330"/>
<path d="M19.5461 8.65258C19.2764 8.65258 19.0066 8.63183 18.7161 8.61108C17.6994 8.50734 16.8694 8.09234 16.0809 7.6981C15.8734 7.59435 15.6659 7.4906 15.4377 7.38685C14.6699 7.03411 14.0267 6.95111 13.5287 7.11711C13.176 7.24161 12.8647 7.51135 12.7195 7.80185C12.595 8.05084 12.2837 8.17534 12.0347 8.03009C11.7857 7.90559 11.6612 7.59435 11.8065 7.34535C12.0762 6.80586 12.5742 6.37012 13.1967 6.14187C13.9644 5.87213 14.8567 5.95513 15.8942 6.43237C16.1224 6.53612 16.3299 6.63986 16.5582 6.74361C17.3051 7.11711 18.0314 7.46985 18.8614 7.55285C19.9611 7.67735 20.8533 7.5321 21.7041 7.09636C21.9531 6.97186 22.2643 7.07561 22.4096 7.3246C22.5341 7.5736 22.4303 7.88485 22.1813 8.03009C21.3306 8.44509 20.4798 8.65258 19.5461 8.65258Z" fill="#FB6330"/>
<path d="M17.0769 22.7832C16.9316 22.7832 16.8071 22.7209 16.7034 22.6172L13.3004 19.0897C13.0929 18.8822 13.1137 18.5502 13.3212 18.3635C13.5287 18.156 13.8607 18.1767 14.0474 18.3842L17.4504 21.9117C17.6579 22.1192 17.6371 22.4512 17.4296 22.6379C17.3466 22.7209 17.2014 22.7832 17.0769 22.7832Z" fill="#FB6330"/>
<path d="M17.077 22.7831C16.9525 22.7831 16.8072 22.7416 16.7242 22.6379C16.5167 22.4304 16.5167 22.1191 16.7035 21.9116L20.1064 18.3842C20.3139 18.1767 20.6252 18.1767 20.8327 18.3634C21.0402 18.5709 21.0402 18.8822 20.8534 19.0897L17.4505 22.6171C17.3467 22.7209 17.2222 22.7831 17.077 22.7831Z" fill="#FB6330"/>
<path d="M17.0975 25.8955C17.056 25.8955 17.0145 25.8955 16.9523 25.8748C16.8485 25.854 16.7655 25.8125 16.6825 25.7295L12.4911 21.2476C12.3043 21.0401 12.3043 20.7081 12.5118 20.5214C12.7193 20.3346 13.0513 20.3346 13.2381 20.5421L17.056 24.6298L20.8947 20.5421C21.0814 20.3346 21.4134 20.3139 21.6209 20.5214C21.8284 20.7081 21.8492 21.0401 21.6417 21.2476L17.4503 25.7295C17.3673 25.854 17.222 25.8955 17.0975 25.8955Z" fill="#7949B8"/>
<path d="M57.5804 55.7129H31.7263C31.4358 55.7129 31.2075 55.4846 31.2075 55.1941V12.1593C31.2075 11.8688 31.4358 11.6406 31.7263 11.6406H57.6011C57.8916 11.6406 58.1199 11.8688 58.1199 12.1593V55.1941C58.0991 55.4639 57.8709 55.7129 57.5804 55.7129ZM32.245 54.6754H57.0616V12.678H32.245V54.6754Z" fill="#7949B8"/>
<path d="M44.8399 23.6339C43.9062 23.6339 43.1384 22.8662 43.1384 21.9324C43.1384 21.7457 43.2837 21.6004 43.4704 21.6004C43.6572 21.6004 43.8024 21.7457 43.8024 21.9324C43.8024 22.4927 44.2589 22.9492 44.8191 22.9492C45.3794 22.9492 45.8359 22.4927 45.8359 21.9324C45.8359 21.3722 45.3794 20.9157 44.8191 20.9157C43.8854 20.9157 43.1177 20.148 43.1177 19.2142C43.1177 18.2805 43.8854 17.5128 44.8191 17.5128C45.7529 17.5128 46.5206 18.2805 46.5206 19.2142C46.5206 19.401 46.3754 19.5462 46.1886 19.5462C46.0019 19.5462 45.8566 19.401 45.8566 19.2142C45.8566 18.654 45.4001 18.1975 44.8399 18.1975C44.2797 18.1975 43.8232 18.654 43.8232 19.2142C43.8232 19.7745 44.2797 20.231 44.8399 20.231C45.7736 20.231 46.5414 20.9987 46.5414 21.9324C46.5414 22.8662 45.7736 23.6339 44.8399 23.6339Z" fill="#FB6330"/>
<path d="M44.8398 24.3186C44.6531 24.3186 44.5078 24.1734 44.5078 23.9866V17.1392C44.5078 16.9525 44.6531 16.8072 44.8398 16.8072C45.0266 16.8072 45.1718 16.9525 45.1718 17.1392V23.9866C45.1718 24.1526 45.0266 24.3186 44.8398 24.3186Z" fill="#FB6330"/>
<path d="M55.0902 52.9947H34.548C34.2575 52.9947 34.0293 52.7664 34.0293 52.4759V36.3534C34.0293 36.0629 34.2575 35.8347 34.548 35.8347H55.0902C55.3807 35.8347 55.609 36.0629 55.609 36.3534V52.4759C55.609 52.7664 55.3807 52.9947 55.0902 52.9947ZM35.0875 51.9572H54.5922V36.8722H35.0875V51.9572Z" fill="#7949B8"/>
<path d="M43.8232 29.7343H37.6813C37.3908 29.7343 37.1626 29.506 37.1626 29.2155V27.0161C37.1626 26.7256 37.3908 26.4973 37.6813 26.4973H43.8232C44.1137 26.4973 44.342 26.7256 44.342 27.0161V29.2155C44.342 29.506 44.093 29.7343 43.8232 29.7343ZM38.1793 28.6968H43.2837V27.5348H38.1793V28.6968Z" fill="#FB6330"/>
<path d="M53.3058 28.9458H48.2844C47.9939 28.9458 47.7656 28.7175 47.7656 28.427C47.7656 28.1365 47.9939 27.9083 48.2844 27.9083H53.3058C53.5963 27.9083 53.8245 28.1365 53.8245 28.427C53.8245 28.7175 53.5963 28.9458 53.3058 28.9458Z" fill="#7949B8"/>
<path d="M53.2017 25.8126H36.8303C36.5398 25.8126 36.3115 25.5843 36.3115 25.2938V15.7697C36.3115 15.4792 36.5398 15.251 36.8303 15.251H53.2017C53.4922 15.251 53.7205 15.4792 53.7205 15.7697V25.3146C53.7205 25.5843 53.4922 25.8126 53.2017 25.8126ZM37.349 24.7751H52.683V16.2677H37.349V24.7751Z" fill="#7949B8"/>
<path d="M54.6545 32.8675C54.364 32.8675 54.1358 32.6392 54.1358 32.3487V14.67H35.5648V31.83H47.1639C47.4544 31.83 47.6826 32.0582 47.6826 32.3487C47.6826 32.6392 47.4544 32.8675 47.1639 32.8675H35.0461C34.7556 32.8675 34.5273 32.6392 34.5273 32.3487V14.1513C34.5273 13.8608 34.7556 13.6325 35.0461 13.6325H54.6545C54.945 13.6325 55.1733 13.8608 55.1733 14.1513V32.3487C55.1733 32.6185 54.945 32.8675 54.6545 32.8675Z" fill="#7949B8"/>
<path d="M52.7041 35.1707H48.8654C48.5749 35.1707 48.3467 34.9424 48.3467 34.6519V28.842C48.3467 28.5515 48.5749 28.3233 48.8654 28.3233H52.7041C52.9946 28.3233 53.2229 28.5515 53.2229 28.842V34.6519C53.2229 34.9424 52.9946 35.1707 52.7041 35.1707ZM49.3842 34.1332H52.1854V29.3608H49.3842V34.1332Z" fill="#FB6330"/>
<path d="M51.3552 35.1707C51.0647 35.1707 50.8364 34.9424 50.8364 34.6519V28.842C50.8364 28.5515 51.0647 28.3233 51.3552 28.3233C51.6457 28.3233 51.8739 28.5515 51.8739 28.842V34.6519C51.8739 34.9424 51.6457 35.1707 51.3552 35.1707Z" fill="#FB6330"/>
</svg>
