<svg width="60" height="59" viewBox="0 0 60 59" fill="none" xmlns="http://www.w3.org/2000/svg">
<path d="M36.4057 49.8183H13.474C11.8073 49.8183 10.4619 48.4953 10.4619 46.8564V46.8169L12.4699 15.678C12.49 14.0589 13.8354 12.7359 15.482 12.7359H42.6908C44.3374 12.7359 45.7029 14.0589 45.7029 15.678L46.7872 39.8862L45.5824 39.9455L44.4981 15.6978C44.4981 14.7105 43.6948 13.9207 42.6908 13.9207H15.482C14.478 13.9207 13.6748 14.7105 13.6748 15.6978V15.7373L11.6667 46.8762C11.6667 47.8437 12.49 48.6335 13.474 48.6335H36.4057V49.8183Z" fill="#138468"/>
<path d="M38.2327 18.5017H37.0279V12.657C37.0279 8.21419 33.3532 4.60074 28.8351 4.60074C24.317 4.60074 20.6423 8.21419 20.6423 12.657V18.5017H19.4375V12.657C19.4375 7.56259 23.6544 3.416 28.8351 3.416C34.0158 3.416 38.2327 7.56259 38.2327 12.657V18.5017Z" fill="#138468"/>
<path d="M37.6306 23.754C36.0041 23.754 34.6587 22.4508 34.6587 20.8317C34.6587 19.2323 35.984 17.9093 37.6306 17.9093C39.2772 17.9093 40.6025 19.2125 40.6025 20.8317C40.5824 22.4311 39.2571 23.754 37.6306 23.754ZM37.6306 19.094C36.6667 19.094 35.8635 19.8641 35.8635 20.8317C35.8635 21.7992 36.6466 22.5693 37.6306 22.5693C38.6145 22.5693 39.3977 21.7992 39.3977 20.8317C39.3977 19.8641 38.5944 19.094 37.6306 19.094Z" fill="#EC111A"/>
<path d="M20.0403 23.754C18.4137 23.754 17.0684 22.4508 17.0684 20.8317C17.0684 19.2323 18.3937 17.9093 20.0403 17.9093C21.6868 17.9093 23.0121 19.2125 23.0121 20.8317C22.9921 22.4311 21.6668 23.754 20.0403 23.754ZM20.0403 19.094C19.0764 19.094 18.2732 19.8641 18.2732 20.8317C18.2732 21.7992 19.0563 22.5693 20.0403 22.5693C21.0242 22.5693 21.8073 21.7992 21.8073 20.8317C21.8073 19.8641 21.0041 19.094 20.0403 19.094Z" fill="#EC111A"/>
<path d="M42.4299 55.4063L41.0444 54.8337C37.5303 53.3528 35.2612 49.9565 35.2612 46.2048V40.3206L42.4299 38.1683L49.5785 40.3206L49.7592 45.8494C49.8797 49.7393 47.6106 53.2343 43.9761 54.7744L42.4299 55.4063ZM36.466 41.1894V46.2048C36.466 49.4826 38.454 52.4445 41.5263 53.7477L42.4299 54.1228L43.4942 53.6687C46.6668 52.326 48.6548 49.2654 48.5544 45.8691L48.4138 41.1894L42.4299 39.3926L36.466 41.1894Z" fill="#EC111A"/>
</svg>
