<svg width="46" height="39" viewBox="0 0 46 39" fill="none" xmlns="http://www.w3.org/2000/svg">
<path d="M22.7055 38.9801C19.2399 38.9801 16.4316 36.1718 16.4316 32.7062C16.4316 29.2407 19.2399 26.4324 22.7055 26.4324C26.1711 26.4324 28.9794 29.2407 28.9794 32.7062C28.9794 36.1718 26.1511 38.9801 22.7055 38.9801ZM22.7055 28.9021C20.5943 28.9021 18.8814 30.6149 18.8814 32.7261C18.8814 34.8374 20.5943 36.5502 22.7055 36.5502C24.8167 36.5502 26.5296 34.8374 26.5296 32.7261C26.5096 30.6149 24.7968 28.9021 22.7055 28.9021Z" fill="#EC111A"/>
<path d="M22.5261 38.9602C16.5311 38.9602 9.46058 34.4788 4.70041 27.0498C1.67303 22.3494 0 17.1311 0 12.3909C0 7.47138 1.77261 3.62739 4.99917 1.55603C8.22572 -0.515343 12.468 -0.515344 16.9295 1.53611C21.2315 3.52781 25.2747 7.21246 28.3021 11.9328C34.6357 21.8315 34.5162 33.2639 28.0033 37.4465C26.39 38.4822 24.5178 38.9602 22.5261 38.9602ZM10.5361 2.15354C8.9029 2.15354 7.42904 2.55188 6.17427 3.36847C3.58506 5.02158 2.17095 8.22822 2.17095 12.3909C2.17095 16.7129 3.72448 21.5129 6.53278 25.8946C10.8946 32.6863 17.2481 36.829 22.4465 36.829C24.0597 36.829 25.5535 36.4307 26.8481 35.6141C32.3452 32.0888 32.1859 21.9909 26.4896 13.088C23.6813 8.70623 19.9768 5.30042 16.0332 3.48797C14.1012 2.61163 12.249 2.15354 10.5361 2.15354Z" fill="#138468"/>
<path d="M40.1924 1.55603C36.9658 -0.515343 32.7235 -0.515344 28.2621 1.53611C26.6687 2.27304 25.1152 3.24897 23.6413 4.42407C24.1194 4.86225 24.5575 5.32034 24.9758 5.79835C25.0355 5.8581 25.1152 5.91785 25.175 5.9776C26.4696 4.98175 27.804 4.14524 29.1783 3.50789C31.1102 2.61163 32.9625 2.17345 34.6754 2.17345C36.3086 2.17345 37.7824 2.57179 39.0372 3.38839C41.6264 5.0415 43.0405 8.24814 43.0405 12.4108C43.0405 16.7328 41.487 21.5328 38.6787 25.9145C35.8704 30.2963 32.1658 33.7021 28.2223 35.5145C24.4579 37.2473 20.9526 37.2871 18.3633 35.634C15.7741 33.9809 14.36 30.7743 14.36 26.6116C14.36 22.2896 15.9135 17.4896 18.7218 13.1079C19.6579 11.6539 20.6936 10.3394 21.809 9.12449C21.2712 8.64648 20.7135 8.16847 20.1559 7.71038C18.9808 9.00499 17.8853 10.3992 16.9094 11.9328C13.882 16.6531 12.209 21.8714 12.209 26.6116C12.209 31.5311 13.9816 35.3751 17.2082 37.4465C18.8214 38.4822 20.7135 39 22.7252 39C24.7368 39 26.9077 38.4822 29.1384 37.4664C33.4405 35.4747 37.4837 31.79 40.5111 27.0697C43.5384 22.3494 45.2115 17.1311 45.2115 12.3909C45.2115 7.47138 43.4389 3.62739 40.1924 1.55603Z" fill="#138468"/>
</svg>
