<svg width="36" height="36" viewBox="0 0 36 36" fill="none" xmlns="http://www.w3.org/2000/svg">
<path fill-rule="evenodd" clip-rule="evenodd" d="M23.2917 19.7083H19.7083V23.2917C19.7083 24.2771 18.9021 25.0833 17.9167 25.0833C16.9312 25.0833 16.125 24.2771 16.125 23.2917V19.7083H12.5417C11.5562 19.7083 10.75 18.9021 10.75 17.9167C10.75 16.9312 11.5562 16.125 12.5417 16.125H16.125V12.5417C16.125 11.5562 16.9312 10.75 17.9167 10.75C18.9021 10.75 19.7083 11.5562 19.7083 12.5417V16.125H23.2917C24.2771 16.125 25.0833 16.9312 25.0833 17.9167C25.0833 18.9021 24.2771 19.7083 23.2917 19.7083ZM17.9167 0C8.03742 0 0 8.03742 0 17.9167C0 27.7959 8.03742 35.8333 17.9167 35.8333C27.7959 35.8333 35.8333 27.7959 35.8333 17.9167C35.8333 8.03742 27.7959 0 17.9167 0Z" fill="#EC111A"/>
</svg>
