<svg width="62" height="64" viewBox="0 0 62 64" fill="none" xmlns="http://www.w3.org/2000/svg">
<path d="M37.4943 20.0696C34.6516 20.0696 32.3691 17.6921 32.3691 14.7791C32.3691 11.8661 34.6724 9.48863 37.4943 9.48863C40.3163 9.48863 42.6195 11.8661 42.6195 14.7791C42.5987 17.6921 40.3163 20.0696 37.4943 20.0696ZM37.4943 10.5596C35.2326 10.5596 33.4066 12.4445 33.4066 14.7791C33.4066 17.1138 35.2326 18.9987 37.4943 18.9987C39.756 18.9987 41.582 17.1138 41.582 14.7791C41.5612 12.4659 39.7353 10.5596 37.4943 10.5596Z" fill="#FFD42F"/>
<path d="M15.1263 48.4712H7.69794C7.40745 48.4712 7.1792 48.2356 7.1792 47.9357V37.419C7.1792 37.2691 7.24145 37.1406 7.32445 37.0335L22.534 21.3333C22.202 20.1767 22.0567 18.9987 22.0567 17.7992C22.0567 10.7738 27.5969 5.05489 34.4028 5.05489C35.793 5.05489 37.1417 5.29049 38.4489 5.76171C38.4697 5.76171 38.4697 5.78313 38.4904 5.78313L40.5239 6.74699C40.5447 6.74699 40.5447 6.76841 40.5654 6.76841C44.3834 9.03882 46.7488 13.2798 46.7488 17.8206C46.7488 24.846 41.2087 30.5649 34.4028 30.5649C33.22 30.5649 32.0788 30.3936 30.9376 30.0509L27.5761 33.6278V37.8688C27.5761 38.1687 27.3479 38.4043 27.0574 38.4043L22.202 38.49L22.119 42.7309C22.119 43.0308 21.8907 43.245 21.6002 43.245H17.554L15.6036 48.1499C15.5206 48.3427 15.3338 48.4712 15.1263 48.4712ZM8.21668 47.4003H14.7943L16.7448 42.4953C16.8278 42.3025 17.0145 42.1526 17.222 42.1526H21.123L21.206 37.9331C21.206 37.6546 21.4342 37.419 21.7247 37.419L26.5594 37.3333V33.4137C26.5594 33.2851 26.6216 33.1352 26.7046 33.0495L30.3981 29.1084C30.5226 28.9371 30.7508 28.8728 30.9583 28.9371C32.0788 29.3012 33.2408 29.494 34.4028 29.494C40.6277 29.494 45.7113 24.2677 45.7113 17.8206C45.7113 13.6653 43.5534 9.78849 40.0674 7.71084L38.0755 6.76841C36.8927 6.34003 35.6685 6.14726 34.4028 6.14726C28.1779 6.14726 23.0942 11.3735 23.0942 17.8206C23.0942 19.0201 23.2809 20.2195 23.6337 21.3548C23.6959 21.5689 23.6337 21.7831 23.4677 21.9331L8.23743 37.6546V47.4003H8.21668Z" fill="#FFD42F"/>
<path d="M10.8314 40.4605C10.7069 40.4605 10.5616 40.4177 10.4579 40.3106C10.2504 40.0964 10.2504 39.7537 10.4579 39.5609L23.1152 26.5382C23.3227 26.324 23.6547 26.324 23.8414 26.5382C24.0489 26.7524 24.0489 27.0951 23.8414 27.2878L11.1841 40.3106C11.1011 40.4177 10.9766 40.4605 10.8314 40.4605Z" fill="#009DD6"/>
<path d="M11.765 42.5167C11.6405 42.5167 11.4952 42.4739 11.3915 42.3668C11.184 42.1526 11.184 41.8099 11.3915 41.6171L19.2141 33.5636C19.4216 33.3494 19.7536 33.3494 19.9403 33.5636C20.1478 33.7778 20.1478 34.1205 19.9403 34.3133L12.1177 42.3668C12.0347 42.4739 11.9102 42.5167 11.765 42.5167Z" fill="#009DD6"/>
<path d="M45.4417 52.7336C45.2135 52.7336 44.9852 52.5623 44.9437 52.3266L41.0013 34.3347C40.939 34.0562 41.105 33.7564 41.3955 33.6921C41.6653 33.6279 41.9558 33.7992 42.018 34.0991L45.9605 52.091C46.0227 52.3695 45.8567 52.6693 45.5662 52.7336C45.5247 52.7336 45.4832 52.7336 45.4417 52.7336Z" fill="#009DD6"/>
<path d="M47.6203 53.012C47.3921 53.012 47.1639 52.8407 47.1224 52.5837L44.6946 41.4458C44.6324 41.1673 44.7984 40.8675 45.0889 40.8032C45.3794 40.739 45.6491 40.9103 45.7114 41.2102L48.1391 52.3481C48.2013 52.6265 48.0353 52.9264 47.7448 52.9906C47.7033 53.012 47.6618 53.012 47.6203 53.012Z" fill="#009DD6"/>
<path d="M39.9428 18.0134C39.839 18.0134 39.7145 17.9706 39.6315 17.9063C37.7848 16.4498 36.6436 14.0937 36.6436 11.8019C36.6436 7.64659 39.922 4.26239 43.9474 4.26239C47.9729 4.26239 51.2513 7.64659 51.2513 11.8019C51.2513 11.909 51.2513 13.1084 51.2306 13.3441C51.2098 13.6439 50.9608 13.8581 50.6703 13.8367C50.3798 13.8153 50.1723 13.5582 50.1931 13.2584C50.2138 13.1084 50.2138 12.0589 50.2138 11.8019C50.2138 8.24633 47.4126 5.33334 43.9474 5.33334C40.4822 5.33334 37.681 8.22491 37.681 11.7805C37.681 13.751 38.677 15.7858 40.254 17.0495C40.4822 17.2209 40.5237 17.5636 40.3577 17.7992C40.254 17.9277 40.088 18.0134 39.9428 18.0134Z" fill="#009DD6"/>
<path d="M50.3387 59.7376C50.235 59.7376 50.152 59.7162 50.069 59.6519L41.4578 54.0616C41.3333 53.9759 41.2503 53.8688 41.2296 53.7189L36.4572 32.0643C35.3367 31.743 34.2785 31.2503 33.3032 30.6078C33.0542 30.4578 32.992 30.1151 33.1372 29.8795C33.2825 29.6225 33.6145 29.5582 33.8427 29.7082C34.8387 30.3507 35.8969 30.822 37.0174 31.1218C37.2249 31.1861 37.3702 31.3574 37.3909 31.5716L42.1633 53.2691L50.1727 58.4739L53.6794 52.7336L50.6915 48.407C50.567 48.2356 50.567 48 50.6707 47.8072L52.7457 44.4016L49.322 42.0884C49.0937 41.9384 49.0107 41.6171 49.156 41.3601L51.6667 37.0763L48.4505 34.9772C48.3467 34.913 48.2637 34.7845 48.2222 34.656L46.9565 29.3226C46.8943 29.1084 46.9565 28.8942 47.1225 28.7443C48.0147 27.9732 48.7825 27.0522 49.4257 26.0241C51.0442 23.3896 51.5422 20.2624 50.8782 17.2209C50.2142 14.1794 48.4297 11.5877 45.8775 9.93842C44.2383 8.88889 42.7858 8.33199 41.1259 8.18206C40.8354 8.16064 40.6279 7.90361 40.6486 7.60375C40.6694 7.30388 40.9184 7.08969 41.2089 7.11111C43.0348 7.28246 44.6325 7.86077 46.417 9.0174C49.1975 10.838 51.1479 13.6653 51.8742 16.9853C52.6004 20.3052 52.0402 23.7108 50.2765 26.6024C49.654 27.6305 48.8862 28.5515 48.0147 29.344L49.156 34.1847L52.6212 36.4337C52.8702 36.5837 52.9324 36.905 52.7872 37.162L50.2765 41.4458L53.7002 43.7805C53.9284 43.9304 54.0114 44.2731 53.8454 44.5087L51.6874 48.0643L54.6754 52.3909C54.7999 52.5623 54.7999 52.7979 54.6961 52.9906L50.733 59.4806C50.65 59.6091 50.5462 59.6948 50.401 59.7162C50.4217 59.7376 50.3802 59.7376 50.3387 59.7376Z" fill="#FFD42F"/>
</svg>
