<svg width="71" height="82" viewBox="0 0 71 82" fill="none" xmlns="http://www.w3.org/2000/svg">
<path d="M65.2101 10.3911C55.9839 11.1063 44.2105 5.83426 37.6884 2.04377C36.6313 1.42945 35.3152 1.47515 34.2962 2.15064C23.1368 9.54778 11.2852 11.3948 4.40461 11.3924C2.60461 11.3918 1.0267 12.7958 1.0267 14.5958V19.8117C0.0235134 63.9522 27.575 77.6654 34.753 80.6102C35.5247 80.9268 36.4061 80.8657 37.1457 80.4798C71.9555 62.3181 70.0828 28.9957 69.4134 13.7593C69.3235 11.7136 67.2516 10.2329 65.2101 10.3911Z" stroke="#FB6630" stroke-width="2"/>
<path d="M32.6569 16.0254C32.6562 16.0254 32.6562 16.0254 32.6562 16.0254C30.8548 17.4276 25.5837 20.7131 15.5693 20.9382C14.0558 20.9721 12.8243 22.233 12.8243 23.7491V33.7763C12.8243 40.3377 14.6302 46.7628 18.0462 52.3569C18.3871 52.916 18.7467 53.4604 19.1164 53.9978C19.1516 54.0566 19.1912 54.1135 19.2335 54.1679C22.5605 58.9381 27.0045 62.823 32.1995 65.4726C32.385 65.5673 32.5724 65.662 32.7611 65.756C33.3285 66.0394 33.951 66.1814 34.5727 66.1814C35.1952 66.1814 35.8176 66.0394 36.3844 65.756C36.5737 65.662 36.7611 65.5673 36.9473 65.472C42.1909 62.7981 46.6694 58.8633 50.0073 54.0304C50.054 53.9702 50.0975 53.9082 50.1353 53.8429C50.4673 53.3555 50.7916 52.8623 51.1006 52.3569C54.5166 46.7621 56.3218 40.3377 56.3218 33.7763V23.7491C56.3218 22.233 55.0904 20.9721 53.5775 20.9382C43.5624 20.7131 38.2913 17.4276 36.4899 16.0254C35.3615 15.1471 33.7853 15.1471 32.6569 16.0254ZM35.4466 62.5294C35.2687 62.6202 35.0896 62.7104 34.9079 62.8013C34.6981 62.9062 34.448 62.9062 34.2375 62.8013C34.0565 62.7104 33.8768 62.6196 33.6996 62.5294C29.134 60.2015 25.2978 56.8994 22.3852 52.9448C22.7607 52.046 23.2699 51.0628 23.7772 50.2766C24.9549 48.4484 26.9565 47.3571 29.1315 47.3571H33.3017V51.2579C33.3017 52.1701 34.0412 52.9096 34.9534 52.9096C35.8649 52.9096 36.6044 52.1701 36.6044 51.2579V47.3571H40.2162C42.3911 47.3571 44.3927 48.4484 45.571 50.2766C46.0297 50.9886 46.5005 51.9629 46.8549 52.8143C43.9315 56.8265 40.0613 60.1759 35.4466 62.5294ZM34.9969 30.906C35.0954 30.906 35.1926 30.9111 35.2886 30.9181C35.3097 30.9194 35.3308 30.9207 35.3513 30.9226C35.4485 30.9316 35.5457 30.9431 35.641 30.9584C35.6481 30.9597 35.6545 30.961 35.6609 30.9616C37.1462 31.2105 38.3719 32.2717 38.8536 33.6708C37.1443 33.5166 35.5246 34.1397 33.8205 34.7953C33.507 34.9156 33.1859 35.0391 32.8571 35.1606C32.7323 35.2067 32.108 35.3787 30.4243 35.0371V34.9873C30.4243 32.7368 32.2545 30.906 34.5049 30.906H34.9917H34.9969ZM32.1528 38.5465C32.868 38.5465 33.4814 38.4506 33.9996 38.2599C34.3437 38.1333 34.6789 38.0041 35.0065 37.878C36.5443 37.2863 37.8723 36.7758 38.8798 37.0132C38.9438 37.0279 39.0084 37.0394 39.0737 37.049V39.9794C39.0737 42.1499 37.3708 43.9296 35.231 44.0537H34.2657C32.1259 43.9296 30.423 42.1499 30.423 39.9794V38.3936C31.0557 38.4953 31.6314 38.5465 32.1528 38.5465ZM53.019 33.7763C53.019 39.4242 51.5765 44.8168 48.9544 49.5295C48.7599 49.1642 48.5559 48.8105 48.348 48.4868C46.7231 45.9664 44.0678 44.3684 41.1207 44.0959C41.9139 42.9188 42.377 41.5019 42.377 39.9794V34.9879C42.377 34.9565 42.3751 34.9258 42.3751 34.8945C42.3751 34.8868 42.3758 34.8791 42.3758 34.8715C42.3758 34.8356 42.3726 34.8005 42.3719 34.7646C42.3694 34.6898 42.3668 34.6149 42.3623 34.5401C42.3598 34.494 42.3553 34.448 42.3521 34.4019C42.3457 34.3213 42.3387 34.2407 42.3297 34.1614C42.3259 34.1262 42.3208 34.0917 42.3163 34.0571C42.3048 33.965 42.2926 33.8735 42.2773 33.7827C42.2747 33.7648 42.2709 33.7462 42.2677 33.7277C41.6887 30.3744 38.8427 27.7875 35.3692 27.6122C35.2451 27.6058 35.1197 27.6026 34.9943 27.6026H34.5056C30.4333 27.6026 27.1203 30.9156 27.1203 34.9879V39.9794C27.1203 41.4974 27.5809 42.9099 28.3696 44.0844C25.3662 44.3185 22.6514 45.9261 21.0009 48.4868C20.7579 48.8642 20.518 49.2762 20.287 49.7003C17.6042 44.9473 16.1277 39.4926 16.1277 33.7763V24.2269C26.6296 23.8892 32.4458 20.342 34.5734 18.7185C36.701 20.342 42.5171 23.8892 53.019 24.2269V33.7763Z" fill="#FFD42F"/>
<path d="M36.4325 57.081C36.0903 56.2353 35.1282 55.8272 34.2819 56.1681C33.4362 56.5097 33.0274 57.4725 33.369 58.3182L33.3889 58.3674C33.6486 59.0103 34.2672 59.4005 34.9209 59.4005C35.1269 59.4005 35.3361 59.3615 35.5389 59.2803C36.3846 58.938 36.7933 57.9759 36.4517 57.1296L36.4325 57.081Z" fill="#7849B8"/>
<path d="M36.4154 47.223H32.3728C31.9521 49.3729 31.9987 53.6727 34.5225 53.6727C37.0463 53.6727 36.836 49.3729 36.4154 47.223Z" fill="#7849B8"/>
</svg>
