<svg width="62" height="62" viewBox="0 0 62 62" fill="none" xmlns="http://www.w3.org/2000/svg">
<path d="M12.2836 12.2216C11.9309 12.2216 11.6611 12.4913 11.6611 12.844V16.5167C11.6611 16.8695 11.9309 17.1392 12.2836 17.1392C12.6364 17.1392 12.9061 16.8695 12.9061 16.5167V12.844C12.9061 12.4913 12.6364 12.2216 12.2836 12.2216Z" fill="#FB6330"/>
<path d="M51.0649 17.1392C51.4176 17.1392 51.6874 16.8695 51.6874 16.5167V12.844C51.6874 12.4913 51.4176 12.2216 51.0649 12.2216C50.7121 12.2216 50.4424 12.4913 50.4424 12.844V16.5167C50.4424 16.8695 50.7121 17.1392 51.0649 17.1392Z" fill="#FB6330"/>
<path d="M43.3251 18.2805C42.9724 18.2805 42.7026 18.5502 42.7026 18.903V22.7624C42.7026 23.1151 42.9724 23.3849 43.3251 23.3849C43.6779 23.3849 43.9476 23.1151 43.9476 22.7624V18.903C43.9476 18.5502 43.6779 18.2805 43.3251 18.2805Z" fill="#FB6330"/>
<path d="M47.2675 18.2805C46.9148 18.2805 46.645 18.5502 46.645 18.903V22.7624C46.645 23.1151 46.9148 23.3849 47.2675 23.3849C47.6203 23.3849 47.89 23.1151 47.89 22.7624V18.903C47.89 18.5502 47.6203 18.2805 47.2675 18.2805Z" fill="#FB6330"/>
<path d="M51.2099 18.2805C50.8571 18.2805 50.5874 18.5502 50.5874 18.903V22.7624C50.5874 23.1151 50.8571 23.3849 51.2099 23.3849C51.5626 23.3849 51.8324 23.1151 51.8324 22.7624V18.903C51.8324 18.5502 51.5626 18.2805 51.2099 18.2805Z" fill="#FB6330"/>
<path d="M35.3364 28.0536C34.9836 28.0536 34.7139 28.3233 34.7139 28.676V32.8882C34.7139 33.241 34.9836 33.5107 35.3364 33.5107C35.6891 33.5107 35.9588 33.241 35.9588 32.8882V28.676C35.9588 28.3233 35.6891 28.0536 35.3364 28.0536Z" fill="#FB6330"/>
<path d="M54.8621 15.915H9.3166C9.2751 15.8943 9.21285 15.8943 9.17135 15.8943C9.12985 15.8943 9.0676 15.8943 9.0261 15.915H4.39893V21.5797C4.39893 22.5964 5.20816 23.4056 6.2249 23.4056H8.56961V27.3481C8.56961 28.5101 9.50334 29.4438 10.6653 29.4438L26.5596 29.3815L28.4063 34.4445C29.0495 36.1874 30.668 37.3079 32.494 37.3079C32.577 37.3079 32.6392 37.3079 32.7222 37.3079L39.2791 36.9759L42.4538 48.741L50.8989 48.99C52.6834 48.99 54.3434 48.16 55.4224 46.7283C56.5013 45.2965 56.8333 43.4706 56.3353 41.7276L52.9739 31.2283C52.6212 30.0455 53.2229 28.8213 54.3641 28.3441L56.2938 27.5763C57.3728 27.1406 58.0576 26.1446 58.0576 25.0034V19.1105C58.0576 17.3467 56.6258 15.915 54.8621 15.915ZM8.54886 22.1607H6.2249C5.91365 22.1607 5.64391 21.8909 5.64391 21.5797V17.16H8.54886V22.1607ZM32.6392 36.0629C31.2697 36.1252 30.0248 35.3159 29.5683 34.0295L27.8668 29.3815L36.1667 29.34H36.1874C36.7684 29.3193 37.3079 29.7135 37.4739 30.3153L38.9471 35.7517L32.6392 36.0629ZM56.8126 25.0034C56.8126 25.6258 56.4183 26.1861 55.8374 26.4143L53.9076 27.1821C52.1647 27.8876 51.2517 29.7758 51.7912 31.581L55.1526 42.0803C55.5469 43.4291 55.2771 44.84 54.4471 45.9813C53.5964 47.1018 52.3307 47.745 50.9404 47.745L43.4291 47.5375L41.5616 40.5864H44.674C45.0268 40.5864 45.2965 40.3166 45.2965 39.9639C45.2965 39.6111 45.0268 39.3414 44.674 39.3414H41.2296L40.5863 36.9552H43.6988C44.0515 36.9552 44.3213 36.6854 44.3213 36.3327C44.3213 35.9799 44.0515 35.7102 43.6988 35.7102H40.2336L39.6319 33.5107H42.4331C42.7858 33.5107 43.0556 33.241 43.0556 32.8882C43.0556 32.5355 42.7858 32.2657 42.4331 32.2657H39.2999L38.6774 29.9833C38.3661 28.842 37.3079 28.0328 36.1459 28.0951L27.1613 28.1366C27.0368 28.0951 26.8916 28.0951 26.7463 28.1366L10.6446 28.1988C10.1673 28.1988 9.79384 27.8253 9.79384 27.3481V23.3849H27.8668C28.2195 23.3849 28.4893 23.1151 28.4893 22.7624C28.4893 22.4097 28.2195 22.1399 27.8668 22.1399H9.79384V17.16H54.8621C55.9411 17.16 56.8126 18.0315 56.8126 19.1105V25.0034Z" fill="#7949B8"/>
</svg>
