<svg width="89" height="89" viewBox="0 0 89 89" fill="none" xmlns="http://www.w3.org/2000/svg">
<g clip-path="url(#clip0)">
<path d="M35.9705 0C31.0599 0 27.0649 3.99493 27.0649 8.9056C27.0649 13.8163 31.06 17.8112 35.9705 17.8112C40.8812 17.8112 44.8761 13.8163 44.8761 8.9056C44.8761 3.99493 40.8812 0 35.9705 0ZM35.9705 15.2036C32.4978 15.2036 29.6725 12.3783 29.6725 8.9056C29.6725 5.43285 32.498 2.60761 35.9705 2.60761C39.4433 2.60761 42.2685 5.43302 42.2685 8.9056C42.2685 12.3782 39.4433 15.2036 35.9705 15.2036Z" fill="#6680AD"/>
<path d="M69.3576 54.2822C68.8434 53.7784 68.0179 53.7861 67.5138 54.3003L56.5704 65.4609L52.7059 61.4175C52.2084 60.8967 51.383 60.8781 50.8624 61.3758C50.342 61.8733 50.3232 62.6985 50.8207 63.2192L55.6159 68.2363C56.1245 68.7687 56.9735 68.7743 57.4895 68.2483L69.3757 56.1262C69.8798 55.6116 69.8716 54.7863 69.3576 54.2822Z" fill="#FDC130"/>
<path d="M76.5513 62.9907C75.8456 62.8508 75.1588 63.309 75.0185 64.0154C73.5236 71.5375 68.2157 77.9645 61.1659 80.7889C60.4975 81.0566 60.1728 81.8155 60.4405 82.4841C60.7082 83.1526 61.4673 83.4771 62.1357 83.2094C70.2519 79.958 75.9424 72.7446 77.5759 64.5237C77.7165 63.8173 77.2574 63.131 76.5513 62.9907Z" fill="#6680AD"/>
<path d="M74.3133 42.8998C70.8256 44.8701 67.5358 44.9358 64.5349 43.0951C62.1492 41.632 60.8123 39.4889 60.759 39.4023C60.3197 38.6832 59.5694 38.2413 58.7338 38.201C56.3082 31.4097 52.2599 26.6923 49.2103 23.8838C47.2653 22.0926 44.7408 21.1063 42.1016 21.1063C40.834 21.1063 31.0742 21.1063 29.8402 21.1063C27.0224 21.1063 24.3404 22.1651 22.2884 24.0875C18.0633 28.0459 10.9688 36.6936 10.9273 50.1323C10.9184 52.95 13.1556 55.3042 15.9141 55.3801C18.7956 55.4645 21.1896 53.152 21.1896 50.251C21.1896 45.2075 22.6061 40.4597 25.3168 36.3302V84.4767C25.3168 86.9709 27.3461 89.0002 29.8404 89.0002H32.7515C34.01 89.0002 35.1503 88.4836 35.9711 87.6511C36.792 88.4836 37.9321 89.0002 39.1908 89.0002H42.1019C44.5962 89.0002 46.6255 86.9709 46.6255 84.4767V77.6033C49.0373 80.0263 51.909 81.9381 55.0821 83.2091C55.7509 83.477 56.5097 83.1517 56.7772 82.4837C57.0451 81.8153 56.7202 81.0564 56.0518 80.7885C47.6577 77.4255 41.7529 69.0881 41.7529 59.4552V45.2437C47.0313 48.1671 52.1421 47.4541 56.3173 43.5579C57.2751 42.678 58.0556 41.7468 58.5831 40.9193C58.5913 40.9068 58.6021 40.891 58.6092 40.8799C58.9836 41.4582 60.5479 43.7084 63.1724 45.3181C65.8115 46.9371 70.0784 48.2281 75.4657 45.2435V58.1852C75.4657 58.9054 76.0495 59.4889 76.7695 59.4889C77.4895 59.4889 78.0732 58.9054 78.0732 58.1852V45.0938C78.0727 43.1668 75.9942 41.9508 74.3133 42.8998ZM38.2632 23.7139L36.7021 25.5683C36.3198 26.0222 35.6221 26.0222 35.2397 25.5683L33.6783 23.7139H38.2632ZM46.6251 44.3102V36.6677C48.1272 39.0262 49.2037 41.5681 49.8409 44.2654C48.7959 44.4945 47.7258 44.5087 46.6251 44.3102ZM52.2916 43.3079C51.2444 39.1233 49.2365 35.2885 46.3089 31.8888C45.5206 30.9734 44.017 31.5359 44.017 32.7395V43.468C43.4553 43.2123 42.751 42.821 42.7317 42.812C41.0751 42.0324 39.1442 43.2389 39.1442 45.094V45.1389V59.4556C39.1442 64.9134 40.8319 70.1332 44.017 74.5383V84.477H44.0177C44.0177 85.5334 43.1583 86.3929 42.1017 86.3929H39.1906C38.1343 86.3929 37.2747 85.5337 37.2747 84.477V57.683C37.2747 56.9629 36.691 56.3793 35.971 56.3793C35.251 56.3793 34.6672 56.9629 34.6672 57.683V84.4768C34.6672 85.5332 33.8078 86.3928 32.7513 86.3928H29.8402C28.7838 86.3928 27.9243 85.5335 27.9243 84.4768V32.4832C27.9243 31.284 26.4344 30.7234 25.6428 31.6207C21.0233 36.8557 18.5817 43.2982 18.5817 50.2512C18.5817 51.6548 17.4354 52.8084 15.9857 52.7738C14.6298 52.7364 13.5302 51.5552 13.5347 50.1406C13.5733 37.6809 20.1525 29.6618 24.0712 25.9907C25.6382 24.5226 27.6868 23.7139 29.84 23.7139H30.2696L33.2448 27.2475C34.669 28.9396 37.2742 28.9373 38.6966 27.2475L41.6717 23.7139H42.1012C44.0844 23.7139 45.9816 24.4555 47.4437 25.8018C50.3318 28.4617 54.186 32.9637 56.4158 39.4672C55.4229 40.9654 53.9087 42.3951 52.2916 43.3079Z" fill="#6680AD"/>
</g>
<defs>
<clipPath id="clip0">
<rect width="89" height="89" fill="white"/>
</clipPath>
</defs>
</svg>
