<svg width="71" height="82" viewBox="0 0 71 82" fill="none" xmlns="http://www.w3.org/2000/svg">
<path d="M65.2101 10.3911C55.9839 11.1063 44.2105 5.8342 37.6884 2.04371C36.6313 1.42939 35.3152 1.47509 34.2962 2.15058C23.1368 9.54772 11.2852 11.3947 4.40461 11.3923C2.60461 11.3917 1.0267 12.7957 1.0267 14.5957V19.8117C0.0235134 63.9521 27.575 77.6653 34.753 80.6101C35.5247 80.9268 36.4061 80.8656 37.1457 80.4797C71.9555 62.3181 70.0828 28.9956 69.4134 13.7592C69.3235 11.7135 67.2516 10.2328 65.2101 10.3911Z" stroke="#6680AD" stroke-width="2"/>
<path d="M55.6019 23.0366C50.7646 23.0366 40.5526 21.0658 35.7153 17.1243C30.3406 23.0366 21.2034 23.0366 15.2912 23.0366C12.6038 49.3729 27.6532 64.4223 35.7153 64.4223C58.2893 56.8976 54.5269 30.5612 55.6019 23.0366Z" fill="#F2F6F8"/>
<path d="M34.9638 66.1812C34.3413 66.1812 33.7196 66.0392 33.1521 65.7558C32.9628 65.6611 32.7747 65.5665 32.5892 65.4718C30.2665 64.2871 28.0704 62.8414 26.0617 61.1749C23.5893 59.1228 21.4048 56.7399 19.5688 54.0935C19.2688 53.6604 19.1927 53.1097 19.3654 52.6113C19.8202 51.3006 20.5962 49.7199 21.3907 48.4866C23.1799 45.7103 26.2191 44.0535 29.5219 44.0535H34.5998C34.6279 44.0535 34.6561 44.0541 34.6842 44.0554C34.7539 44.0592 34.8243 44.0611 34.8953 44.0611H35.3821C35.4525 44.0611 35.5229 44.0592 35.5932 44.0554C35.6207 44.0541 35.6489 44.0535 35.677 44.0535H40.6065C43.9093 44.0535 46.9485 45.7103 48.7377 48.4866C49.5322 49.7193 50.264 51.3908 50.6491 52.4469C50.8314 52.9484 50.7611 53.5075 50.4591 53.9477C48.6961 56.5167 46.6011 58.8439 44.2323 60.8653C42.1239 62.6642 39.8037 64.2141 37.3377 65.4718C37.1522 65.5665 36.9641 65.6611 36.7747 65.7558C36.208 66.0392 35.5856 66.1812 34.9638 66.1812ZM22.7865 52.9165C24.3429 55.0358 26.1513 56.9561 28.1715 58.6328C29.9927 60.1444 31.9834 61.4551 34.0899 62.5292C34.2678 62.62 34.4469 62.7109 34.6279 62.8011C34.8384 62.906 35.0885 62.906 35.2983 62.8011C35.4794 62.7109 35.6591 62.62 35.8363 62.5298C38.0733 61.3892 40.1767 59.9838 42.0887 58.3526C44.0168 56.7073 45.7446 54.8388 47.2344 52.7879C46.8813 51.9428 46.415 50.9807 45.9608 50.2764C44.7831 48.4482 42.7815 47.3569 40.6065 47.3569H35.7167C35.606 47.362 35.4941 47.3645 35.3821 47.3645H34.8953C34.7834 47.3645 34.6714 47.362 34.5608 47.3569H29.5219C27.3475 47.3569 25.3459 48.4482 24.1676 50.2764C23.6667 51.0537 23.1614 52.0254 22.7865 52.9165Z" fill="#6680AD"/>
<path d="M32.6567 16.0253C32.6561 16.0253 32.6561 16.0253 32.6561 16.0253C30.8547 17.4275 25.5836 20.713 15.5692 20.9382C14.0556 20.9721 12.8242 22.2329 12.8242 23.749V33.7762C12.8242 40.3376 14.6301 46.7627 18.0461 52.3569C18.387 52.916 18.7465 53.4604 19.1163 53.9977C19.1515 54.0565 19.1911 54.1135 19.2333 54.1679C22.5604 58.9381 27.0044 62.8229 32.1994 65.4726C32.3849 65.5672 32.5723 65.6619 32.761 65.756C33.3284 66.0393 33.9508 66.1814 34.5726 66.1814C35.195 66.1814 35.8175 66.0393 36.3842 65.756C36.5736 65.6619 36.761 65.5672 36.9472 65.4719C42.1908 62.798 46.6693 58.8632 50.0072 54.0303C50.0539 53.9702 50.0974 53.9081 50.1352 53.8429C50.4672 53.3554 50.7915 52.8622 51.1005 52.3569C54.5164 46.7621 56.3217 40.3376 56.3217 33.7762V23.749C56.3217 22.2329 55.0903 20.9721 53.5774 20.9382C43.5623 20.713 38.2912 17.4275 36.4898 16.0253C35.3614 15.147 33.7852 15.147 32.6567 16.0253ZM35.4464 62.5293C35.2686 62.6202 35.0895 62.7104 34.9078 62.8012C34.698 62.9061 34.4479 62.9061 34.2374 62.8012C34.0564 62.7104 33.8766 62.6195 33.6994 62.5293C29.1339 60.2015 25.2977 56.8994 22.3851 52.9448C22.7606 52.046 23.2698 51.0628 23.7771 50.2766C24.9548 48.4483 26.9564 47.357 29.1314 47.357H33.3015V51.2579C33.3015 52.1701 34.041 52.9096 34.9532 52.9096C35.8648 52.9096 36.6043 52.1701 36.6043 51.2579V47.357H40.216C42.391 47.357 44.3926 48.4483 45.5709 50.2766C46.0296 50.9886 46.5004 51.9628 46.8548 52.8143C43.9314 56.8264 40.0612 60.1759 35.4464 62.5293ZM34.9967 30.9059C35.0953 30.9059 35.1925 30.911 35.2884 30.9181C35.3096 30.9194 35.3307 30.9206 35.3511 30.9226C35.4484 30.9315 35.5456 30.943 35.6409 30.9584C35.648 30.9597 35.6544 30.9609 35.6607 30.9616C37.1461 31.2104 38.3718 32.2717 38.8535 33.6707C37.1442 33.5165 35.5245 34.1396 33.8203 34.7953C33.5069 34.9155 33.1858 35.039 32.857 35.1605C32.7322 35.2066 32.1079 35.3787 30.4242 35.0371V34.9872C30.4242 32.7367 32.2544 30.9059 34.5048 30.9059H34.9916H34.9967ZM32.1527 38.5465C32.8678 38.5465 33.4813 38.4505 33.9995 38.2599C34.3436 38.1332 34.6788 38.004 35.0063 37.878C36.5442 37.2863 37.8722 36.7758 38.8797 37.0131C38.9437 37.0278 39.0083 37.0393 39.0735 37.0489V39.9794C39.0735 42.1499 37.3707 43.9295 35.2309 44.0536H34.2656C32.1258 43.9295 30.4229 42.1499 30.4229 39.9794V38.3936C31.0556 38.4953 31.6313 38.5465 32.1527 38.5465ZM53.0189 33.7762C53.0189 39.4241 51.5764 44.8168 48.9543 49.5294C48.7598 49.1641 48.5558 48.8104 48.3479 48.4867C46.723 45.9663 44.0676 44.3683 41.1206 44.0958C41.9138 42.9188 42.3769 41.5019 42.3769 39.9794V34.9878C42.3769 34.9565 42.375 34.9258 42.375 34.8944C42.375 34.8868 42.3756 34.8791 42.3756 34.8714C42.3756 34.8356 42.3724 34.8004 42.3718 34.7646C42.3692 34.6897 42.3667 34.6149 42.3622 34.54C42.3597 34.494 42.3552 34.4479 42.352 34.4019C42.3456 34.3213 42.3385 34.2407 42.3296 34.1613C42.3257 34.1262 42.3206 34.0916 42.3162 34.0571C42.3046 33.965 42.2925 33.8735 42.2771 33.7826C42.2746 33.7647 42.2707 33.7462 42.2675 33.7276C41.6886 30.3743 38.8426 27.7874 35.369 27.6121C35.2449 27.6057 35.1196 27.6025 34.9942 27.6025H34.5055C30.4331 27.6025 27.1202 30.9155 27.1202 34.9878V39.9794C27.1202 41.4974 27.5807 42.9098 28.3695 44.0843C25.3661 44.3184 22.6512 45.926 21.0008 48.4867C20.7577 48.8641 20.5178 49.2761 20.2869 49.7002C17.604 44.9473 16.1276 39.4926 16.1276 33.7762V24.2269C26.6295 23.8891 32.4456 20.342 34.5733 18.7184C36.7009 20.342 42.517 23.8891 53.0189 24.2269V33.7762Z" fill="#6680AD"/>
<path d="M36.4327 57.0809C36.0904 56.2353 35.1283 55.8271 34.282 56.1681C33.4363 56.5097 33.0276 57.4724 33.3692 58.3181L33.389 58.3674C33.6487 59.0103 34.2673 59.4005 34.9211 59.4005C35.127 59.4005 35.3362 59.3615 35.539 59.2802C36.3847 58.938 36.7935 57.9759 36.4519 57.1296L36.4327 57.0809Z" fill="#FDC130"/>
<path d="M36.4153 47.223H32.3727C31.952 49.3729 31.9986 53.6727 34.5224 53.6727C37.0462 53.6727 36.8359 49.3729 36.4153 47.223Z" fill="#FDC130"/>
</svg>
